M48
;Layer_Color=9474304
;FILE_FORMAT=2:4
INCH,LZ
;TYPE=PLATED
T1F00S00C0.0280
T2F00S00C0.0320
T3F00S00C0.0354
T4F00S00C0.0400
T5F00S00C0.0440
%
T01
X03655Y02
X03595Y02295
X0393Y02164
X04045Y02025
X0413Y02235
X0393Y02435
X0406Y02815
X03329Y02799
X03508Y03043
X0393Y01725
X02742Y02302
X02638Y02274
X02883Y0326
X03125Y03405
X03135Y03522
X03705Y03525
X036926Y037874
X0361Y03816
X035Y03845
X03548Y0373
X03901Y03442
X03645Y03166
T02
X047Y02525
X045
X04555Y02135
X04655
T03
X0323Y0284
Y0294
X04365Y0284
X04465
X0397Y0327
Y0337
T04
X04845Y0171
Y0181
Y0191
Y0201
Y0211
Y0221
Y0231
Y0241
Y0251
Y0261
Y0271
Y0281
Y0291
Y0301
Y0311
X04945
Y0301
Y0291
Y0281
Y0271
Y0261
Y0251
Y0241
Y0231
Y0221
Y0211
Y0201
Y0191
Y0181
Y0171
X05595Y0177
Y0187
Y0197
Y0207
Y0217
Y0227
Y0237
Y0247
Y0257
Y0267
X0559Y02865
Y02965
Y03065
X0509
Y02965
Y02865
X0471Y0311
X03905Y0301
X03805
X03705
X03605
X0341Y02995
Y03095
X03335Y0261
Y0251
Y0241
Y0231
Y0221
Y0211
Y0201
Y0191
X04215Y01885
Y01985
Y02085
Y02185
Y02285
Y02385
Y02485
Y02585
X03045Y0261
Y0271
Y0281
Y0291
Y0301
Y0311
X02945
Y0301
Y0291
Y0281
Y0271
Y0261
Y0251
X03045
Y0241
X02945
Y0231
X03045
Y0221
X02945
Y0211
X03045
Y0201
X02945
Y0191
X03045
Y0181
X02945
Y0171
X03045
X02805Y02515
Y02615
Y02715
Y02815
Y02915
Y03015
Y03115
X0269Y0286
Y0276
X02205Y02715
Y02815
Y02915
Y03015
Y03115
Y02615
Y02515
Y03215
Y03315
Y03415
Y03515
Y03615
X02255Y03715
X02355
X02455
X02555
X02655
X02755
X02805Y03615
Y03515
Y03415
Y03315
Y03215
X02945Y0321
Y0331
Y0341
Y0351
Y0361
Y0371
Y0381
Y0391
Y0401
X03045
Y0391
Y0381
Y0371
Y0361
Y0351
Y0341
Y0331
Y0321
X0269Y0317
Y0327
X02655Y03885
X02555
X02455
X02355
X02255
X02755
X0341Y03895
Y03795
Y03695
Y03595
Y03495
Y03395
Y03295
Y03195
X0437Y0331
Y0341
Y0351
Y0361
Y0371
Y0381
Y0391
Y0401
X0471
Y0391
Y0381
Y0371
Y0361
Y0351
Y0341
Y0331
Y0321
X04845
Y0331
Y0341
Y0351
Y0361
Y0371
Y0381
Y0391
Y0401
X04945
Y0391
Y0381
Y0371
Y0361
Y0351
Y0341
Y0331
Y0321
X0509Y03165
Y03265
X0559
Y03165
T05
X044421Y0181
X0458
M30
