%FSLAX24Y24*%
%MOIN*%
G70*
G01*
G75*
G04 Layer_Color=255*
%ADD10R,0.0440X0.0560*%
%ADD11R,0.0220X0.0480*%
%ADD12R,0.0560X0.0440*%
%ADD13R,0.0520X0.0600*%
%ADD14R,0.0120X0.0570*%
%ADD15R,0.0400X0.0100*%
%ADD16C,0.0100*%
%ADD17C,0.0320*%
%ADD18R,0.0010X0.1293*%
%ADD19R,0.0010X0.0010*%
%ADD20R,0.0010X0.0170*%
%ADD21R,0.0010X0.0164*%
%ADD22R,0.0010X0.0163*%
%ADD23R,0.0010X0.0009*%
%ADD24R,0.0013X0.0010*%
%ADD25R,0.0013X0.0170*%
%ADD26R,0.0013X0.0164*%
%ADD27R,0.0013X0.0163*%
%ADD28R,0.0013X0.0009*%
%ADD29R,0.0009X0.0010*%
%ADD30R,0.0009X0.0170*%
%ADD31R,0.0009X0.0164*%
%ADD32R,0.0009X0.0163*%
%ADD33R,0.0009X0.0009*%
%ADD34R,0.0009X0.1293*%
G04:AMPARAMS|DCode=35|XSize=70mil|YSize=70mil|CornerRadius=0mil|HoleSize=0mil|Usage=FLASHONLY|Rotation=180.000|XOffset=0mil|YOffset=0mil|HoleType=Round|Shape=Octagon|*
%AMOCTAGOND35*
4,1,8,-0.0350,0.0175,-0.0350,-0.0175,-0.0175,-0.0350,0.0175,-0.0350,0.0350,-0.0175,0.0350,0.0175,0.0175,0.0350,-0.0175,0.0350,-0.0350,0.0175,0.0*
%
%ADD35OCTAGOND35*%

%ADD36C,0.0700*%
%ADD37C,0.0750*%
G04:AMPARAMS|DCode=38|XSize=75mil|YSize=75mil|CornerRadius=0mil|HoleSize=0mil|Usage=FLASHONLY|Rotation=0.000|XOffset=0mil|YOffset=0mil|HoleType=Round|Shape=Octagon|*
%AMOCTAGOND38*
4,1,8,0.0375,-0.0188,0.0375,0.0188,0.0188,0.0375,-0.0188,0.0375,-0.0375,0.0188,-0.0375,-0.0188,-0.0188,-0.0375,0.0188,-0.0375,0.0375,-0.0188,0.0*
%
%ADD38OCTAGOND38*%

G04:AMPARAMS|DCode=39|XSize=60mil|YSize=60mil|CornerRadius=0mil|HoleSize=0mil|Usage=FLASHONLY|Rotation=90.000|XOffset=0mil|YOffset=0mil|HoleType=Round|Shape=Octagon|*
%AMOCTAGOND39*
4,1,8,0.0150,0.0300,-0.0150,0.0300,-0.0300,0.0150,-0.0300,-0.0150,-0.0150,-0.0300,0.0150,-0.0300,0.0300,-0.0150,0.0300,0.0150,0.0150,0.0300,0.0*
%
%ADD39OCTAGOND39*%

%ADD40C,0.0600*%
G04:AMPARAMS|DCode=41|XSize=76mil|YSize=76mil|CornerRadius=0mil|HoleSize=0mil|Usage=FLASHONLY|Rotation=0.000|XOffset=0mil|YOffset=0mil|HoleType=Round|Shape=Octagon|*
%AMOCTAGOND41*
4,1,8,0.0380,-0.0190,0.0380,0.0190,0.0190,0.0380,-0.0190,0.0380,-0.0380,0.0190,-0.0380,-0.0190,-0.0190,-0.0380,0.0190,-0.0380,0.0380,-0.0190,0.0*
%
%ADD41OCTAGOND41*%

G04:AMPARAMS|DCode=42|XSize=66mil|YSize=66mil|CornerRadius=0mil|HoleSize=0mil|Usage=FLASHONLY|Rotation=270.000|XOffset=0mil|YOffset=0mil|HoleType=Round|Shape=Octagon|*
%AMOCTAGOND42*
4,1,8,-0.0165,-0.0330,0.0165,-0.0330,0.0330,-0.0165,0.0330,0.0165,0.0165,0.0330,-0.0165,0.0330,-0.0330,0.0165,-0.0330,-0.0165,-0.0165,-0.0330,0.0*
%
%ADD42OCTAGOND42*%

%ADD43C,0.0740*%
%ADD44C,0.0670*%
%ADD45C,0.0591*%
%ADD46R,0.0591X0.0591*%
%ADD47R,0.0591X0.0591*%
%ADD48C,0.0500*%
%ADD49R,0.0390X0.0120*%
%ADD50C,0.0180*%
%ADD51C,0.0270*%
D10*
X32056Y31950D02*
D03*
X32850D02*
D03*
X32056Y33000D02*
D03*
X32850D02*
D03*
X32050Y33950D02*
D03*
X32844D02*
D03*
X32050Y34950D02*
D03*
X32844D02*
D03*
X32050Y35950D02*
D03*
X32844D02*
D03*
X32050Y36950D02*
D03*
X32844D02*
D03*
X32056Y37950D02*
D03*
X32850D02*
D03*
X32056Y38950D02*
D03*
X32850D02*
D03*
X25344Y33300D02*
D03*
X24550D02*
D03*
X25294Y30900D02*
D03*
X24500D02*
D03*
D11*
X36926Y37062D02*
D03*
X37300D02*
D03*
X37680D02*
D03*
Y36030D02*
D03*
X36926D02*
D03*
D12*
X34900Y24044D02*
D03*
Y23250D02*
D03*
D16*
X20950Y16300D02*
Y40750D01*
Y16300D02*
X57050D01*
Y40750D01*
X57050Y40750D02*
X57050Y40750D01*
X20950Y40750D02*
X57050D01*
D18*
X22975Y32143D02*
D03*
D19*
X22985Y32785D02*
D03*
X22995D02*
D03*
X23005D02*
D03*
X23015D02*
D03*
X23025D02*
D03*
X23035D02*
D03*
X23045D02*
D03*
X23055D02*
D03*
X23065D02*
D03*
X23075D02*
D03*
X23085D02*
D03*
X23095D02*
D03*
X23105D02*
D03*
X23115D02*
D03*
X23125D02*
D03*
X23135D02*
D03*
X23145D02*
D03*
X23155D02*
D03*
X23165D02*
D03*
X23175D02*
D03*
X23185D02*
D03*
X23195D02*
D03*
X23205D02*
D03*
D20*
X22985Y32615D02*
D03*
X22995D02*
D03*
X23005D02*
D03*
X23015D02*
D03*
X23025D02*
D03*
X23035D02*
D03*
X23045D02*
D03*
X23055D02*
D03*
X23065D02*
D03*
X23075D02*
D03*
X23085D02*
D03*
X23095D02*
D03*
X23105D02*
D03*
X23115D02*
D03*
X23125D02*
D03*
X23135D02*
D03*
X23145D02*
D03*
X23155D02*
D03*
X23165D02*
D03*
X23175D02*
D03*
X23185D02*
D03*
X23195D02*
D03*
X23205D02*
D03*
D21*
X22985Y32138D02*
D03*
X22995D02*
D03*
X23005D02*
D03*
X23015D02*
D03*
X23025D02*
D03*
X23035D02*
D03*
X23045D02*
D03*
X23055D02*
D03*
X23065D02*
D03*
X23075D02*
D03*
X23085D02*
D03*
X23095D02*
D03*
X23105D02*
D03*
X23115D02*
D03*
X23125D02*
D03*
X23135D02*
D03*
X23145D02*
D03*
X23155D02*
D03*
X23165D02*
D03*
X23175D02*
D03*
X23185D02*
D03*
X23195D02*
D03*
X23205D02*
D03*
D22*
X22985Y31665D02*
D03*
X22995D02*
D03*
X23005D02*
D03*
X23015D02*
D03*
X23025D02*
D03*
X23035D02*
D03*
X23045D02*
D03*
X23055D02*
D03*
X23065D02*
D03*
X23075D02*
D03*
X23085D02*
D03*
X23095D02*
D03*
X23105D02*
D03*
X23115D02*
D03*
X23125D02*
D03*
X23135D02*
D03*
X23145D02*
D03*
X23155D02*
D03*
X23165D02*
D03*
X23175D02*
D03*
X23185D02*
D03*
X23195D02*
D03*
X23205D02*
D03*
D23*
X22985Y31501D02*
D03*
X22995D02*
D03*
X23005D02*
D03*
X23015D02*
D03*
X23025D02*
D03*
X23035D02*
D03*
X23045D02*
D03*
X23055D02*
D03*
X23065D02*
D03*
X23075D02*
D03*
X23085D02*
D03*
X23095D02*
D03*
X23105D02*
D03*
X23115D02*
D03*
X23125D02*
D03*
X23135D02*
D03*
X23145D02*
D03*
X23155D02*
D03*
X23165D02*
D03*
X23175D02*
D03*
X23185D02*
D03*
X23195D02*
D03*
X23205D02*
D03*
D24*
X23216Y32785D02*
D03*
D25*
Y32615D02*
D03*
D26*
X23216Y32138D02*
D03*
D27*
X23216Y31665D02*
D03*
D28*
X23216Y31501D02*
D03*
D29*
X23227Y32785D02*
D03*
X23236D02*
D03*
X23244D02*
D03*
X23253D02*
D03*
X23262D02*
D03*
X23270D02*
D03*
X23279D02*
D03*
X23287D02*
D03*
X23296D02*
D03*
X23305D02*
D03*
X23313D02*
D03*
X23322D02*
D03*
X23330D02*
D03*
X23339D02*
D03*
X23348D02*
D03*
X23356D02*
D03*
X23365D02*
D03*
X23373D02*
D03*
X23382D02*
D03*
X23391D02*
D03*
X23399D02*
D03*
X23408D02*
D03*
X23416D02*
D03*
X23425D02*
D03*
X23434D02*
D03*
X23442D02*
D03*
X23451D02*
D03*
X23459D02*
D03*
D30*
X23227Y32615D02*
D03*
X23236D02*
D03*
X23244D02*
D03*
X23253D02*
D03*
X23262D02*
D03*
X23270D02*
D03*
X23279D02*
D03*
X23287D02*
D03*
X23296D02*
D03*
X23305D02*
D03*
X23313D02*
D03*
X23322D02*
D03*
X23330D02*
D03*
X23339D02*
D03*
X23348D02*
D03*
X23356D02*
D03*
X23365D02*
D03*
X23373D02*
D03*
X23382D02*
D03*
X23391D02*
D03*
X23399D02*
D03*
X23408D02*
D03*
X23416D02*
D03*
X23425D02*
D03*
X23434D02*
D03*
X23442D02*
D03*
X23451D02*
D03*
X23459D02*
D03*
D31*
X23227Y32138D02*
D03*
X23236D02*
D03*
X23244D02*
D03*
X23253D02*
D03*
X23262D02*
D03*
X23270D02*
D03*
X23279D02*
D03*
X23287D02*
D03*
X23296D02*
D03*
X23305D02*
D03*
X23313D02*
D03*
X23322D02*
D03*
X23330D02*
D03*
X23339D02*
D03*
X23348D02*
D03*
X23356D02*
D03*
X23365D02*
D03*
X23373D02*
D03*
X23382D02*
D03*
X23391D02*
D03*
X23399D02*
D03*
X23408D02*
D03*
X23416D02*
D03*
X23425D02*
D03*
X23434D02*
D03*
X23442D02*
D03*
X23451D02*
D03*
X23459D02*
D03*
D32*
X23227Y31665D02*
D03*
X23236D02*
D03*
X23244D02*
D03*
X23253D02*
D03*
X23262Y31665D02*
D03*
X23270D02*
D03*
X23279D02*
D03*
X23287D02*
D03*
X23296Y31665D02*
D03*
X23304D02*
D03*
X23313D02*
D03*
X23322D02*
D03*
X23330D02*
D03*
X23339D02*
D03*
X23347D02*
D03*
X23356D02*
D03*
X23365D02*
D03*
X23373Y31665D02*
D03*
X23382D02*
D03*
X23391D02*
D03*
X23399Y31665D02*
D03*
X23408D02*
D03*
X23416D02*
D03*
X23425D02*
D03*
X23433D02*
D03*
X23442D02*
D03*
X23451D02*
D03*
X23459D02*
D03*
D33*
X23227Y31501D02*
D03*
X23236D02*
D03*
X23244D02*
D03*
X23253D02*
D03*
X23262D02*
D03*
X23270D02*
D03*
X23279D02*
D03*
X23287D02*
D03*
X23296D02*
D03*
X23305D02*
D03*
X23313D02*
D03*
X23322D02*
D03*
X23330D02*
D03*
X23339D02*
D03*
X23348D02*
D03*
X23356D02*
D03*
X23365D02*
D03*
X23373D02*
D03*
X23382D02*
D03*
X23391D02*
D03*
X23399D02*
D03*
X23408D02*
D03*
X23416D02*
D03*
X23425D02*
D03*
X23434D02*
D03*
X23442D02*
D03*
X23451D02*
D03*
X23459D02*
D03*
D34*
X23468Y32143D02*
D03*
D35*
X43700Y40100D02*
D03*
Y39100D02*
D03*
Y38100D02*
D03*
Y37100D02*
D03*
Y36100D02*
D03*
Y35100D02*
D03*
Y34100D02*
D03*
Y33100D02*
D03*
X42150Y25850D02*
D03*
Y24850D02*
D03*
Y23850D02*
D03*
Y22850D02*
D03*
Y21850D02*
D03*
Y20850D02*
D03*
Y19850D02*
D03*
Y18850D02*
D03*
X55950Y26700D02*
D03*
Y25700D02*
D03*
Y24700D02*
D03*
Y23700D02*
D03*
Y22700D02*
D03*
Y21700D02*
D03*
Y20700D02*
D03*
Y19700D02*
D03*
Y18700D02*
D03*
Y17700D02*
D03*
X47100Y40100D02*
D03*
Y39100D02*
D03*
Y38100D02*
D03*
Y37100D02*
D03*
Y36100D02*
D03*
Y35100D02*
D03*
Y34100D02*
D03*
Y33100D02*
D03*
Y32100D02*
D03*
Y31100D02*
D03*
X34100Y29950D02*
D03*
Y30950D02*
D03*
Y31950D02*
D03*
Y32950D02*
D03*
Y33950D02*
D03*
Y34950D02*
D03*
Y35950D02*
D03*
Y36950D02*
D03*
Y37950D02*
D03*
Y38950D02*
D03*
X46550Y21350D02*
D03*
X33350Y26100D02*
D03*
Y25100D02*
D03*
Y24100D02*
D03*
Y23100D02*
D03*
Y22100D02*
D03*
Y21100D02*
D03*
Y20100D02*
D03*
Y19100D02*
D03*
X50900Y32650D02*
D03*
Y31650D02*
D03*
Y30650D02*
D03*
Y29650D02*
D03*
Y28650D02*
D03*
X55900D02*
D03*
Y29650D02*
D03*
Y30650D02*
D03*
Y31650D02*
D03*
Y32650D02*
D03*
D36*
X45550Y21350D02*
D03*
D37*
X45000Y25250D02*
D03*
D38*
X47000D02*
D03*
D39*
X22550Y38850D02*
D03*
X23550D02*
D03*
X24550D02*
D03*
X25550D02*
D03*
X26550D02*
D03*
X27550D02*
D03*
X48450Y40100D02*
D03*
X49450D02*
D03*
X48450Y39100D02*
D03*
X49450D02*
D03*
X48450Y38100D02*
D03*
X49450D02*
D03*
X48450Y37100D02*
D03*
X49450D02*
D03*
X48450Y36100D02*
D03*
X49450D02*
D03*
X48450Y35100D02*
D03*
X49450D02*
D03*
X48450Y34100D02*
D03*
X49450D02*
D03*
X48450Y33100D02*
D03*
X49450D02*
D03*
X48450Y32100D02*
D03*
X49450D02*
D03*
X48450Y31100D02*
D03*
X49450D02*
D03*
X48450Y30100D02*
D03*
X49450D02*
D03*
X48450Y29100D02*
D03*
X49450D02*
D03*
X48450Y28100D02*
D03*
X49450D02*
D03*
X48450Y27100D02*
D03*
X49450D02*
D03*
X48450Y26100D02*
D03*
X49450D02*
D03*
X48450Y25100D02*
D03*
X49450D02*
D03*
X48450Y24100D02*
D03*
X49450D02*
D03*
X48450Y23100D02*
D03*
X49450D02*
D03*
X48450Y22100D02*
D03*
X49450D02*
D03*
X48450Y21100D02*
D03*
X49450D02*
D03*
X29450Y40100D02*
D03*
X30450D02*
D03*
X29450Y39100D02*
D03*
X30450D02*
D03*
X29450Y38100D02*
D03*
X30450D02*
D03*
X29450Y37100D02*
D03*
X30450D02*
D03*
X29450Y36100D02*
D03*
X30450D02*
D03*
X29450Y35100D02*
D03*
X30450D02*
D03*
X29450Y34100D02*
D03*
X30450D02*
D03*
X29450Y33100D02*
D03*
X30450D02*
D03*
X29450Y32100D02*
D03*
X30450D02*
D03*
X29450Y31100D02*
D03*
X30450D02*
D03*
X29450Y30100D02*
D03*
X30450D02*
D03*
X29450Y29100D02*
D03*
X30450D02*
D03*
X29450Y28100D02*
D03*
X30450D02*
D03*
X29450Y27100D02*
D03*
X30450D02*
D03*
X29450Y26100D02*
D03*
X30450D02*
D03*
X29450Y25100D02*
D03*
X30450D02*
D03*
X29450Y24100D02*
D03*
X30450D02*
D03*
X29450Y23100D02*
D03*
X30450D02*
D03*
X29450Y22100D02*
D03*
X30450D02*
D03*
X29450Y21100D02*
D03*
X30450D02*
D03*
D40*
X36050Y30100D02*
D03*
X37050D02*
D03*
X38050D02*
D03*
D41*
X39050D02*
D03*
D42*
X48450Y20100D02*
D03*
X49450D02*
D03*
X48450Y19100D02*
D03*
X49450D02*
D03*
X48450Y18100D02*
D03*
X49450D02*
D03*
X48450Y17100D02*
D03*
X49450D02*
D03*
X29450Y20100D02*
D03*
X30450D02*
D03*
X29450Y19100D02*
D03*
X30450D02*
D03*
X29450Y18100D02*
D03*
X30450D02*
D03*
X29450Y17100D02*
D03*
X30450D02*
D03*
D43*
X28050Y32150D02*
D03*
Y33150D02*
D03*
Y34150D02*
D03*
Y35150D02*
D03*
Y36150D02*
D03*
X22050D02*
D03*
Y35150D02*
D03*
Y34150D02*
D03*
Y33150D02*
D03*
Y32150D02*
D03*
X26900Y32700D02*
D03*
X22550Y37150D02*
D03*
X23550D02*
D03*
X24550D02*
D03*
X25550D02*
D03*
X26550D02*
D03*
X27550D02*
D03*
X28050Y25150D02*
D03*
Y26150D02*
D03*
Y27150D02*
D03*
Y28150D02*
D03*
Y29150D02*
D03*
Y30150D02*
D03*
Y31150D02*
D03*
X22050D02*
D03*
Y30150D02*
D03*
Y29150D02*
D03*
Y28150D02*
D03*
Y27150D02*
D03*
Y26150D02*
D03*
Y25150D02*
D03*
X26900Y31700D02*
D03*
Y28600D02*
D03*
Y27600D02*
D03*
D44*
X44421Y18100D02*
D03*
X45800D02*
D03*
D45*
X39700Y32700D02*
D03*
X43650Y28400D02*
D03*
X32300Y29400D02*
D03*
D46*
X39700Y33700D02*
D03*
X32300Y28400D02*
D03*
D47*
X44650D02*
D03*
D49*
X38399Y33795D02*
D03*
Y34055D02*
D03*
Y34315D02*
D03*
Y34577D02*
D03*
X38396Y34841D02*
D03*
X38397Y35099D02*
D03*
X36101Y35064D02*
D03*
Y34814D02*
D03*
Y32248D02*
D03*
Y32504D02*
D03*
Y32760D02*
D03*
Y33016D02*
D03*
Y33272D02*
D03*
Y33530D02*
D03*
Y33790D02*
D03*
Y34040D02*
D03*
X38400Y33016D02*
D03*
Y32766D02*
D03*
Y32506D02*
D03*
Y32248D02*
D03*
X36101Y34300D02*
D03*
Y34560D02*
D03*
X38400Y33276D02*
D03*
Y33536D02*
D03*
M02*
