%FSLAX24Y24*%
%MOIN*%
G70*
G01*
G75*
G04 Layer_Physical_Order=2*
G04 Layer_Color=16711680*
%ADD10R,0.0440X0.0560*%
%ADD11R,0.0220X0.0480*%
%ADD12R,0.0560X0.0440*%
%ADD13R,0.0520X0.0600*%
%ADD14R,0.0120X0.0570*%
%ADD15R,0.0400X0.0100*%
%ADD16C,0.0100*%
%ADD17C,0.0320*%
%ADD18R,0.0010X0.1293*%
%ADD19R,0.0010X0.0010*%
%ADD20R,0.0010X0.0170*%
%ADD21R,0.0010X0.0164*%
%ADD22R,0.0010X0.0163*%
%ADD23R,0.0010X0.0009*%
%ADD24R,0.0013X0.0010*%
%ADD25R,0.0013X0.0170*%
%ADD26R,0.0013X0.0164*%
%ADD27R,0.0013X0.0163*%
%ADD28R,0.0013X0.0009*%
%ADD29R,0.0009X0.0010*%
%ADD30R,0.0009X0.0170*%
%ADD31R,0.0009X0.0164*%
%ADD32R,0.0009X0.0163*%
%ADD33R,0.0009X0.0009*%
%ADD34R,0.0009X0.1293*%
G04:AMPARAMS|DCode=35|XSize=70mil|YSize=70mil|CornerRadius=0mil|HoleSize=0mil|Usage=FLASHONLY|Rotation=180.000|XOffset=0mil|YOffset=0mil|HoleType=Round|Shape=Octagon|*
%AMOCTAGOND35*
4,1,8,-0.0350,0.0175,-0.0350,-0.0175,-0.0175,-0.0350,0.0175,-0.0350,0.0350,-0.0175,0.0350,0.0175,0.0175,0.0350,-0.0175,0.0350,-0.0350,0.0175,0.0*
%
%ADD35OCTAGOND35*%

%ADD36C,0.0700*%
%ADD37C,0.0750*%
G04:AMPARAMS|DCode=38|XSize=75mil|YSize=75mil|CornerRadius=0mil|HoleSize=0mil|Usage=FLASHONLY|Rotation=0.000|XOffset=0mil|YOffset=0mil|HoleType=Round|Shape=Octagon|*
%AMOCTAGOND38*
4,1,8,0.0375,-0.0188,0.0375,0.0188,0.0188,0.0375,-0.0188,0.0375,-0.0375,0.0188,-0.0375,-0.0188,-0.0188,-0.0375,0.0188,-0.0375,0.0375,-0.0188,0.0*
%
%ADD38OCTAGOND38*%

G04:AMPARAMS|DCode=39|XSize=60mil|YSize=60mil|CornerRadius=0mil|HoleSize=0mil|Usage=FLASHONLY|Rotation=90.000|XOffset=0mil|YOffset=0mil|HoleType=Round|Shape=Octagon|*
%AMOCTAGOND39*
4,1,8,0.0150,0.0300,-0.0150,0.0300,-0.0300,0.0150,-0.0300,-0.0150,-0.0150,-0.0300,0.0150,-0.0300,0.0300,-0.0150,0.0300,0.0150,0.0150,0.0300,0.0*
%
%ADD39OCTAGOND39*%

%ADD40C,0.0600*%
G04:AMPARAMS|DCode=41|XSize=76mil|YSize=76mil|CornerRadius=0mil|HoleSize=0mil|Usage=FLASHONLY|Rotation=0.000|XOffset=0mil|YOffset=0mil|HoleType=Round|Shape=Octagon|*
%AMOCTAGOND41*
4,1,8,0.0380,-0.0190,0.0380,0.0190,0.0190,0.0380,-0.0190,0.0380,-0.0380,0.0190,-0.0380,-0.0190,-0.0190,-0.0380,0.0190,-0.0380,0.0380,-0.0190,0.0*
%
%ADD41OCTAGOND41*%

G04:AMPARAMS|DCode=42|XSize=66mil|YSize=66mil|CornerRadius=0mil|HoleSize=0mil|Usage=FLASHONLY|Rotation=270.000|XOffset=0mil|YOffset=0mil|HoleType=Round|Shape=Octagon|*
%AMOCTAGOND42*
4,1,8,-0.0165,-0.0330,0.0165,-0.0330,0.0330,-0.0165,0.0330,0.0165,0.0165,0.0330,-0.0165,0.0330,-0.0330,0.0165,-0.0330,-0.0165,-0.0165,-0.0330,0.0*
%
%ADD42OCTAGOND42*%

%ADD43C,0.0740*%
%ADD44C,0.0670*%
%ADD45C,0.0591*%
%ADD46R,0.0591X0.0591*%
%ADD47R,0.0591X0.0591*%
%ADD48C,0.0500*%
%ADD49R,0.0390X0.0120*%
%ADD50C,0.0180*%
%ADD51C,0.0270*%
D10*
X32056Y31950D02*
D03*
X32850D02*
D03*
X32056Y33000D02*
D03*
X32850D02*
D03*
X32050Y33950D02*
D03*
X32844D02*
D03*
X32050Y34950D02*
D03*
X32844D02*
D03*
X32050Y35950D02*
D03*
X32844D02*
D03*
X32050Y36950D02*
D03*
X32844D02*
D03*
X32056Y37950D02*
D03*
X32850D02*
D03*
X32056Y38950D02*
D03*
X32850D02*
D03*
X25344Y33300D02*
D03*
X24550D02*
D03*
X25294Y30900D02*
D03*
X24500D02*
D03*
D11*
X36926Y37062D02*
D03*
X37300D02*
D03*
X37680D02*
D03*
Y36030D02*
D03*
X36926D02*
D03*
D12*
X34900Y24044D02*
D03*
Y23250D02*
D03*
D16*
X42000Y18150D02*
X42150D01*
X38250Y18300D02*
X39250D01*
X36550Y20000D02*
X38250Y18300D01*
X39083Y40000D02*
X39483Y39600D01*
X30550Y40000D02*
X39083D01*
X30450Y40100D02*
X30550Y40000D01*
X47950Y39600D02*
X48450Y40100D01*
X39483Y39600D02*
X47950D01*
X29717Y30550D02*
X29900D01*
X33290Y27990D02*
X33940D01*
X37000Y24350D02*
X39300D01*
X42387D01*
X39300Y21640D02*
Y24350D01*
X36926Y37334D02*
Y37874D01*
Y37062D02*
Y37334D01*
Y37874D02*
X36950Y37850D01*
X37050Y35314D02*
X37300Y35564D01*
X37050Y35250D02*
Y35314D01*
X36800Y35064D02*
X37018Y35282D01*
X36101Y35064D02*
X36800D01*
X50900Y31650D02*
X51400Y31150D01*
Y29350D02*
Y31150D01*
X51200Y29150D02*
X51400Y29350D01*
X42537Y24200D02*
X47050D01*
X42387Y24350D02*
X42537Y24200D01*
X47050D02*
X47650Y24800D01*
X33350Y25100D02*
X33800Y25550D01*
X40750Y20250D02*
X40900Y20100D01*
X40450Y20250D02*
X40750D01*
X37600Y35377D02*
X37960Y35737D01*
X36101Y34814D02*
X36660D01*
X34400Y38950D02*
Y39050D01*
X35166Y33016D02*
X35590D01*
X37770Y39590D02*
X38160Y39200D01*
X37760Y39600D02*
X37770Y39590D01*
X38000Y35258D02*
X38160Y35418D01*
X37860Y35118D02*
X38000Y35258D01*
X32056Y38600D02*
Y38650D01*
Y38400D02*
Y38600D01*
X32200Y37450D02*
X35330D01*
X32056D02*
X32200D01*
X32056D02*
Y37594D01*
Y37446D02*
Y37450D01*
X38100Y32248D02*
X38400D01*
X38000D02*
X38100D01*
X37770Y39590D02*
X39210D01*
X29190D02*
X37770D01*
X31856Y38600D02*
X32056D01*
X32050Y37440D02*
Y37444D01*
X30950Y36700D02*
X32050D01*
X29190Y39590D02*
X29200Y39600D01*
X30850Y36600D02*
X31950D01*
X26770Y23600D02*
X33050D01*
X24550Y32100D02*
Y32150D01*
X24500Y32050D02*
Y32100D01*
Y30900D02*
Y32050D01*
X25770Y24600D02*
X26770Y23600D01*
X25294Y31224D02*
X26424D01*
X27050Y23390D02*
X27420Y23020D01*
X37099Y22471D02*
X38360Y21210D01*
X36400Y23170D02*
X37099Y22471D01*
X35940Y23630D02*
X36400Y23170D01*
X36727Y22100D02*
X37099Y22471D01*
X36400Y22100D02*
X36727D01*
X34260D02*
X36400D01*
X28520Y20600D02*
X28720D01*
X28830Y32600D02*
X30200D01*
X29667Y30600D02*
X29717Y30550D01*
X47400Y29600D02*
X49950D01*
X41300Y18450D02*
X41350Y18400D01*
X38520Y29770D02*
Y29848D01*
Y29770D02*
X38550Y29800D01*
X35640Y32000D02*
X35888Y32248D01*
X41900Y29450D02*
X42580D01*
X36050Y30100D02*
X38000Y28150D01*
X34100Y38950D02*
X34400D01*
Y39050D02*
X37802D01*
X37960Y35737D02*
Y38892D01*
X32850Y22600D02*
X33350Y23100D01*
X26400Y23390D02*
X27050D01*
X25980Y22970D02*
X26400Y23390D01*
X25980Y19840D02*
Y22970D01*
Y19840D02*
X29200Y16620D01*
X49870D01*
X55950Y22700D01*
X26380Y22740D02*
X28520Y20600D01*
X34360Y23630D02*
X35940D01*
X33890Y24100D02*
X34360Y23630D01*
X33350Y24100D02*
X33890D01*
X38360Y21210D02*
X39510D01*
X41650Y23350D01*
X46800D01*
X48000Y24550D01*
X55100D01*
X55950Y23700D01*
X45730Y32600D02*
X47400D01*
X40600Y28150D02*
X41900Y29450D01*
X47650Y24800D02*
Y25200D01*
X48050Y25600D01*
X33940Y27990D02*
X36050Y30100D01*
X30970Y35600D02*
X31350Y35220D01*
X28600Y35600D02*
X30970D01*
X38400Y29650D02*
X38520Y29770D01*
X37620Y31190D02*
X38520Y30290D01*
X35640Y31600D02*
X36050Y31190D01*
X35640Y31600D02*
Y32000D01*
X28050Y28150D02*
X28570Y28670D01*
Y30000D01*
X29170Y30600D01*
X30220Y30330D02*
X30450Y30100D01*
X32056Y37950D02*
Y38400D01*
X29250Y38600D02*
X31856D01*
X28950Y38900D02*
X29250Y38600D01*
X28950Y39350D02*
X29190Y39590D01*
X39210D02*
X43200Y35600D01*
X51800D01*
X55250Y32150D01*
X56200D01*
X56450Y31900D01*
Y26200D02*
Y31900D01*
X55950Y25700D02*
X56450Y26200D01*
X31856Y38600D02*
X32056Y38400D01*
X28950Y38900D02*
Y39350D01*
X38160Y35418D02*
Y39200D01*
X38000Y32348D02*
Y35258D01*
Y32348D02*
X38100Y32248D01*
X32050Y37444D02*
X32056Y37450D01*
X35330D02*
X35480Y37300D01*
X24550Y36000D02*
X25180Y36630D01*
X27840Y36670D02*
X28570D01*
X28640Y36600D01*
X31950D02*
X32050Y36700D01*
Y36950D01*
X24500Y25870D02*
Y30900D01*
X33830Y23600D02*
X34180Y23250D01*
X34900D01*
X24500Y32050D02*
X24550Y32100D01*
X34100Y31950D02*
X35166Y33016D01*
X36450Y31660D02*
Y34560D01*
X35080Y30030D02*
Y30430D01*
X36694Y24044D02*
X37000Y24350D01*
X29450Y27100D02*
X29900Y27550D01*
X49800D01*
X50900Y28650D01*
X27420Y23020D02*
X27840Y22600D01*
X32850D01*
X38000Y28150D02*
X40600D01*
X46600Y31600D02*
X47100Y32100D01*
X49950Y29600D02*
X50400Y29150D01*
X51200D01*
X49900Y31650D02*
X50900Y32650D01*
X49900Y30800D02*
Y31650D01*
X31340Y29060D02*
Y30250D01*
X30990Y30600D02*
X31340Y30250D01*
X30150Y30600D02*
X30990D01*
X30000Y30750D02*
X30150Y30600D01*
X29450Y31100D02*
X29800Y30750D01*
X32850Y38950D02*
X34100D01*
X35756Y34354D02*
Y35294D01*
X35556Y34184D02*
Y34494D01*
X34100Y34950D02*
X35260Y33790D01*
X36101D01*
X34100Y33950D02*
X34520Y33530D01*
X36101D01*
X32850Y33000D02*
X33450D01*
X33500Y32950D01*
X34100D01*
X34422Y33272D02*
X36101D01*
X32850Y31950D02*
X34100D01*
X35000Y38450D02*
X35911Y37539D01*
X29450Y38100D02*
X30450D01*
X32430Y38520D02*
Y39380D01*
X37010Y38850D02*
X37680Y38180D01*
Y37062D02*
Y38180D01*
X32850Y25600D02*
X33350Y26100D01*
X34900Y23250D02*
X35650D01*
X32050Y34950D02*
Y35950D01*
Y33636D02*
Y33950D01*
X32056Y33000D02*
Y33630D01*
X29450Y37100D02*
X30450D01*
X38950Y32506D02*
X39144Y32700D01*
X40600Y33600D02*
X52950D01*
X38400Y32766D02*
X38766D01*
X25294Y30900D02*
Y31224D01*
X26424D02*
X26900Y31700D01*
X31140Y30830D02*
Y32410D01*
X31520Y30450D02*
X34530D01*
X34910Y30830D02*
X37320D01*
X38050Y30100D01*
X29450Y33100D02*
X29950Y33600D01*
X31450Y31800D02*
Y32810D01*
X35750Y32760D02*
X36101D01*
X28770Y26870D02*
Y29420D01*
X37300Y35564D02*
Y37062D01*
X34100Y30950D02*
X34590D01*
X36101Y32248D02*
Y32504D01*
X39010Y33326D02*
Y34420D01*
X38400Y33016D02*
X38700D01*
X28050Y35150D02*
X28600Y34600D01*
X47400Y32600D02*
X47600Y32400D01*
X29450Y40100D02*
X30450D01*
X48050Y25600D02*
X51550D01*
X30700Y34600D02*
X31250Y34050D01*
X46600Y30400D02*
X47400Y29600D01*
X49700Y30600D02*
X49900Y30800D01*
X47600Y30600D02*
X49700D01*
X47100Y31100D02*
X47600Y30600D01*
X38520Y29848D02*
Y30290D01*
Y29848D02*
X38550Y29818D01*
Y29800D02*
Y29818D01*
X31490Y20600D02*
X32490Y21600D01*
X28720Y20600D02*
X31490D01*
X29900Y30550D02*
X30120Y30330D01*
X29170Y30600D02*
X29667D01*
X30200Y32600D02*
X30450Y32350D01*
Y32100D02*
Y32350D01*
X28600Y34600D02*
X30700D01*
X28050Y36150D02*
X28600Y35600D01*
X30850Y36600D02*
X30950Y36700D01*
X28640Y36600D02*
X30850D01*
X42150Y18850D02*
X42450D01*
X35650Y23250D02*
X35950Y22950D01*
X33760Y21600D02*
X34260Y22100D01*
X32056Y38650D02*
Y38950D01*
Y37594D02*
Y37950D01*
X32050Y35950D02*
Y36700D01*
X31850Y24600D02*
X32850Y25600D01*
X34590Y30950D02*
X35640Y32000D01*
X35810Y34300D02*
X36101D01*
X35756Y34354D02*
X35810Y34300D01*
X34100Y36950D02*
X35756Y35294D01*
X34100Y32950D02*
X34422Y33272D01*
X35590Y33016D02*
X36101D01*
X34524Y31950D02*
X35590Y33016D01*
X34100Y31950D02*
X34524D01*
X34900Y24044D02*
X36694D01*
X38766Y32766D02*
X39700Y33700D01*
X32490Y21600D02*
X33760D01*
X25944Y32700D02*
X26900D01*
X25344Y33300D02*
X25944Y32700D01*
X24550Y32150D02*
Y33300D01*
X24500Y32100D02*
X24550Y32150D01*
X42580Y29450D02*
X45730Y32600D01*
X47600Y31600D02*
Y32400D01*
X47100Y31100D02*
X47600Y31600D01*
X35888Y32248D02*
X36101D01*
X29950Y33600D02*
X30660D01*
X31450Y32810D01*
Y31800D02*
X31800Y31450D01*
X34440D01*
X35750Y32760D01*
X37802Y39050D02*
X37960Y38892D01*
X37600Y34874D02*
Y35377D01*
X37448Y34722D02*
X37600Y34874D01*
X36752Y34722D02*
X37448D01*
X36660Y34814D02*
X36752Y34722D01*
X37860Y32388D02*
X38000Y32248D01*
X37860Y32388D02*
Y35118D01*
X29200Y39600D02*
X37760D01*
X36926Y36030D02*
Y36324D01*
X35911Y37339D02*
X36926Y36324D01*
X35911Y37339D02*
Y37539D01*
X32056Y37594D02*
X32200Y37450D01*
X36100Y38160D02*
X36926Y37334D01*
X30450Y39100D02*
X30730Y39380D01*
X32430D01*
Y38520D02*
X32500Y38450D01*
X34400D01*
X34800Y38850D01*
X37010D01*
X32000Y28400D02*
X33450D01*
X35080Y30030D01*
X32850Y23800D02*
Y25600D01*
Y23800D02*
X33050Y23600D01*
X33830D01*
X37050Y30100D02*
X37500Y29650D01*
X38400D01*
X36050Y31190D02*
X37620D01*
X38700Y33016D02*
X39010Y33326D01*
X28050Y26150D02*
X28770Y26870D01*
Y29420D02*
X29450Y30100D01*
X29800Y30750D02*
X30000D01*
X31340Y29060D02*
X32000Y28400D01*
X30120Y30330D02*
X30220D01*
X46600Y30400D02*
Y31600D01*
X39700Y32700D02*
X40600Y33600D01*
X27800Y36630D02*
X27840Y36670D01*
X25180Y36630D02*
X27800D01*
X24550Y33300D02*
Y36000D01*
X24500Y25870D02*
X25770Y24600D01*
X31850D01*
X35700Y34040D02*
X36101D01*
X35556Y34184D02*
X35700Y34040D01*
X34100Y35950D02*
X35556Y34494D01*
X30450Y33100D02*
X31140Y32410D01*
Y30830D02*
X31520Y30450D01*
X34530D02*
X34910Y30830D01*
X36101Y34560D02*
X36450D01*
X32050Y33636D02*
X32056Y33630D01*
X32850Y37950D02*
X34100D01*
X32844Y36950D02*
X34100D01*
X32844Y35950D02*
X34100D01*
X32844Y34950D02*
X34100D01*
X32844Y33950D02*
X34100D01*
X29450Y39100D02*
X30450D01*
X32056Y31950D02*
Y33000D01*
X32050Y37440D02*
X32056Y37446D01*
X32050Y36950D02*
Y37440D01*
Y33950D02*
Y34950D01*
X39144Y32700D02*
X39700D01*
X38400Y32506D02*
X38950D01*
X48450Y40100D02*
X49450D01*
X20950Y16300D02*
Y40750D01*
Y16300D02*
X57050D01*
Y40750D01*
X57050Y40750D02*
X57050Y40750D01*
X20950Y40750D02*
X57050D01*
D17*
X42150Y18150D02*
X42850D01*
X41600D02*
X42000D01*
X41050Y17200D02*
X42000Y18150D01*
X32350Y17200D02*
X41050D01*
X31450Y18100D02*
X32350Y17200D01*
X30450Y18100D02*
X31450D01*
X43700Y19600D02*
X45200D01*
X43300Y19200D02*
X43700Y19600D01*
X41300Y20500D02*
Y22350D01*
Y18450D02*
Y19100D01*
X40900Y20100D02*
X41300Y20500D01*
X41350Y18400D02*
X41600Y18150D01*
X40900Y19500D02*
X41300Y19100D01*
X43300Y18600D02*
Y19200D01*
X42850Y18150D02*
X43300Y18600D01*
X45800Y18100D02*
Y19000D01*
X45200Y19600D02*
X45800Y19000D01*
X40900Y19500D02*
Y20100D01*
X29450Y18100D02*
X30450D01*
D18*
X22975Y32143D02*
D03*
D19*
X22985Y32785D02*
D03*
X22995D02*
D03*
X23005D02*
D03*
X23015D02*
D03*
X23025D02*
D03*
X23035D02*
D03*
X23045D02*
D03*
X23055D02*
D03*
X23065D02*
D03*
X23075D02*
D03*
X23085D02*
D03*
X23095D02*
D03*
X23105D02*
D03*
X23115D02*
D03*
X23125D02*
D03*
X23135D02*
D03*
X23145D02*
D03*
X23155D02*
D03*
X23165D02*
D03*
X23175D02*
D03*
X23185D02*
D03*
X23195D02*
D03*
X23205D02*
D03*
D20*
X22985Y32615D02*
D03*
X22995D02*
D03*
X23005D02*
D03*
X23015D02*
D03*
X23025D02*
D03*
X23035D02*
D03*
X23045D02*
D03*
X23055D02*
D03*
X23065D02*
D03*
X23075D02*
D03*
X23085D02*
D03*
X23095D02*
D03*
X23105D02*
D03*
X23115D02*
D03*
X23125D02*
D03*
X23135D02*
D03*
X23145D02*
D03*
X23155D02*
D03*
X23165D02*
D03*
X23175D02*
D03*
X23185D02*
D03*
X23195D02*
D03*
X23205D02*
D03*
D21*
X22985Y32138D02*
D03*
X22995D02*
D03*
X23005D02*
D03*
X23015D02*
D03*
X23025D02*
D03*
X23035D02*
D03*
X23045D02*
D03*
X23055D02*
D03*
X23065D02*
D03*
X23075D02*
D03*
X23085D02*
D03*
X23095D02*
D03*
X23105D02*
D03*
X23115D02*
D03*
X23125D02*
D03*
X23135D02*
D03*
X23145D02*
D03*
X23155D02*
D03*
X23165D02*
D03*
X23175D02*
D03*
X23185D02*
D03*
X23195D02*
D03*
X23205D02*
D03*
D22*
X22985Y31665D02*
D03*
X22995D02*
D03*
X23005D02*
D03*
X23015D02*
D03*
X23025D02*
D03*
X23035D02*
D03*
X23045D02*
D03*
X23055D02*
D03*
X23065D02*
D03*
X23075D02*
D03*
X23085D02*
D03*
X23095D02*
D03*
X23105D02*
D03*
X23115D02*
D03*
X23125D02*
D03*
X23135D02*
D03*
X23145D02*
D03*
X23155D02*
D03*
X23165D02*
D03*
X23175D02*
D03*
X23185D02*
D03*
X23195D02*
D03*
X23205D02*
D03*
D23*
X22985Y31501D02*
D03*
X22995D02*
D03*
X23005D02*
D03*
X23015D02*
D03*
X23025D02*
D03*
X23035D02*
D03*
X23045D02*
D03*
X23055D02*
D03*
X23065D02*
D03*
X23075D02*
D03*
X23085D02*
D03*
X23095D02*
D03*
X23105D02*
D03*
X23115D02*
D03*
X23125D02*
D03*
X23135D02*
D03*
X23145D02*
D03*
X23155D02*
D03*
X23165D02*
D03*
X23175D02*
D03*
X23185D02*
D03*
X23195D02*
D03*
X23205D02*
D03*
D24*
X23216Y32785D02*
D03*
D25*
Y32615D02*
D03*
D26*
X23216Y32138D02*
D03*
D27*
X23216Y31665D02*
D03*
D28*
X23216Y31501D02*
D03*
D29*
X23227Y32785D02*
D03*
X23236D02*
D03*
X23244D02*
D03*
X23253D02*
D03*
X23262D02*
D03*
X23270D02*
D03*
X23279D02*
D03*
X23287D02*
D03*
X23296D02*
D03*
X23305D02*
D03*
X23313D02*
D03*
X23322D02*
D03*
X23330D02*
D03*
X23339D02*
D03*
X23348D02*
D03*
X23356D02*
D03*
X23365D02*
D03*
X23373D02*
D03*
X23382D02*
D03*
X23391D02*
D03*
X23399D02*
D03*
X23408D02*
D03*
X23416D02*
D03*
X23425D02*
D03*
X23434D02*
D03*
X23442D02*
D03*
X23451D02*
D03*
X23459D02*
D03*
D30*
X23227Y32615D02*
D03*
X23236D02*
D03*
X23244D02*
D03*
X23253D02*
D03*
X23262D02*
D03*
X23270D02*
D03*
X23279D02*
D03*
X23287D02*
D03*
X23296D02*
D03*
X23305D02*
D03*
X23313D02*
D03*
X23322D02*
D03*
X23330D02*
D03*
X23339D02*
D03*
X23348D02*
D03*
X23356D02*
D03*
X23365D02*
D03*
X23373D02*
D03*
X23382D02*
D03*
X23391D02*
D03*
X23399D02*
D03*
X23408D02*
D03*
X23416D02*
D03*
X23425D02*
D03*
X23434D02*
D03*
X23442D02*
D03*
X23451D02*
D03*
X23459D02*
D03*
D31*
X23227Y32138D02*
D03*
X23236D02*
D03*
X23244D02*
D03*
X23253D02*
D03*
X23262D02*
D03*
X23270D02*
D03*
X23279D02*
D03*
X23287D02*
D03*
X23296D02*
D03*
X23305D02*
D03*
X23313D02*
D03*
X23322D02*
D03*
X23330D02*
D03*
X23339D02*
D03*
X23348D02*
D03*
X23356D02*
D03*
X23365D02*
D03*
X23373D02*
D03*
X23382D02*
D03*
X23391D02*
D03*
X23399D02*
D03*
X23408D02*
D03*
X23416D02*
D03*
X23425D02*
D03*
X23434D02*
D03*
X23442D02*
D03*
X23451D02*
D03*
X23459D02*
D03*
D32*
X23227Y31665D02*
D03*
X23236D02*
D03*
X23244D02*
D03*
X23253D02*
D03*
X23262Y31665D02*
D03*
X23270D02*
D03*
X23279D02*
D03*
X23287D02*
D03*
X23296Y31665D02*
D03*
X23304D02*
D03*
X23313D02*
D03*
X23322D02*
D03*
X23330D02*
D03*
X23339D02*
D03*
X23347D02*
D03*
X23356D02*
D03*
X23365D02*
D03*
X23373Y31665D02*
D03*
X23382D02*
D03*
X23391D02*
D03*
X23399Y31665D02*
D03*
X23408D02*
D03*
X23416D02*
D03*
X23425D02*
D03*
X23433D02*
D03*
X23442D02*
D03*
X23451D02*
D03*
X23459D02*
D03*
D33*
X23227Y31501D02*
D03*
X23236D02*
D03*
X23244D02*
D03*
X23253D02*
D03*
X23262D02*
D03*
X23270D02*
D03*
X23279D02*
D03*
X23287D02*
D03*
X23296D02*
D03*
X23305D02*
D03*
X23313D02*
D03*
X23322D02*
D03*
X23330D02*
D03*
X23339D02*
D03*
X23348D02*
D03*
X23356D02*
D03*
X23365D02*
D03*
X23373D02*
D03*
X23382D02*
D03*
X23391D02*
D03*
X23399D02*
D03*
X23408D02*
D03*
X23416D02*
D03*
X23425D02*
D03*
X23434D02*
D03*
X23442D02*
D03*
X23451D02*
D03*
X23459D02*
D03*
D34*
X23468Y32143D02*
D03*
D35*
X43700Y40100D02*
D03*
Y39100D02*
D03*
Y38100D02*
D03*
Y37100D02*
D03*
Y36100D02*
D03*
Y35100D02*
D03*
Y34100D02*
D03*
Y33100D02*
D03*
X42150Y25850D02*
D03*
Y24850D02*
D03*
Y23850D02*
D03*
Y22850D02*
D03*
Y21850D02*
D03*
Y20850D02*
D03*
Y19850D02*
D03*
Y18850D02*
D03*
X55950Y26700D02*
D03*
Y25700D02*
D03*
Y24700D02*
D03*
Y23700D02*
D03*
Y22700D02*
D03*
Y21700D02*
D03*
Y20700D02*
D03*
Y19700D02*
D03*
Y18700D02*
D03*
Y17700D02*
D03*
X47100Y40100D02*
D03*
Y39100D02*
D03*
Y38100D02*
D03*
Y37100D02*
D03*
Y36100D02*
D03*
Y35100D02*
D03*
Y34100D02*
D03*
Y33100D02*
D03*
Y32100D02*
D03*
Y31100D02*
D03*
X34100Y29950D02*
D03*
Y30950D02*
D03*
Y31950D02*
D03*
Y32950D02*
D03*
Y33950D02*
D03*
Y34950D02*
D03*
Y35950D02*
D03*
Y36950D02*
D03*
Y37950D02*
D03*
Y38950D02*
D03*
X46550Y21350D02*
D03*
X33350Y26100D02*
D03*
Y25100D02*
D03*
Y24100D02*
D03*
Y23100D02*
D03*
Y22100D02*
D03*
Y21100D02*
D03*
Y20100D02*
D03*
Y19100D02*
D03*
X50900Y32650D02*
D03*
Y31650D02*
D03*
Y30650D02*
D03*
Y29650D02*
D03*
Y28650D02*
D03*
X55900D02*
D03*
Y29650D02*
D03*
Y30650D02*
D03*
Y31650D02*
D03*
Y32650D02*
D03*
D36*
X45550Y21350D02*
D03*
D37*
X45000Y25250D02*
D03*
D38*
X47000D02*
D03*
D39*
X22550Y38850D02*
D03*
X23550D02*
D03*
X24550D02*
D03*
X25550D02*
D03*
X26550D02*
D03*
X27550D02*
D03*
X48450Y40100D02*
D03*
X49450D02*
D03*
X48450Y39100D02*
D03*
X49450D02*
D03*
X48450Y38100D02*
D03*
X49450D02*
D03*
X48450Y37100D02*
D03*
X49450D02*
D03*
X48450Y36100D02*
D03*
X49450D02*
D03*
X48450Y35100D02*
D03*
X49450D02*
D03*
X48450Y34100D02*
D03*
X49450D02*
D03*
X48450Y33100D02*
D03*
X49450D02*
D03*
X48450Y32100D02*
D03*
X49450D02*
D03*
X48450Y31100D02*
D03*
X49450D02*
D03*
X48450Y30100D02*
D03*
X49450D02*
D03*
X48450Y29100D02*
D03*
X49450D02*
D03*
X48450Y28100D02*
D03*
X49450D02*
D03*
X48450Y27100D02*
D03*
X49450D02*
D03*
X48450Y26100D02*
D03*
X49450D02*
D03*
X48450Y25100D02*
D03*
X49450D02*
D03*
X48450Y24100D02*
D03*
X49450D02*
D03*
X48450Y23100D02*
D03*
X49450D02*
D03*
X48450Y22100D02*
D03*
X49450D02*
D03*
X48450Y21100D02*
D03*
X49450D02*
D03*
X29450Y40100D02*
D03*
X30450D02*
D03*
X29450Y39100D02*
D03*
X30450D02*
D03*
X29450Y38100D02*
D03*
X30450D02*
D03*
X29450Y37100D02*
D03*
X30450D02*
D03*
X29450Y36100D02*
D03*
X30450D02*
D03*
X29450Y35100D02*
D03*
X30450D02*
D03*
X29450Y34100D02*
D03*
X30450D02*
D03*
X29450Y33100D02*
D03*
X30450D02*
D03*
X29450Y32100D02*
D03*
X30450D02*
D03*
X29450Y31100D02*
D03*
X30450D02*
D03*
X29450Y30100D02*
D03*
X30450D02*
D03*
X29450Y29100D02*
D03*
X30450D02*
D03*
X29450Y28100D02*
D03*
X30450D02*
D03*
X29450Y27100D02*
D03*
X30450D02*
D03*
X29450Y26100D02*
D03*
X30450D02*
D03*
X29450Y25100D02*
D03*
X30450D02*
D03*
X29450Y24100D02*
D03*
X30450D02*
D03*
X29450Y23100D02*
D03*
X30450D02*
D03*
X29450Y22100D02*
D03*
X30450D02*
D03*
X29450Y21100D02*
D03*
X30450D02*
D03*
D40*
X36050Y30100D02*
D03*
X37050D02*
D03*
X38050D02*
D03*
D41*
X39050D02*
D03*
D42*
X48450Y20100D02*
D03*
X49450D02*
D03*
X48450Y19100D02*
D03*
X49450D02*
D03*
X48450Y18100D02*
D03*
X49450D02*
D03*
X48450Y17100D02*
D03*
X49450D02*
D03*
X29450Y20100D02*
D03*
X30450D02*
D03*
X29450Y19100D02*
D03*
X30450D02*
D03*
X29450Y18100D02*
D03*
X30450D02*
D03*
X29450Y17100D02*
D03*
X30450D02*
D03*
D43*
X28050Y32150D02*
D03*
Y33150D02*
D03*
Y34150D02*
D03*
Y35150D02*
D03*
Y36150D02*
D03*
X22050D02*
D03*
Y35150D02*
D03*
Y34150D02*
D03*
Y33150D02*
D03*
Y32150D02*
D03*
X26900Y32700D02*
D03*
X22550Y37150D02*
D03*
X23550D02*
D03*
X24550D02*
D03*
X25550D02*
D03*
X26550D02*
D03*
X27550D02*
D03*
X28050Y25150D02*
D03*
Y26150D02*
D03*
Y27150D02*
D03*
Y28150D02*
D03*
Y29150D02*
D03*
Y30150D02*
D03*
Y31150D02*
D03*
X22050D02*
D03*
Y30150D02*
D03*
Y29150D02*
D03*
Y28150D02*
D03*
Y27150D02*
D03*
Y26150D02*
D03*
Y25150D02*
D03*
X26900Y31700D02*
D03*
Y28600D02*
D03*
Y27600D02*
D03*
D44*
X44421Y18100D02*
D03*
X45800D02*
D03*
D45*
X39700Y32700D02*
D03*
X43650Y28400D02*
D03*
X32300Y29400D02*
D03*
D46*
X39700Y33700D02*
D03*
X32300Y28400D02*
D03*
D47*
X44650D02*
D03*
D48*
X39250Y18300D02*
D03*
X33290Y27990D02*
D03*
X39300Y24350D02*
D03*
X28830Y32600D02*
D03*
X36926Y37874D02*
D03*
X37050Y35250D02*
D03*
X31350Y35220D02*
D03*
X40450Y20250D02*
D03*
X36550Y20000D02*
D03*
X26380Y22740D02*
D03*
X41300Y22350D02*
D03*
X39300Y21640D02*
D03*
X36100Y38160D02*
D03*
X39010Y34420D02*
D03*
X35480Y37300D02*
D03*
X36450Y31660D02*
D03*
X35080Y30430D02*
D03*
X27420Y23020D02*
D03*
X40600Y28150D02*
D03*
X35000Y38450D02*
D03*
X35950Y22950D02*
D03*
X31250Y34050D02*
D03*
D49*
X38399Y33795D02*
D03*
Y34055D02*
D03*
Y34315D02*
D03*
Y34577D02*
D03*
X38396Y34841D02*
D03*
X38397Y35099D02*
D03*
X36101Y35064D02*
D03*
Y34814D02*
D03*
Y32248D02*
D03*
Y32504D02*
D03*
Y32760D02*
D03*
Y33016D02*
D03*
Y33272D02*
D03*
Y33530D02*
D03*
Y33790D02*
D03*
Y34040D02*
D03*
X38400Y33016D02*
D03*
Y32766D02*
D03*
Y32506D02*
D03*
Y32248D02*
D03*
X36101Y34300D02*
D03*
Y34560D02*
D03*
X38400Y33276D02*
D03*
Y33536D02*
D03*
D50*
X46300Y24550D02*
X47000Y25250D01*
X44090Y24550D02*
X46300D01*
X43600Y25040D02*
X44090Y24550D01*
X42500Y26750D02*
X43600Y25650D01*
Y25040D02*
Y25650D01*
X39000Y26750D02*
X42500D01*
X37800Y25550D02*
X39000Y26750D01*
X33800Y25550D02*
X37800D01*
D51*
X52950Y33600D02*
X55900Y30650D01*
X54250Y29650D02*
X55900D01*
X53200Y28600D02*
X54250Y29650D01*
X53200Y27250D02*
Y28600D01*
X51550Y25600D02*
X53200Y27250D01*
M02*
