%FSLAX24Y24*%
%MOIN*%
G70*
G01*
G75*
G04 Layer_Color=32896*
%ADD10R,0.0440X0.0560*%
%ADD11R,0.0220X0.0480*%
%ADD12R,0.0560X0.0440*%
%ADD13R,0.0520X0.0600*%
%ADD14R,0.0120X0.0570*%
%ADD15R,0.0400X0.0100*%
%ADD16C,0.0100*%
%ADD17C,0.0320*%
%ADD18R,0.0010X0.1293*%
%ADD19R,0.0010X0.0010*%
%ADD20R,0.0010X0.0170*%
%ADD21R,0.0010X0.0164*%
%ADD22R,0.0010X0.0163*%
%ADD23R,0.0010X0.0009*%
%ADD24R,0.0013X0.0010*%
%ADD25R,0.0013X0.0170*%
%ADD26R,0.0013X0.0164*%
%ADD27R,0.0013X0.0163*%
%ADD28R,0.0013X0.0009*%
%ADD29R,0.0009X0.0010*%
%ADD30R,0.0009X0.0170*%
%ADD31R,0.0009X0.0164*%
%ADD32R,0.0009X0.0163*%
%ADD33R,0.0009X0.0009*%
%ADD34R,0.0009X0.1293*%
G04:AMPARAMS|DCode=35|XSize=70mil|YSize=70mil|CornerRadius=0mil|HoleSize=0mil|Usage=FLASHONLY|Rotation=180.000|XOffset=0mil|YOffset=0mil|HoleType=Round|Shape=Octagon|*
%AMOCTAGOND35*
4,1,8,-0.0350,0.0175,-0.0350,-0.0175,-0.0175,-0.0350,0.0175,-0.0350,0.0350,-0.0175,0.0350,0.0175,0.0175,0.0350,-0.0175,0.0350,-0.0350,0.0175,0.0*
%
%ADD35OCTAGOND35*%

%ADD36C,0.0700*%
%ADD37C,0.0750*%
G04:AMPARAMS|DCode=38|XSize=75mil|YSize=75mil|CornerRadius=0mil|HoleSize=0mil|Usage=FLASHONLY|Rotation=0.000|XOffset=0mil|YOffset=0mil|HoleType=Round|Shape=Octagon|*
%AMOCTAGOND38*
4,1,8,0.0375,-0.0188,0.0375,0.0188,0.0188,0.0375,-0.0188,0.0375,-0.0375,0.0188,-0.0375,-0.0188,-0.0188,-0.0375,0.0188,-0.0375,0.0375,-0.0188,0.0*
%
%ADD38OCTAGOND38*%

G04:AMPARAMS|DCode=39|XSize=60mil|YSize=60mil|CornerRadius=0mil|HoleSize=0mil|Usage=FLASHONLY|Rotation=90.000|XOffset=0mil|YOffset=0mil|HoleType=Round|Shape=Octagon|*
%AMOCTAGOND39*
4,1,8,0.0150,0.0300,-0.0150,0.0300,-0.0300,0.0150,-0.0300,-0.0150,-0.0150,-0.0300,0.0150,-0.0300,0.0300,-0.0150,0.0300,0.0150,0.0150,0.0300,0.0*
%
%ADD39OCTAGOND39*%

%ADD40C,0.0600*%
G04:AMPARAMS|DCode=41|XSize=76mil|YSize=76mil|CornerRadius=0mil|HoleSize=0mil|Usage=FLASHONLY|Rotation=0.000|XOffset=0mil|YOffset=0mil|HoleType=Round|Shape=Octagon|*
%AMOCTAGOND41*
4,1,8,0.0380,-0.0190,0.0380,0.0190,0.0190,0.0380,-0.0190,0.0380,-0.0380,0.0190,-0.0380,-0.0190,-0.0190,-0.0380,0.0190,-0.0380,0.0380,-0.0190,0.0*
%
%ADD41OCTAGOND41*%

G04:AMPARAMS|DCode=42|XSize=66mil|YSize=66mil|CornerRadius=0mil|HoleSize=0mil|Usage=FLASHONLY|Rotation=270.000|XOffset=0mil|YOffset=0mil|HoleType=Round|Shape=Octagon|*
%AMOCTAGOND42*
4,1,8,-0.0165,-0.0330,0.0165,-0.0330,0.0330,-0.0165,0.0330,0.0165,0.0165,0.0330,-0.0165,0.0330,-0.0330,0.0165,-0.0330,-0.0165,-0.0165,-0.0330,0.0*
%
%ADD42OCTAGOND42*%

%ADD43C,0.0740*%
%ADD44C,0.0670*%
%ADD45C,0.0591*%
%ADD46R,0.0591X0.0591*%
%ADD47R,0.0591X0.0591*%
%ADD48C,0.0500*%
%ADD49R,0.0390X0.0120*%
%ADD50C,0.0180*%
%ADD51C,0.0270*%
%ADD52C,0.0060*%
%ADD53C,0.0040*%
%ADD54C,0.0080*%
%ADD55C,0.0050*%
%ADD56C,0.0079*%
%ADD57C,0.0034*%
%ADD58R,0.0260X0.0555*%
%ADD59R,0.0256X0.0555*%
%ADD60R,0.0555X0.0260*%
%ADD61R,0.0555X0.0256*%
%ADD62R,0.0200X0.0800*%
%ADD63R,0.0256X0.0555*%
%ADD64R,0.0555X0.0256*%
%ADD65R,0.0520X0.0640*%
%ADD66R,0.0300X0.0560*%
%ADD67R,0.0640X0.0520*%
%ADD68R,0.0600X0.0680*%
%ADD69R,0.0480X0.0180*%
G04:AMPARAMS|DCode=70|XSize=78mil|YSize=78mil|CornerRadius=0mil|HoleSize=0mil|Usage=FLASHONLY|Rotation=180.000|XOffset=0mil|YOffset=0mil|HoleType=Round|Shape=Octagon|*
%AMOCTAGOND70*
4,1,8,-0.0390,0.0195,-0.0390,-0.0195,-0.0195,-0.0390,0.0195,-0.0390,0.0390,-0.0195,0.0390,0.0195,0.0195,0.0390,-0.0195,0.0390,-0.0390,0.0195,0.0*
%
%ADD70OCTAGOND70*%

%ADD71C,0.0780*%
%ADD72C,0.0830*%
G04:AMPARAMS|DCode=73|XSize=83mil|YSize=83mil|CornerRadius=0mil|HoleSize=0mil|Usage=FLASHONLY|Rotation=0.000|XOffset=0mil|YOffset=0mil|HoleType=Round|Shape=Octagon|*
%AMOCTAGOND73*
4,1,8,0.0415,-0.0208,0.0415,0.0208,0.0208,0.0415,-0.0208,0.0415,-0.0415,0.0208,-0.0415,-0.0208,-0.0208,-0.0415,0.0208,-0.0415,0.0415,-0.0208,0.0*
%
%ADD73OCTAGOND73*%

G04:AMPARAMS|DCode=74|XSize=68mil|YSize=68mil|CornerRadius=0mil|HoleSize=0mil|Usage=FLASHONLY|Rotation=90.000|XOffset=0mil|YOffset=0mil|HoleType=Round|Shape=Octagon|*
%AMOCTAGOND74*
4,1,8,0.0170,0.0340,-0.0170,0.0340,-0.0340,0.0170,-0.0340,-0.0170,-0.0170,-0.0340,0.0170,-0.0340,0.0340,-0.0170,0.0340,0.0170,0.0170,0.0340,0.0*
%
%ADD74OCTAGOND74*%

%ADD75C,0.0680*%
G04:AMPARAMS|DCode=76|XSize=84mil|YSize=84mil|CornerRadius=0mil|HoleSize=0mil|Usage=FLASHONLY|Rotation=0.000|XOffset=0mil|YOffset=0mil|HoleType=Round|Shape=Octagon|*
%AMOCTAGOND76*
4,1,8,0.0420,-0.0210,0.0420,0.0210,0.0210,0.0420,-0.0210,0.0420,-0.0420,0.0210,-0.0420,-0.0210,-0.0210,-0.0420,0.0210,-0.0420,0.0420,-0.0210,0.0*
%
%ADD76OCTAGOND76*%

G04:AMPARAMS|DCode=77|XSize=74mil|YSize=74mil|CornerRadius=0mil|HoleSize=0mil|Usage=FLASHONLY|Rotation=270.000|XOffset=0mil|YOffset=0mil|HoleType=Round|Shape=Octagon|*
%AMOCTAGOND77*
4,1,8,-0.0185,-0.0370,0.0185,-0.0370,0.0370,-0.0185,0.0370,0.0185,0.0185,0.0370,-0.0185,0.0370,-0.0370,0.0185,-0.0370,-0.0185,-0.0185,-0.0370,0.0*
%
%ADD77OCTAGOND77*%

%ADD78C,0.0820*%
%ADD79C,0.0671*%
%ADD80R,0.0671X0.0671*%
%ADD81R,0.0671X0.0671*%
%ADD82C,0.0580*%
%ADD83R,0.0470X0.0200*%
G36*
X31552Y38886D02*
X31558Y38882D01*
X31562Y38879D01*
X31567Y38875D01*
X31570Y38872D01*
X31574Y38869D01*
X31576Y38867D01*
X31577Y38865D01*
X31577Y38865D01*
Y38865D01*
X31579Y38863D01*
X31581Y38860D01*
X31584Y38855D01*
X31586Y38853D01*
X31586Y38851D01*
X31587Y38850D01*
X31587Y38849D01*
X31588Y38854D01*
X31589Y38859D01*
X31590Y38863D01*
X31591Y38867D01*
X31593Y38871D01*
X31595Y38875D01*
X31596Y38878D01*
X31597Y38881D01*
X31599Y38883D01*
X31600Y38885D01*
X31602Y38886D01*
X31603Y38888D01*
X31604Y38889D01*
X31604Y38890D01*
X31605Y38890D01*
X31605Y38891D01*
X31608Y38893D01*
X31611Y38895D01*
X31614Y38897D01*
X31616Y38898D01*
X31622Y38900D01*
X31628Y38902D01*
X31632Y38903D01*
X31634Y38903D01*
X31636Y38904D01*
X31637Y38904D01*
X31639D01*
X31645Y38904D01*
X31651Y38902D01*
X31656Y38901D01*
X31660Y38900D01*
X31663Y38898D01*
X31666Y38897D01*
X31667Y38897D01*
X31668Y38896D01*
X31668Y38896D01*
X31669D01*
X31673Y38893D01*
X31677Y38889D01*
X31680Y38886D01*
X31683Y38882D01*
X31685Y38879D01*
X31686Y38877D01*
X31686Y38876D01*
X31687Y38875D01*
X31687Y38874D01*
Y38874D01*
X31688Y38872D01*
X31689Y38869D01*
X31690Y38863D01*
X31691Y38856D01*
X31692Y38850D01*
X31692Y38847D01*
X31692Y38844D01*
Y38842D01*
X31692Y38839D01*
Y38838D01*
Y38837D01*
Y38835D01*
Y38835D01*
Y38750D01*
X31500D01*
Y38775D01*
X31585D01*
Y38805D01*
Y38809D01*
X31585Y38811D01*
Y38814D01*
X31585Y38816D01*
X31584Y38817D01*
Y38818D01*
X31584Y38819D01*
Y38819D01*
X31583Y38823D01*
X31582Y38825D01*
X31581Y38827D01*
X31580Y38828D01*
X31579Y38830D01*
X31579Y38830D01*
X31579Y38830D01*
X31577Y38833D01*
X31576Y38835D01*
X31573Y38837D01*
X31571Y38839D01*
X31569Y38841D01*
X31567Y38842D01*
X31567Y38843D01*
X31566Y38844D01*
X31562Y38846D01*
X31558Y38849D01*
X31554Y38853D01*
X31549Y38856D01*
X31546Y38858D01*
X31544Y38859D01*
X31542Y38860D01*
X31542Y38861D01*
X31541Y38861D01*
X31540Y38862D01*
X31540D01*
X31500Y38887D01*
Y38919D01*
X31552Y38886D01*
D02*
G37*
G36*
X25457Y29793D02*
X25462Y29792D01*
X25467Y29792D01*
X25471Y29791D01*
X25475Y29790D01*
X25478Y29788D01*
X25482Y29787D01*
X25484Y29786D01*
X25487Y29785D01*
X25489Y29783D01*
X25491Y29782D01*
X25493Y29781D01*
X25494Y29780D01*
X25496Y29779D01*
X25496Y29779D01*
X25496Y29779D01*
X25499Y29776D01*
X25502Y29773D01*
X25504Y29770D01*
X25506Y29766D01*
X25508Y29763D01*
X25509Y29760D01*
X25512Y29753D01*
X25512Y29750D01*
X25513Y29747D01*
X25514Y29744D01*
X25514Y29742D01*
X25515Y29740D01*
Y29739D01*
X25515Y29738D01*
Y29738D01*
X25491Y29735D01*
X25490Y29741D01*
X25489Y29747D01*
X25487Y29752D01*
X25485Y29756D01*
X25484Y29759D01*
X25482Y29762D01*
X25481Y29763D01*
X25480Y29763D01*
X25476Y29767D01*
X25472Y29769D01*
X25467Y29771D01*
X25463Y29772D01*
X25459Y29773D01*
X25457Y29773D01*
X25456D01*
X25455Y29773D01*
X25453D01*
X25447Y29773D01*
X25442Y29772D01*
X25438Y29771D01*
X25434Y29769D01*
X25431Y29767D01*
X25429Y29765D01*
X25427Y29764D01*
X25427Y29764D01*
X25423Y29760D01*
X25421Y29756D01*
X25419Y29752D01*
X25418Y29748D01*
X25417Y29745D01*
X25417Y29743D01*
X25417Y29741D01*
Y29741D01*
Y29741D01*
Y29740D01*
Y29738D01*
X25417Y29735D01*
X25418Y29730D01*
X25420Y29725D01*
X25422Y29721D01*
X25424Y29717D01*
X25425Y29716D01*
X25426Y29714D01*
X25427Y29713D01*
X25427Y29713D01*
X25427Y29712D01*
X25428Y29712D01*
X25430Y29709D01*
X25433Y29706D01*
X25436Y29702D01*
X25439Y29699D01*
X25446Y29692D01*
X25453Y29686D01*
X25456Y29683D01*
X25459Y29680D01*
X25463Y29678D01*
X25465Y29675D01*
X25467Y29674D01*
X25469Y29672D01*
X25470Y29671D01*
X25470Y29671D01*
X25477Y29665D01*
X25484Y29660D01*
X25489Y29655D01*
X25493Y29650D01*
X25496Y29647D01*
X25499Y29644D01*
X25500Y29643D01*
X25501Y29642D01*
X25501Y29642D01*
X25501Y29642D01*
X25505Y29637D01*
X25508Y29632D01*
X25510Y29628D01*
X25513Y29624D01*
X25515Y29621D01*
X25515Y29618D01*
X25516Y29618D01*
X25516Y29617D01*
X25517Y29616D01*
Y29616D01*
X25517Y29613D01*
X25518Y29611D01*
X25519Y29608D01*
X25519Y29605D01*
X25519Y29603D01*
Y29602D01*
Y29601D01*
Y29600D01*
X25392D01*
Y29623D01*
X25487D01*
X25483Y29627D01*
X25482Y29629D01*
X25480Y29631D01*
X25478Y29633D01*
X25477Y29634D01*
X25477Y29635D01*
X25477Y29635D01*
X25475Y29636D01*
X25473Y29638D01*
X25472Y29640D01*
X25470Y29642D01*
X25465Y29646D01*
X25461Y29650D01*
X25456Y29653D01*
X25454Y29655D01*
X25453Y29657D01*
X25451Y29658D01*
X25450Y29659D01*
X25450Y29659D01*
X25449Y29660D01*
X25445Y29664D01*
X25440Y29667D01*
X25436Y29671D01*
X25433Y29674D01*
X25429Y29677D01*
X25426Y29680D01*
X25424Y29682D01*
X25422Y29685D01*
X25419Y29687D01*
X25417Y29688D01*
X25416Y29690D01*
X25415Y29691D01*
X25414Y29692D01*
X25413Y29693D01*
X25413Y29693D01*
Y29693D01*
X25409Y29698D01*
X25406Y29702D01*
X25403Y29706D01*
X25401Y29710D01*
X25399Y29713D01*
X25398Y29715D01*
X25397Y29716D01*
X25397Y29717D01*
X25396Y29721D01*
X25394Y29725D01*
X25394Y29729D01*
X25393Y29732D01*
X25392Y29735D01*
X25392Y29738D01*
Y29739D01*
Y29739D01*
X25392Y29744D01*
X25393Y29748D01*
X25394Y29752D01*
X25395Y29755D01*
X25398Y29762D01*
X25399Y29764D01*
X25400Y29767D01*
X25402Y29769D01*
X25403Y29771D01*
X25405Y29773D01*
X25406Y29775D01*
X25407Y29776D01*
X25408Y29777D01*
X25408Y29777D01*
X25408Y29778D01*
X25412Y29780D01*
X25415Y29783D01*
X25419Y29785D01*
X25422Y29787D01*
X25426Y29788D01*
X25429Y29789D01*
X25436Y29791D01*
X25440Y29792D01*
X25443Y29792D01*
X25445Y29792D01*
X25448Y29793D01*
X25450Y29793D01*
X25452D01*
X25457Y29793D01*
D02*
G37*
G36*
X31570Y39211D02*
X31575Y39210D01*
X31579Y39209D01*
X31584Y39208D01*
X31588Y39207D01*
X31591Y39205D01*
X31595Y39204D01*
X31598Y39202D01*
X31600Y39200D01*
X31603Y39199D01*
X31605Y39197D01*
X31607Y39196D01*
X31608Y39195D01*
X31609Y39194D01*
X31610Y39193D01*
X31610Y39193D01*
X31613Y39190D01*
X31616Y39186D01*
X31618Y39183D01*
X31620Y39179D01*
X31622Y39176D01*
X31623Y39172D01*
X31625Y39169D01*
X31625Y39166D01*
X31626Y39162D01*
X31627Y39160D01*
X31627Y39157D01*
X31627Y39155D01*
X31628Y39153D01*
Y39152D01*
Y39151D01*
Y39151D01*
X31627Y39148D01*
X31627Y39144D01*
X31625Y39137D01*
X31624Y39131D01*
X31621Y39126D01*
X31620Y39123D01*
X31619Y39121D01*
X31618Y39119D01*
X31617Y39118D01*
X31616Y39116D01*
X31616Y39116D01*
X31616Y39115D01*
X31615Y39115D01*
X31667Y39125D01*
Y39202D01*
X31690D01*
Y39106D01*
X31591Y39088D01*
X31588Y39110D01*
X31591Y39112D01*
X31593Y39114D01*
X31596Y39117D01*
X31597Y39119D01*
X31599Y39121D01*
X31600Y39123D01*
X31601Y39123D01*
X31601Y39124D01*
X31603Y39128D01*
X31604Y39131D01*
X31606Y39135D01*
X31606Y39138D01*
X31607Y39141D01*
X31607Y39143D01*
Y39144D01*
Y39145D01*
Y39148D01*
X31606Y39151D01*
X31605Y39157D01*
X31603Y39162D01*
X31601Y39167D01*
X31599Y39170D01*
X31597Y39172D01*
X31596Y39173D01*
X31595Y39174D01*
X31595Y39174D01*
X31595D01*
X31593Y39176D01*
X31590Y39178D01*
X31585Y39181D01*
X31580Y39183D01*
X31574Y39184D01*
X31570Y39185D01*
X31568Y39186D01*
X31566D01*
X31565Y39186D01*
X31559D01*
X31556Y39185D01*
X31549Y39184D01*
X31543Y39182D01*
X31538Y39180D01*
X31536Y39179D01*
X31534Y39178D01*
X31532Y39177D01*
X31531Y39176D01*
X31530Y39175D01*
X31530Y39174D01*
X31529Y39174D01*
X31529Y39174D01*
X31527Y39172D01*
X31525Y39169D01*
X31523Y39167D01*
X31522Y39165D01*
X31519Y39160D01*
X31518Y39155D01*
X31517Y39151D01*
X31517Y39149D01*
X31516Y39148D01*
X31516Y39147D01*
Y39146D01*
Y39145D01*
Y39145D01*
X31517Y39140D01*
X31518Y39135D01*
X31519Y39131D01*
X31521Y39128D01*
X31522Y39125D01*
X31524Y39123D01*
X31525Y39121D01*
X31525Y39121D01*
X31529Y39118D01*
X31533Y39115D01*
X31537Y39113D01*
X31542Y39111D01*
X31546Y39110D01*
X31548Y39109D01*
X31549Y39109D01*
X31550Y39109D01*
X31551D01*
X31552Y39108D01*
X31552D01*
X31550Y39083D01*
X31546Y39084D01*
X31542Y39085D01*
X31538Y39086D01*
X31534Y39088D01*
X31530Y39089D01*
X31527Y39090D01*
X31524Y39092D01*
X31522Y39094D01*
X31519Y39095D01*
X31517Y39097D01*
X31516Y39098D01*
X31514Y39100D01*
X31513Y39101D01*
X31512Y39102D01*
X31511Y39102D01*
X31511Y39102D01*
X31509Y39106D01*
X31507Y39109D01*
X31504Y39112D01*
X31503Y39116D01*
X31502Y39120D01*
X31500Y39123D01*
X31498Y39130D01*
X31498Y39133D01*
X31497Y39136D01*
X31497Y39139D01*
X31497Y39141D01*
X31497Y39142D01*
Y39144D01*
Y39145D01*
Y39145D01*
X31497Y39151D01*
X31498Y39156D01*
X31499Y39162D01*
X31500Y39167D01*
X31502Y39171D01*
X31504Y39175D01*
X31506Y39179D01*
X31509Y39182D01*
X31511Y39185D01*
X31513Y39188D01*
X31514Y39190D01*
X31516Y39192D01*
X31518Y39193D01*
X31519Y39195D01*
X31520Y39195D01*
X31520Y39195D01*
X31524Y39198D01*
X31528Y39200D01*
X31531Y39202D01*
X31535Y39204D01*
X31539Y39206D01*
X31542Y39207D01*
X31550Y39209D01*
X31553Y39209D01*
X31556Y39210D01*
X31558Y39210D01*
X31561Y39211D01*
X31562Y39211D01*
X31565D01*
X31570Y39211D01*
D02*
G37*
G36*
X31693Y39008D02*
X31688Y39005D01*
X31684Y39002D01*
X31679Y38998D01*
X31676Y38995D01*
X31672Y38992D01*
X31669Y38989D01*
X31669Y38988D01*
X31668Y38988D01*
X31667Y38987D01*
X31667Y38987D01*
X31662Y38981D01*
X31658Y38975D01*
X31654Y38969D01*
X31651Y38964D01*
X31648Y38959D01*
X31647Y38957D01*
X31646Y38956D01*
X31646Y38954D01*
X31645Y38953D01*
X31645Y38953D01*
Y38952D01*
X31622D01*
X31623Y38956D01*
X31625Y38961D01*
X31628Y38965D01*
X31630Y38969D01*
X31631Y38972D01*
X31633Y38975D01*
X31633Y38976D01*
X31634Y38977D01*
X31634Y38977D01*
Y38977D01*
X31637Y38982D01*
X31640Y38986D01*
X31643Y38990D01*
X31645Y38993D01*
X31647Y38996D01*
X31649Y38998D01*
X31650Y38999D01*
X31650Y39000D01*
X31500D01*
Y39023D01*
X31693D01*
Y39008D01*
D02*
G37*
G36*
X24330Y32648D02*
X24326Y32643D01*
X24322Y32638D01*
X24319Y32633D01*
X24315Y32629D01*
X24312Y32627D01*
X24310Y32624D01*
X24309Y32623D01*
X24309Y32622D01*
X24308D01*
X24306Y32621D01*
X24304Y32619D01*
X24299Y32616D01*
X24297Y32615D01*
X24295Y32613D01*
X24294Y32613D01*
X24293Y32613D01*
X24298Y32612D01*
X24303Y32611D01*
X24307Y32610D01*
X24311Y32608D01*
X24315Y32607D01*
X24318Y32606D01*
X24321Y32604D01*
X24324Y32603D01*
X24326Y32601D01*
X24328Y32599D01*
X24330Y32598D01*
X24332Y32597D01*
X24333Y32596D01*
X24334Y32596D01*
X24334Y32595D01*
X24334Y32595D01*
X24336Y32592D01*
X24339Y32589D01*
X24340Y32587D01*
X24342Y32584D01*
X24344Y32578D01*
X24346Y32573D01*
X24347Y32568D01*
X24347Y32566D01*
X24347Y32564D01*
X24347Y32562D01*
Y32562D01*
Y32561D01*
Y32561D01*
X24347Y32555D01*
X24346Y32549D01*
X24345Y32544D01*
X24343Y32540D01*
X24342Y32536D01*
X24341Y32534D01*
X24340Y32533D01*
X24340Y32532D01*
X24339Y32532D01*
Y32531D01*
X24336Y32527D01*
X24333Y32523D01*
X24329Y32520D01*
X24326Y32517D01*
X24323Y32515D01*
X24320Y32514D01*
X24319Y32513D01*
X24318Y32513D01*
X24318Y32513D01*
X24318D01*
X24315Y32512D01*
X24312Y32511D01*
X24306Y32510D01*
X24300Y32509D01*
X24293Y32508D01*
X24290Y32508D01*
X24288Y32508D01*
X24285D01*
X24283Y32508D01*
X24194D01*
Y32700D01*
X24219D01*
Y32615D01*
X24252D01*
X24255Y32615D01*
X24257D01*
X24259Y32615D01*
X24261Y32615D01*
X24262D01*
X24262Y32616D01*
X24263D01*
X24267Y32617D01*
X24269Y32618D01*
X24271Y32619D01*
X24272Y32620D01*
X24273Y32620D01*
X24274Y32621D01*
X24274Y32621D01*
X24276Y32623D01*
X24279Y32624D01*
X24281Y32627D01*
X24283Y32629D01*
X24285Y32631D01*
X24286Y32633D01*
X24287Y32634D01*
X24287Y32634D01*
X24290Y32638D01*
X24293Y32642D01*
X24296Y32646D01*
X24299Y32650D01*
X24302Y32654D01*
X24303Y32656D01*
X24304Y32657D01*
X24305Y32659D01*
X24305Y32659D01*
X24306Y32660D01*
Y32660D01*
X24331Y32700D01*
X24363D01*
X24330Y32648D01*
D02*
G37*
G36*
X24616Y32507D02*
X24601D01*
X24598Y32512D01*
X24595Y32516D01*
X24591Y32521D01*
X24588Y32524D01*
X24585Y32528D01*
X24582Y32531D01*
X24581Y32531D01*
X24580Y32532D01*
X24580Y32532D01*
X24580Y32533D01*
X24574Y32538D01*
X24568Y32542D01*
X24562Y32546D01*
X24557Y32549D01*
X24552Y32552D01*
X24550Y32553D01*
X24548Y32554D01*
X24547Y32554D01*
X24546Y32555D01*
X24545Y32555D01*
X24545D01*
Y32578D01*
X24549Y32576D01*
X24554Y32575D01*
X24558Y32573D01*
X24562Y32571D01*
X24565Y32569D01*
X24568Y32567D01*
X24569Y32567D01*
X24569Y32566D01*
X24570Y32566D01*
X24570D01*
X24575Y32563D01*
X24579Y32560D01*
X24583Y32557D01*
X24586Y32555D01*
X24589Y32553D01*
X24591Y32551D01*
X24592Y32550D01*
X24592Y32550D01*
Y32700D01*
X24616D01*
Y32507D01*
D02*
G37*
G36*
X25700Y29600D02*
X25675D01*
Y29685D01*
X25642D01*
X25639Y29685D01*
X25636D01*
X25634Y29685D01*
X25633Y29685D01*
X25632D01*
X25631Y29684D01*
X25631D01*
X25627Y29683D01*
X25625Y29682D01*
X25623Y29681D01*
X25622Y29680D01*
X25621Y29680D01*
X25620Y29679D01*
X25619Y29679D01*
X25617Y29677D01*
X25615Y29676D01*
X25613Y29673D01*
X25611Y29671D01*
X25609Y29669D01*
X25608Y29667D01*
X25607Y29667D01*
X25607Y29666D01*
X25603Y29662D01*
X25601Y29658D01*
X25598Y29654D01*
X25594Y29650D01*
X25592Y29646D01*
X25591Y29644D01*
X25590Y29643D01*
X25589Y29641D01*
X25589Y29641D01*
X25588Y29640D01*
Y29640D01*
X25563Y29600D01*
X25531D01*
X25564Y29652D01*
X25568Y29657D01*
X25571Y29662D01*
X25575Y29667D01*
X25578Y29671D01*
X25581Y29674D01*
X25583Y29676D01*
X25585Y29677D01*
X25585Y29678D01*
X25585D01*
X25587Y29679D01*
X25590Y29681D01*
X25595Y29684D01*
X25597Y29685D01*
X25599Y29687D01*
X25600Y29687D01*
X25601Y29687D01*
X25596Y29688D01*
X25591Y29689D01*
X25587Y29690D01*
X25582Y29692D01*
X25579Y29693D01*
X25575Y29694D01*
X25572Y29696D01*
X25570Y29697D01*
X25567Y29699D01*
X25565Y29701D01*
X25563Y29702D01*
X25562Y29703D01*
X25561Y29704D01*
X25560Y29704D01*
X25560Y29705D01*
X25559Y29705D01*
X25557Y29708D01*
X25555Y29711D01*
X25553Y29713D01*
X25552Y29716D01*
X25549Y29722D01*
X25548Y29727D01*
X25547Y29732D01*
X25547Y29734D01*
X25547Y29736D01*
X25546Y29738D01*
Y29739D01*
Y29739D01*
Y29739D01*
X25547Y29745D01*
X25547Y29751D01*
X25549Y29756D01*
X25550Y29760D01*
X25552Y29764D01*
X25553Y29766D01*
X25554Y29767D01*
X25554Y29768D01*
X25554Y29768D01*
Y29769D01*
X25557Y29773D01*
X25561Y29777D01*
X25564Y29780D01*
X25568Y29783D01*
X25571Y29785D01*
X25573Y29786D01*
X25575Y29787D01*
X25575Y29787D01*
X25575Y29787D01*
X25576D01*
X25578Y29788D01*
X25581Y29789D01*
X25587Y29790D01*
X25594Y29791D01*
X25600Y29792D01*
X25603Y29792D01*
X25606Y29792D01*
X25608D01*
X25610Y29792D01*
X25700D01*
Y29600D01*
D02*
G37*
G36*
X25312Y29792D02*
X25318Y29791D01*
X25324Y29790D01*
X25329Y29787D01*
X25331Y29786D01*
X25333Y29785D01*
X25335Y29784D01*
X25336Y29783D01*
X25337Y29783D01*
X25338Y29782D01*
X25338Y29782D01*
X25339Y29782D01*
X25343Y29777D01*
X25348Y29772D01*
X25351Y29766D01*
X25354Y29762D01*
X25357Y29757D01*
X25357Y29755D01*
X25358Y29753D01*
X25359Y29752D01*
X25359Y29750D01*
X25359Y29750D01*
Y29750D01*
X25361Y29746D01*
X25362Y29741D01*
X25364Y29732D01*
X25365Y29723D01*
X25366Y29714D01*
X25366Y29710D01*
Y29706D01*
X25366Y29703D01*
X25366Y29701D01*
Y29698D01*
Y29696D01*
Y29695D01*
Y29695D01*
X25366Y29685D01*
X25366Y29676D01*
X25365Y29667D01*
X25364Y29660D01*
X25362Y29653D01*
X25361Y29646D01*
X25359Y29641D01*
X25357Y29635D01*
X25355Y29631D01*
X25354Y29627D01*
X25352Y29624D01*
X25351Y29621D01*
X25350Y29619D01*
X25348Y29618D01*
X25348Y29617D01*
X25348Y29616D01*
X25345Y29613D01*
X25341Y29610D01*
X25338Y29607D01*
X25334Y29605D01*
X25331Y29603D01*
X25327Y29602D01*
X25323Y29600D01*
X25320Y29599D01*
X25317Y29599D01*
X25313Y29598D01*
X25311Y29597D01*
X25308Y29597D01*
X25307D01*
X25305Y29597D01*
X25304D01*
X25300Y29597D01*
X25296Y29597D01*
X25290Y29599D01*
X25284Y29600D01*
X25279Y29602D01*
X25277Y29604D01*
X25275Y29604D01*
X25273Y29606D01*
X25272Y29606D01*
X25271Y29607D01*
X25270Y29608D01*
X25269Y29608D01*
X25269D01*
X25264Y29613D01*
X25260Y29618D01*
X25257Y29623D01*
X25254Y29628D01*
X25251Y29633D01*
X25250Y29635D01*
X25250Y29636D01*
X25249Y29638D01*
X25248Y29639D01*
X25248Y29640D01*
Y29640D01*
X25247Y29644D01*
X25246Y29648D01*
X25244Y29657D01*
X25243Y29667D01*
X25242Y29675D01*
X25242Y29679D01*
X25241Y29683D01*
Y29686D01*
X25241Y29689D01*
Y29692D01*
Y29693D01*
Y29694D01*
Y29695D01*
Y29700D01*
X25241Y29705D01*
X25242Y29709D01*
X25242Y29714D01*
X25242Y29718D01*
X25243Y29722D01*
X25243Y29725D01*
X25243Y29728D01*
X25244Y29731D01*
X25244Y29733D01*
X25245Y29735D01*
X25245Y29737D01*
X25245Y29738D01*
X25245Y29739D01*
X25246Y29740D01*
Y29740D01*
X25247Y29746D01*
X25249Y29752D01*
X25251Y29757D01*
X25253Y29761D01*
X25255Y29764D01*
X25256Y29767D01*
X25257Y29767D01*
X25257Y29768D01*
X25257Y29769D01*
Y29769D01*
X25261Y29773D01*
X25264Y29776D01*
X25267Y29780D01*
X25270Y29782D01*
X25273Y29784D01*
X25275Y29785D01*
X25276Y29787D01*
X25277Y29787D01*
X25277D01*
X25281Y29789D01*
X25286Y29790D01*
X25291Y29792D01*
X25295Y29792D01*
X25299Y29793D01*
X25300D01*
X25301Y29793D01*
X25308D01*
X25312Y29792D01*
D02*
G37*
G36*
X31637Y37157D02*
X31632Y37154D01*
X31627Y37151D01*
X31623Y37148D01*
X31619Y37144D01*
X31616Y37141D01*
X31613Y37139D01*
X31612Y37137D01*
X31611Y37137D01*
X31611Y37136D01*
X31611Y37136D01*
X31606Y37130D01*
X31602Y37125D01*
X31598Y37118D01*
X31595Y37113D01*
X31592Y37109D01*
X31591Y37106D01*
X31590Y37105D01*
X31589Y37104D01*
X31589Y37102D01*
X31588Y37102D01*
Y37102D01*
X31565D01*
X31567Y37106D01*
X31569Y37110D01*
X31571Y37114D01*
X31573Y37118D01*
X31575Y37121D01*
X31576Y37124D01*
X31577Y37125D01*
X31577Y37126D01*
X31578Y37126D01*
Y37126D01*
X31581Y37131D01*
X31584Y37136D01*
X31586Y37139D01*
X31589Y37143D01*
X31591Y37145D01*
X31593Y37147D01*
X31594Y37148D01*
X31594Y37149D01*
X31444D01*
Y37172D01*
X31637D01*
Y37157D01*
D02*
G37*
G36*
Y37008D02*
X31632Y37005D01*
X31627Y37002D01*
X31623Y36998D01*
X31619Y36995D01*
X31616Y36992D01*
X31613Y36989D01*
X31612Y36988D01*
X31611Y36988D01*
X31611Y36987D01*
X31611Y36987D01*
X31606Y36981D01*
X31602Y36975D01*
X31598Y36969D01*
X31595Y36964D01*
X31592Y36959D01*
X31591Y36957D01*
X31590Y36955D01*
X31589Y36954D01*
X31589Y36953D01*
X31588Y36953D01*
Y36952D01*
X31565D01*
X31567Y36957D01*
X31569Y36961D01*
X31571Y36965D01*
X31573Y36969D01*
X31575Y36972D01*
X31576Y36975D01*
X31577Y36976D01*
X31577Y36976D01*
X31578Y36977D01*
Y36977D01*
X31581Y36982D01*
X31584Y36986D01*
X31586Y36990D01*
X31589Y36994D01*
X31591Y36996D01*
X31593Y36998D01*
X31594Y36999D01*
X31594Y36999D01*
X31444D01*
Y37023D01*
X31637D01*
Y37008D01*
D02*
G37*
G36*
X31656Y36160D02*
X31662Y36160D01*
X31667Y36159D01*
X31672Y36158D01*
X31676Y36158D01*
X31680Y36157D01*
X31684Y36156D01*
X31687Y36156D01*
X31690Y36155D01*
X31692Y36154D01*
X31694Y36154D01*
X31696Y36153D01*
X31697Y36153D01*
X31697Y36152D01*
X31698D01*
X31704Y36149D01*
X31710Y36145D01*
X31715Y36141D01*
X31719Y36137D01*
X31722Y36134D01*
X31725Y36131D01*
X31725Y36130D01*
X31726Y36130D01*
X31726Y36129D01*
Y36129D01*
X31730Y36123D01*
X31732Y36117D01*
X31734Y36111D01*
X31735Y36106D01*
X31736Y36101D01*
X31736Y36099D01*
Y36098D01*
X31737Y36096D01*
Y36095D01*
Y36095D01*
Y36095D01*
X31736Y36090D01*
X31736Y36085D01*
X31735Y36081D01*
X31734Y36077D01*
X31732Y36073D01*
X31731Y36070D01*
X31729Y36066D01*
X31728Y36063D01*
X31726Y36061D01*
X31724Y36058D01*
X31723Y36056D01*
X31721Y36054D01*
X31720Y36053D01*
X31719Y36052D01*
X31719Y36051D01*
X31719Y36051D01*
X31715Y36048D01*
X31712Y36046D01*
X31708Y36044D01*
X31704Y36042D01*
X31700Y36040D01*
X31696Y36038D01*
X31688Y36037D01*
X31685Y36036D01*
X31682Y36035D01*
X31679Y36035D01*
X31676Y36035D01*
X31674Y36034D01*
X31672D01*
X31666Y36035D01*
X31662Y36035D01*
X31657Y36036D01*
X31653Y36037D01*
X31649Y36038D01*
X31645Y36040D01*
X31641Y36041D01*
X31638Y36042D01*
X31636Y36044D01*
X31633Y36045D01*
X31631Y36047D01*
X31629Y36048D01*
X31628Y36049D01*
X31627Y36050D01*
X31626Y36051D01*
X31626Y36051D01*
X31623Y36054D01*
X31620Y36057D01*
X31618Y36061D01*
X31616Y36064D01*
X31614Y36068D01*
X31613Y36071D01*
X31612Y36074D01*
X31611Y36077D01*
X31610Y36080D01*
X31610Y36082D01*
X31609Y36085D01*
X31609Y36087D01*
X31609Y36089D01*
Y36090D01*
Y36091D01*
Y36091D01*
X31609Y36096D01*
X31610Y36101D01*
X31611Y36106D01*
X31612Y36109D01*
X31614Y36113D01*
X31615Y36115D01*
X31615Y36116D01*
X31616Y36117D01*
X31616Y36117D01*
Y36117D01*
X31619Y36122D01*
X31622Y36126D01*
X31625Y36129D01*
X31628Y36132D01*
X31630Y36134D01*
X31632Y36136D01*
X31634Y36137D01*
X31634Y36137D01*
X31629D01*
X31624Y36137D01*
X31619Y36137D01*
X31614Y36136D01*
X31609Y36135D01*
X31606Y36135D01*
X31604Y36134D01*
X31603Y36134D01*
X31602Y36134D01*
X31601D01*
X31601Y36133D01*
X31600D01*
X31595Y36132D01*
X31591Y36131D01*
X31587Y36129D01*
X31584Y36128D01*
X31581Y36126D01*
X31579Y36126D01*
X31578Y36125D01*
X31578Y36125D01*
X31575Y36123D01*
X31572Y36121D01*
X31570Y36118D01*
X31568Y36116D01*
X31567Y36114D01*
X31566Y36113D01*
X31565Y36112D01*
X31565Y36111D01*
X31563Y36108D01*
X31562Y36105D01*
X31561Y36102D01*
X31560Y36099D01*
X31560Y36096D01*
X31560Y36094D01*
Y36093D01*
Y36093D01*
Y36092D01*
X31560Y36088D01*
X31561Y36084D01*
X31562Y36080D01*
X31563Y36077D01*
X31565Y36075D01*
X31566Y36073D01*
X31567Y36072D01*
X31567Y36071D01*
X31570Y36068D01*
X31573Y36066D01*
X31577Y36064D01*
X31581Y36063D01*
X31584Y36062D01*
X31587Y36061D01*
X31588Y36061D01*
X31589D01*
X31590Y36061D01*
X31590D01*
X31588Y36038D01*
X31584Y36038D01*
X31580Y36039D01*
X31576Y36040D01*
X31573Y36042D01*
X31570Y36043D01*
X31567Y36044D01*
X31564Y36046D01*
X31562Y36047D01*
X31560Y36049D01*
X31558Y36050D01*
X31556Y36051D01*
X31555Y36052D01*
X31554Y36054D01*
X31553Y36054D01*
X31553Y36054D01*
X31553Y36055D01*
X31551Y36058D01*
X31549Y36061D01*
X31547Y36063D01*
X31546Y36067D01*
X31543Y36073D01*
X31542Y36079D01*
X31541Y36081D01*
X31541Y36084D01*
X31541Y36086D01*
X31541Y36088D01*
X31540Y36089D01*
Y36091D01*
Y36091D01*
Y36091D01*
X31541Y36095D01*
X31541Y36099D01*
X31542Y36106D01*
X31544Y36112D01*
X31546Y36118D01*
X31547Y36120D01*
X31548Y36123D01*
X31549Y36124D01*
X31550Y36126D01*
X31551Y36127D01*
X31551Y36128D01*
X31552Y36128D01*
Y36128D01*
X31556Y36134D01*
X31562Y36139D01*
X31567Y36143D01*
X31573Y36147D01*
X31577Y36149D01*
X31579Y36150D01*
X31581Y36151D01*
X31583Y36152D01*
X31584Y36152D01*
X31585Y36153D01*
X31585D01*
X31589Y36154D01*
X31594Y36155D01*
X31603Y36157D01*
X31613Y36158D01*
X31618Y36159D01*
X31622Y36160D01*
X31627Y36160D01*
X31631Y36160D01*
X31634Y36160D01*
X31638Y36161D01*
X31650D01*
X31656Y36160D01*
D02*
G37*
G36*
X31596Y35986D02*
X31601Y35982D01*
X31606Y35979D01*
X31611Y35975D01*
X31614Y35972D01*
X31617Y35969D01*
X31619Y35967D01*
X31621Y35965D01*
X31621Y35965D01*
Y35965D01*
X31623Y35963D01*
X31625Y35960D01*
X31628Y35955D01*
X31629Y35953D01*
X31630Y35951D01*
X31631Y35950D01*
X31631Y35949D01*
X31632Y35954D01*
X31633Y35959D01*
X31634Y35963D01*
X31635Y35968D01*
X31637Y35971D01*
X31638Y35975D01*
X31640Y35978D01*
X31641Y35981D01*
X31643Y35983D01*
X31644Y35985D01*
X31645Y35986D01*
X31646Y35988D01*
X31647Y35989D01*
X31648Y35990D01*
X31648Y35990D01*
X31649Y35991D01*
X31651Y35993D01*
X31654Y35995D01*
X31657Y35997D01*
X31660Y35998D01*
X31666Y36000D01*
X31671Y36002D01*
X31676Y36003D01*
X31678Y36003D01*
X31680Y36003D01*
X31681Y36004D01*
X31683D01*
X31689Y36003D01*
X31694Y36003D01*
X31699Y36001D01*
X31704Y36000D01*
X31707Y35998D01*
X31710Y35997D01*
X31711Y35996D01*
X31712Y35996D01*
X31712Y35996D01*
X31712D01*
X31717Y35993D01*
X31721Y35989D01*
X31724Y35986D01*
X31726Y35982D01*
X31728Y35979D01*
X31730Y35977D01*
X31730Y35975D01*
X31730Y35975D01*
X31731Y35975D01*
Y35974D01*
X31732Y35972D01*
X31732Y35969D01*
X31734Y35963D01*
X31735Y35956D01*
X31735Y35950D01*
X31735Y35947D01*
X31736Y35944D01*
Y35942D01*
X31736Y35940D01*
Y35938D01*
Y35937D01*
Y35935D01*
Y35935D01*
Y35850D01*
X31544D01*
Y35875D01*
X31629D01*
Y35905D01*
Y35909D01*
X31629Y35911D01*
Y35914D01*
X31628Y35916D01*
X31628Y35917D01*
Y35918D01*
X31628Y35919D01*
Y35919D01*
X31626Y35923D01*
X31626Y35925D01*
X31625Y35927D01*
X31624Y35928D01*
X31623Y35930D01*
X31623Y35930D01*
X31623Y35931D01*
X31621Y35933D01*
X31619Y35935D01*
X31617Y35937D01*
X31615Y35939D01*
X31613Y35941D01*
X31611Y35942D01*
X31610Y35943D01*
X31610Y35944D01*
X31606Y35947D01*
X31602Y35949D01*
X31597Y35952D01*
X31593Y35956D01*
X31589Y35958D01*
X31588Y35959D01*
X31586Y35960D01*
X31585Y35961D01*
X31584Y35961D01*
X31584Y35962D01*
X31583D01*
X31544Y35987D01*
Y36019D01*
X31596Y35986D01*
D02*
G37*
G36*
X31693Y38008D02*
X31688Y38005D01*
X31684Y38002D01*
X31679Y37998D01*
X31676Y37995D01*
X31672Y37992D01*
X31669Y37989D01*
X31669Y37988D01*
X31668Y37987D01*
X31667Y37987D01*
X31667Y37987D01*
X31662Y37981D01*
X31658Y37975D01*
X31654Y37969D01*
X31651Y37964D01*
X31648Y37959D01*
X31647Y37957D01*
X31646Y37956D01*
X31646Y37954D01*
X31645Y37953D01*
X31645Y37952D01*
Y37952D01*
X31622D01*
X31623Y37957D01*
X31625Y37961D01*
X31628Y37965D01*
X31630Y37969D01*
X31631Y37972D01*
X31633Y37975D01*
X31633Y37976D01*
X31634Y37977D01*
X31634Y37977D01*
Y37977D01*
X31637Y37982D01*
X31640Y37986D01*
X31643Y37990D01*
X31645Y37994D01*
X31647Y37996D01*
X31649Y37998D01*
X31650Y37999D01*
X31650Y37999D01*
X31500D01*
Y38023D01*
X31693D01*
Y38008D01*
D02*
G37*
G36*
X31552Y37886D02*
X31558Y37882D01*
X31562Y37878D01*
X31567Y37875D01*
X31570Y37872D01*
X31574Y37869D01*
X31576Y37867D01*
X31577Y37865D01*
X31577Y37865D01*
Y37865D01*
X31579Y37863D01*
X31581Y37860D01*
X31584Y37855D01*
X31586Y37853D01*
X31586Y37851D01*
X31587Y37850D01*
X31587Y37850D01*
X31588Y37854D01*
X31589Y37859D01*
X31590Y37864D01*
X31591Y37868D01*
X31593Y37871D01*
X31595Y37875D01*
X31596Y37878D01*
X31597Y37880D01*
X31599Y37883D01*
X31600Y37885D01*
X31602Y37887D01*
X31603Y37888D01*
X31604Y37889D01*
X31604Y37890D01*
X31605Y37890D01*
X31605Y37891D01*
X31608Y37893D01*
X31611Y37895D01*
X31614Y37897D01*
X31616Y37898D01*
X31622Y37901D01*
X31628Y37902D01*
X31632Y37903D01*
X31634Y37903D01*
X31636Y37903D01*
X31637Y37904D01*
X31639D01*
X31645Y37903D01*
X31651Y37903D01*
X31656Y37901D01*
X31660Y37900D01*
X31663Y37898D01*
X31666Y37897D01*
X31667Y37896D01*
X31668Y37896D01*
X31668Y37896D01*
X31669D01*
X31673Y37892D01*
X31677Y37889D01*
X31680Y37885D01*
X31683Y37882D01*
X31685Y37879D01*
X31686Y37877D01*
X31686Y37875D01*
X31687Y37875D01*
X31687Y37875D01*
Y37874D01*
X31688Y37872D01*
X31689Y37869D01*
X31690Y37863D01*
X31691Y37856D01*
X31692Y37850D01*
X31692Y37847D01*
X31692Y37844D01*
Y37842D01*
X31692Y37840D01*
Y37838D01*
Y37836D01*
Y37836D01*
Y37835D01*
Y37750D01*
X31500D01*
Y37775D01*
X31585D01*
Y37805D01*
Y37808D01*
X31585Y37811D01*
Y37814D01*
X31585Y37816D01*
X31584Y37817D01*
Y37818D01*
X31584Y37819D01*
Y37819D01*
X31583Y37823D01*
X31582Y37825D01*
X31581Y37827D01*
X31580Y37829D01*
X31579Y37829D01*
X31579Y37830D01*
X31579Y37831D01*
X31577Y37833D01*
X31576Y37835D01*
X31573Y37837D01*
X31571Y37839D01*
X31569Y37841D01*
X31567Y37842D01*
X31567Y37843D01*
X31566Y37843D01*
X31562Y37847D01*
X31558Y37850D01*
X31554Y37852D01*
X31549Y37856D01*
X31546Y37858D01*
X31544Y37859D01*
X31542Y37860D01*
X31542Y37861D01*
X31541Y37861D01*
X31540Y37862D01*
X31540D01*
X31500Y37887D01*
Y37919D01*
X31552Y37886D01*
D02*
G37*
G36*
X31496Y36886D02*
X31501Y36882D01*
X31506Y36878D01*
X31511Y36875D01*
X31514Y36872D01*
X31517Y36869D01*
X31519Y36867D01*
X31521Y36865D01*
X31521Y36865D01*
Y36865D01*
X31523Y36862D01*
X31525Y36860D01*
X31528Y36855D01*
X31529Y36853D01*
X31530Y36851D01*
X31531Y36850D01*
X31531Y36850D01*
X31532Y36855D01*
X31533Y36859D01*
X31534Y36864D01*
X31535Y36867D01*
X31537Y36871D01*
X31538Y36875D01*
X31540Y36878D01*
X31541Y36881D01*
X31543Y36883D01*
X31544Y36885D01*
X31545Y36886D01*
X31546Y36888D01*
X31547Y36889D01*
X31548Y36890D01*
X31548Y36890D01*
X31549Y36890D01*
X31551Y36893D01*
X31554Y36895D01*
X31557Y36897D01*
X31560Y36898D01*
X31566Y36900D01*
X31571Y36902D01*
X31576Y36903D01*
X31578Y36903D01*
X31580Y36904D01*
X31581Y36904D01*
X31583D01*
X31589Y36904D01*
X31594Y36902D01*
X31599Y36901D01*
X31604Y36900D01*
X31607Y36898D01*
X31610Y36897D01*
X31611Y36897D01*
X31612Y36896D01*
X31612Y36896D01*
X31612D01*
X31617Y36892D01*
X31621Y36889D01*
X31624Y36885D01*
X31626Y36882D01*
X31628Y36879D01*
X31630Y36876D01*
X31630Y36876D01*
X31630Y36875D01*
X31631Y36874D01*
Y36874D01*
X31632Y36872D01*
X31632Y36869D01*
X31634Y36862D01*
X31635Y36856D01*
X31635Y36850D01*
X31635Y36847D01*
X31636Y36844D01*
Y36842D01*
X31636Y36839D01*
Y36838D01*
Y36837D01*
Y36835D01*
Y36835D01*
Y36750D01*
X31444D01*
Y36776D01*
X31529D01*
Y36805D01*
Y36809D01*
X31529Y36811D01*
Y36814D01*
X31528Y36816D01*
X31528Y36817D01*
Y36818D01*
X31528Y36819D01*
Y36819D01*
X31526Y36823D01*
X31526Y36825D01*
X31525Y36827D01*
X31524Y36828D01*
X31523Y36830D01*
X31523Y36830D01*
X31523Y36830D01*
X31521Y36833D01*
X31519Y36835D01*
X31517Y36837D01*
X31515Y36839D01*
X31513Y36841D01*
X31511Y36842D01*
X31510Y36843D01*
X31510Y36844D01*
X31506Y36846D01*
X31502Y36850D01*
X31497Y36853D01*
X31493Y36855D01*
X31489Y36858D01*
X31488Y36859D01*
X31486Y36860D01*
X31485Y36861D01*
X31484Y36862D01*
X31484Y36862D01*
X31483D01*
X31444Y36887D01*
Y36919D01*
X31496Y36886D01*
D02*
G37*
G36*
X31563Y38209D02*
X31569Y38208D01*
X31574Y38206D01*
X31579Y38205D01*
X31583Y38203D01*
X31584Y38202D01*
X31585Y38201D01*
X31586Y38201D01*
X31587Y38200D01*
X31587Y38200D01*
X31588D01*
X31592Y38196D01*
X31595Y38191D01*
X31598Y38187D01*
X31600Y38183D01*
X31602Y38179D01*
X31603Y38177D01*
X31603Y38176D01*
X31604Y38175D01*
X31604Y38174D01*
X31604Y38173D01*
Y38173D01*
X31607Y38178D01*
X31609Y38182D01*
X31612Y38185D01*
X31614Y38188D01*
X31617Y38190D01*
X31618Y38192D01*
X31620Y38193D01*
X31620Y38193D01*
X31624Y38195D01*
X31628Y38197D01*
X31632Y38198D01*
X31635Y38199D01*
X31639Y38200D01*
X31641Y38200D01*
X31643D01*
X31648Y38200D01*
X31652Y38199D01*
X31656Y38198D01*
X31660Y38196D01*
X31663Y38195D01*
X31666Y38194D01*
X31667Y38193D01*
X31667Y38193D01*
X31668D01*
X31672Y38190D01*
X31676Y38187D01*
X31679Y38183D01*
X31681Y38180D01*
X31683Y38177D01*
X31685Y38175D01*
X31686Y38173D01*
X31686Y38173D01*
X31686Y38173D01*
Y38172D01*
X31688Y38167D01*
X31690Y38162D01*
X31691Y38157D01*
X31692Y38153D01*
X31693Y38149D01*
Y38147D01*
X31693Y38146D01*
Y38145D01*
Y38144D01*
Y38144D01*
Y38143D01*
X31693Y38139D01*
X31693Y38135D01*
X31691Y38128D01*
X31689Y38121D01*
X31688Y38119D01*
X31686Y38116D01*
X31685Y38114D01*
X31684Y38111D01*
X31683Y38110D01*
X31682Y38108D01*
X31681Y38107D01*
X31680Y38106D01*
X31680Y38105D01*
X31680Y38105D01*
X31677Y38103D01*
X31674Y38100D01*
X31669Y38096D01*
X31662Y38093D01*
X31657Y38090D01*
X31654Y38089D01*
X31651Y38088D01*
X31649Y38087D01*
X31647Y38087D01*
X31646Y38086D01*
X31644Y38086D01*
X31644Y38086D01*
X31643D01*
X31639Y38109D01*
X31645Y38110D01*
X31650Y38112D01*
X31655Y38114D01*
X31658Y38116D01*
X31661Y38118D01*
X31663Y38119D01*
X31664Y38120D01*
X31665Y38121D01*
X31668Y38124D01*
X31670Y38128D01*
X31671Y38132D01*
X31672Y38136D01*
X31673Y38139D01*
X31673Y38142D01*
X31674Y38143D01*
Y38143D01*
Y38144D01*
Y38144D01*
X31673Y38149D01*
X31672Y38153D01*
X31671Y38157D01*
X31669Y38161D01*
X31667Y38163D01*
X31666Y38165D01*
X31665Y38166D01*
X31665Y38166D01*
X31662Y38170D01*
X31658Y38172D01*
X31654Y38173D01*
X31651Y38175D01*
X31648Y38175D01*
X31646Y38175D01*
X31644Y38175D01*
X31644D01*
X31641Y38175D01*
X31638Y38175D01*
X31633Y38173D01*
X31628Y38172D01*
X31625Y38170D01*
X31623Y38167D01*
X31621Y38165D01*
X31620Y38164D01*
X31619Y38163D01*
Y38163D01*
X31616Y38159D01*
X31614Y38154D01*
X31613Y38149D01*
X31612Y38145D01*
X31612Y38142D01*
X31611Y38139D01*
X31611Y38138D01*
Y38137D01*
Y38136D01*
Y38136D01*
Y38135D01*
X31611Y38134D01*
X31612Y38133D01*
Y38133D01*
X31591Y38130D01*
X31592Y38133D01*
X31593Y38136D01*
X31593Y38140D01*
X31593Y38142D01*
X31593Y38144D01*
Y38145D01*
Y38146D01*
Y38147D01*
X31593Y38152D01*
X31592Y38158D01*
X31590Y38162D01*
X31588Y38166D01*
X31586Y38169D01*
X31585Y38172D01*
X31583Y38173D01*
X31583Y38173D01*
X31581Y38175D01*
X31579Y38177D01*
X31574Y38180D01*
X31570Y38182D01*
X31566Y38183D01*
X31562Y38184D01*
X31560Y38184D01*
X31559D01*
X31558Y38184D01*
X31553D01*
X31550Y38184D01*
X31545Y38182D01*
X31540Y38180D01*
X31536Y38179D01*
X31532Y38177D01*
X31530Y38175D01*
X31529Y38174D01*
X31528Y38173D01*
X31528Y38173D01*
X31528Y38173D01*
X31526Y38170D01*
X31524Y38168D01*
X31521Y38163D01*
X31519Y38159D01*
X31518Y38154D01*
X31517Y38150D01*
X31516Y38149D01*
Y38147D01*
X31516Y38146D01*
Y38145D01*
Y38145D01*
Y38145D01*
X31517Y38140D01*
X31518Y38135D01*
X31519Y38131D01*
X31521Y38127D01*
X31522Y38124D01*
X31524Y38122D01*
X31525Y38121D01*
X31525Y38121D01*
X31527Y38119D01*
X31529Y38117D01*
X31534Y38115D01*
X31538Y38112D01*
X31543Y38110D01*
X31548Y38109D01*
X31549Y38108D01*
X31551Y38108D01*
X31552Y38108D01*
X31553Y38107D01*
X31554Y38107D01*
X31554D01*
X31551Y38084D01*
X31546Y38084D01*
X31542Y38085D01*
X31539Y38086D01*
X31535Y38087D01*
X31531Y38089D01*
X31528Y38091D01*
X31525Y38092D01*
X31522Y38094D01*
X31520Y38096D01*
X31518Y38097D01*
X31516Y38098D01*
X31514Y38100D01*
X31513Y38101D01*
X31512Y38102D01*
X31512Y38102D01*
X31512Y38103D01*
X31509Y38106D01*
X31507Y38109D01*
X31505Y38112D01*
X31503Y38116D01*
X31502Y38120D01*
X31500Y38123D01*
X31499Y38130D01*
X31498Y38133D01*
X31497Y38136D01*
X31497Y38138D01*
X31497Y38140D01*
X31497Y38142D01*
Y38143D01*
Y38144D01*
Y38145D01*
X31497Y38150D01*
X31497Y38154D01*
X31498Y38159D01*
X31500Y38163D01*
X31501Y38168D01*
X31502Y38172D01*
X31504Y38175D01*
X31505Y38178D01*
X31507Y38181D01*
X31509Y38184D01*
X31510Y38186D01*
X31511Y38187D01*
X31512Y38189D01*
X31513Y38190D01*
X31514Y38191D01*
X31514Y38191D01*
X31517Y38194D01*
X31521Y38197D01*
X31525Y38199D01*
X31528Y38201D01*
X31532Y38203D01*
X31535Y38205D01*
X31539Y38206D01*
X31542Y38207D01*
X31545Y38208D01*
X31548Y38208D01*
X31550Y38209D01*
X31553Y38209D01*
X31554Y38209D01*
X31557D01*
X31563Y38209D01*
D02*
G37*
G36*
X24502Y32677D02*
X24407D01*
X24410Y32673D01*
X24412Y32671D01*
X24414Y32669D01*
X24415Y32667D01*
X24416Y32666D01*
X24417Y32665D01*
X24417Y32665D01*
X24418Y32664D01*
X24420Y32662D01*
X24422Y32660D01*
X24424Y32658D01*
X24428Y32654D01*
X24433Y32650D01*
X24437Y32647D01*
X24439Y32645D01*
X24441Y32643D01*
X24442Y32642D01*
X24443Y32641D01*
X24444Y32641D01*
X24444Y32641D01*
X24449Y32636D01*
X24453Y32633D01*
X24457Y32629D01*
X24461Y32626D01*
X24464Y32623D01*
X24467Y32620D01*
X24470Y32618D01*
X24472Y32615D01*
X24474Y32613D01*
X24476Y32612D01*
X24478Y32610D01*
X24479Y32609D01*
X24480Y32608D01*
X24480Y32607D01*
X24481Y32607D01*
Y32607D01*
X24485Y32602D01*
X24488Y32598D01*
X24491Y32594D01*
X24493Y32590D01*
X24495Y32587D01*
X24496Y32585D01*
X24496Y32584D01*
X24497Y32583D01*
X24498Y32579D01*
X24499Y32575D01*
X24500Y32571D01*
X24501Y32568D01*
X24501Y32565D01*
X24501Y32562D01*
Y32561D01*
Y32561D01*
X24501Y32556D01*
X24501Y32552D01*
X24500Y32548D01*
X24499Y32545D01*
X24496Y32538D01*
X24495Y32536D01*
X24493Y32533D01*
X24492Y32531D01*
X24490Y32529D01*
X24489Y32527D01*
X24488Y32525D01*
X24487Y32524D01*
X24486Y32523D01*
X24485Y32523D01*
X24485Y32522D01*
X24482Y32520D01*
X24479Y32517D01*
X24475Y32515D01*
X24471Y32513D01*
X24468Y32512D01*
X24464Y32511D01*
X24457Y32509D01*
X24454Y32508D01*
X24451Y32508D01*
X24448Y32508D01*
X24446Y32507D01*
X24444Y32507D01*
X24441D01*
X24436Y32507D01*
X24431Y32508D01*
X24427Y32508D01*
X24423Y32509D01*
X24419Y32510D01*
X24415Y32511D01*
X24412Y32513D01*
X24409Y32514D01*
X24406Y32515D01*
X24404Y32517D01*
X24402Y32518D01*
X24400Y32519D01*
X24399Y32520D01*
X24398Y32521D01*
X24398Y32521D01*
X24397Y32521D01*
X24394Y32524D01*
X24392Y32527D01*
X24390Y32530D01*
X24388Y32534D01*
X24386Y32537D01*
X24384Y32541D01*
X24382Y32547D01*
X24381Y32550D01*
X24380Y32553D01*
X24380Y32556D01*
X24379Y32558D01*
X24379Y32560D01*
Y32561D01*
X24379Y32562D01*
Y32562D01*
X24403Y32565D01*
X24404Y32559D01*
X24405Y32553D01*
X24406Y32548D01*
X24408Y32544D01*
X24410Y32541D01*
X24412Y32538D01*
X24413Y32537D01*
X24413Y32537D01*
X24417Y32533D01*
X24422Y32531D01*
X24427Y32529D01*
X24431Y32528D01*
X24435Y32527D01*
X24436Y32527D01*
X24438D01*
X24439Y32527D01*
X24441D01*
X24446Y32527D01*
X24452Y32528D01*
X24456Y32529D01*
X24460Y32531D01*
X24463Y32533D01*
X24465Y32535D01*
X24466Y32536D01*
X24467Y32536D01*
X24470Y32540D01*
X24473Y32544D01*
X24475Y32548D01*
X24476Y32552D01*
X24477Y32555D01*
X24477Y32557D01*
X24477Y32559D01*
Y32559D01*
Y32559D01*
Y32560D01*
Y32562D01*
X24477Y32565D01*
X24475Y32570D01*
X24474Y32575D01*
X24472Y32579D01*
X24469Y32583D01*
X24468Y32584D01*
X24468Y32586D01*
X24467Y32587D01*
X24466Y32587D01*
X24466Y32588D01*
X24466Y32588D01*
X24464Y32591D01*
X24461Y32594D01*
X24458Y32597D01*
X24455Y32601D01*
X24448Y32608D01*
X24441Y32614D01*
X24437Y32617D01*
X24434Y32620D01*
X24431Y32622D01*
X24429Y32625D01*
X24427Y32627D01*
X24425Y32628D01*
X24424Y32629D01*
X24424Y32629D01*
X24416Y32635D01*
X24410Y32641D01*
X24405Y32645D01*
X24401Y32650D01*
X24397Y32653D01*
X24395Y32656D01*
X24394Y32657D01*
X24393Y32658D01*
X24393Y32658D01*
X24393Y32658D01*
X24389Y32663D01*
X24386Y32668D01*
X24383Y32672D01*
X24381Y32676D01*
X24379Y32679D01*
X24378Y32682D01*
X24378Y32682D01*
X24377Y32683D01*
X24377Y32683D01*
Y32684D01*
X24376Y32687D01*
X24375Y32689D01*
X24375Y32692D01*
X24375Y32695D01*
X24374Y32697D01*
Y32699D01*
Y32699D01*
Y32700D01*
X24502D01*
Y32677D01*
D02*
G37*
G36*
X26062Y31929D02*
X26268D01*
Y31897D01*
X26062Y31752D01*
X26026D01*
Y31890D01*
X25950D01*
Y31929D01*
X26026D01*
Y31972D01*
X26062D01*
Y31929D01*
D02*
G37*
G36*
X26268Y31617D02*
Y31571D01*
X25950Y31450D01*
Y31495D01*
X26046Y31529D01*
Y31662D01*
X25950Y31699D01*
Y31747D01*
X26268Y31617D01*
D02*
G37*
G36*
X26066Y32925D02*
X26073Y32924D01*
X26081Y32923D01*
X26088Y32921D01*
X26095Y32919D01*
X26101Y32916D01*
X26107Y32914D01*
X26111Y32911D01*
X26116Y32908D01*
X26120Y32906D01*
X26123Y32903D01*
X26126Y32901D01*
X26129Y32899D01*
X26130Y32898D01*
X26131Y32897D01*
X26132Y32896D01*
X26137Y32891D01*
X26141Y32885D01*
X26145Y32879D01*
X26149Y32874D01*
X26151Y32868D01*
X26154Y32862D01*
X26156Y32856D01*
X26157Y32851D01*
X26158Y32846D01*
X26159Y32841D01*
X26160Y32837D01*
X26160Y32834D01*
X26161Y32831D01*
Y32828D01*
Y32827D01*
Y32827D01*
X26160Y32821D01*
X26160Y32815D01*
X26157Y32804D01*
X26154Y32794D01*
X26151Y32785D01*
X26149Y32781D01*
X26147Y32777D01*
X26145Y32774D01*
X26144Y32772D01*
X26142Y32770D01*
X26141Y32768D01*
X26141Y32767D01*
X26140Y32767D01*
X26226Y32784D01*
Y32910D01*
X26263D01*
Y32753D01*
X26100Y32722D01*
X26095Y32759D01*
X26100Y32762D01*
X26104Y32766D01*
X26108Y32770D01*
X26111Y32774D01*
X26114Y32777D01*
X26116Y32780D01*
X26117Y32781D01*
X26117Y32782D01*
X26120Y32788D01*
X26123Y32794D01*
X26124Y32800D01*
X26125Y32805D01*
X26126Y32810D01*
X26126Y32813D01*
Y32815D01*
Y32816D01*
Y32822D01*
X26126Y32827D01*
X26123Y32837D01*
X26120Y32845D01*
X26117Y32852D01*
X26113Y32858D01*
X26110Y32862D01*
X26109Y32863D01*
X26108Y32865D01*
X26107Y32865D01*
X26107D01*
X26103Y32869D01*
X26099Y32872D01*
X26090Y32876D01*
X26082Y32879D01*
X26073Y32882D01*
X26066Y32883D01*
X26062Y32884D01*
X26059D01*
X26057Y32884D01*
X26047D01*
X26042Y32883D01*
X26031Y32881D01*
X26021Y32878D01*
X26013Y32875D01*
X26009Y32872D01*
X26007Y32871D01*
X26004Y32869D01*
X26002Y32868D01*
X26000Y32866D01*
X25999Y32865D01*
X25998Y32865D01*
X25998Y32865D01*
X25994Y32861D01*
X25991Y32857D01*
X25988Y32853D01*
X25986Y32849D01*
X25982Y32841D01*
X25979Y32833D01*
X25978Y32827D01*
X25978Y32824D01*
X25977Y32822D01*
X25977Y32820D01*
Y32818D01*
Y32817D01*
Y32817D01*
X25978Y32808D01*
X25979Y32801D01*
X25981Y32794D01*
X25984Y32788D01*
X25987Y32783D01*
X25989Y32780D01*
X25991Y32777D01*
X25991Y32777D01*
X25997Y32771D01*
X26005Y32767D01*
X26012Y32763D01*
X26019Y32760D01*
X26026Y32758D01*
X26028Y32758D01*
X26031Y32757D01*
X26033Y32756D01*
X26035D01*
X26035Y32756D01*
X26036D01*
X26033Y32715D01*
X26026Y32716D01*
X26019Y32718D01*
X26012Y32719D01*
X26006Y32722D01*
X26000Y32724D01*
X25995Y32727D01*
X25990Y32729D01*
X25986Y32732D01*
X25982Y32735D01*
X25979Y32737D01*
X25976Y32739D01*
X25973Y32742D01*
X25971Y32744D01*
X25970Y32745D01*
X25969Y32746D01*
X25969Y32746D01*
X25964Y32751D01*
X25961Y32757D01*
X25957Y32763D01*
X25955Y32769D01*
X25952Y32775D01*
X25950Y32780D01*
X25948Y32792D01*
X25947Y32797D01*
X25946Y32801D01*
X25945Y32806D01*
X25945Y32810D01*
X25945Y32813D01*
Y32815D01*
Y32816D01*
Y32817D01*
X25945Y32826D01*
X25946Y32835D01*
X25948Y32844D01*
X25951Y32852D01*
X25954Y32860D01*
X25957Y32866D01*
X25960Y32872D01*
X25964Y32878D01*
X25967Y32883D01*
X25971Y32888D01*
X25974Y32891D01*
X25977Y32894D01*
X25979Y32897D01*
X25981Y32899D01*
X25983Y32900D01*
X25983Y32900D01*
X25989Y32905D01*
X25995Y32908D01*
X26002Y32912D01*
X26008Y32915D01*
X26014Y32917D01*
X26020Y32919D01*
X26032Y32922D01*
X26037Y32923D01*
X26042Y32924D01*
X26047Y32925D01*
X26050Y32925D01*
X26053Y32925D01*
X26057D01*
X26066Y32925D01*
D02*
G37*
G36*
X26268Y32567D02*
Y32521D01*
X25950Y32400D01*
Y32445D01*
X26046Y32479D01*
Y32612D01*
X25950Y32649D01*
Y32697D01*
X26268Y32567D01*
D02*
G37*
G36*
X26061Y27802D02*
X26069Y27802D01*
X26076Y27800D01*
X26084Y27799D01*
X26090Y27796D01*
X26096Y27794D01*
X26102Y27792D01*
X26107Y27789D01*
X26111Y27786D01*
X26116Y27784D01*
X26119Y27782D01*
X26122Y27780D01*
X26124Y27778D01*
X26126Y27776D01*
X26127Y27776D01*
X26127Y27775D01*
X26132Y27770D01*
X26137Y27764D01*
X26140Y27759D01*
X26144Y27753D01*
X26147Y27748D01*
X26149Y27742D01*
X26151Y27737D01*
X26152Y27732D01*
X26154Y27727D01*
X26154Y27723D01*
X26155Y27719D01*
X26156Y27715D01*
X26156Y27712D01*
Y27710D01*
Y27709D01*
Y27709D01*
X26156Y27700D01*
X26154Y27693D01*
X26153Y27686D01*
X26151Y27679D01*
X26149Y27674D01*
X26147Y27670D01*
X26146Y27668D01*
X26146Y27667D01*
X26145Y27667D01*
Y27666D01*
X26141Y27659D01*
X26136Y27652D01*
X26131Y27646D01*
X26126Y27641D01*
X26121Y27637D01*
X26117Y27634D01*
X26114Y27633D01*
X26114Y27632D01*
X26122D01*
X26130Y27632D01*
X26138Y27633D01*
X26145Y27634D01*
X26152Y27635D01*
X26158Y27636D01*
X26164Y27636D01*
X26168Y27637D01*
X26173Y27638D01*
X26176Y27639D01*
X26180Y27640D01*
X26183Y27641D01*
X26185Y27642D01*
X26186Y27642D01*
X26187Y27643D01*
X26187D01*
X26196Y27647D01*
X26204Y27652D01*
X26211Y27657D01*
X26216Y27661D01*
X26221Y27665D01*
X26223Y27669D01*
X26225Y27671D01*
X26226Y27672D01*
X26230Y27677D01*
X26232Y27683D01*
X26234Y27688D01*
X26235Y27693D01*
X26236Y27698D01*
X26237Y27701D01*
Y27704D01*
Y27705D01*
X26236Y27713D01*
X26234Y27721D01*
X26231Y27727D01*
X26228Y27733D01*
X26225Y27738D01*
X26223Y27741D01*
X26221Y27743D01*
X26220Y27744D01*
X26216Y27747D01*
X26211Y27750D01*
X26205Y27753D01*
X26200Y27755D01*
X26195Y27757D01*
X26191Y27758D01*
X26189Y27758D01*
X26188D01*
X26187Y27759D01*
X26187D01*
X26190Y27797D01*
X26197Y27796D01*
X26203Y27795D01*
X26214Y27791D01*
X26220Y27788D01*
X26224Y27786D01*
X26229Y27784D01*
X26232Y27781D01*
X26236Y27779D01*
X26239Y27776D01*
X26242Y27774D01*
X26244Y27772D01*
X26246Y27771D01*
X26247Y27770D01*
X26247Y27769D01*
X26248Y27769D01*
X26251Y27764D01*
X26255Y27759D01*
X26258Y27754D01*
X26260Y27749D01*
X26264Y27738D01*
X26266Y27729D01*
X26267Y27724D01*
X26268Y27720D01*
X26268Y27717D01*
X26268Y27713D01*
X26269Y27711D01*
Y27709D01*
Y27707D01*
Y27707D01*
X26268Y27698D01*
X26267Y27689D01*
X26266Y27681D01*
X26263Y27673D01*
X26260Y27666D01*
X26257Y27660D01*
X26254Y27653D01*
X26251Y27648D01*
X26247Y27643D01*
X26244Y27639D01*
X26241Y27635D01*
X26238Y27632D01*
X26235Y27630D01*
X26234Y27628D01*
X26232Y27627D01*
X26232Y27627D01*
X26224Y27621D01*
X26214Y27616D01*
X26204Y27611D01*
X26194Y27608D01*
X26183Y27604D01*
X26171Y27601D01*
X26160Y27599D01*
X26149Y27597D01*
X26139Y27596D01*
X26130Y27595D01*
X26121Y27594D01*
X26113Y27593D01*
X26107D01*
X26104Y27593D01*
X26098D01*
X26083Y27593D01*
X26070Y27594D01*
X26057Y27596D01*
X26045Y27598D01*
X26035Y27600D01*
X26025Y27603D01*
X26016Y27605D01*
X26008Y27608D01*
X26002Y27611D01*
X25996Y27614D01*
X25991Y27617D01*
X25987Y27619D01*
X25984Y27621D01*
X25982Y27622D01*
X25981Y27623D01*
X25980Y27624D01*
X25974Y27630D01*
X25969Y27636D01*
X25964Y27643D01*
X25959Y27649D01*
X25956Y27656D01*
X25953Y27662D01*
X25951Y27669D01*
X25949Y27675D01*
X25948Y27681D01*
X25947Y27686D01*
X25946Y27691D01*
X25945Y27695D01*
Y27699D01*
X25945Y27701D01*
Y27703D01*
Y27703D01*
X25945Y27714D01*
X25947Y27723D01*
X25949Y27732D01*
X25952Y27739D01*
X25954Y27745D01*
X25955Y27748D01*
X25956Y27750D01*
X25957Y27752D01*
X25958Y27753D01*
X25958Y27754D01*
Y27754D01*
X25964Y27762D01*
X25970Y27769D01*
X25977Y27775D01*
X25983Y27781D01*
X25989Y27784D01*
X25993Y27787D01*
X25995Y27788D01*
X25996Y27789D01*
X25997Y27790D01*
X25997D01*
X26007Y27794D01*
X26017Y27797D01*
X26026Y27800D01*
X26035Y27801D01*
X26042Y27802D01*
X26045Y27802D01*
X26048Y27803D01*
X26053D01*
X26061Y27802D01*
D02*
G37*
G36*
X26268Y27447D02*
Y27401D01*
X25950Y27280D01*
Y27325D01*
X26046Y27359D01*
Y27492D01*
X25950Y27529D01*
Y27577D01*
X26268Y27447D01*
D02*
G37*
G36*
X26263Y28598D02*
X26226D01*
Y28753D01*
X26213Y28742D01*
X26199Y28731D01*
X26185Y28722D01*
X26171Y28714D01*
X26166Y28710D01*
X26160Y28707D01*
X26155Y28704D01*
X26151Y28701D01*
X26147Y28699D01*
X26145Y28698D01*
X26143Y28697D01*
X26142Y28697D01*
X26124Y28688D01*
X26106Y28679D01*
X26088Y28673D01*
X26081Y28669D01*
X26073Y28667D01*
X26066Y28665D01*
X26059Y28662D01*
X26054Y28661D01*
X26049Y28659D01*
X26045Y28658D01*
X26043Y28657D01*
X26041Y28657D01*
X26040D01*
X26030Y28654D01*
X26021Y28652D01*
X26012Y28650D01*
X26004Y28648D01*
X25996Y28647D01*
X25988Y28646D01*
X25981Y28645D01*
X25975Y28644D01*
X25969Y28643D01*
X25964Y28643D01*
X25960Y28643D01*
X25957D01*
X25954Y28642D01*
X25950D01*
Y28682D01*
X25967Y28684D01*
X25983Y28686D01*
X25991Y28687D01*
X25998Y28688D01*
X26005Y28690D01*
X26011Y28691D01*
X26017Y28692D01*
X26022Y28693D01*
X26026Y28694D01*
X26030Y28695D01*
X26033Y28696D01*
X26035Y28697D01*
X26037Y28697D01*
X26037D01*
X26058Y28704D01*
X26078Y28711D01*
X26088Y28715D01*
X26097Y28719D01*
X26105Y28722D01*
X26113Y28726D01*
X26121Y28729D01*
X26127Y28733D01*
X26133Y28735D01*
X26138Y28738D01*
X26142Y28740D01*
X26145Y28741D01*
X26147Y28742D01*
X26147Y28743D01*
X26157Y28748D01*
X26166Y28754D01*
X26175Y28759D01*
X26183Y28764D01*
X26191Y28770D01*
X26198Y28775D01*
X26204Y28779D01*
X26210Y28784D01*
X26215Y28788D01*
X26220Y28792D01*
X26224Y28795D01*
X26227Y28797D01*
X26230Y28800D01*
X26231Y28802D01*
X26232Y28802D01*
X26233Y28803D01*
X26263D01*
Y28598D01*
D02*
G37*
G36*
X26268Y28447D02*
Y28401D01*
X25950Y28280D01*
Y28325D01*
X26046Y28359D01*
Y28492D01*
X25950Y28529D01*
Y28577D01*
X26268Y28447D01*
D02*
G37*
G36*
X36263Y36943D02*
X36272Y36942D01*
X36277Y36941D01*
X36281Y36940D01*
X36285Y36939D01*
X36288Y36938D01*
X36292Y36937D01*
X36295Y36937D01*
X36298Y36936D01*
X36300Y36935D01*
X36302Y36934D01*
X36303Y36934D01*
X36304Y36933D01*
X36304D01*
X36308Y36931D01*
X36312Y36929D01*
X36316Y36927D01*
X36320Y36924D01*
X36323Y36922D01*
X36326Y36919D01*
X36329Y36917D01*
X36331Y36915D01*
X36333Y36912D01*
X36335Y36910D01*
X36337Y36908D01*
X36338Y36907D01*
X36339Y36905D01*
X36340Y36904D01*
X36340Y36904D01*
X36341Y36904D01*
X36343Y36900D01*
X36345Y36896D01*
X36346Y36892D01*
X36348Y36887D01*
X36350Y36879D01*
X36352Y36871D01*
X36352Y36867D01*
X36353Y36864D01*
X36353Y36860D01*
X36353Y36858D01*
X36353Y36856D01*
Y36854D01*
Y36853D01*
Y36853D01*
X36353Y36847D01*
X36353Y36842D01*
X36352Y36837D01*
X36351Y36832D01*
X36349Y36828D01*
X36348Y36823D01*
X36347Y36820D01*
X36345Y36816D01*
X36344Y36813D01*
X36342Y36810D01*
X36341Y36808D01*
X36339Y36806D01*
X36339Y36804D01*
X36338Y36803D01*
X36337Y36802D01*
X36337Y36802D01*
X36334Y36798D01*
X36330Y36795D01*
X36326Y36792D01*
X36323Y36789D01*
X36319Y36786D01*
X36315Y36784D01*
X36311Y36781D01*
X36307Y36780D01*
X36303Y36778D01*
X36300Y36777D01*
X36297Y36776D01*
X36295Y36774D01*
X36292Y36774D01*
X36291Y36774D01*
X36290Y36773D01*
X36289D01*
X36283Y36799D01*
X36287Y36800D01*
X36291Y36801D01*
X36295Y36802D01*
X36299Y36804D01*
X36302Y36806D01*
X36305Y36807D01*
X36308Y36809D01*
X36310Y36811D01*
X36312Y36812D01*
X36314Y36814D01*
X36316Y36815D01*
X36317Y36816D01*
X36318Y36817D01*
X36319Y36818D01*
X36319Y36818D01*
X36319Y36819D01*
X36321Y36821D01*
X36323Y36825D01*
X36325Y36827D01*
X36326Y36831D01*
X36328Y36837D01*
X36330Y36843D01*
X36330Y36845D01*
X36331Y36848D01*
X36331Y36850D01*
X36331Y36851D01*
X36332Y36853D01*
Y36854D01*
Y36855D01*
Y36855D01*
X36331Y36862D01*
X36330Y36867D01*
X36329Y36873D01*
X36327Y36878D01*
X36325Y36882D01*
X36325Y36884D01*
X36324Y36885D01*
X36323Y36886D01*
X36323Y36887D01*
X36323Y36888D01*
Y36888D01*
X36319Y36893D01*
X36314Y36897D01*
X36310Y36901D01*
X36305Y36904D01*
X36302Y36907D01*
X36300Y36908D01*
X36298Y36909D01*
X36297Y36909D01*
X36296Y36910D01*
X36295Y36910D01*
X36295D01*
X36288Y36912D01*
X36281Y36914D01*
X36274Y36915D01*
X36267Y36916D01*
X36264Y36916D01*
X36261D01*
X36259Y36917D01*
X36256Y36917D01*
X36253D01*
X36246Y36917D01*
X36239Y36916D01*
X36233Y36915D01*
X36227Y36914D01*
X36225Y36913D01*
X36222Y36913D01*
X36220Y36913D01*
X36219Y36912D01*
X36217Y36911D01*
X36216Y36911D01*
X36216Y36911D01*
X36216D01*
X36209Y36909D01*
X36203Y36905D01*
X36198Y36902D01*
X36195Y36898D01*
X36191Y36895D01*
X36189Y36893D01*
X36188Y36892D01*
X36188Y36891D01*
X36187Y36890D01*
Y36890D01*
X36185Y36887D01*
X36184Y36884D01*
X36181Y36878D01*
X36179Y36872D01*
X36177Y36866D01*
X36177Y36863D01*
X36177Y36861D01*
X36177Y36858D01*
Y36857D01*
X36176Y36855D01*
Y36854D01*
Y36853D01*
Y36853D01*
X36177Y36846D01*
X36178Y36840D01*
X36179Y36834D01*
X36181Y36830D01*
X36183Y36826D01*
X36184Y36824D01*
X36184Y36823D01*
X36185Y36822D01*
X36186Y36821D01*
X36186Y36821D01*
Y36821D01*
X36188Y36818D01*
X36190Y36816D01*
X36195Y36812D01*
X36200Y36809D01*
X36205Y36806D01*
X36209Y36804D01*
X36211Y36803D01*
X36213Y36802D01*
X36214Y36802D01*
X36216Y36802D01*
X36216Y36801D01*
X36216D01*
X36210Y36776D01*
X36206Y36778D01*
X36201Y36780D01*
X36197Y36782D01*
X36193Y36784D01*
X36189Y36786D01*
X36186Y36788D01*
X36183Y36791D01*
X36180Y36793D01*
X36177Y36795D01*
X36175Y36797D01*
X36174Y36799D01*
X36172Y36801D01*
X36171Y36802D01*
X36170Y36803D01*
X36170Y36804D01*
X36169Y36804D01*
X36167Y36808D01*
X36164Y36812D01*
X36163Y36816D01*
X36161Y36820D01*
X36159Y36824D01*
X36158Y36828D01*
X36156Y36835D01*
X36156Y36839D01*
X36155Y36842D01*
X36155Y36845D01*
X36155Y36848D01*
X36154Y36850D01*
Y36851D01*
Y36852D01*
Y36853D01*
Y36857D01*
X36155Y36862D01*
X36156Y36871D01*
X36158Y36878D01*
X36159Y36882D01*
X36160Y36885D01*
X36161Y36888D01*
X36163Y36891D01*
X36163Y36893D01*
X36165Y36895D01*
X36165Y36897D01*
X36166Y36898D01*
X36166Y36899D01*
X36166Y36899D01*
X36168Y36903D01*
X36171Y36907D01*
X36177Y36913D01*
X36182Y36919D01*
X36188Y36923D01*
X36190Y36925D01*
X36193Y36927D01*
X36195Y36929D01*
X36196Y36930D01*
X36198Y36931D01*
X36199Y36932D01*
X36200Y36932D01*
X36200Y36932D01*
X36205Y36934D01*
X36209Y36936D01*
X36218Y36939D01*
X36226Y36941D01*
X36231Y36941D01*
X36235Y36942D01*
X36239Y36942D01*
X36242Y36943D01*
X36245Y36943D01*
X36247D01*
X36249Y36943D01*
X36253D01*
X36263Y36943D01*
D02*
G37*
G36*
X36317Y36753D02*
X36320Y36752D01*
X36325Y36751D01*
X36330Y36749D01*
X36334Y36746D01*
X36337Y36744D01*
X36340Y36742D01*
X36342Y36741D01*
X36342Y36741D01*
X36342Y36741D01*
X36344Y36738D01*
X36346Y36735D01*
X36348Y36730D01*
X36350Y36724D01*
X36351Y36718D01*
X36353Y36713D01*
X36353Y36711D01*
Y36709D01*
X36353Y36707D01*
Y36706D01*
Y36706D01*
Y36705D01*
X36353Y36700D01*
X36352Y36695D01*
X36351Y36691D01*
X36351Y36687D01*
X36350Y36684D01*
X36349Y36681D01*
X36349Y36681D01*
X36349Y36680D01*
X36349Y36680D01*
Y36679D01*
X36346Y36675D01*
X36344Y36670D01*
X36341Y36666D01*
X36339Y36662D01*
X36336Y36659D01*
X36334Y36656D01*
X36333Y36655D01*
X36333Y36655D01*
X36332Y36654D01*
Y36654D01*
X36336Y36653D01*
X36339Y36653D01*
X36342Y36652D01*
X36345Y36651D01*
X36347Y36651D01*
X36349Y36650D01*
X36350Y36650D01*
X36350Y36649D01*
Y36625D01*
X36347Y36626D01*
X36344Y36628D01*
X36341Y36628D01*
X36339Y36630D01*
X36337Y36630D01*
X36335Y36630D01*
X36334Y36631D01*
X36333D01*
X36331Y36631D01*
X36329Y36631D01*
X36326D01*
X36323Y36632D01*
X36316Y36632D01*
X36309D01*
X36306Y36632D01*
X36255D01*
X36250Y36632D01*
X36247Y36632D01*
X36244D01*
X36241Y36633D01*
X36240Y36633D01*
X36239Y36633D01*
X36239D01*
X36235Y36634D01*
X36232Y36635D01*
X36229Y36637D01*
X36227Y36638D01*
X36225Y36639D01*
X36224Y36640D01*
X36223Y36641D01*
X36223Y36641D01*
X36221Y36643D01*
X36218Y36646D01*
X36216Y36648D01*
X36215Y36651D01*
X36214Y36653D01*
X36213Y36655D01*
X36212Y36657D01*
X36212Y36657D01*
Y36657D01*
X36210Y36662D01*
X36209Y36666D01*
X36209Y36671D01*
X36208Y36676D01*
X36208Y36680D01*
X36208Y36681D01*
Y36683D01*
Y36684D01*
Y36685D01*
Y36686D01*
Y36686D01*
X36208Y36693D01*
X36209Y36699D01*
X36209Y36704D01*
X36210Y36709D01*
X36211Y36713D01*
X36212Y36714D01*
X36212Y36715D01*
X36212Y36716D01*
X36212Y36717D01*
X36213Y36718D01*
Y36718D01*
X36215Y36723D01*
X36217Y36727D01*
X36219Y36730D01*
X36221Y36733D01*
X36224Y36735D01*
X36225Y36737D01*
X36226Y36738D01*
X36227Y36739D01*
X36230Y36741D01*
X36234Y36743D01*
X36238Y36745D01*
X36242Y36746D01*
X36245Y36748D01*
X36248Y36748D01*
X36249Y36748D01*
X36250D01*
X36250Y36749D01*
X36251D01*
X36254Y36726D01*
X36249Y36724D01*
X36244Y36722D01*
X36241Y36720D01*
X36238Y36718D01*
X36236Y36717D01*
X36234Y36716D01*
X36233Y36714D01*
X36233Y36714D01*
X36231Y36711D01*
X36230Y36707D01*
X36229Y36703D01*
X36228Y36699D01*
X36228Y36695D01*
X36227Y36692D01*
Y36691D01*
Y36690D01*
Y36690D01*
Y36690D01*
X36228Y36683D01*
X36228Y36678D01*
X36230Y36673D01*
X36231Y36669D01*
X36233Y36666D01*
X36234Y36664D01*
X36235Y36663D01*
X36235Y36662D01*
X36238Y36660D01*
X36241Y36658D01*
X36244Y36658D01*
X36248Y36656D01*
X36251Y36656D01*
X36253Y36656D01*
X36259D01*
X36260Y36656D01*
X36262D01*
X36263Y36659D01*
X36263Y36662D01*
X36265Y36668D01*
X36267Y36675D01*
X36268Y36682D01*
X36268Y36685D01*
X36269Y36688D01*
X36269Y36691D01*
X36269Y36693D01*
X36270Y36695D01*
Y36697D01*
X36270Y36698D01*
Y36698D01*
X36271Y36703D01*
X36271Y36707D01*
X36272Y36711D01*
X36272Y36714D01*
X36273Y36716D01*
X36273Y36718D01*
X36274Y36719D01*
Y36719D01*
X36274Y36723D01*
X36276Y36726D01*
X36277Y36728D01*
X36278Y36731D01*
X36279Y36733D01*
X36281Y36735D01*
X36281Y36736D01*
X36281Y36736D01*
X36283Y36739D01*
X36286Y36741D01*
X36288Y36743D01*
X36290Y36745D01*
X36292Y36746D01*
X36293Y36748D01*
X36294Y36748D01*
X36295Y36748D01*
X36298Y36750D01*
X36301Y36751D01*
X36305Y36752D01*
X36307Y36752D01*
X36310Y36753D01*
X36312Y36753D01*
X36314D01*
X36317Y36753D01*
D02*
G37*
G36*
X36350Y37174D02*
X36158D01*
Y37200D01*
X36350D01*
Y37174D01*
D02*
G37*
G36*
Y37104D02*
X36265D01*
Y37074D01*
Y37071D01*
X36265Y37068D01*
Y37066D01*
X36265Y37064D01*
X36265Y37062D01*
Y37061D01*
X36266Y37061D01*
Y37060D01*
X36267Y37056D01*
X36268Y37054D01*
X36269Y37053D01*
X36270Y37051D01*
X36270Y37050D01*
X36271Y37049D01*
X36271Y37049D01*
X36273Y37047D01*
X36274Y37044D01*
X36277Y37042D01*
X36279Y37040D01*
X36281Y37039D01*
X36282Y37037D01*
X36284Y37036D01*
X36284Y37036D01*
X36288Y37033D01*
X36292Y37030D01*
X36296Y37027D01*
X36300Y37024D01*
X36304Y37022D01*
X36306Y37020D01*
X36307Y37019D01*
X36309Y37018D01*
X36309Y37018D01*
X36310Y37018D01*
X36310D01*
X36350Y36992D01*
Y36960D01*
X36298Y36994D01*
X36293Y36997D01*
X36288Y37001D01*
X36283Y37004D01*
X36279Y37008D01*
X36277Y37011D01*
X36274Y37013D01*
X36273Y37014D01*
X36272Y37015D01*
Y37015D01*
X36271Y37017D01*
X36269Y37019D01*
X36266Y37024D01*
X36265Y37027D01*
X36263Y37028D01*
X36263Y37030D01*
X36263Y37030D01*
X36262Y37025D01*
X36261Y37020D01*
X36260Y37016D01*
X36258Y37012D01*
X36257Y37008D01*
X36256Y37005D01*
X36254Y37002D01*
X36253Y36999D01*
X36251Y36997D01*
X36249Y36995D01*
X36248Y36993D01*
X36247Y36992D01*
X36246Y36990D01*
X36246Y36990D01*
X36245Y36989D01*
X36245Y36989D01*
X36242Y36987D01*
X36240Y36985D01*
X36237Y36983D01*
X36234Y36981D01*
X36228Y36979D01*
X36223Y36978D01*
X36218Y36976D01*
X36216Y36976D01*
X36214Y36976D01*
X36212Y36976D01*
X36210D01*
X36205Y36976D01*
X36199Y36977D01*
X36194Y36978D01*
X36190Y36980D01*
X36186Y36981D01*
X36184Y36983D01*
X36183Y36983D01*
X36182Y36983D01*
X36182Y36984D01*
X36181D01*
X36177Y36987D01*
X36173Y36990D01*
X36170Y36994D01*
X36167Y36997D01*
X36165Y37001D01*
X36164Y37003D01*
X36163Y37004D01*
X36163Y37005D01*
X36163Y37005D01*
Y37005D01*
X36162Y37008D01*
X36161Y37011D01*
X36160Y37017D01*
X36159Y37023D01*
X36158Y37030D01*
X36158Y37033D01*
X36158Y37036D01*
Y37038D01*
X36158Y37040D01*
Y37042D01*
Y37043D01*
Y37044D01*
Y37044D01*
Y37129D01*
X36350D01*
Y37104D01*
D02*
G37*
G36*
Y36168D02*
Y36143D01*
X36243Y36115D01*
X36267Y36109D01*
X36350Y36087D01*
Y36063D01*
X36211Y36019D01*
Y36042D01*
X36291Y36066D01*
X36318Y36074D01*
X36292Y36081D01*
X36211Y36102D01*
Y36126D01*
X36293Y36148D01*
X36297Y36149D01*
X36301Y36150D01*
X36305Y36151D01*
X36308Y36152D01*
X36311Y36153D01*
X36313Y36153D01*
X36315Y36154D01*
X36317Y36154D01*
X36318Y36154D01*
X36319Y36155D01*
X36321Y36155D01*
X36321Y36155D01*
X36321D01*
X36291Y36163D01*
X36211Y36186D01*
Y36210D01*
X36350Y36168D01*
D02*
G37*
G36*
Y35975D02*
X36277D01*
X36272Y35975D01*
X36267Y35975D01*
X36262Y35974D01*
X36258Y35973D01*
X36255Y35973D01*
X36252Y35972D01*
X36251Y35972D01*
X36251D01*
X36250Y35972D01*
X36250D01*
X36247Y35970D01*
X36244Y35969D01*
X36242Y35968D01*
X36240Y35966D01*
X36239Y35965D01*
X36238Y35964D01*
X36237Y35963D01*
X36237Y35963D01*
X36235Y35961D01*
X36234Y35958D01*
X36233Y35956D01*
X36233Y35954D01*
X36233Y35952D01*
X36232Y35950D01*
Y35949D01*
Y35949D01*
X36233Y35946D01*
X36233Y35942D01*
X36234Y35940D01*
X36235Y35937D01*
X36236Y35935D01*
X36237Y35933D01*
X36237Y35932D01*
X36237Y35931D01*
X36216Y35923D01*
X36213Y35928D01*
X36211Y35932D01*
X36210Y35937D01*
X36209Y35940D01*
X36208Y35943D01*
X36208Y35946D01*
Y35947D01*
Y35947D01*
Y35948D01*
X36208Y35951D01*
X36209Y35954D01*
X36209Y35956D01*
X36210Y35958D01*
X36211Y35960D01*
X36212Y35962D01*
X36212Y35963D01*
X36212Y35963D01*
X36215Y35965D01*
X36218Y35968D01*
X36221Y35971D01*
X36224Y35973D01*
X36227Y35975D01*
X36230Y35977D01*
X36231Y35977D01*
X36232Y35977D01*
X36232Y35978D01*
X36211D01*
Y35999D01*
X36350D01*
Y35975D01*
D02*
G37*
G36*
Y36572D02*
X36278D01*
X36271Y36572D01*
X36265Y36572D01*
X36260Y36571D01*
X36256Y36570D01*
X36253Y36570D01*
X36251Y36569D01*
X36249Y36569D01*
X36249Y36569D01*
X36246Y36567D01*
X36242Y36565D01*
X36240Y36563D01*
X36237Y36561D01*
X36236Y36559D01*
X36235Y36558D01*
X36234Y36556D01*
X36233Y36556D01*
X36232Y36553D01*
X36230Y36549D01*
X36230Y36546D01*
X36229Y36544D01*
X36228Y36541D01*
X36228Y36539D01*
Y36538D01*
Y36537D01*
X36228Y36533D01*
X36230Y36529D01*
X36231Y36526D01*
X36232Y36523D01*
X36234Y36521D01*
X36235Y36520D01*
X36236Y36519D01*
X36236Y36519D01*
X36240Y36517D01*
X36243Y36516D01*
X36247Y36514D01*
X36251Y36514D01*
X36254Y36513D01*
X36257Y36513D01*
X36350D01*
Y36490D01*
X36265D01*
X36262Y36489D01*
X36258Y36488D01*
X36256Y36488D01*
X36253Y36487D01*
X36250Y36486D01*
X36248Y36486D01*
X36246Y36484D01*
X36242Y36483D01*
X36240Y36481D01*
X36239Y36480D01*
X36238Y36480D01*
X36235Y36476D01*
X36233Y36472D01*
X36231Y36468D01*
X36230Y36464D01*
X36229Y36460D01*
X36228Y36458D01*
X36228Y36456D01*
Y36456D01*
Y36455D01*
Y36455D01*
X36228Y36452D01*
X36229Y36449D01*
X36230Y36447D01*
X36230Y36445D01*
X36231Y36443D01*
X36232Y36442D01*
X36232Y36441D01*
X36232Y36441D01*
X36234Y36439D01*
X36235Y36437D01*
X36237Y36435D01*
X36239Y36435D01*
X36240Y36433D01*
X36241Y36433D01*
X36242Y36432D01*
X36242D01*
X36245Y36432D01*
X36248Y36431D01*
X36251Y36431D01*
X36255Y36430D01*
X36258Y36430D01*
X36350D01*
Y36407D01*
X36251D01*
X36246Y36407D01*
X36242Y36408D01*
X36239Y36409D01*
X36236Y36409D01*
X36233Y36410D01*
X36230Y36411D01*
X36228Y36412D01*
X36226Y36414D01*
X36224Y36414D01*
X36223Y36416D01*
X36221Y36416D01*
X36221Y36417D01*
X36220Y36418D01*
X36219Y36418D01*
X36219Y36418D01*
X36217Y36420D01*
X36216Y36423D01*
X36212Y36428D01*
X36210Y36433D01*
X36209Y36438D01*
X36208Y36443D01*
X36208Y36445D01*
Y36446D01*
X36208Y36448D01*
Y36449D01*
Y36450D01*
Y36450D01*
X36208Y36455D01*
X36209Y36460D01*
X36210Y36464D01*
X36212Y36468D01*
X36214Y36472D01*
X36216Y36475D01*
X36218Y36479D01*
X36220Y36481D01*
X36222Y36484D01*
X36225Y36486D01*
X36226Y36488D01*
X36228Y36490D01*
X36230Y36491D01*
X36231Y36492D01*
X36232Y36493D01*
X36232Y36493D01*
X36228Y36495D01*
X36225Y36497D01*
X36221Y36499D01*
X36219Y36502D01*
X36217Y36504D01*
X36216Y36505D01*
X36214Y36507D01*
X36214Y36507D01*
X36212Y36511D01*
X36210Y36515D01*
X36209Y36519D01*
X36209Y36523D01*
X36208Y36527D01*
X36208Y36530D01*
Y36531D01*
Y36532D01*
Y36532D01*
Y36532D01*
X36208Y36537D01*
X36209Y36542D01*
X36210Y36546D01*
X36211Y36550D01*
X36212Y36553D01*
X36213Y36555D01*
X36214Y36557D01*
X36214Y36557D01*
Y36557D01*
X36216Y36561D01*
X36219Y36565D01*
X36222Y36567D01*
X36225Y36570D01*
X36227Y36572D01*
X36229Y36574D01*
X36230Y36574D01*
X36230Y36575D01*
X36211D01*
Y36596D01*
X36350D01*
Y36572D01*
D02*
G37*
G36*
Y36343D02*
X36272D01*
Y36294D01*
X36272Y36287D01*
X36271Y36280D01*
X36270Y36274D01*
X36269Y36268D01*
X36268Y36263D01*
X36267Y36258D01*
X36265Y36254D01*
X36263Y36251D01*
X36262Y36248D01*
X36260Y36245D01*
X36259Y36243D01*
X36258Y36241D01*
X36256Y36240D01*
X36256Y36239D01*
X36255Y36238D01*
X36255Y36238D01*
X36252Y36235D01*
X36248Y36233D01*
X36245Y36231D01*
X36241Y36229D01*
X36238Y36227D01*
X36235Y36226D01*
X36228Y36224D01*
X36225Y36223D01*
X36222Y36223D01*
X36220Y36223D01*
X36218Y36223D01*
X36216Y36222D01*
X36214D01*
X36208Y36223D01*
X36203Y36223D01*
X36199Y36224D01*
X36195Y36225D01*
X36192Y36226D01*
X36189Y36227D01*
X36188Y36228D01*
X36188Y36228D01*
X36188Y36228D01*
X36187D01*
X36183Y36230D01*
X36179Y36233D01*
X36176Y36236D01*
X36174Y36238D01*
X36172Y36240D01*
X36170Y36242D01*
X36169Y36243D01*
X36169Y36244D01*
X36167Y36247D01*
X36165Y36251D01*
X36163Y36255D01*
X36162Y36259D01*
X36161Y36262D01*
X36160Y36265D01*
X36160Y36266D01*
X36160Y36267D01*
Y36267D01*
Y36267D01*
X36159Y36271D01*
X36158Y36276D01*
X36158Y36281D01*
X36158Y36286D01*
X36158Y36290D01*
Y36292D01*
Y36293D01*
Y36295D01*
Y36296D01*
Y36296D01*
Y36297D01*
Y36369D01*
X36350D01*
Y36343D01*
D02*
G37*
G36*
X31546Y34986D02*
X31551Y34982D01*
X31556Y34978D01*
X31561Y34975D01*
X31564Y34972D01*
X31567Y34969D01*
X31569Y34967D01*
X31571Y34965D01*
X31571Y34965D01*
Y34965D01*
X31573Y34962D01*
X31575Y34960D01*
X31578Y34955D01*
X31579Y34953D01*
X31580Y34951D01*
X31581Y34950D01*
X31581Y34950D01*
X31582Y34955D01*
X31583Y34959D01*
X31584Y34964D01*
X31585Y34968D01*
X31587Y34971D01*
X31588Y34975D01*
X31590Y34978D01*
X31591Y34980D01*
X31593Y34983D01*
X31594Y34985D01*
X31595Y34987D01*
X31596Y34988D01*
X31597Y34989D01*
X31598Y34990D01*
X31598Y34990D01*
X31599Y34990D01*
X31601Y34993D01*
X31604Y34995D01*
X31607Y34997D01*
X31610Y34998D01*
X31616Y35001D01*
X31621Y35002D01*
X31626Y35003D01*
X31628Y35003D01*
X31630Y35003D01*
X31631Y35004D01*
X31633D01*
X31639Y35003D01*
X31644Y35003D01*
X31649Y35001D01*
X31654Y35000D01*
X31657Y34998D01*
X31660Y34997D01*
X31661Y34997D01*
X31662Y34996D01*
X31662Y34996D01*
X31662D01*
X31667Y34992D01*
X31671Y34989D01*
X31674Y34985D01*
X31676Y34982D01*
X31678Y34979D01*
X31680Y34976D01*
X31680Y34976D01*
X31680Y34975D01*
X31681Y34975D01*
Y34974D01*
X31682Y34972D01*
X31682Y34969D01*
X31684Y34962D01*
X31685Y34956D01*
X31685Y34950D01*
X31685Y34947D01*
X31686Y34944D01*
Y34942D01*
X31686Y34939D01*
Y34938D01*
Y34936D01*
Y34936D01*
Y34935D01*
Y34850D01*
X31494D01*
Y34876D01*
X31579D01*
Y34905D01*
Y34908D01*
X31579Y34911D01*
Y34914D01*
X31578Y34916D01*
X31578Y34917D01*
Y34918D01*
X31578Y34919D01*
Y34919D01*
X31576Y34923D01*
X31576Y34925D01*
X31575Y34927D01*
X31574Y34929D01*
X31573Y34929D01*
X31573Y34930D01*
X31573Y34931D01*
X31571Y34933D01*
X31569Y34935D01*
X31567Y34937D01*
X31565Y34939D01*
X31563Y34941D01*
X31561Y34942D01*
X31560Y34943D01*
X31560Y34943D01*
X31556Y34946D01*
X31552Y34950D01*
X31547Y34952D01*
X31543Y34955D01*
X31539Y34958D01*
X31538Y34959D01*
X31536Y34960D01*
X31535Y34961D01*
X31534Y34962D01*
X31534Y34962D01*
X31533D01*
X31494Y34987D01*
Y35019D01*
X31546Y34986D01*
D02*
G37*
G36*
X37134Y33614D02*
X37125Y33611D01*
X37118Y33609D01*
X37110Y33605D01*
X37102Y33602D01*
X37096Y33599D01*
X37090Y33596D01*
X37085Y33593D01*
X37080Y33589D01*
X37076Y33586D01*
X37072Y33583D01*
X37069Y33580D01*
X37066Y33578D01*
X37064Y33576D01*
X37062Y33575D01*
X37062Y33574D01*
X37062Y33573D01*
X37057Y33568D01*
X37053Y33561D01*
X37050Y33556D01*
X37048Y33549D01*
X37043Y33537D01*
X37040Y33526D01*
X37039Y33521D01*
X37039Y33516D01*
X37038Y33512D01*
X37037Y33507D01*
X37037Y33505D01*
Y33503D01*
Y33501D01*
Y33500D01*
X37038Y33488D01*
X37040Y33475D01*
X37043Y33465D01*
X37046Y33454D01*
X37050Y33447D01*
X37051Y33443D01*
X37052Y33440D01*
X37053Y33438D01*
X37054Y33437D01*
X37055Y33435D01*
Y33435D01*
X37062Y33424D01*
X37071Y33416D01*
X37080Y33408D01*
X37089Y33402D01*
X37097Y33396D01*
X37101Y33395D01*
X37104Y33393D01*
X37106Y33392D01*
X37108Y33391D01*
X37109Y33391D01*
X37109D01*
X37123Y33386D01*
X37139Y33382D01*
X37153Y33380D01*
X37166Y33379D01*
X37172Y33377D01*
X37178D01*
X37183Y33377D01*
X37187Y33377D01*
X37195D01*
X37209Y33377D01*
X37222Y33379D01*
X37235Y33380D01*
X37246Y33382D01*
X37251Y33384D01*
X37255Y33384D01*
X37260Y33386D01*
X37263Y33386D01*
X37266Y33387D01*
X37267Y33388D01*
X37269Y33389D01*
X37269D01*
X37282Y33393D01*
X37293Y33400D01*
X37303Y33407D01*
X37311Y33414D01*
X37318Y33420D01*
X37322Y33425D01*
X37324Y33427D01*
X37325Y33428D01*
X37326Y33430D01*
Y33430D01*
X37330Y33436D01*
X37333Y33442D01*
X37339Y33454D01*
X37343Y33467D01*
X37345Y33479D01*
X37345Y33484D01*
X37346Y33489D01*
X37347Y33493D01*
Y33497D01*
X37348Y33500D01*
Y33503D01*
Y33504D01*
Y33505D01*
X37346Y33519D01*
X37345Y33531D01*
X37341Y33542D01*
X37338Y33551D01*
X37334Y33559D01*
X37332Y33562D01*
X37331Y33565D01*
X37330Y33567D01*
X37329Y33568D01*
X37328Y33568D01*
Y33569D01*
X37324Y33574D01*
X37320Y33578D01*
X37311Y33586D01*
X37301Y33593D01*
X37290Y33598D01*
X37281Y33602D01*
X37278Y33604D01*
X37274Y33605D01*
X37271Y33607D01*
X37269Y33607D01*
X37267Y33608D01*
X37267D01*
X37279Y33658D01*
X37288Y33655D01*
X37298Y33651D01*
X37306Y33647D01*
X37315Y33642D01*
X37322Y33638D01*
X37329Y33633D01*
X37334Y33629D01*
X37340Y33624D01*
X37345Y33620D01*
X37350Y33616D01*
X37353Y33612D01*
X37356Y33609D01*
X37359Y33607D01*
X37360Y33604D01*
X37361Y33603D01*
X37362Y33602D01*
X37366Y33595D01*
X37371Y33587D01*
X37375Y33579D01*
X37378Y33571D01*
X37381Y33563D01*
X37384Y33554D01*
X37387Y33540D01*
X37389Y33533D01*
X37390Y33526D01*
X37390Y33520D01*
X37390Y33515D01*
X37391Y33511D01*
Y33508D01*
Y33506D01*
Y33505D01*
Y33496D01*
X37390Y33487D01*
X37387Y33470D01*
X37383Y33454D01*
X37381Y33447D01*
X37380Y33440D01*
X37377Y33433D01*
X37375Y33428D01*
X37373Y33424D01*
X37371Y33419D01*
X37369Y33417D01*
X37369Y33414D01*
X37368Y33412D01*
X37367Y33412D01*
X37363Y33405D01*
X37358Y33397D01*
X37347Y33384D01*
X37336Y33372D01*
X37325Y33363D01*
X37320Y33359D01*
X37315Y33356D01*
X37311Y33353D01*
X37307Y33351D01*
X37304Y33349D01*
X37301Y33347D01*
X37300Y33347D01*
X37299Y33347D01*
X37291Y33342D01*
X37282Y33339D01*
X37264Y33333D01*
X37247Y33330D01*
X37239Y33328D01*
X37231Y33327D01*
X37223Y33326D01*
X37216Y33325D01*
X37211Y33324D01*
X37205D01*
X37201Y33324D01*
X37195D01*
X37175Y33325D01*
X37155Y33327D01*
X37147Y33328D01*
X37139Y33331D01*
X37130Y33332D01*
X37123Y33334D01*
X37116Y33336D01*
X37110Y33338D01*
X37105Y33340D01*
X37101Y33341D01*
X37097Y33342D01*
X37094Y33343D01*
X37092Y33344D01*
X37092D01*
X37083Y33348D01*
X37075Y33352D01*
X37067Y33357D01*
X37060Y33362D01*
X37053Y33367D01*
X37048Y33372D01*
X37042Y33377D01*
X37037Y33382D01*
X37033Y33386D01*
X37029Y33390D01*
X37026Y33394D01*
X37023Y33397D01*
X37021Y33400D01*
X37020Y33402D01*
X37019Y33403D01*
X37018Y33403D01*
X37014Y33411D01*
X37011Y33419D01*
X37007Y33428D01*
X37004Y33436D01*
X36999Y33453D01*
X36997Y33469D01*
X36995Y33477D01*
X36995Y33483D01*
X36995Y33489D01*
X36994Y33495D01*
X36994Y33499D01*
Y33503D01*
Y33505D01*
Y33505D01*
X36994Y33516D01*
X36995Y33526D01*
X36997Y33537D01*
X36999Y33546D01*
X37001Y33555D01*
X37004Y33563D01*
X37006Y33571D01*
X37010Y33579D01*
X37013Y33584D01*
X37016Y33590D01*
X37018Y33595D01*
X37021Y33599D01*
X37023Y33602D01*
X37025Y33605D01*
X37025Y33606D01*
X37026Y33607D01*
X37032Y33614D01*
X37039Y33621D01*
X37047Y33628D01*
X37055Y33633D01*
X37063Y33639D01*
X37071Y33643D01*
X37078Y33647D01*
X37086Y33651D01*
X37094Y33654D01*
X37100Y33657D01*
X37106Y33660D01*
X37111Y33661D01*
X37115Y33663D01*
X37119Y33663D01*
X37121Y33665D01*
X37122D01*
X37134Y33614D01*
D02*
G37*
G36*
X37046Y33080D02*
X37055Y33087D01*
X37059Y33090D01*
X37062Y33093D01*
X37066Y33096D01*
X37069Y33098D01*
X37070Y33100D01*
X37071Y33100D01*
X37073Y33103D01*
X37076Y33106D01*
X37080Y33110D01*
X37083Y33114D01*
X37092Y33122D01*
X37099Y33132D01*
X37107Y33140D01*
X37111Y33145D01*
X37113Y33147D01*
X37115Y33150D01*
X37118Y33152D01*
X37118Y33154D01*
X37119Y33154D01*
X37127Y33163D01*
X37134Y33173D01*
X37141Y33180D01*
X37148Y33187D01*
X37153Y33194D01*
X37160Y33200D01*
X37164Y33205D01*
X37169Y33210D01*
X37173Y33214D01*
X37176Y33218D01*
X37180Y33221D01*
X37182Y33224D01*
X37184Y33225D01*
X37185Y33226D01*
X37186Y33228D01*
X37187D01*
X37195Y33235D01*
X37204Y33242D01*
X37213Y33247D01*
X37220Y33252D01*
X37225Y33255D01*
X37229Y33257D01*
X37232Y33259D01*
X37234Y33259D01*
X37242Y33262D01*
X37250Y33265D01*
X37258Y33266D01*
X37264Y33268D01*
X37271Y33268D01*
X37275Y33268D01*
X37279D01*
X37287Y33268D01*
X37295Y33267D01*
X37303Y33266D01*
X37310Y33263D01*
X37323Y33258D01*
X37329Y33256D01*
X37334Y33252D01*
X37339Y33249D01*
X37343Y33247D01*
X37346Y33244D01*
X37350Y33241D01*
X37352Y33239D01*
X37353Y33238D01*
X37355Y33236D01*
X37355Y33236D01*
X37360Y33229D01*
X37365Y33223D01*
X37369Y33216D01*
X37373Y33208D01*
X37376Y33201D01*
X37378Y33194D01*
X37382Y33180D01*
X37383Y33173D01*
X37385Y33168D01*
X37385Y33162D01*
X37385Y33157D01*
X37386Y33154D01*
Y33150D01*
Y33149D01*
Y33148D01*
X37385Y33138D01*
X37385Y33128D01*
X37383Y33119D01*
X37381Y33112D01*
X37380Y33103D01*
X37377Y33096D01*
X37374Y33090D01*
X37372Y33084D01*
X37369Y33078D01*
X37366Y33074D01*
X37364Y33070D01*
X37362Y33066D01*
X37360Y33064D01*
X37359Y33062D01*
X37358Y33061D01*
X37357Y33061D01*
X37352Y33054D01*
X37346Y33049D01*
X37339Y33045D01*
X37332Y33041D01*
X37326Y33038D01*
X37319Y33035D01*
X37306Y33030D01*
X37299Y33028D01*
X37294Y33026D01*
X37288Y33026D01*
X37284Y33024D01*
X37280Y33024D01*
X37278D01*
X37276Y33024D01*
X37275D01*
X37270Y33072D01*
X37283Y33073D01*
X37294Y33075D01*
X37304Y33078D01*
X37312Y33082D01*
X37318Y33086D01*
X37323Y33089D01*
X37325Y33091D01*
X37327Y33093D01*
X37334Y33101D01*
X37339Y33110D01*
X37342Y33119D01*
X37345Y33128D01*
X37346Y33135D01*
X37346Y33138D01*
Y33142D01*
X37347Y33143D01*
Y33145D01*
Y33147D01*
Y33147D01*
X37346Y33159D01*
X37344Y33169D01*
X37341Y33178D01*
X37338Y33186D01*
X37334Y33191D01*
X37331Y33196D01*
X37329Y33198D01*
X37327Y33200D01*
X37320Y33207D01*
X37312Y33212D01*
X37304Y33215D01*
X37297Y33217D01*
X37290Y33219D01*
X37285Y33219D01*
X37283Y33220D01*
X37276D01*
X37271Y33219D01*
X37260Y33217D01*
X37250Y33213D01*
X37242Y33209D01*
X37234Y33205D01*
X37232Y33203D01*
X37229Y33201D01*
X37227Y33200D01*
X37225Y33198D01*
X37224Y33198D01*
X37223Y33198D01*
X37218Y33193D01*
X37211Y33187D01*
X37205Y33182D01*
X37198Y33175D01*
X37185Y33161D01*
X37171Y33147D01*
X37166Y33140D01*
X37160Y33134D01*
X37155Y33128D01*
X37150Y33123D01*
X37147Y33119D01*
X37144Y33115D01*
X37143Y33114D01*
X37142Y33113D01*
X37130Y33098D01*
X37119Y33086D01*
X37109Y33075D01*
X37101Y33067D01*
X37094Y33060D01*
X37088Y33055D01*
X37086Y33054D01*
X37085Y33052D01*
X37084Y33052D01*
X37083Y33051D01*
X37074Y33043D01*
X37065Y33037D01*
X37057Y33032D01*
X37048Y33028D01*
X37042Y33024D01*
X37037Y33022D01*
X37035Y33021D01*
X37034Y33021D01*
X37033Y33020D01*
X37032D01*
X37027Y33018D01*
X37021Y33017D01*
X37016Y33015D01*
X37011Y33015D01*
X37006Y33015D01*
X37000D01*
Y33269D01*
X37046D01*
Y33080D01*
D02*
G37*
G36*
X37278Y34346D02*
X37129D01*
X37116Y34346D01*
X37106Y34345D01*
X37096Y34344D01*
X37088Y34342D01*
X37083Y34341D01*
X37078Y34339D01*
X37076Y34339D01*
X37074Y34338D01*
X37068Y34334D01*
X37062Y34330D01*
X37057Y34327D01*
X37053Y34322D01*
X37050Y34318D01*
X37047Y34314D01*
X37046Y34313D01*
X37045Y34311D01*
X37041Y34304D01*
X37039Y34297D01*
X37037Y34290D01*
X37036Y34285D01*
X37035Y34279D01*
X37034Y34275D01*
Y34272D01*
Y34272D01*
Y34272D01*
X37035Y34264D01*
X37036Y34257D01*
X37038Y34251D01*
X37040Y34246D01*
X37041Y34241D01*
X37043Y34239D01*
X37044Y34237D01*
X37045Y34236D01*
X37050Y34231D01*
X37054Y34227D01*
X37059Y34223D01*
X37064Y34221D01*
X37067Y34219D01*
X37071Y34218D01*
X37073Y34217D01*
X37074D01*
X37076Y34216D01*
X37080Y34216D01*
X37088Y34216D01*
X37095Y34215D01*
X37104D01*
X37111Y34214D01*
X37278D01*
Y34167D01*
X37095D01*
X37087Y34168D01*
X37079Y34169D01*
X37073Y34169D01*
X37068D01*
X37064Y34169D01*
X37062Y34170D01*
X37062D01*
X37055Y34172D01*
X37048Y34174D01*
X37041Y34176D01*
X37036Y34179D01*
X37032Y34181D01*
X37029Y34183D01*
X37027Y34184D01*
X37027Y34185D01*
X37022Y34189D01*
X37017Y34194D01*
X37013Y34200D01*
X37009Y34204D01*
X37007Y34209D01*
X37004Y34213D01*
X37004Y34216D01*
X37003Y34216D01*
X37000Y34225D01*
X36998Y34233D01*
X36996Y34241D01*
X36995Y34248D01*
X36995Y34253D01*
X36994Y34258D01*
Y34262D01*
Y34262D01*
Y34262D01*
X36995Y34272D01*
X36996Y34283D01*
X36999Y34292D01*
X37002Y34300D01*
X37005Y34307D01*
X37009Y34315D01*
X37013Y34321D01*
X37018Y34327D01*
X37022Y34333D01*
X37026Y34337D01*
X37030Y34341D01*
X37034Y34345D01*
X37036Y34348D01*
X37039Y34350D01*
X37041Y34351D01*
X37041Y34351D01*
X37000D01*
Y34393D01*
X37278D01*
Y34346D01*
D02*
G37*
G36*
X37385Y34024D02*
X37117Y33932D01*
X37102Y33926D01*
X37090Y33923D01*
X37080Y33919D01*
X37071Y33916D01*
X37064Y33914D01*
X37059Y33912D01*
X37056Y33911D01*
X37055Y33911D01*
X37063Y33909D01*
X37072Y33905D01*
X37081Y33902D01*
X37090Y33900D01*
X37099Y33897D01*
X37102Y33895D01*
X37106Y33895D01*
X37109Y33893D01*
X37111Y33893D01*
X37111Y33893D01*
X37112D01*
X37385Y33802D01*
Y33726D01*
X37000D01*
Y33774D01*
X37327D01*
X37000Y33886D01*
Y33931D01*
X37322Y34044D01*
X37000D01*
Y34093D01*
X37385D01*
Y34024D01*
D02*
G37*
G36*
X33450Y31792D02*
X33427D01*
Y31886D01*
X33423Y31883D01*
X33421Y31881D01*
X33419Y31880D01*
X33417Y31878D01*
X33416Y31878D01*
X33415Y31877D01*
X33415Y31876D01*
X33414Y31875D01*
X33412Y31874D01*
X33410Y31872D01*
X33408Y31870D01*
X33404Y31865D01*
X33400Y31860D01*
X33396Y31856D01*
X33395Y31854D01*
X33393Y31853D01*
X33392Y31851D01*
X33391Y31850D01*
X33391Y31850D01*
X33391Y31849D01*
X33386Y31845D01*
X33383Y31840D01*
X33379Y31837D01*
X33376Y31833D01*
X33373Y31830D01*
X33370Y31827D01*
X33368Y31824D01*
X33365Y31821D01*
X33363Y31819D01*
X33362Y31818D01*
X33360Y31816D01*
X33359Y31815D01*
X33358Y31814D01*
X33357Y31813D01*
X33357Y31813D01*
X33357D01*
X33352Y31809D01*
X33348Y31806D01*
X33344Y31803D01*
X33340Y31801D01*
X33338Y31799D01*
X33335Y31798D01*
X33334Y31797D01*
X33333Y31797D01*
X33329Y31795D01*
X33325Y31794D01*
X33321Y31793D01*
X33318Y31793D01*
X33315Y31793D01*
X33312Y31792D01*
X33310D01*
X33306Y31793D01*
X33302Y31793D01*
X33298Y31794D01*
X33295Y31795D01*
X33289Y31797D01*
X33286Y31799D01*
X33283Y31800D01*
X33280Y31802D01*
X33279Y31803D01*
X33277Y31805D01*
X33275Y31806D01*
X33274Y31807D01*
X33273Y31808D01*
X33273Y31808D01*
X33273Y31809D01*
X33270Y31812D01*
X33268Y31815D01*
X33265Y31818D01*
X33263Y31822D01*
X33262Y31826D01*
X33261Y31830D01*
X33259Y31837D01*
X33258Y31840D01*
X33258Y31843D01*
X33258Y31846D01*
X33257Y31848D01*
X33257Y31850D01*
Y31851D01*
Y31852D01*
Y31853D01*
X33257Y31858D01*
X33258Y31862D01*
X33258Y31867D01*
X33259Y31871D01*
X33260Y31875D01*
X33261Y31878D01*
X33263Y31881D01*
X33264Y31885D01*
X33266Y31887D01*
X33267Y31890D01*
X33268Y31892D01*
X33269Y31893D01*
X33270Y31895D01*
X33271Y31895D01*
X33271Y31896D01*
X33271Y31896D01*
X33274Y31899D01*
X33277Y31902D01*
X33280Y31904D01*
X33284Y31906D01*
X33287Y31908D01*
X33291Y31909D01*
X33297Y31911D01*
X33300Y31913D01*
X33303Y31913D01*
X33306Y31914D01*
X33308Y31914D01*
X33310Y31915D01*
X33311D01*
X33312Y31915D01*
X33312D01*
X33315Y31890D01*
X33308Y31890D01*
X33303Y31889D01*
X33298Y31887D01*
X33294Y31885D01*
X33291Y31883D01*
X33289Y31882D01*
X33287Y31881D01*
X33287Y31880D01*
X33283Y31876D01*
X33281Y31872D01*
X33279Y31867D01*
X33278Y31863D01*
X33277Y31859D01*
X33277Y31857D01*
Y31856D01*
X33277Y31855D01*
Y31854D01*
Y31853D01*
Y31853D01*
X33277Y31847D01*
X33278Y31842D01*
X33280Y31837D01*
X33281Y31834D01*
X33283Y31831D01*
X33285Y31828D01*
X33286Y31827D01*
X33286Y31827D01*
X33290Y31823D01*
X33294Y31821D01*
X33298Y31819D01*
X33301Y31818D01*
X33305Y31817D01*
X33307Y31817D01*
X33308Y31816D01*
X33312D01*
X33315Y31817D01*
X33320Y31818D01*
X33325Y31820D01*
X33329Y31822D01*
X33333Y31824D01*
X33334Y31825D01*
X33336Y31826D01*
X33337Y31827D01*
X33338Y31827D01*
X33338Y31827D01*
X33338Y31828D01*
X33341Y31830D01*
X33344Y31833D01*
X33347Y31836D01*
X33351Y31839D01*
X33358Y31846D01*
X33364Y31853D01*
X33367Y31856D01*
X33370Y31860D01*
X33372Y31862D01*
X33375Y31865D01*
X33377Y31867D01*
X33378Y31869D01*
X33379Y31870D01*
X33379Y31870D01*
X33385Y31877D01*
X33391Y31883D01*
X33396Y31889D01*
X33400Y31893D01*
X33403Y31897D01*
X33406Y31899D01*
X33407Y31900D01*
X33408Y31900D01*
X33408Y31901D01*
X33408Y31901D01*
X33413Y31905D01*
X33417Y31908D01*
X33422Y31911D01*
X33426Y31913D01*
X33429Y31915D01*
X33431Y31916D01*
X33433Y31916D01*
X33433Y31916D01*
X33433Y31916D01*
X33434D01*
X33437Y31918D01*
X33440Y31918D01*
X33442Y31919D01*
X33445Y31919D01*
X33447Y31919D01*
X33450D01*
Y31792D01*
D02*
G37*
G36*
X34886Y24548D02*
X34882Y24543D01*
X34878Y24537D01*
X34875Y24533D01*
X34872Y24530D01*
X34869Y24527D01*
X34867Y24524D01*
X34865Y24523D01*
X34865Y24523D01*
X34865D01*
X34862Y24521D01*
X34860Y24519D01*
X34855Y24516D01*
X34853Y24515D01*
X34851Y24513D01*
X34850Y24513D01*
X34850Y24513D01*
X34855Y24512D01*
X34859Y24511D01*
X34864Y24510D01*
X34867Y24509D01*
X34871Y24507D01*
X34875Y24506D01*
X34878Y24504D01*
X34880Y24502D01*
X34883Y24501D01*
X34885Y24499D01*
X34887Y24498D01*
X34888Y24497D01*
X34889Y24496D01*
X34890Y24495D01*
X34890Y24495D01*
X34890Y24495D01*
X34893Y24492D01*
X34895Y24490D01*
X34897Y24486D01*
X34898Y24484D01*
X34901Y24478D01*
X34902Y24472D01*
X34903Y24468D01*
X34903Y24466D01*
X34904Y24464D01*
X34904Y24462D01*
Y24462D01*
Y24461D01*
Y24460D01*
X34904Y24455D01*
X34903Y24449D01*
X34901Y24444D01*
X34900Y24440D01*
X34898Y24437D01*
X34897Y24434D01*
X34897Y24433D01*
X34896Y24432D01*
X34896Y24432D01*
Y24432D01*
X34892Y24427D01*
X34889Y24423D01*
X34885Y24420D01*
X34882Y24417D01*
X34879Y24415D01*
X34876Y24414D01*
X34876Y24413D01*
X34875Y24413D01*
X34874Y24413D01*
X34874D01*
X34872Y24412D01*
X34869Y24411D01*
X34862Y24410D01*
X34856Y24409D01*
X34850Y24409D01*
X34847Y24408D01*
X34844Y24408D01*
X34842D01*
X34839Y24408D01*
X34750D01*
Y24600D01*
X34776D01*
Y24515D01*
X34808D01*
X34811Y24515D01*
X34814D01*
X34816Y24515D01*
X34817Y24516D01*
X34818D01*
X34819Y24516D01*
X34819D01*
X34823Y24517D01*
X34825Y24518D01*
X34827Y24519D01*
X34829Y24520D01*
X34829Y24520D01*
X34830Y24521D01*
X34831Y24521D01*
X34833Y24523D01*
X34835Y24525D01*
X34837Y24527D01*
X34839Y24529D01*
X34841Y24531D01*
X34842Y24532D01*
X34843Y24534D01*
X34843Y24534D01*
X34846Y24538D01*
X34850Y24542D01*
X34852Y24546D01*
X34855Y24550D01*
X34858Y24554D01*
X34859Y24556D01*
X34860Y24557D01*
X34861Y24558D01*
X34862Y24560D01*
X34862Y24560D01*
Y24560D01*
X34887Y24600D01*
X34919D01*
X34886Y24548D01*
D02*
G37*
G36*
X37385Y32900D02*
X37000D01*
Y32951D01*
X37385D01*
Y32900D01*
D02*
G37*
G36*
X33450Y32074D02*
X33365D01*
Y32045D01*
Y32041D01*
X33365Y32039D01*
Y32036D01*
X33365Y32034D01*
X33365Y32033D01*
Y32032D01*
X33366Y32031D01*
Y32031D01*
X33367Y32027D01*
X33368Y32025D01*
X33369Y32023D01*
X33370Y32022D01*
X33370Y32020D01*
X33371Y32020D01*
X33371Y32020D01*
X33373Y32017D01*
X33375Y32015D01*
X33377Y32013D01*
X33379Y32011D01*
X33381Y32009D01*
X33382Y32008D01*
X33384Y32007D01*
X33384Y32006D01*
X33388Y32004D01*
X33392Y32001D01*
X33396Y31997D01*
X33400Y31995D01*
X33404Y31992D01*
X33406Y31991D01*
X33407Y31990D01*
X33409Y31989D01*
X33410Y31988D01*
X33410Y31988D01*
X33410D01*
X33450Y31963D01*
Y31931D01*
X33398Y31964D01*
X33393Y31968D01*
X33387Y31971D01*
X33383Y31975D01*
X33379Y31978D01*
X33377Y31981D01*
X33374Y31983D01*
X33373Y31985D01*
X33372Y31985D01*
Y31985D01*
X33371Y31988D01*
X33369Y31990D01*
X33366Y31995D01*
X33365Y31997D01*
X33363Y31999D01*
X33363Y32000D01*
X33363Y32001D01*
X33362Y31995D01*
X33361Y31991D01*
X33360Y31986D01*
X33359Y31983D01*
X33357Y31979D01*
X33356Y31975D01*
X33354Y31972D01*
X33352Y31969D01*
X33351Y31967D01*
X33349Y31965D01*
X33348Y31964D01*
X33347Y31962D01*
X33346Y31961D01*
X33345Y31960D01*
X33345Y31960D01*
X33345Y31960D01*
X33342Y31957D01*
X33340Y31955D01*
X33337Y31953D01*
X33334Y31952D01*
X33328Y31950D01*
X33323Y31948D01*
X33318Y31947D01*
X33316Y31947D01*
X33314Y31946D01*
X33312Y31946D01*
X33310D01*
X33305Y31946D01*
X33299Y31948D01*
X33294Y31949D01*
X33290Y31950D01*
X33286Y31952D01*
X33284Y31953D01*
X33283Y31953D01*
X33282Y31954D01*
X33282Y31954D01*
X33282D01*
X33277Y31957D01*
X33273Y31961D01*
X33270Y31964D01*
X33267Y31968D01*
X33265Y31971D01*
X33264Y31974D01*
X33263Y31974D01*
X33263Y31975D01*
X33263Y31976D01*
Y31976D01*
X33262Y31978D01*
X33261Y31981D01*
X33260Y31988D01*
X33259Y31994D01*
X33259Y32000D01*
X33258Y32003D01*
X33258Y32006D01*
Y32008D01*
X33258Y32011D01*
Y32012D01*
Y32013D01*
Y32015D01*
Y32015D01*
Y32100D01*
X33450D01*
Y32074D01*
D02*
G37*
G36*
X35470Y33918D02*
X35475Y33918D01*
X35479Y33917D01*
X35484Y33916D01*
X35488Y33914D01*
X35491Y33913D01*
X35495Y33911D01*
X35498Y33910D01*
X35501Y33908D01*
X35503Y33907D01*
X35505Y33905D01*
X35507Y33904D01*
X35508Y33902D01*
X35509Y33902D01*
X35510Y33901D01*
X35510Y33901D01*
X35513Y33898D01*
X35516Y33894D01*
X35518Y33891D01*
X35520Y33887D01*
X35522Y33884D01*
X35523Y33880D01*
X35524Y33877D01*
X35525Y33874D01*
X35526Y33870D01*
X35526Y33867D01*
X35527Y33865D01*
X35527Y33863D01*
X35528Y33861D01*
Y33860D01*
Y33859D01*
Y33859D01*
X35527Y33855D01*
X35527Y33852D01*
X35526Y33845D01*
X35524Y33839D01*
X35522Y33833D01*
X35520Y33831D01*
X35519Y33829D01*
X35518Y33827D01*
X35517Y33826D01*
X35517Y33824D01*
X35516Y33823D01*
X35515Y33823D01*
X35515Y33823D01*
X35567Y33833D01*
Y33909D01*
X35590D01*
Y33814D01*
X35491Y33795D01*
X35488Y33818D01*
X35491Y33820D01*
X35493Y33822D01*
X35496Y33825D01*
X35498Y33827D01*
X35499Y33829D01*
X35500Y33830D01*
X35501Y33831D01*
X35501Y33832D01*
X35503Y33835D01*
X35505Y33839D01*
X35505Y33842D01*
X35506Y33846D01*
X35506Y33849D01*
X35507Y33851D01*
Y33852D01*
Y33853D01*
Y33856D01*
X35506Y33859D01*
X35505Y33865D01*
X35503Y33870D01*
X35501Y33874D01*
X35499Y33878D01*
X35497Y33880D01*
X35496Y33881D01*
X35496Y33882D01*
X35495Y33882D01*
X35495D01*
X35493Y33884D01*
X35490Y33886D01*
X35485Y33889D01*
X35480Y33891D01*
X35475Y33892D01*
X35470Y33893D01*
X35468Y33893D01*
X35466D01*
X35465Y33893D01*
X35459D01*
X35456Y33893D01*
X35449Y33892D01*
X35443Y33890D01*
X35438Y33888D01*
X35436Y33886D01*
X35434Y33886D01*
X35433Y33884D01*
X35431Y33884D01*
X35430Y33883D01*
X35429Y33882D01*
X35429Y33882D01*
X35429Y33882D01*
X35427Y33879D01*
X35425Y33877D01*
X35423Y33875D01*
X35422Y33872D01*
X35419Y33867D01*
X35418Y33863D01*
X35417Y33859D01*
X35417Y33857D01*
X35417Y33856D01*
X35416Y33854D01*
Y33853D01*
Y33853D01*
Y33853D01*
X35417Y33847D01*
X35418Y33843D01*
X35419Y33839D01*
X35421Y33835D01*
X35422Y33832D01*
X35424Y33830D01*
X35425Y33829D01*
X35425Y33828D01*
X35429Y33825D01*
X35433Y33823D01*
X35438Y33820D01*
X35442Y33819D01*
X35446Y33818D01*
X35447Y33817D01*
X35449Y33816D01*
X35450Y33816D01*
X35451D01*
X35452Y33816D01*
X35452D01*
X35450Y33791D01*
X35446Y33792D01*
X35442Y33793D01*
X35438Y33794D01*
X35434Y33795D01*
X35431Y33797D01*
X35427Y33798D01*
X35424Y33800D01*
X35422Y33802D01*
X35419Y33803D01*
X35417Y33805D01*
X35415Y33806D01*
X35414Y33807D01*
X35413Y33809D01*
X35412Y33809D01*
X35412Y33810D01*
X35411Y33810D01*
X35409Y33813D01*
X35406Y33816D01*
X35405Y33820D01*
X35403Y33824D01*
X35401Y33827D01*
X35400Y33831D01*
X35398Y33837D01*
X35398Y33841D01*
X35398Y33844D01*
X35397Y33846D01*
X35397Y33849D01*
X35397Y33850D01*
Y33851D01*
Y33853D01*
Y33853D01*
X35397Y33858D01*
X35398Y33864D01*
X35399Y33869D01*
X35401Y33874D01*
X35402Y33879D01*
X35404Y33883D01*
X35406Y33886D01*
X35408Y33890D01*
X35410Y33893D01*
X35413Y33896D01*
X35415Y33898D01*
X35417Y33900D01*
X35418Y33901D01*
X35419Y33902D01*
X35420Y33903D01*
X35420Y33903D01*
X35424Y33906D01*
X35427Y33908D01*
X35431Y33910D01*
X35435Y33912D01*
X35439Y33914D01*
X35443Y33915D01*
X35450Y33916D01*
X35453Y33917D01*
X35456Y33918D01*
X35459Y33918D01*
X35461Y33918D01*
X35463Y33918D01*
X35465D01*
X35470Y33918D01*
D02*
G37*
G36*
X35512Y33768D02*
X35518Y33767D01*
X35523Y33767D01*
X35528Y33766D01*
X35533Y33766D01*
X35536Y33765D01*
X35540Y33764D01*
X35543Y33763D01*
X35546Y33763D01*
X35549Y33762D01*
X35550Y33761D01*
X35552Y33761D01*
X35553Y33760D01*
X35554Y33760D01*
X35554D01*
X35561Y33757D01*
X35566Y33753D01*
X35571Y33749D01*
X35575Y33745D01*
X35578Y33742D01*
X35581Y33739D01*
X35582Y33738D01*
X35582Y33737D01*
X35583Y33737D01*
Y33737D01*
X35586Y33730D01*
X35589Y33725D01*
X35591Y33719D01*
X35592Y33714D01*
X35593Y33709D01*
X35593Y33707D01*
Y33705D01*
X35593Y33704D01*
Y33703D01*
Y33702D01*
Y33702D01*
X35593Y33698D01*
X35592Y33693D01*
X35591Y33688D01*
X35590Y33684D01*
X35589Y33681D01*
X35587Y33677D01*
X35586Y33674D01*
X35584Y33671D01*
X35582Y33668D01*
X35581Y33666D01*
X35579Y33664D01*
X35578Y33662D01*
X35577Y33661D01*
X35576Y33660D01*
X35575Y33659D01*
X35575Y33659D01*
X35571Y33656D01*
X35568Y33654D01*
X35564Y33651D01*
X35560Y33649D01*
X35556Y33647D01*
X35552Y33646D01*
X35545Y33644D01*
X35542Y33644D01*
X35538Y33643D01*
X35535Y33642D01*
X35533Y33642D01*
X35531Y33642D01*
X35528D01*
X35523Y33642D01*
X35518Y33643D01*
X35513Y33644D01*
X35509Y33644D01*
X35505Y33646D01*
X35501Y33647D01*
X35498Y33649D01*
X35495Y33650D01*
X35492Y33652D01*
X35489Y33653D01*
X35487Y33655D01*
X35486Y33656D01*
X35484Y33657D01*
X35483Y33658D01*
X35483Y33658D01*
X35482Y33658D01*
X35480Y33662D01*
X35477Y33665D01*
X35475Y33668D01*
X35473Y33672D01*
X35471Y33675D01*
X35470Y33679D01*
X35468Y33682D01*
X35468Y33685D01*
X35467Y33688D01*
X35466Y33690D01*
X35466Y33693D01*
X35466Y33695D01*
X35465Y33696D01*
Y33698D01*
Y33698D01*
Y33699D01*
X35466Y33704D01*
X35466Y33709D01*
X35468Y33714D01*
X35469Y33717D01*
X35470Y33721D01*
X35471Y33723D01*
X35471Y33724D01*
X35472Y33725D01*
X35472Y33725D01*
Y33725D01*
X35475Y33730D01*
X35478Y33733D01*
X35481Y33737D01*
X35484Y33740D01*
X35487Y33742D01*
X35489Y33744D01*
X35490Y33744D01*
X35491Y33745D01*
X35486D01*
X35480Y33744D01*
X35475Y33744D01*
X35470Y33744D01*
X35466Y33743D01*
X35462Y33742D01*
X35461Y33742D01*
X35459Y33742D01*
X35458Y33742D01*
X35457D01*
X35457Y33741D01*
X35457D01*
X35452Y33740D01*
X35447Y33739D01*
X35443Y33737D01*
X35440Y33735D01*
X35438Y33734D01*
X35436Y33733D01*
X35435Y33733D01*
X35434Y33733D01*
X35431Y33730D01*
X35429Y33728D01*
X35426Y33726D01*
X35424Y33724D01*
X35423Y33722D01*
X35422Y33721D01*
X35421Y33719D01*
X35421Y33719D01*
X35419Y33716D01*
X35418Y33712D01*
X35417Y33709D01*
X35417Y33707D01*
X35417Y33704D01*
X35416Y33702D01*
Y33700D01*
Y33700D01*
Y33700D01*
X35417Y33695D01*
X35417Y33691D01*
X35419Y33688D01*
X35420Y33685D01*
X35421Y33682D01*
X35422Y33681D01*
X35423Y33679D01*
X35423Y33679D01*
X35426Y33676D01*
X35430Y33674D01*
X35433Y33672D01*
X35438Y33671D01*
X35441Y33670D01*
X35444Y33669D01*
X35445Y33668D01*
X35445D01*
X35446Y33668D01*
X35446D01*
X35445Y33646D01*
X35440Y33646D01*
X35436Y33647D01*
X35433Y33648D01*
X35429Y33649D01*
X35426Y33651D01*
X35423Y33652D01*
X35421Y33654D01*
X35418Y33655D01*
X35416Y33656D01*
X35415Y33658D01*
X35413Y33659D01*
X35412Y33660D01*
X35410Y33661D01*
X35410Y33662D01*
X35410Y33662D01*
X35409Y33663D01*
X35407Y33665D01*
X35405Y33668D01*
X35403Y33671D01*
X35402Y33674D01*
X35400Y33681D01*
X35398Y33686D01*
X35398Y33689D01*
X35398Y33691D01*
X35397Y33693D01*
X35397Y33695D01*
X35397Y33697D01*
Y33698D01*
Y33699D01*
Y33699D01*
X35397Y33703D01*
X35397Y33707D01*
X35398Y33714D01*
X35400Y33720D01*
X35403Y33726D01*
X35403Y33728D01*
X35405Y33730D01*
X35405Y33732D01*
X35406Y33733D01*
X35407Y33735D01*
X35408Y33735D01*
X35408Y33736D01*
Y33736D01*
X35413Y33742D01*
X35418Y33747D01*
X35424Y33751D01*
X35429Y33754D01*
X35434Y33757D01*
X35436Y33758D01*
X35438Y33759D01*
X35439Y33760D01*
X35440Y33760D01*
X35441Y33760D01*
X35441D01*
X35445Y33762D01*
X35450Y33763D01*
X35459Y33765D01*
X35470Y33766D01*
X35474Y33767D01*
X35479Y33767D01*
X35483Y33767D01*
X35487Y33768D01*
X35491Y33768D01*
X35494Y33768D01*
X35506D01*
X35512Y33768D01*
D02*
G37*
G36*
X35461Y34216D02*
X35467Y34214D01*
X35473Y34213D01*
X35477Y34211D01*
X35480Y34210D01*
X35482Y34209D01*
X35483Y34208D01*
X35484Y34207D01*
X35485Y34207D01*
X35485Y34207D01*
X35485D01*
X35490Y34203D01*
X35494Y34199D01*
X35497Y34194D01*
X35499Y34190D01*
X35501Y34186D01*
X35502Y34184D01*
X35503Y34183D01*
X35503Y34181D01*
X35504Y34181D01*
X35504Y34180D01*
Y34180D01*
X35506Y34185D01*
X35509Y34189D01*
X35511Y34193D01*
X35514Y34196D01*
X35516Y34198D01*
X35518Y34200D01*
X35519Y34201D01*
X35519Y34201D01*
X35523Y34204D01*
X35527Y34205D01*
X35531Y34207D01*
X35535Y34207D01*
X35538Y34208D01*
X35540Y34208D01*
X35543D01*
X35547Y34208D01*
X35550Y34207D01*
X35554Y34207D01*
X35557Y34206D01*
X35563Y34203D01*
X35568Y34200D01*
X35570Y34199D01*
X35573Y34198D01*
X35574Y34196D01*
X35576Y34195D01*
X35577Y34194D01*
X35577Y34193D01*
X35578Y34193D01*
X35578Y34193D01*
X35581Y34190D01*
X35583Y34187D01*
X35585Y34183D01*
X35587Y34180D01*
X35588Y34176D01*
X35589Y34173D01*
X35591Y34167D01*
X35592Y34164D01*
X35592Y34161D01*
X35593Y34158D01*
X35593Y34156D01*
X35593Y34155D01*
Y34153D01*
Y34153D01*
Y34152D01*
X35593Y34148D01*
X35593Y34143D01*
X35592Y34139D01*
X35591Y34135D01*
X35590Y34132D01*
X35589Y34128D01*
X35587Y34125D01*
X35586Y34123D01*
X35584Y34121D01*
X35583Y34118D01*
X35582Y34116D01*
X35581Y34115D01*
X35580Y34114D01*
X35579Y34113D01*
X35579Y34113D01*
X35578Y34112D01*
X35576Y34109D01*
X35573Y34107D01*
X35570Y34105D01*
X35567Y34104D01*
X35564Y34102D01*
X35561Y34101D01*
X35556Y34099D01*
X35551Y34098D01*
X35549Y34098D01*
X35547Y34097D01*
X35545Y34097D01*
X35543D01*
X35538Y34097D01*
X35534Y34098D01*
X35530Y34100D01*
X35526Y34101D01*
X35524Y34102D01*
X35521Y34103D01*
X35520Y34104D01*
X35519Y34104D01*
X35516Y34107D01*
X35513Y34111D01*
X35510Y34114D01*
X35508Y34118D01*
X35506Y34121D01*
X35505Y34123D01*
X35505Y34125D01*
X35504Y34125D01*
X35504Y34126D01*
Y34126D01*
X35502Y34120D01*
X35499Y34114D01*
X35496Y34110D01*
X35494Y34106D01*
X35491Y34103D01*
X35489Y34101D01*
X35487Y34100D01*
X35487Y34099D01*
X35487D01*
X35482Y34096D01*
X35477Y34093D01*
X35471Y34092D01*
X35466Y34091D01*
X35462Y34090D01*
X35460Y34090D01*
X35459D01*
X35457Y34090D01*
X35456D01*
X35451Y34090D01*
X35447Y34090D01*
X35442Y34091D01*
X35438Y34092D01*
X35435Y34093D01*
X35431Y34095D01*
X35428Y34097D01*
X35425Y34098D01*
X35422Y34100D01*
X35420Y34101D01*
X35418Y34103D01*
X35417Y34104D01*
X35415Y34105D01*
X35414Y34106D01*
X35414Y34107D01*
X35413Y34107D01*
X35410Y34110D01*
X35408Y34114D01*
X35406Y34118D01*
X35404Y34121D01*
X35402Y34125D01*
X35401Y34129D01*
X35399Y34136D01*
X35398Y34140D01*
X35398Y34143D01*
X35397Y34146D01*
X35397Y34148D01*
X35397Y34150D01*
Y34151D01*
Y34153D01*
Y34153D01*
X35397Y34158D01*
X35398Y34163D01*
X35398Y34167D01*
X35399Y34172D01*
X35401Y34176D01*
X35402Y34180D01*
X35403Y34183D01*
X35405Y34186D01*
X35407Y34189D01*
X35408Y34192D01*
X35410Y34193D01*
X35411Y34195D01*
X35412Y34197D01*
X35413Y34198D01*
X35413Y34198D01*
X35413Y34199D01*
X35417Y34202D01*
X35420Y34204D01*
X35424Y34207D01*
X35427Y34209D01*
X35431Y34210D01*
X35434Y34212D01*
X35437Y34213D01*
X35440Y34214D01*
X35443Y34214D01*
X35446Y34215D01*
X35449Y34216D01*
X35451Y34216D01*
X35452Y34216D01*
X35455D01*
X35461Y34216D01*
D02*
G37*
G36*
X35468Y34039D02*
X35592D01*
Y34020D01*
X35468Y33932D01*
X35446D01*
Y34016D01*
X35400D01*
Y34039D01*
X35446D01*
Y34065D01*
X35468D01*
Y34039D01*
D02*
G37*
G36*
X35592Y33100D02*
X35570D01*
Y33163D01*
X35400D01*
Y33189D01*
X35570D01*
Y33252D01*
X35592D01*
Y33100D01*
D02*
G37*
G36*
X37144Y34594D02*
X37278Y34688D01*
Y34632D01*
X37213Y34585D01*
X37202Y34578D01*
X37197Y34574D01*
X37192Y34571D01*
X37188Y34568D01*
X37185Y34565D01*
X37183Y34564D01*
X37182Y34564D01*
X37187Y34560D01*
X37192Y34557D01*
X37197Y34554D01*
X37202Y34551D01*
X37206Y34548D01*
X37209Y34546D01*
X37211Y34545D01*
X37213Y34544D01*
X37278Y34500D01*
Y34443D01*
X37144Y34537D01*
X37000Y34435D01*
Y34492D01*
X37108Y34567D01*
X37086Y34581D01*
X37000Y34639D01*
Y34696D01*
X37144Y34594D01*
D02*
G37*
G36*
X35592Y33552D02*
Y33525D01*
X35400Y33451D01*
Y33478D01*
X35458Y33499D01*
Y33580D01*
X35400Y33602D01*
Y33631D01*
X35592Y33552D01*
D02*
G37*
G36*
X35467Y33416D02*
X35463Y33414D01*
X35459Y33413D01*
X35455Y33412D01*
X35451Y33410D01*
X35448Y33409D01*
X35445Y33407D01*
X35442Y33405D01*
X35440Y33403D01*
X35438Y33402D01*
X35436Y33400D01*
X35434Y33399D01*
X35433Y33398D01*
X35432Y33397D01*
X35431Y33396D01*
X35431Y33396D01*
X35431Y33396D01*
X35429Y33393D01*
X35427Y33390D01*
X35425Y33387D01*
X35424Y33384D01*
X35422Y33377D01*
X35420Y33372D01*
X35419Y33369D01*
X35419Y33367D01*
X35419Y33365D01*
X35419Y33363D01*
X35419Y33361D01*
Y33360D01*
Y33359D01*
Y33359D01*
X35419Y33353D01*
X35420Y33347D01*
X35421Y33341D01*
X35423Y33336D01*
X35425Y33332D01*
X35426Y33331D01*
X35426Y33329D01*
X35427Y33328D01*
X35427Y33327D01*
X35427Y33327D01*
Y33326D01*
X35431Y33321D01*
X35436Y33317D01*
X35440Y33313D01*
X35445Y33310D01*
X35449Y33307D01*
X35450Y33307D01*
X35452Y33306D01*
X35453Y33305D01*
X35454Y33305D01*
X35454Y33304D01*
X35455D01*
X35462Y33302D01*
X35469Y33300D01*
X35476Y33299D01*
X35483Y33298D01*
X35486Y33298D01*
X35489D01*
X35491Y33298D01*
X35494Y33297D01*
X35498D01*
X35505Y33298D01*
X35511Y33298D01*
X35517Y33299D01*
X35523Y33300D01*
X35526Y33301D01*
X35528Y33301D01*
X35530Y33302D01*
X35531Y33302D01*
X35533Y33303D01*
X35534Y33303D01*
X35534Y33303D01*
X35535D01*
X35541Y33306D01*
X35547Y33309D01*
X35552Y33312D01*
X35556Y33316D01*
X35559Y33319D01*
X35561Y33321D01*
X35562Y33323D01*
X35563Y33323D01*
X35563Y33324D01*
Y33324D01*
X35565Y33327D01*
X35566Y33330D01*
X35569Y33336D01*
X35571Y33342D01*
X35573Y33348D01*
X35573Y33351D01*
X35573Y33354D01*
X35573Y33356D01*
Y33358D01*
X35574Y33359D01*
Y33360D01*
Y33361D01*
Y33361D01*
X35573Y33368D01*
X35572Y33375D01*
X35571Y33380D01*
X35569Y33385D01*
X35567Y33389D01*
X35566Y33390D01*
X35566Y33391D01*
X35565Y33392D01*
X35564Y33393D01*
X35564Y33393D01*
Y33393D01*
X35562Y33396D01*
X35560Y33398D01*
X35555Y33402D01*
X35550Y33405D01*
X35545Y33408D01*
X35541Y33410D01*
X35539Y33411D01*
X35537Y33412D01*
X35536Y33412D01*
X35535Y33413D01*
X35534Y33413D01*
X35533D01*
X35540Y33438D01*
X35544Y33437D01*
X35549Y33435D01*
X35553Y33433D01*
X35557Y33430D01*
X35561Y33428D01*
X35564Y33426D01*
X35567Y33424D01*
X35570Y33421D01*
X35573Y33419D01*
X35575Y33417D01*
X35577Y33415D01*
X35578Y33414D01*
X35579Y33412D01*
X35580Y33411D01*
X35580Y33410D01*
X35581Y33410D01*
X35583Y33407D01*
X35586Y33403D01*
X35587Y33398D01*
X35589Y33394D01*
X35591Y33390D01*
X35592Y33386D01*
X35594Y33379D01*
X35594Y33375D01*
X35595Y33372D01*
X35595Y33369D01*
X35595Y33366D01*
X35596Y33365D01*
Y33363D01*
Y33362D01*
Y33362D01*
Y33357D01*
X35595Y33352D01*
X35594Y33344D01*
X35592Y33336D01*
X35591Y33332D01*
X35590Y33329D01*
X35589Y33326D01*
X35587Y33323D01*
X35587Y33321D01*
X35585Y33319D01*
X35585Y33317D01*
X35584Y33316D01*
X35584Y33315D01*
X35584Y33315D01*
X35582Y33311D01*
X35579Y33307D01*
X35573Y33301D01*
X35568Y33295D01*
X35563Y33291D01*
X35560Y33289D01*
X35557Y33287D01*
X35555Y33286D01*
X35554Y33284D01*
X35552Y33284D01*
X35551Y33283D01*
X35550Y33282D01*
X35550Y33282D01*
X35545Y33280D01*
X35541Y33279D01*
X35532Y33276D01*
X35524Y33274D01*
X35519Y33273D01*
X35515Y33273D01*
X35512Y33272D01*
X35508Y33272D01*
X35505Y33271D01*
X35503D01*
X35501Y33271D01*
X35498D01*
X35487Y33272D01*
X35478Y33273D01*
X35473Y33273D01*
X35469Y33274D01*
X35465Y33275D01*
X35461Y33276D01*
X35458Y33277D01*
X35455Y33278D01*
X35452Y33279D01*
X35450Y33280D01*
X35449Y33280D01*
X35447Y33280D01*
X35446Y33281D01*
X35446D01*
X35442Y33283D01*
X35438Y33285D01*
X35434Y33287D01*
X35430Y33290D01*
X35427Y33293D01*
X35424Y33295D01*
X35421Y33297D01*
X35419Y33300D01*
X35417Y33302D01*
X35415Y33304D01*
X35413Y33306D01*
X35412Y33307D01*
X35410Y33309D01*
X35410Y33310D01*
X35410Y33310D01*
X35409Y33311D01*
X35407Y33314D01*
X35405Y33319D01*
X35403Y33323D01*
X35402Y33327D01*
X35400Y33335D01*
X35398Y33344D01*
X35398Y33347D01*
X35398Y33351D01*
X35397Y33354D01*
X35397Y33356D01*
X35397Y33359D01*
Y33360D01*
Y33361D01*
Y33361D01*
X35397Y33367D01*
X35398Y33372D01*
X35398Y33377D01*
X35399Y33382D01*
X35401Y33386D01*
X35402Y33391D01*
X35403Y33394D01*
X35405Y33398D01*
X35406Y33401D01*
X35408Y33404D01*
X35409Y33407D01*
X35410Y33409D01*
X35412Y33410D01*
X35412Y33411D01*
X35413Y33412D01*
X35413Y33412D01*
X35416Y33416D01*
X35420Y33419D01*
X35424Y33423D01*
X35427Y33426D01*
X35431Y33428D01*
X35435Y33431D01*
X35439Y33433D01*
X35443Y33435D01*
X35447Y33436D01*
X35450Y33438D01*
X35453Y33439D01*
X35456Y33440D01*
X35458Y33440D01*
X35459Y33441D01*
X35461Y33441D01*
X35461D01*
X35467Y33416D01*
D02*
G37*
G36*
X33302Y33036D02*
X33307Y33032D01*
X33312Y33029D01*
X33317Y33025D01*
X33321Y33022D01*
X33324Y33019D01*
X33326Y33017D01*
X33327Y33015D01*
X33328Y33015D01*
Y33015D01*
X33329Y33012D01*
X33331Y33010D01*
X33334Y33005D01*
X33335Y33003D01*
X33337Y33001D01*
X33337Y33000D01*
X33337Y32999D01*
X33338Y33005D01*
X33339Y33009D01*
X33340Y33014D01*
X33342Y33017D01*
X33343Y33021D01*
X33345Y33025D01*
X33346Y33028D01*
X33347Y33031D01*
X33349Y33033D01*
X33351Y33035D01*
X33352Y33036D01*
X33353Y33038D01*
X33354Y33039D01*
X33354Y33040D01*
X33355Y33040D01*
X33355Y33040D01*
X33358Y33043D01*
X33361Y33045D01*
X33363Y33047D01*
X33366Y33048D01*
X33372Y33050D01*
X33377Y33052D01*
X33382Y33053D01*
X33384Y33053D01*
X33386Y33054D01*
X33387Y33054D01*
X33389D01*
X33395Y33054D01*
X33401Y33052D01*
X33406Y33051D01*
X33410Y33050D01*
X33414Y33048D01*
X33416Y33047D01*
X33417Y33047D01*
X33418Y33046D01*
X33418Y33046D01*
X33419D01*
X33423Y33043D01*
X33427Y33039D01*
X33430Y33036D01*
X33433Y33032D01*
X33435Y33029D01*
X33436Y33026D01*
X33437Y33026D01*
X33437Y33025D01*
X33437Y33024D01*
Y33024D01*
X33438Y33022D01*
X33439Y33019D01*
X33440Y33012D01*
X33441Y33006D01*
X33442Y33000D01*
X33442Y32997D01*
X33442Y32994D01*
Y32992D01*
X33442Y32989D01*
Y32988D01*
Y32987D01*
Y32985D01*
Y32985D01*
Y32900D01*
X33250D01*
Y32926D01*
X33335D01*
Y32955D01*
Y32959D01*
X33335Y32961D01*
Y32964D01*
X33335Y32966D01*
X33335Y32967D01*
Y32968D01*
X33334Y32969D01*
Y32969D01*
X33333Y32973D01*
X33332Y32975D01*
X33331Y32977D01*
X33330Y32978D01*
X33330Y32980D01*
X33329Y32980D01*
X33329Y32980D01*
X33327Y32983D01*
X33326Y32985D01*
X33323Y32987D01*
X33321Y32989D01*
X33319Y32991D01*
X33317Y32992D01*
X33317Y32993D01*
X33316Y32994D01*
X33312Y32996D01*
X33308Y32999D01*
X33304Y33003D01*
X33300Y33005D01*
X33296Y33008D01*
X33294Y33009D01*
X33293Y33010D01*
X33291Y33011D01*
X33291Y33012D01*
X33290Y33012D01*
X33290D01*
X33250Y33037D01*
Y33069D01*
X33302Y33036D01*
D02*
G37*
G36*
X33318Y33183D02*
X33442D01*
Y33164D01*
X33318Y33076D01*
X33296D01*
Y33160D01*
X33250D01*
Y33183D01*
X33296D01*
Y33209D01*
X33318D01*
Y33183D01*
D02*
G37*
G36*
X31664Y34111D02*
X31668Y34111D01*
X31673Y34110D01*
X31677Y34109D01*
X31681Y34107D01*
X31685Y34106D01*
X31688Y34104D01*
X31691Y34103D01*
X31694Y34101D01*
X31697Y34100D01*
X31699Y34098D01*
X31700Y34097D01*
X31702Y34095D01*
X31703Y34095D01*
X31703Y34094D01*
X31704Y34094D01*
X31707Y34091D01*
X31709Y34087D01*
X31712Y34084D01*
X31714Y34080D01*
X31715Y34076D01*
X31717Y34073D01*
X31718Y34070D01*
X31719Y34067D01*
X31720Y34063D01*
X31720Y34060D01*
X31721Y34058D01*
X31721Y34056D01*
X31721Y34054D01*
Y34053D01*
Y34052D01*
Y34052D01*
X31721Y34048D01*
X31721Y34045D01*
X31719Y34038D01*
X31717Y34032D01*
X31715Y34027D01*
X31714Y34024D01*
X31713Y34022D01*
X31712Y34020D01*
X31711Y34018D01*
X31710Y34017D01*
X31709Y34016D01*
X31709Y34016D01*
X31709Y34016D01*
X31761Y34026D01*
Y34102D01*
X31783D01*
Y34007D01*
X31685Y33988D01*
X31681Y34011D01*
X31684Y34013D01*
X31687Y34015D01*
X31689Y34018D01*
X31691Y34020D01*
X31693Y34022D01*
X31694Y34023D01*
X31695Y34024D01*
X31695Y34025D01*
X31697Y34028D01*
X31698Y34032D01*
X31699Y34035D01*
X31700Y34039D01*
X31700Y34042D01*
X31700Y34044D01*
Y34045D01*
Y34046D01*
Y34049D01*
X31700Y34052D01*
X31699Y34058D01*
X31697Y34063D01*
X31695Y34067D01*
X31692Y34071D01*
X31690Y34073D01*
X31690Y34074D01*
X31689Y34075D01*
X31689Y34075D01*
X31689D01*
X31686Y34077D01*
X31684Y34079D01*
X31679Y34082D01*
X31673Y34084D01*
X31668Y34085D01*
X31664Y34086D01*
X31662Y34086D01*
X31660D01*
X31659Y34086D01*
X31653D01*
X31649Y34086D01*
X31642Y34085D01*
X31637Y34083D01*
X31632Y34081D01*
X31630Y34079D01*
X31628Y34079D01*
X31626Y34077D01*
X31625Y34076D01*
X31624Y34076D01*
X31623Y34075D01*
X31623Y34075D01*
X31623Y34075D01*
X31620Y34072D01*
X31618Y34070D01*
X31617Y34068D01*
X31615Y34065D01*
X31613Y34060D01*
X31611Y34056D01*
X31611Y34052D01*
X31610Y34050D01*
X31610Y34049D01*
X31610Y34048D01*
Y34046D01*
Y34046D01*
Y34046D01*
X31610Y34041D01*
X31611Y34036D01*
X31613Y34032D01*
X31614Y34028D01*
X31616Y34025D01*
X31617Y34023D01*
X31618Y34022D01*
X31619Y34021D01*
X31622Y34018D01*
X31627Y34016D01*
X31631Y34013D01*
X31636Y34011D01*
X31639Y34011D01*
X31641Y34010D01*
X31643Y34009D01*
X31644Y34009D01*
X31645D01*
X31645Y34009D01*
X31646D01*
X31644Y33984D01*
X31639Y33985D01*
X31635Y33986D01*
X31631Y33987D01*
X31628Y33988D01*
X31624Y33990D01*
X31621Y33991D01*
X31618Y33993D01*
X31615Y33995D01*
X31613Y33996D01*
X31611Y33998D01*
X31609Y33999D01*
X31608Y34000D01*
X31606Y34002D01*
X31606Y34002D01*
X31605Y34003D01*
X31605Y34003D01*
X31602Y34006D01*
X31600Y34009D01*
X31598Y34013D01*
X31597Y34017D01*
X31595Y34020D01*
X31594Y34024D01*
X31592Y34030D01*
X31592Y34034D01*
X31591Y34037D01*
X31591Y34039D01*
X31591Y34042D01*
X31590Y34043D01*
Y34044D01*
Y34046D01*
Y34046D01*
X31591Y34051D01*
X31591Y34057D01*
X31593Y34062D01*
X31594Y34067D01*
X31596Y34072D01*
X31598Y34076D01*
X31600Y34079D01*
X31602Y34083D01*
X31604Y34086D01*
X31606Y34089D01*
X31608Y34091D01*
X31610Y34093D01*
X31611Y34094D01*
X31613Y34095D01*
X31613Y34096D01*
X31614Y34096D01*
X31617Y34099D01*
X31621Y34101D01*
X31625Y34103D01*
X31629Y34105D01*
X31632Y34107D01*
X31636Y34108D01*
X31643Y34109D01*
X31646Y34110D01*
X31649Y34111D01*
X31652Y34111D01*
X31654Y34111D01*
X31656Y34111D01*
X31659D01*
X31664Y34111D01*
D02*
G37*
G36*
X35001Y24603D02*
X35005Y24602D01*
X35010Y24602D01*
X35014Y24601D01*
X35018Y24599D01*
X35022Y24598D01*
X35026Y24596D01*
X35029Y24595D01*
X35032Y24593D01*
X35034Y24592D01*
X35036Y24590D01*
X35038Y24589D01*
X35040Y24588D01*
X35041Y24587D01*
X35041Y24586D01*
X35041Y24586D01*
X35045Y24583D01*
X35048Y24579D01*
X35050Y24576D01*
X35052Y24572D01*
X35054Y24568D01*
X35055Y24565D01*
X35057Y24561D01*
X35058Y24558D01*
X35059Y24555D01*
X35059Y24552D01*
X35059Y24550D01*
X35060Y24548D01*
X35060Y24546D01*
Y24544D01*
Y24543D01*
Y24543D01*
X35059Y24536D01*
X35059Y24531D01*
X35057Y24525D01*
X35055Y24521D01*
X35054Y24517D01*
X35053Y24516D01*
X35052Y24515D01*
X35052Y24514D01*
X35051Y24513D01*
X35050Y24513D01*
Y24513D01*
X35047Y24508D01*
X35042Y24505D01*
X35038Y24502D01*
X35034Y24499D01*
X35030Y24498D01*
X35028Y24497D01*
X35027Y24497D01*
X35026Y24497D01*
X35025Y24496D01*
X35024Y24496D01*
X35024D01*
X35029Y24494D01*
X35032Y24491D01*
X35036Y24488D01*
X35039Y24485D01*
X35041Y24483D01*
X35043Y24481D01*
X35043Y24480D01*
X35044Y24480D01*
X35046Y24476D01*
X35048Y24472D01*
X35049Y24468D01*
X35050Y24464D01*
X35050Y24462D01*
X35050Y24459D01*
Y24457D01*
Y24457D01*
Y24457D01*
X35050Y24452D01*
X35050Y24448D01*
X35048Y24444D01*
X35047Y24440D01*
X35045Y24437D01*
X35045Y24434D01*
X35043Y24433D01*
X35043Y24432D01*
Y24432D01*
X35041Y24428D01*
X35037Y24425D01*
X35034Y24421D01*
X35031Y24418D01*
X35027Y24416D01*
X35025Y24415D01*
X35024Y24415D01*
X35024Y24414D01*
X35023Y24414D01*
X35023D01*
X35018Y24411D01*
X35013Y24410D01*
X35008Y24409D01*
X35004Y24408D01*
X35000Y24407D01*
X34998D01*
X34997Y24407D01*
X34994D01*
X34990Y24407D01*
X34986Y24407D01*
X34978Y24409D01*
X34972Y24411D01*
X34969Y24413D01*
X34966Y24413D01*
X34964Y24415D01*
X34962Y24416D01*
X34960Y24417D01*
X34959Y24418D01*
X34957Y24419D01*
X34957Y24420D01*
X34956Y24420D01*
X34956Y24420D01*
X34953Y24423D01*
X34951Y24425D01*
X34946Y24432D01*
X34943Y24437D01*
X34941Y24443D01*
X34939Y24446D01*
X34939Y24448D01*
X34938Y24451D01*
X34938Y24453D01*
X34937Y24455D01*
X34937Y24456D01*
X34936Y24457D01*
Y24457D01*
X34960Y24461D01*
X34961Y24455D01*
X34963Y24450D01*
X34965Y24445D01*
X34967Y24442D01*
X34969Y24439D01*
X34970Y24437D01*
X34971Y24436D01*
X34971Y24435D01*
X34975Y24432D01*
X34979Y24430D01*
X34983Y24429D01*
X34987Y24427D01*
X34990Y24427D01*
X34992Y24427D01*
X34994Y24427D01*
X34995D01*
X35000Y24427D01*
X35004Y24428D01*
X35008Y24429D01*
X35011Y24431D01*
X35014Y24432D01*
X35016Y24434D01*
X35017Y24435D01*
X35017Y24435D01*
X35020Y24439D01*
X35022Y24442D01*
X35024Y24446D01*
X35025Y24449D01*
X35026Y24452D01*
X35026Y24454D01*
X35026Y24456D01*
Y24456D01*
Y24457D01*
X35026Y24460D01*
X35026Y24462D01*
X35024Y24467D01*
X35022Y24471D01*
X35020Y24475D01*
X35018Y24478D01*
X35016Y24479D01*
X35015Y24481D01*
X35014Y24481D01*
X35014D01*
X35010Y24483D01*
X35005Y24485D01*
X35000Y24487D01*
X34996Y24488D01*
X34992Y24488D01*
X34990Y24488D01*
X34989Y24489D01*
X34986D01*
X34985Y24488D01*
X34984Y24488D01*
X34983D01*
X34980Y24509D01*
X34984Y24508D01*
X34987Y24508D01*
X34990Y24507D01*
X34993Y24507D01*
X34994Y24506D01*
X34997D01*
X35003Y24507D01*
X35008Y24508D01*
X35013Y24510D01*
X35017Y24512D01*
X35020Y24514D01*
X35022Y24515D01*
X35024Y24516D01*
X35024Y24517D01*
X35026Y24519D01*
X35028Y24521D01*
X35031Y24525D01*
X35032Y24530D01*
X35034Y24534D01*
X35034Y24538D01*
X35035Y24540D01*
Y24541D01*
X35035Y24542D01*
Y24543D01*
Y24543D01*
Y24544D01*
Y24547D01*
X35034Y24550D01*
X35033Y24555D01*
X35031Y24560D01*
X35029Y24564D01*
X35027Y24568D01*
X35025Y24570D01*
X35024Y24571D01*
X35024Y24572D01*
X35024Y24572D01*
X35024Y24572D01*
X35021Y24574D01*
X35019Y24576D01*
X35014Y24579D01*
X35010Y24581D01*
X35005Y24582D01*
X35001Y24583D01*
X34999Y24583D01*
X34998D01*
X34997Y24584D01*
X34995D01*
X34990Y24583D01*
X34985Y24582D01*
X34982Y24581D01*
X34978Y24579D01*
X34975Y24578D01*
X34973Y24576D01*
X34972Y24575D01*
X34971Y24575D01*
X34969Y24573D01*
X34968Y24571D01*
X34965Y24567D01*
X34963Y24562D01*
X34961Y24557D01*
X34959Y24553D01*
X34959Y24551D01*
X34959Y24549D01*
X34958Y24548D01*
X34958Y24547D01*
X34958Y24546D01*
Y24546D01*
X34934Y24549D01*
X34935Y24553D01*
X34936Y24558D01*
X34937Y24562D01*
X34938Y24565D01*
X34940Y24569D01*
X34941Y24572D01*
X34943Y24575D01*
X34945Y24578D01*
X34946Y24580D01*
X34948Y24582D01*
X34949Y24584D01*
X34950Y24585D01*
X34952Y24587D01*
X34952Y24588D01*
X34953Y24588D01*
X34953Y24588D01*
X34957Y24591D01*
X34960Y24593D01*
X34963Y24595D01*
X34967Y24597D01*
X34971Y24598D01*
X34974Y24599D01*
X34980Y24601D01*
X34983Y24602D01*
X34987Y24602D01*
X34989Y24603D01*
X34991Y24603D01*
X34993Y24603D01*
X34995D01*
X35001Y24603D01*
D02*
G37*
G36*
X31646Y33936D02*
X31651Y33932D01*
X31656Y33928D01*
X31661Y33925D01*
X31664Y33922D01*
X31667Y33919D01*
X31669Y33917D01*
X31671Y33915D01*
X31671Y33915D01*
Y33915D01*
X31673Y33912D01*
X31675Y33910D01*
X31678Y33905D01*
X31679Y33903D01*
X31680Y33901D01*
X31681Y33900D01*
X31681Y33900D01*
X31682Y33905D01*
X31683Y33909D01*
X31684Y33914D01*
X31685Y33918D01*
X31687Y33921D01*
X31688Y33925D01*
X31690Y33928D01*
X31691Y33930D01*
X31693Y33933D01*
X31694Y33935D01*
X31695Y33937D01*
X31696Y33938D01*
X31697Y33939D01*
X31698Y33940D01*
X31698Y33940D01*
X31699Y33940D01*
X31701Y33943D01*
X31704Y33945D01*
X31707Y33947D01*
X31710Y33948D01*
X31716Y33951D01*
X31721Y33952D01*
X31726Y33953D01*
X31728Y33953D01*
X31730Y33953D01*
X31731Y33954D01*
X31733D01*
X31739Y33953D01*
X31744Y33953D01*
X31749Y33951D01*
X31754Y33950D01*
X31757Y33948D01*
X31760Y33947D01*
X31761Y33946D01*
X31762Y33946D01*
X31762Y33946D01*
X31762D01*
X31767Y33942D01*
X31771Y33939D01*
X31774Y33935D01*
X31776Y33932D01*
X31778Y33929D01*
X31780Y33926D01*
X31780Y33925D01*
X31780Y33925D01*
X31781Y33925D01*
Y33924D01*
X31782Y33922D01*
X31782Y33919D01*
X31784Y33912D01*
X31785Y33906D01*
X31785Y33900D01*
X31785Y33897D01*
X31786Y33894D01*
Y33892D01*
X31786Y33890D01*
Y33888D01*
Y33886D01*
Y33886D01*
Y33885D01*
Y33800D01*
X31594D01*
Y33826D01*
X31679D01*
Y33855D01*
Y33858D01*
X31679Y33861D01*
Y33864D01*
X31678Y33866D01*
X31678Y33867D01*
Y33868D01*
X31678Y33869D01*
Y33869D01*
X31676Y33873D01*
X31676Y33875D01*
X31675Y33877D01*
X31674Y33879D01*
X31673Y33879D01*
X31673Y33880D01*
X31673Y33881D01*
X31671Y33883D01*
X31669Y33885D01*
X31667Y33887D01*
X31665Y33889D01*
X31663Y33891D01*
X31661Y33892D01*
X31660Y33893D01*
X31660Y33893D01*
X31656Y33897D01*
X31652Y33900D01*
X31647Y33902D01*
X31643Y33905D01*
X31639Y33908D01*
X31638Y33909D01*
X31636Y33910D01*
X31635Y33911D01*
X31634Y33911D01*
X31634Y33912D01*
X31633D01*
X31594Y33937D01*
Y33969D01*
X31646Y33936D01*
D02*
G37*
G36*
X31683Y35036D02*
X31661D01*
Y35130D01*
X31653Y35123D01*
X31644Y35117D01*
X31636Y35111D01*
X31628Y35106D01*
X31624Y35104D01*
X31621Y35102D01*
X31618Y35100D01*
X31615Y35099D01*
X31613Y35097D01*
X31611Y35096D01*
X31610Y35096D01*
X31610Y35096D01*
X31599Y35090D01*
X31588Y35085D01*
X31577Y35081D01*
X31573Y35079D01*
X31568Y35078D01*
X31564Y35076D01*
X31560Y35075D01*
X31557Y35074D01*
X31554Y35073D01*
X31551Y35073D01*
X31550Y35072D01*
X31549Y35071D01*
X31548D01*
X31542Y35070D01*
X31537Y35069D01*
X31531Y35068D01*
X31526Y35066D01*
X31521Y35066D01*
X31517Y35065D01*
X31513Y35064D01*
X31509Y35064D01*
X31505Y35064D01*
X31502Y35063D01*
X31500Y35063D01*
X31498D01*
X31496Y35063D01*
X31494D01*
Y35087D01*
X31504Y35088D01*
X31514Y35089D01*
X31518Y35090D01*
X31523Y35090D01*
X31527Y35092D01*
X31531Y35092D01*
X31534Y35093D01*
X31537Y35094D01*
X31540Y35094D01*
X31542Y35095D01*
X31544Y35095D01*
X31545Y35096D01*
X31546Y35096D01*
X31546D01*
X31559Y35100D01*
X31571Y35104D01*
X31577Y35107D01*
X31582Y35109D01*
X31588Y35111D01*
X31592Y35113D01*
X31597Y35115D01*
X31601Y35117D01*
X31604Y35119D01*
X31607Y35120D01*
X31610Y35122D01*
X31611Y35123D01*
X31613Y35123D01*
X31613Y35124D01*
X31619Y35127D01*
X31624Y35130D01*
X31630Y35134D01*
X31635Y35137D01*
X31639Y35140D01*
X31644Y35143D01*
X31648Y35146D01*
X31651Y35148D01*
X31654Y35151D01*
X31657Y35153D01*
X31659Y35155D01*
X31661Y35157D01*
X31663Y35158D01*
X31664Y35159D01*
X31665Y35160D01*
X31665Y35160D01*
X31683D01*
Y35036D01*
D02*
G37*
%LPC*%
G36*
X31684Y35977D02*
X31683D01*
X31680Y35977D01*
X31677Y35977D01*
X31674Y35976D01*
X31671Y35975D01*
X31669Y35974D01*
X31667Y35973D01*
X31666Y35972D01*
X31666Y35972D01*
X31663Y35970D01*
X31661Y35968D01*
X31659Y35965D01*
X31657Y35963D01*
X31656Y35961D01*
X31655Y35959D01*
X31655Y35958D01*
X31654Y35957D01*
X31653Y35953D01*
X31652Y35949D01*
X31652Y35944D01*
X31651Y35940D01*
X31651Y35936D01*
X31651Y35934D01*
Y35933D01*
Y35932D01*
Y35931D01*
Y35930D01*
Y35930D01*
Y35875D01*
X31715D01*
Y35936D01*
Y35940D01*
X31714Y35944D01*
X31714Y35947D01*
X31713Y35950D01*
X31713Y35953D01*
X31712Y35956D01*
X31711Y35958D01*
X31710Y35960D01*
X31708Y35963D01*
X31707Y35965D01*
X31706Y35967D01*
X31706Y35968D01*
X31702Y35971D01*
X31698Y35973D01*
X31695Y35975D01*
X31691Y35976D01*
X31688Y35977D01*
X31685Y35977D01*
X31684Y35977D01*
D02*
G37*
G36*
X26081Y32599D02*
Y32491D01*
X26173Y32526D01*
X26185Y32530D01*
X26196Y32533D01*
X26206Y32536D01*
X26215Y32539D01*
X26219Y32540D01*
X26223Y32541D01*
X26226Y32542D01*
X26229Y32542D01*
X26232Y32542D01*
X26233Y32543D01*
X26234Y32543D01*
X26235D01*
X26224Y32547D01*
X26213Y32550D01*
X26202Y32554D01*
X26192Y32557D01*
X26187Y32559D01*
X26182Y32561D01*
X26178Y32562D01*
X26175Y32564D01*
X26172Y32564D01*
X26170Y32565D01*
X26168Y32566D01*
X26168D01*
X26081Y32599D01*
D02*
G37*
G36*
X35531Y33742D02*
X35526D01*
X35522Y33742D01*
X35515Y33740D01*
X35510Y33739D01*
X35505Y33737D01*
X35502Y33735D01*
X35501Y33734D01*
X35499Y33733D01*
X35498Y33732D01*
X35498Y33732D01*
X35498Y33732D01*
X35497Y33731D01*
X35495Y33729D01*
X35494Y33727D01*
X35491Y33723D01*
X35489Y33718D01*
X35487Y33714D01*
X35487Y33710D01*
X35486Y33709D01*
Y33707D01*
X35486Y33706D01*
Y33705D01*
Y33705D01*
Y33705D01*
X35486Y33702D01*
X35487Y33698D01*
X35488Y33693D01*
X35489Y33688D01*
X35492Y33684D01*
X35494Y33681D01*
X35496Y33679D01*
X35497Y33677D01*
X35497Y33677D01*
Y33677D01*
X35499Y33675D01*
X35502Y33674D01*
X35507Y33671D01*
X35512Y33669D01*
X35517Y33668D01*
X35521Y33667D01*
X35522Y33667D01*
X35524D01*
X35526Y33666D01*
X35527D01*
X35531Y33667D01*
X35535Y33667D01*
X35541Y33668D01*
X35547Y33670D01*
X35552Y33672D01*
X35554Y33673D01*
X35556Y33674D01*
X35557Y33675D01*
X35558Y33676D01*
X35559Y33677D01*
X35560Y33677D01*
X35560Y33678D01*
X35561D01*
X35563Y33680D01*
X35565Y33682D01*
X35566Y33684D01*
X35568Y33687D01*
X35570Y33691D01*
X35572Y33696D01*
X35573Y33700D01*
X35573Y33701D01*
X35573Y33702D01*
X35573Y33703D01*
Y33704D01*
Y33705D01*
Y33705D01*
X35573Y33708D01*
X35573Y33710D01*
X35572Y33716D01*
X35570Y33720D01*
X35568Y33724D01*
X35565Y33727D01*
X35563Y33729D01*
X35562Y33731D01*
X35562Y33731D01*
X35561D01*
X35559Y33733D01*
X35557Y33735D01*
X35552Y33737D01*
X35546Y33740D01*
X35541Y33741D01*
X35536Y33742D01*
X35534Y33742D01*
X35533D01*
X35531Y33742D01*
D02*
G37*
G36*
X26205Y31890D02*
X26062D01*
Y31790D01*
X26205Y31890D01*
D02*
G37*
G36*
X26081Y31649D02*
Y31541D01*
X26173Y31576D01*
X26185Y31580D01*
X26196Y31583D01*
X26206Y31586D01*
X26215Y31589D01*
X26219Y31590D01*
X26223Y31591D01*
X26226Y31592D01*
X26229Y31592D01*
X26232Y31592D01*
X26233Y31593D01*
X26234Y31593D01*
X26235D01*
X26224Y31597D01*
X26213Y31600D01*
X26202Y31604D01*
X26192Y31607D01*
X26187Y31609D01*
X26182Y31611D01*
X26178Y31612D01*
X26175Y31614D01*
X26172Y31614D01*
X26170Y31615D01*
X26168Y31616D01*
X26168D01*
X26081Y31649D01*
D02*
G37*
G36*
X35456Y34192D02*
X35452D01*
X35449Y34191D01*
X35443Y34190D01*
X35438Y34188D01*
X35435Y34186D01*
X35431Y34184D01*
X35429Y34183D01*
X35427Y34181D01*
X35427Y34181D01*
X35427Y34181D01*
X35425Y34179D01*
X35424Y34176D01*
X35421Y34172D01*
X35419Y34167D01*
X35417Y34163D01*
X35417Y34159D01*
X35417Y34157D01*
Y34155D01*
X35416Y34155D01*
Y34153D01*
Y34153D01*
Y34153D01*
X35417Y34149D01*
X35417Y34145D01*
X35418Y34142D01*
X35419Y34139D01*
X35420Y34136D01*
X35420Y34134D01*
X35421Y34133D01*
X35421Y34132D01*
X35424Y34129D01*
X35426Y34126D01*
X35428Y34124D01*
X35431Y34122D01*
X35433Y34120D01*
X35434Y34119D01*
X35435Y34118D01*
X35436Y34118D01*
X35439Y34117D01*
X35443Y34116D01*
X35446Y34115D01*
X35449Y34114D01*
X35452Y34114D01*
X35454Y34114D01*
X35456D01*
X35459Y34114D01*
X35461Y34114D01*
X35467Y34116D01*
X35471Y34117D01*
X35475Y34119D01*
X35479Y34121D01*
X35481Y34123D01*
X35482Y34124D01*
X35483Y34125D01*
X35485Y34127D01*
X35487Y34129D01*
X35489Y34133D01*
X35491Y34138D01*
X35493Y34142D01*
X35494Y34146D01*
X35494Y34148D01*
Y34149D01*
X35494Y34151D01*
Y34151D01*
Y34152D01*
Y34152D01*
Y34155D01*
X35494Y34158D01*
X35492Y34164D01*
X35491Y34169D01*
X35489Y34173D01*
X35486Y34176D01*
X35484Y34179D01*
X35483Y34180D01*
X35483Y34181D01*
X35483D01*
X35481Y34183D01*
X35478Y34184D01*
X35474Y34187D01*
X35469Y34189D01*
X35464Y34190D01*
X35461Y34191D01*
X35459Y34192D01*
X35457D01*
X35456Y34192D01*
D02*
G37*
G36*
X26054Y27763D02*
X26045D01*
X26039Y27762D01*
X26028Y27760D01*
X26019Y27757D01*
X26011Y27754D01*
X26008Y27752D01*
X26005Y27751D01*
X26002Y27749D01*
X26000Y27748D01*
X25999Y27747D01*
X25997Y27746D01*
X25997Y27745D01*
X25997Y27745D01*
X25993Y27742D01*
X25990Y27738D01*
X25985Y27731D01*
X25982Y27724D01*
X25979Y27717D01*
X25978Y27711D01*
X25977Y27707D01*
X25977Y27705D01*
Y27704D01*
Y27703D01*
Y27703D01*
X25977Y27696D01*
X25979Y27691D01*
X25980Y27685D01*
X25982Y27680D01*
X25983Y27676D01*
X25985Y27673D01*
X25986Y27671D01*
X25986Y27670D01*
X25990Y27665D01*
X25995Y27660D01*
X25999Y27656D01*
X26004Y27653D01*
X26008Y27650D01*
X26011Y27648D01*
X26013Y27647D01*
X26014Y27646D01*
X26021Y27643D01*
X26028Y27641D01*
X26035Y27640D01*
X26040Y27639D01*
X26045Y27638D01*
X26050Y27638D01*
X26053D01*
X26059Y27638D01*
X26064Y27639D01*
X26074Y27641D01*
X26082Y27644D01*
X26090Y27647D01*
X26095Y27650D01*
X26100Y27653D01*
X26101Y27655D01*
X26102Y27655D01*
X26102Y27656D01*
X26103D01*
X26106Y27660D01*
X26109Y27663D01*
X26114Y27671D01*
X26117Y27679D01*
X26119Y27686D01*
X26121Y27691D01*
X26121Y27694D01*
Y27696D01*
X26122Y27698D01*
Y27700D01*
Y27700D01*
Y27701D01*
Y27706D01*
X26121Y27710D01*
X26119Y27719D01*
X26116Y27726D01*
X26112Y27733D01*
X26109Y27738D01*
X26106Y27742D01*
X26104Y27744D01*
X26103Y27745D01*
X26103D01*
X26099Y27748D01*
X26095Y27751D01*
X26087Y27755D01*
X26078Y27759D01*
X26070Y27761D01*
X26062Y27762D01*
X26059Y27762D01*
X26056D01*
X26054Y27763D01*
D02*
G37*
G36*
X35544Y34184D02*
X35543D01*
X35538Y34184D01*
X35534Y34183D01*
X35531Y34181D01*
X35528Y34180D01*
X35525Y34178D01*
X35523Y34177D01*
X35522Y34176D01*
X35522Y34175D01*
X35519Y34172D01*
X35517Y34168D01*
X35515Y34164D01*
X35514Y34161D01*
X35514Y34158D01*
X35514Y34155D01*
X35513Y34154D01*
Y34153D01*
Y34153D01*
Y34153D01*
X35514Y34148D01*
X35515Y34144D01*
X35516Y34139D01*
X35517Y34136D01*
X35519Y34134D01*
X35521Y34132D01*
X35522Y34130D01*
X35522Y34130D01*
X35525Y34127D01*
X35529Y34125D01*
X35533Y34123D01*
X35536Y34123D01*
X35539Y34122D01*
X35542Y34122D01*
X35543Y34121D01*
X35544D01*
X35548Y34122D01*
X35552Y34123D01*
X35556Y34124D01*
X35559Y34126D01*
X35561Y34128D01*
X35563Y34129D01*
X35564Y34130D01*
X35565Y34130D01*
X35568Y34134D01*
X35570Y34137D01*
X35571Y34141D01*
X35573Y34145D01*
X35573Y34148D01*
X35573Y34151D01*
X35573Y34151D01*
Y34152D01*
Y34153D01*
Y34153D01*
X35573Y34158D01*
X35572Y34162D01*
X35571Y34165D01*
X35569Y34169D01*
X35567Y34172D01*
X35566Y34174D01*
X35565Y34174D01*
X35564Y34175D01*
X35561Y34178D01*
X35557Y34180D01*
X35554Y34182D01*
X35550Y34183D01*
X35547Y34183D01*
X35545Y34184D01*
X35544Y34184D01*
D02*
G37*
G36*
X26081Y27479D02*
Y27371D01*
X26173Y27406D01*
X26185Y27410D01*
X26196Y27413D01*
X26206Y27416D01*
X26215Y27419D01*
X26219Y27420D01*
X26223Y27421D01*
X26226Y27422D01*
X26229Y27422D01*
X26232Y27422D01*
X26233Y27423D01*
X26234Y27423D01*
X26235D01*
X26224Y27427D01*
X26213Y27430D01*
X26202Y27434D01*
X26192Y27437D01*
X26187Y27439D01*
X26182Y27441D01*
X26178Y27442D01*
X26175Y27444D01*
X26172Y27444D01*
X26170Y27445D01*
X26168Y27446D01*
X26168D01*
X26081Y27479D01*
D02*
G37*
G36*
X35554Y34016D02*
X35468D01*
Y33956D01*
X35554Y34016D01*
D02*
G37*
G36*
X31634Y34978D02*
X31633D01*
X31630Y34977D01*
X31627Y34977D01*
X31624Y34976D01*
X31621Y34975D01*
X31619Y34974D01*
X31617Y34973D01*
X31616Y34973D01*
X31616Y34972D01*
X31613Y34970D01*
X31611Y34968D01*
X31609Y34965D01*
X31607Y34963D01*
X31606Y34961D01*
X31605Y34959D01*
X31605Y34958D01*
X31604Y34957D01*
X31603Y34953D01*
X31602Y34949D01*
X31602Y34944D01*
X31601Y34940D01*
X31601Y34936D01*
X31601Y34934D01*
Y34933D01*
Y34932D01*
Y34931D01*
Y34930D01*
Y34930D01*
Y34876D01*
X31665D01*
Y34936D01*
Y34940D01*
X31664Y34944D01*
X31664Y34947D01*
X31663Y34950D01*
X31663Y34953D01*
X31662Y34955D01*
X31661Y34958D01*
X31660Y34960D01*
X31658Y34963D01*
X31657Y34966D01*
X31656Y34967D01*
X31656Y34968D01*
X31652Y34971D01*
X31648Y34973D01*
X31645Y34975D01*
X31641Y34976D01*
X31638Y34977D01*
X31635Y34977D01*
X31634Y34978D01*
D02*
G37*
G36*
X31675Y36134D02*
X31669D01*
X31666Y36134D01*
X31659Y36133D01*
X31654Y36131D01*
X31649Y36129D01*
X31646Y36127D01*
X31644Y36126D01*
X31643Y36125D01*
X31642Y36124D01*
X31641Y36124D01*
X31641Y36124D01*
X31641Y36123D01*
X31639Y36121D01*
X31637Y36119D01*
X31634Y36115D01*
X31632Y36110D01*
X31631Y36106D01*
X31630Y36102D01*
X31630Y36101D01*
Y36100D01*
X31630Y36098D01*
Y36098D01*
Y36097D01*
Y36097D01*
X31630Y36094D01*
X31630Y36091D01*
X31631Y36086D01*
X31633Y36081D01*
X31635Y36077D01*
X31637Y36074D01*
X31639Y36071D01*
X31640Y36070D01*
X31641Y36070D01*
Y36069D01*
X31643Y36067D01*
X31645Y36066D01*
X31650Y36063D01*
X31655Y36061D01*
X31660Y36060D01*
X31664Y36059D01*
X31666Y36059D01*
X31668D01*
X31669Y36058D01*
X31671D01*
X31675Y36059D01*
X31678Y36059D01*
X31685Y36060D01*
X31690Y36062D01*
X31695Y36064D01*
X31697Y36065D01*
X31699Y36066D01*
X31701Y36067D01*
X31702Y36068D01*
X31703Y36069D01*
X31704Y36070D01*
X31704Y36070D01*
X31704D01*
X31706Y36072D01*
X31708Y36075D01*
X31710Y36077D01*
X31712Y36079D01*
X31714Y36084D01*
X31716Y36088D01*
X31716Y36092D01*
X31717Y36093D01*
X31717Y36095D01*
X31717Y36096D01*
Y36096D01*
Y36097D01*
Y36097D01*
X31717Y36100D01*
X31717Y36103D01*
X31715Y36108D01*
X31713Y36112D01*
X31711Y36116D01*
X31709Y36119D01*
X31707Y36121D01*
X31706Y36123D01*
X31705Y36123D01*
X31705D01*
X31703Y36126D01*
X31700Y36127D01*
X31695Y36130D01*
X31690Y36132D01*
X31685Y36133D01*
X31680Y36134D01*
X31678Y36134D01*
X31676D01*
X31675Y36134D01*
D02*
G37*
G36*
X26081Y28479D02*
Y28371D01*
X26173Y28406D01*
X26185Y28410D01*
X26196Y28413D01*
X26206Y28416D01*
X26215Y28419D01*
X26219Y28420D01*
X26223Y28421D01*
X26226Y28422D01*
X26229Y28422D01*
X26232Y28422D01*
X26233Y28423D01*
X26234Y28423D01*
X26235D01*
X26224Y28427D01*
X26213Y28430D01*
X26202Y28434D01*
X26192Y28437D01*
X26187Y28439D01*
X26182Y28441D01*
X26178Y28442D01*
X26175Y28444D01*
X26172Y28444D01*
X26170Y28445D01*
X26168Y28446D01*
X26168D01*
X26081Y28479D01*
D02*
G37*
G36*
X35479Y33572D02*
Y33507D01*
X35535Y33528D01*
X35542Y33530D01*
X35549Y33532D01*
X35555Y33534D01*
X35561Y33535D01*
X35563Y33536D01*
X35565Y33537D01*
X35567Y33537D01*
X35569Y33537D01*
X35570Y33537D01*
X35571Y33538D01*
X35572Y33538D01*
X35572D01*
X35566Y33540D01*
X35559Y33542D01*
X35552Y33544D01*
X35546Y33547D01*
X35543Y33547D01*
X35540Y33549D01*
X35538Y33549D01*
X35536Y33550D01*
X35534Y33551D01*
X35533Y33551D01*
X35532Y33552D01*
X35532D01*
X35479Y33572D01*
D02*
G37*
G36*
X33343Y32074D02*
X33279D01*
Y32014D01*
Y32010D01*
X33280Y32006D01*
X33280Y32003D01*
X33280Y32000D01*
X33281Y31997D01*
X33282Y31995D01*
X33283Y31992D01*
X33284Y31990D01*
X33285Y31987D01*
X33286Y31985D01*
X33287Y31983D01*
X33288Y31983D01*
X33291Y31979D01*
X33295Y31977D01*
X33299Y31975D01*
X33303Y31974D01*
X33306Y31973D01*
X33308Y31973D01*
X33309Y31972D01*
X33310D01*
X33314Y31973D01*
X33317Y31973D01*
X33320Y31974D01*
X33323Y31975D01*
X33325Y31976D01*
X33326Y31977D01*
X33328Y31978D01*
X33328Y31978D01*
X33331Y31980D01*
X33333Y31982D01*
X33335Y31985D01*
X33337Y31987D01*
X33338Y31989D01*
X33338Y31991D01*
X33339Y31992D01*
X33339Y31993D01*
X33340Y31997D01*
X33341Y32001D01*
X33342Y32006D01*
X33342Y32010D01*
X33342Y32014D01*
X33343Y32016D01*
Y32017D01*
Y32018D01*
Y32019D01*
Y32020D01*
Y32020D01*
Y32074D01*
D02*
G37*
G36*
X33405Y33160D02*
X33318D01*
Y33099D01*
X33405Y33160D01*
D02*
G37*
G36*
X24278Y32593D02*
X24219D01*
Y32529D01*
X24284D01*
X24287Y32529D01*
X24291Y32530D01*
X24294Y32531D01*
X24297Y32531D01*
X24299Y32532D01*
X24301Y32533D01*
X24303Y32534D01*
X24307Y32535D01*
X24309Y32536D01*
X24311Y32538D01*
X24311Y32538D01*
X24314Y32541D01*
X24317Y32545D01*
X24319Y32549D01*
X24320Y32552D01*
X24321Y32556D01*
X24321Y32558D01*
X24321Y32559D01*
Y32560D01*
Y32560D01*
Y32561D01*
X24321Y32564D01*
X24320Y32567D01*
X24319Y32570D01*
X24319Y32573D01*
X24318Y32575D01*
X24317Y32576D01*
X24316Y32578D01*
X24316Y32578D01*
X24314Y32580D01*
X24311Y32583D01*
X24309Y32585D01*
X24307Y32587D01*
X24304Y32588D01*
X24303Y32589D01*
X24301Y32589D01*
X24301Y32589D01*
X24297Y32590D01*
X24293Y32591D01*
X24288Y32592D01*
X24284Y32592D01*
X24280Y32592D01*
X24278Y32593D01*
D02*
G37*
G36*
X34834Y24493D02*
X34776D01*
Y24429D01*
X34840D01*
X34844Y24430D01*
X34847Y24430D01*
X34850Y24430D01*
X34853Y24431D01*
X34855Y24432D01*
X34858Y24433D01*
X34860Y24434D01*
X34863Y24435D01*
X34866Y24437D01*
X34867Y24437D01*
X34867Y24438D01*
X34871Y24441D01*
X34873Y24445D01*
X34875Y24449D01*
X34876Y24453D01*
X34877Y24456D01*
X34877Y24458D01*
X34878Y24459D01*
Y24460D01*
Y24460D01*
Y24460D01*
X34877Y24464D01*
X34877Y24467D01*
X34876Y24470D01*
X34875Y24472D01*
X34874Y24475D01*
X34873Y24476D01*
X34873Y24478D01*
X34872Y24478D01*
X34870Y24481D01*
X34868Y24483D01*
X34865Y24485D01*
X34863Y24486D01*
X34861Y24488D01*
X34859Y24488D01*
X34858Y24489D01*
X34857Y24489D01*
X34853Y24490D01*
X34849Y24491D01*
X34844Y24492D01*
X34840Y24492D01*
X34836Y24492D01*
X34834Y24493D01*
D02*
G37*
G36*
X25675Y29771D02*
X25610D01*
X25606Y29771D01*
X25603Y29770D01*
X25600Y29769D01*
X25597Y29769D01*
X25594Y29768D01*
X25592Y29767D01*
X25590Y29766D01*
X25587Y29765D01*
X25584Y29764D01*
X25583Y29762D01*
X25582Y29762D01*
X25579Y29759D01*
X25577Y29755D01*
X25575Y29751D01*
X25574Y29748D01*
X25573Y29744D01*
X25573Y29742D01*
X25573Y29741D01*
Y29740D01*
Y29740D01*
Y29739D01*
X25573Y29736D01*
X25573Y29733D01*
X25574Y29730D01*
X25575Y29727D01*
X25576Y29725D01*
X25577Y29724D01*
X25577Y29722D01*
X25578Y29722D01*
X25580Y29720D01*
X25582Y29717D01*
X25585Y29715D01*
X25587Y29713D01*
X25589Y29712D01*
X25591Y29711D01*
X25592Y29711D01*
X25593Y29711D01*
X25597Y29709D01*
X25601Y29709D01*
X25606Y29708D01*
X25610Y29708D01*
X25614Y29708D01*
X25616Y29707D01*
X25675D01*
Y29771D01*
D02*
G37*
G36*
X25306Y29773D02*
X25304D01*
X25301Y29773D01*
X25298Y29773D01*
X25296Y29772D01*
X25293Y29771D01*
X25288Y29769D01*
X25284Y29766D01*
X25281Y29763D01*
X25279Y29760D01*
X25278Y29759D01*
X25277Y29759D01*
X25277Y29758D01*
Y29758D01*
X25275Y29755D01*
X25273Y29750D01*
X25271Y29746D01*
X25270Y29741D01*
X25269Y29736D01*
X25268Y29731D01*
X25267Y29720D01*
X25266Y29715D01*
X25266Y29711D01*
X25266Y29706D01*
Y29702D01*
X25266Y29699D01*
Y29697D01*
Y29695D01*
Y29695D01*
Y29695D01*
Y29686D01*
X25266Y29678D01*
X25266Y29671D01*
X25267Y29665D01*
X25268Y29659D01*
X25269Y29654D01*
X25270Y29650D01*
X25271Y29646D01*
X25272Y29642D01*
X25273Y29639D01*
X25274Y29637D01*
X25275Y29635D01*
X25276Y29634D01*
X25276Y29632D01*
X25277Y29632D01*
X25277Y29632D01*
X25279Y29629D01*
X25281Y29627D01*
X25283Y29625D01*
X25286Y29623D01*
X25288Y29621D01*
X25290Y29620D01*
X25294Y29618D01*
X25298Y29617D01*
X25300Y29617D01*
X25301Y29616D01*
X25303Y29616D01*
X25304D01*
X25307Y29616D01*
X25310Y29617D01*
X25312Y29618D01*
X25315Y29619D01*
X25320Y29621D01*
X25324Y29624D01*
X25327Y29627D01*
X25329Y29629D01*
X25330Y29630D01*
X25331Y29631D01*
X25331Y29632D01*
X25331Y29632D01*
X25333Y29635D01*
X25335Y29639D01*
X25336Y29643D01*
X25338Y29648D01*
X25339Y29653D01*
X25340Y29659D01*
X25341Y29669D01*
X25341Y29674D01*
X25342Y29679D01*
X25342Y29683D01*
Y29687D01*
X25342Y29690D01*
Y29693D01*
Y29694D01*
Y29694D01*
Y29695D01*
X25342Y29703D01*
X25342Y29711D01*
X25341Y29718D01*
X25340Y29725D01*
X25340Y29731D01*
X25338Y29736D01*
X25337Y29741D01*
X25336Y29745D01*
X25335Y29748D01*
X25334Y29752D01*
X25333Y29754D01*
X25332Y29756D01*
X25331Y29757D01*
X25331Y29759D01*
X25331Y29759D01*
X25330Y29760D01*
X25328Y29762D01*
X25326Y29764D01*
X25324Y29766D01*
X25322Y29767D01*
X25318Y29770D01*
X25313Y29772D01*
X25310Y29773D01*
X25307Y29773D01*
X25306Y29773D01*
D02*
G37*
G36*
X31641Y38877D02*
X31639D01*
X31636Y38877D01*
X31633Y38877D01*
X31630Y38876D01*
X31628Y38875D01*
X31625Y38874D01*
X31624Y38873D01*
X31623Y38872D01*
X31622Y38872D01*
X31620Y38870D01*
X31617Y38868D01*
X31615Y38865D01*
X31614Y38863D01*
X31612Y38861D01*
X31611Y38859D01*
X31611Y38858D01*
X31611Y38857D01*
X31609Y38853D01*
X31609Y38849D01*
X31608Y38844D01*
X31608Y38840D01*
X31607Y38836D01*
X31607Y38834D01*
Y38833D01*
Y38832D01*
Y38831D01*
Y38830D01*
Y38830D01*
Y38775D01*
X31671D01*
Y38836D01*
Y38840D01*
X31670Y38844D01*
X31670Y38847D01*
X31669Y38850D01*
X31669Y38853D01*
X31668Y38856D01*
X31667Y38858D01*
X31667Y38860D01*
X31665Y38863D01*
X31663Y38865D01*
X31662Y38867D01*
X31662Y38867D01*
X31658Y38871D01*
X31655Y38873D01*
X31651Y38875D01*
X31648Y38876D01*
X31644Y38877D01*
X31642Y38877D01*
X31641Y38877D01*
D02*
G37*
G36*
X31584Y36878D02*
X31583D01*
X31580Y36877D01*
X31577Y36877D01*
X31574Y36876D01*
X31571Y36875D01*
X31569Y36874D01*
X31567Y36873D01*
X31566Y36872D01*
X31566Y36872D01*
X31563Y36870D01*
X31561Y36868D01*
X31559Y36865D01*
X31557Y36863D01*
X31556Y36861D01*
X31555Y36859D01*
X31555Y36858D01*
X31554Y36857D01*
X31553Y36853D01*
X31552Y36849D01*
X31552Y36844D01*
X31551Y36840D01*
X31551Y36836D01*
X31551Y36834D01*
Y36833D01*
Y36832D01*
Y36831D01*
Y36830D01*
Y36830D01*
Y36776D01*
X31615D01*
Y36836D01*
Y36840D01*
X31614Y36844D01*
X31614Y36847D01*
X31613Y36850D01*
X31613Y36853D01*
X31612Y36855D01*
X31611Y36858D01*
X31610Y36860D01*
X31608Y36863D01*
X31607Y36865D01*
X31606Y36867D01*
X31606Y36867D01*
X31602Y36871D01*
X31598Y36873D01*
X31595Y36875D01*
X31591Y36876D01*
X31588Y36877D01*
X31585Y36877D01*
X31584Y36878D01*
D02*
G37*
G36*
X36249Y36343D02*
X36181D01*
Y36294D01*
Y36291D01*
Y36288D01*
X36181Y36283D01*
X36181Y36279D01*
X36181Y36276D01*
X36182Y36274D01*
X36182Y36272D01*
X36182Y36271D01*
Y36271D01*
X36184Y36267D01*
X36185Y36264D01*
X36187Y36261D01*
X36189Y36259D01*
X36191Y36257D01*
X36192Y36256D01*
X36193Y36255D01*
X36194Y36255D01*
X36197Y36253D01*
X36200Y36251D01*
X36204Y36250D01*
X36207Y36249D01*
X36210Y36249D01*
X36212Y36249D01*
X36214D01*
X36220Y36249D01*
X36225Y36250D01*
X36230Y36252D01*
X36233Y36254D01*
X36237Y36256D01*
X36239Y36257D01*
X36240Y36258D01*
X36240Y36259D01*
X36242Y36261D01*
X36243Y36263D01*
X36246Y36269D01*
X36247Y36274D01*
X36248Y36280D01*
X36249Y36286D01*
X36249Y36288D01*
Y36290D01*
X36249Y36291D01*
Y36293D01*
Y36293D01*
Y36294D01*
Y36343D01*
D02*
G37*
G36*
X31734Y33928D02*
X31733D01*
X31730Y33927D01*
X31727Y33927D01*
X31724Y33926D01*
X31721Y33925D01*
X31719Y33924D01*
X31717Y33923D01*
X31716Y33923D01*
X31716Y33922D01*
X31713Y33920D01*
X31711Y33918D01*
X31709Y33915D01*
X31707Y33913D01*
X31706Y33911D01*
X31705Y33909D01*
X31705Y33908D01*
X31704Y33907D01*
X31703Y33903D01*
X31702Y33899D01*
X31702Y33894D01*
X31701Y33890D01*
X31701Y33886D01*
X31701Y33884D01*
Y33883D01*
Y33882D01*
Y33881D01*
Y33880D01*
Y33880D01*
Y33826D01*
X31765D01*
Y33886D01*
Y33890D01*
X31764Y33894D01*
X31764Y33897D01*
X31763Y33900D01*
X31763Y33903D01*
X31762Y33905D01*
X31761Y33908D01*
X31760Y33910D01*
X31758Y33913D01*
X31757Y33916D01*
X31756Y33917D01*
X31756Y33918D01*
X31752Y33921D01*
X31748Y33923D01*
X31745Y33925D01*
X31741Y33926D01*
X31738Y33927D01*
X31735Y33927D01*
X31734Y33928D01*
D02*
G37*
G36*
X36314Y36727D02*
X36313D01*
X36311Y36727D01*
X36308Y36727D01*
X36307Y36727D01*
X36305Y36726D01*
X36304Y36725D01*
X36302Y36725D01*
X36302Y36725D01*
X36302Y36724D01*
X36300Y36723D01*
X36298Y36721D01*
X36296Y36718D01*
X36295Y36717D01*
X36295Y36716D01*
X36294Y36715D01*
Y36715D01*
X36293Y36713D01*
X36292Y36709D01*
X36291Y36706D01*
X36291Y36702D01*
X36290Y36700D01*
X36290Y36697D01*
Y36696D01*
X36289Y36695D01*
Y36695D01*
Y36695D01*
X36288Y36690D01*
X36288Y36686D01*
X36287Y36681D01*
X36286Y36678D01*
X36286Y36674D01*
X36285Y36671D01*
X36284Y36668D01*
X36283Y36666D01*
X36283Y36663D01*
X36282Y36662D01*
X36281Y36660D01*
X36281Y36658D01*
X36281Y36657D01*
X36281Y36656D01*
X36280Y36656D01*
Y36656D01*
X36289D01*
X36295Y36656D01*
X36299Y36656D01*
X36303Y36657D01*
X36307Y36658D01*
X36309Y36658D01*
X36311Y36659D01*
X36312Y36660D01*
X36312Y36660D01*
X36316Y36662D01*
X36319Y36664D01*
X36322Y36667D01*
X36325Y36669D01*
X36326Y36672D01*
X36328Y36674D01*
X36328Y36675D01*
X36329Y36675D01*
Y36676D01*
X36331Y36679D01*
X36332Y36684D01*
X36333Y36688D01*
X36334Y36692D01*
X36334Y36695D01*
X36335Y36697D01*
Y36698D01*
Y36699D01*
Y36699D01*
Y36700D01*
X36334Y36704D01*
X36333Y36709D01*
X36332Y36712D01*
X36331Y36715D01*
X36330Y36718D01*
X36329Y36719D01*
X36328Y36720D01*
X36328Y36720D01*
X36326Y36723D01*
X36323Y36725D01*
X36321Y36726D01*
X36318Y36727D01*
X36316Y36727D01*
X36314Y36727D01*
D02*
G37*
G36*
X31641Y37878D02*
X31639D01*
X31636Y37877D01*
X31633Y37877D01*
X31630Y37876D01*
X31628Y37875D01*
X31625Y37874D01*
X31624Y37873D01*
X31623Y37873D01*
X31622Y37872D01*
X31620Y37870D01*
X31617Y37868D01*
X31615Y37865D01*
X31614Y37863D01*
X31612Y37861D01*
X31611Y37859D01*
X31611Y37858D01*
X31611Y37857D01*
X31609Y37853D01*
X31609Y37849D01*
X31608Y37844D01*
X31608Y37840D01*
X31607Y37836D01*
X31607Y37834D01*
Y37833D01*
Y37832D01*
Y37831D01*
Y37830D01*
Y37830D01*
Y37775D01*
X31671D01*
Y37836D01*
Y37840D01*
X31670Y37844D01*
X31670Y37847D01*
X31669Y37850D01*
X31669Y37853D01*
X31668Y37856D01*
X31667Y37858D01*
X31667Y37860D01*
X31665Y37863D01*
X31663Y37866D01*
X31662Y37867D01*
X31662Y37868D01*
X31658Y37871D01*
X31655Y37873D01*
X31651Y37875D01*
X31648Y37876D01*
X31644Y37877D01*
X31642Y37877D01*
X31641Y37878D01*
D02*
G37*
G36*
X36243Y37104D02*
X36179D01*
Y37043D01*
Y37039D01*
X36179Y37036D01*
X36180Y37032D01*
X36181Y37030D01*
X36181Y37027D01*
X36182Y37024D01*
X36183Y37022D01*
X36184Y37020D01*
X36185Y37016D01*
X36186Y37014D01*
X36188Y37013D01*
X36188Y37012D01*
X36191Y37009D01*
X36195Y37006D01*
X36199Y37004D01*
X36202Y37003D01*
X36206Y37002D01*
X36208Y37002D01*
X36209Y37002D01*
X36210D01*
X36214Y37002D01*
X36217Y37003D01*
X36220Y37004D01*
X36223Y37004D01*
X36225Y37006D01*
X36226Y37006D01*
X36228Y37007D01*
X36228Y37007D01*
X36230Y37009D01*
X36233Y37012D01*
X36235Y37014D01*
X36237Y37016D01*
X36238Y37019D01*
X36239Y37020D01*
X36239Y37022D01*
X36239Y37022D01*
X36240Y37026D01*
X36241Y37030D01*
X36242Y37035D01*
X36242Y37039D01*
X36242Y37043D01*
X36243Y37045D01*
Y37046D01*
Y37048D01*
Y37049D01*
Y37049D01*
Y37050D01*
Y37104D01*
D02*
G37*
G36*
X33391Y33028D02*
X33389D01*
X33386Y33027D01*
X33383Y33027D01*
X33380Y33026D01*
X33377Y33025D01*
X33375Y33024D01*
X33374Y33023D01*
X33372Y33022D01*
X33372Y33022D01*
X33370Y33020D01*
X33367Y33018D01*
X33365Y33015D01*
X33363Y33013D01*
X33362Y33011D01*
X33361Y33009D01*
X33361Y33008D01*
X33361Y33007D01*
X33359Y33003D01*
X33359Y32999D01*
X33358Y32994D01*
X33358Y32990D01*
X33358Y32986D01*
X33357Y32984D01*
Y32983D01*
Y32982D01*
Y32981D01*
Y32980D01*
Y32980D01*
Y32926D01*
X33421D01*
Y32986D01*
Y32990D01*
X33421Y32994D01*
X33420Y32997D01*
X33419Y33000D01*
X33419Y33003D01*
X33418Y33005D01*
X33417Y33008D01*
X33417Y33010D01*
X33415Y33013D01*
X33414Y33015D01*
X33412Y33017D01*
X33412Y33017D01*
X33409Y33021D01*
X33405Y33023D01*
X33401Y33025D01*
X33398Y33026D01*
X33394Y33027D01*
X33392Y33027D01*
X33391Y33028D01*
D02*
G37*
%LPD*%
D16*
X54600Y18350D02*
X54700Y18450D01*
X54900D01*
X55000Y18350D01*
Y17950D01*
X54900Y17850D01*
X54700D01*
X54600Y17950D01*
Y18150D01*
X54800D01*
X54400Y18450D02*
Y18350D01*
X54200Y18150D01*
X54000Y18350D01*
Y18450D01*
X54200Y18150D02*
Y17850D01*
X53800Y17750D02*
X53401D01*
X53201Y18350D02*
X53101Y18450D01*
X52901D01*
X52801Y18350D01*
Y18250D01*
X52901Y18150D01*
X52801Y18050D01*
Y17950D01*
X52901Y17850D01*
X53101D01*
X53201Y17950D01*
Y18050D01*
X53101Y18150D01*
X53201Y18250D01*
Y18350D01*
X53101Y18150D02*
X52901D01*
X52601Y18350D02*
X52501Y18450D01*
X52301D01*
X52201Y18350D01*
Y17950D01*
X52301Y17850D01*
X52501D01*
X52601Y17950D01*
Y18350D01*
X52001Y17850D02*
X51801D01*
X51901D01*
Y18450D01*
X52001Y18350D01*
X20950Y16300D02*
Y40750D01*
Y16300D02*
X57050D01*
Y40750D01*
X57050Y40750D02*
X57050Y40750D01*
X20950Y40750D02*
X57050D01*
D18*
X22975Y32143D02*
D03*
D19*
X22985Y32785D02*
D03*
X22995D02*
D03*
X23005D02*
D03*
X23015D02*
D03*
X23025D02*
D03*
X23035D02*
D03*
X23045D02*
D03*
X23055D02*
D03*
X23065D02*
D03*
X23075D02*
D03*
X23085D02*
D03*
X23095D02*
D03*
X23105D02*
D03*
X23115D02*
D03*
X23125D02*
D03*
X23135D02*
D03*
X23145D02*
D03*
X23155D02*
D03*
X23165D02*
D03*
X23175D02*
D03*
X23185D02*
D03*
X23195D02*
D03*
X23205D02*
D03*
D20*
X22985Y32615D02*
D03*
X22995D02*
D03*
X23005D02*
D03*
X23015D02*
D03*
X23025D02*
D03*
X23035D02*
D03*
X23045D02*
D03*
X23055D02*
D03*
X23065D02*
D03*
X23075D02*
D03*
X23085D02*
D03*
X23095D02*
D03*
X23105D02*
D03*
X23115D02*
D03*
X23125D02*
D03*
X23135D02*
D03*
X23145D02*
D03*
X23155D02*
D03*
X23165D02*
D03*
X23175D02*
D03*
X23185D02*
D03*
X23195D02*
D03*
X23205D02*
D03*
D21*
X22985Y32138D02*
D03*
X22995D02*
D03*
X23005D02*
D03*
X23015D02*
D03*
X23025D02*
D03*
X23035D02*
D03*
X23045D02*
D03*
X23055D02*
D03*
X23065D02*
D03*
X23075D02*
D03*
X23085D02*
D03*
X23095D02*
D03*
X23105D02*
D03*
X23115D02*
D03*
X23125D02*
D03*
X23135D02*
D03*
X23145D02*
D03*
X23155D02*
D03*
X23165D02*
D03*
X23175D02*
D03*
X23185D02*
D03*
X23195D02*
D03*
X23205D02*
D03*
D22*
X22985Y31665D02*
D03*
X22995D02*
D03*
X23005D02*
D03*
X23015D02*
D03*
X23025D02*
D03*
X23035D02*
D03*
X23045D02*
D03*
X23055D02*
D03*
X23065D02*
D03*
X23075D02*
D03*
X23085D02*
D03*
X23095D02*
D03*
X23105D02*
D03*
X23115D02*
D03*
X23125D02*
D03*
X23135D02*
D03*
X23145D02*
D03*
X23155D02*
D03*
X23165D02*
D03*
X23175D02*
D03*
X23185D02*
D03*
X23195D02*
D03*
X23205D02*
D03*
D23*
X22985Y31501D02*
D03*
X22995D02*
D03*
X23005D02*
D03*
X23015D02*
D03*
X23025D02*
D03*
X23035D02*
D03*
X23045D02*
D03*
X23055D02*
D03*
X23065D02*
D03*
X23075D02*
D03*
X23085D02*
D03*
X23095D02*
D03*
X23105D02*
D03*
X23115D02*
D03*
X23125D02*
D03*
X23135D02*
D03*
X23145D02*
D03*
X23155D02*
D03*
X23165D02*
D03*
X23175D02*
D03*
X23185D02*
D03*
X23195D02*
D03*
X23205D02*
D03*
D24*
X23216Y32785D02*
D03*
D25*
Y32615D02*
D03*
D26*
X23216Y32138D02*
D03*
D27*
X23216Y31665D02*
D03*
D28*
X23216Y31501D02*
D03*
D29*
X23227Y32785D02*
D03*
X23236D02*
D03*
X23244D02*
D03*
X23253D02*
D03*
X23262D02*
D03*
X23270D02*
D03*
X23279D02*
D03*
X23287D02*
D03*
X23296D02*
D03*
X23305D02*
D03*
X23313D02*
D03*
X23322D02*
D03*
X23330D02*
D03*
X23339D02*
D03*
X23348D02*
D03*
X23356D02*
D03*
X23365D02*
D03*
X23373D02*
D03*
X23382D02*
D03*
X23391D02*
D03*
X23399D02*
D03*
X23408D02*
D03*
X23416D02*
D03*
X23425D02*
D03*
X23434D02*
D03*
X23442D02*
D03*
X23451D02*
D03*
X23459D02*
D03*
D30*
X23227Y32615D02*
D03*
X23236D02*
D03*
X23244D02*
D03*
X23253D02*
D03*
X23262D02*
D03*
X23270D02*
D03*
X23279D02*
D03*
X23287D02*
D03*
X23296D02*
D03*
X23305D02*
D03*
X23313D02*
D03*
X23322D02*
D03*
X23330D02*
D03*
X23339D02*
D03*
X23348D02*
D03*
X23356D02*
D03*
X23365D02*
D03*
X23373D02*
D03*
X23382D02*
D03*
X23391D02*
D03*
X23399D02*
D03*
X23408D02*
D03*
X23416D02*
D03*
X23425D02*
D03*
X23434D02*
D03*
X23442D02*
D03*
X23451D02*
D03*
X23459D02*
D03*
D31*
X23227Y32138D02*
D03*
X23236D02*
D03*
X23244D02*
D03*
X23253D02*
D03*
X23262D02*
D03*
X23270D02*
D03*
X23279D02*
D03*
X23287D02*
D03*
X23296D02*
D03*
X23305D02*
D03*
X23313D02*
D03*
X23322D02*
D03*
X23330D02*
D03*
X23339D02*
D03*
X23348D02*
D03*
X23356D02*
D03*
X23365D02*
D03*
X23373D02*
D03*
X23382D02*
D03*
X23391D02*
D03*
X23399D02*
D03*
X23408D02*
D03*
X23416D02*
D03*
X23425D02*
D03*
X23434D02*
D03*
X23442D02*
D03*
X23451D02*
D03*
X23459D02*
D03*
D32*
X23227Y31665D02*
D03*
X23236D02*
D03*
X23244D02*
D03*
X23253D02*
D03*
X23262Y31665D02*
D03*
X23270D02*
D03*
X23279D02*
D03*
X23287D02*
D03*
X23296Y31665D02*
D03*
X23304D02*
D03*
X23313D02*
D03*
X23322D02*
D03*
X23330D02*
D03*
X23339D02*
D03*
X23347D02*
D03*
X23356D02*
D03*
X23365D02*
D03*
X23373Y31665D02*
D03*
X23382D02*
D03*
X23391D02*
D03*
X23399Y31665D02*
D03*
X23408D02*
D03*
X23416D02*
D03*
X23425D02*
D03*
X23433D02*
D03*
X23442D02*
D03*
X23451D02*
D03*
X23459D02*
D03*
D33*
X23227Y31501D02*
D03*
X23236D02*
D03*
X23244D02*
D03*
X23253D02*
D03*
X23262D02*
D03*
X23270D02*
D03*
X23279D02*
D03*
X23287D02*
D03*
X23296D02*
D03*
X23305D02*
D03*
X23313D02*
D03*
X23322D02*
D03*
X23330D02*
D03*
X23339D02*
D03*
X23348D02*
D03*
X23356D02*
D03*
X23365D02*
D03*
X23373D02*
D03*
X23382D02*
D03*
X23391D02*
D03*
X23399D02*
D03*
X23408D02*
D03*
X23416D02*
D03*
X23425D02*
D03*
X23434D02*
D03*
X23442D02*
D03*
X23451D02*
D03*
X23459D02*
D03*
D34*
X23468Y32143D02*
D03*
D52*
X36950Y32504D02*
G03*
X36950Y32504I-180J0D01*
G01*
X36333Y35215D02*
X38132D01*
X36351Y32154D02*
X38150D01*
X37860Y36230D02*
Y36869D01*
X36740Y36230D02*
Y36869D01*
X37094Y36230D02*
X37510D01*
X37094Y36869D02*
X37132D01*
X37470D02*
X37510D01*
X36740D02*
X36777D01*
X37830D02*
X37860D01*
X37830Y36230D02*
X37860D01*
X36740D02*
X36777D01*
D54*
X28550Y35900D02*
Y36400D01*
X28300Y36650D02*
X28550Y36400D01*
X27550D02*
X27800Y36650D01*
X28300D01*
Y35650D02*
X28550Y35400D01*
Y34900D02*
Y35400D01*
X28300Y34650D02*
X28550Y34900D01*
X27550D02*
X27800Y34650D01*
X27550Y34900D02*
Y35400D01*
X27800Y35650D01*
X28300D02*
X28550Y35900D01*
X27550D02*
X27800Y35650D01*
X27550Y35900D02*
Y36400D01*
X28550Y32900D02*
Y33400D01*
X28300Y33650D02*
X28550Y33400D01*
X27550D02*
X27800Y33650D01*
X28300Y34650D02*
X28550Y34400D01*
Y33900D02*
Y34400D01*
X28300Y33650D02*
X28550Y33900D01*
X27550D02*
X27800Y33650D01*
X27550Y33900D02*
Y34400D01*
X27800Y34650D01*
X28300Y32650D02*
X28550Y32400D01*
Y31900D02*
Y32400D01*
X27550Y31900D02*
Y32400D01*
X27800Y32650D01*
X28300D02*
X28550Y32900D01*
X27550D02*
X27800Y32650D01*
X27550Y32900D02*
Y33400D01*
X21550Y35900D02*
Y36400D01*
Y35900D02*
X21800Y35650D01*
X22300D02*
X22550Y35900D01*
X21550Y36400D02*
X21800Y36650D01*
X22300D01*
X22550Y36400D01*
Y35900D02*
Y36400D01*
X21550Y34900D02*
Y35400D01*
Y34900D02*
X21800Y34650D01*
X22300D02*
X22550Y34900D01*
X21550Y35400D02*
X21800Y35650D01*
X22300D02*
X22550Y35400D01*
Y34900D02*
Y35400D01*
X21550Y33900D02*
Y34400D01*
Y33900D02*
X21800Y33650D01*
X22300D02*
X22550Y33900D01*
X21550Y34400D02*
X21800Y34650D01*
X22300D02*
X22550Y34400D01*
Y33900D02*
Y34400D01*
X21550Y32900D02*
Y33400D01*
Y32900D02*
X21800Y32650D01*
X22300D02*
X22550Y32900D01*
X21550Y33400D02*
X21800Y33650D01*
X22300D02*
X22550Y33400D01*
Y32900D02*
Y33400D01*
X21550Y31900D02*
Y32400D01*
X21800Y32650D01*
X22300D02*
X22550Y32400D01*
Y31900D02*
Y32400D01*
X26650Y33200D02*
X27150D01*
X26400Y32450D02*
X26650Y32200D01*
X26400Y32450D02*
Y32950D01*
X26650Y33200D01*
X27150D02*
X27400Y32950D01*
Y32450D02*
Y32950D01*
X27150Y32200D02*
X27400Y32450D01*
X22050Y36900D02*
Y37400D01*
X27300Y36650D02*
X27800D01*
X28050Y36900D01*
X27800Y37650D02*
X28050Y37400D01*
Y36900D02*
Y37400D01*
X26800Y36650D02*
X27050Y36900D01*
X26300Y36650D02*
X26800D01*
X26050Y36900D02*
X26300Y36650D01*
X26050Y37400D02*
X26300Y37650D01*
X26800D01*
X27050Y37400D01*
Y36900D02*
X27300Y36650D01*
X27050Y37400D02*
X27300Y37650D01*
X27800D01*
X24300Y36650D02*
X24800D01*
X25050Y36900D01*
X24800Y37650D02*
X25050Y37400D01*
X25800Y36650D02*
X26050Y36900D01*
X25300Y36650D02*
X25800D01*
X25050Y36900D02*
X25300Y36650D01*
X25050Y37400D02*
X25300Y37650D01*
X25800D01*
X26050Y37400D01*
X23800Y36650D02*
X24050Y36900D01*
X23300Y36650D02*
X23800D01*
X23050Y36900D02*
X23300Y36650D01*
X23050Y37400D02*
X23300Y37650D01*
X23800D01*
X24050Y37400D01*
Y36900D02*
X24300Y36650D01*
X24050Y37400D02*
X24300Y37650D01*
X24800D01*
X22800Y36650D02*
X23050Y36900D01*
X22300Y36650D02*
X22800D01*
X22050Y36900D02*
X22300Y36650D01*
X22050Y37400D02*
X22300Y37650D01*
X22800D01*
X23050Y37400D01*
X28550Y24900D02*
Y25400D01*
X28300Y25650D02*
X28550Y25400D01*
X27550D02*
X27800Y25650D01*
X28300Y24650D02*
X28550Y24900D01*
X27800Y24650D02*
X28300D01*
X27550Y24900D02*
X27800Y24650D01*
X27550Y24900D02*
Y25400D01*
X28550Y25900D02*
Y26400D01*
X28300Y26650D02*
X28550Y26400D01*
X27550D02*
X27800Y26650D01*
X28300Y25650D02*
X28550Y25900D01*
X27550D02*
X27800Y25650D01*
X27550Y25900D02*
Y26400D01*
X28550Y26900D02*
Y27400D01*
X28300Y27650D02*
X28550Y27400D01*
X27550D02*
X27800Y27650D01*
X28300Y26650D02*
X28550Y26900D01*
X27550D02*
X27800Y26650D01*
X27550Y26900D02*
Y27400D01*
X28550Y27900D02*
Y28400D01*
X28300Y28650D02*
X28550Y28400D01*
X27550D02*
X27800Y28650D01*
X28300Y27650D02*
X28550Y27900D01*
X27550D02*
X27800Y27650D01*
X27550Y27900D02*
Y28400D01*
X28550Y28900D02*
Y29400D01*
X28300Y29650D02*
X28550Y29400D01*
X27550D02*
X27800Y29650D01*
X28300Y28650D02*
X28550Y28900D01*
X27550D02*
X27800Y28650D01*
X27550Y28900D02*
Y29400D01*
X28300Y31650D02*
X28550Y31900D01*
X27550D02*
X27800Y31650D01*
X28550Y29900D02*
Y30400D01*
X28300Y30650D02*
X28550Y30400D01*
X27550D02*
X27800Y30650D01*
X28300Y31650D02*
X28550Y31400D01*
Y30900D02*
Y31400D01*
X28300Y30650D02*
X28550Y30900D01*
X27550D02*
X27800Y30650D01*
X27550Y30900D02*
Y31400D01*
X27800Y31650D01*
X28300Y29650D02*
X28550Y29900D01*
X27550D02*
X27800Y29650D01*
X27550Y29900D02*
Y30400D01*
X21550Y31900D02*
X21800Y31650D01*
X22300D02*
X22550Y31900D01*
X21550Y24900D02*
Y25400D01*
Y24900D02*
X21800Y24650D01*
X22300D02*
X22550Y24900D01*
X21800Y24650D02*
X22300D01*
X21550Y25900D02*
X21800Y25650D01*
X21550Y25900D02*
Y26400D01*
X21800Y26650D01*
X22300D02*
X22550Y26400D01*
Y25900D02*
Y26400D01*
X22300Y25650D02*
X22550Y25900D01*
X21550Y25400D02*
X21800Y25650D01*
X22300D02*
X22550Y25400D01*
Y24900D02*
Y25400D01*
X21550Y27900D02*
Y28400D01*
Y27900D02*
X21800Y27650D01*
X22300D02*
X22550Y27900D01*
X21550Y26900D02*
X21800Y26650D01*
X21550Y26900D02*
Y27400D01*
X21800Y27650D01*
X22300D02*
X22550Y27400D01*
Y26900D02*
Y27400D01*
X22300Y26650D02*
X22550Y26900D01*
X21550Y28900D02*
X21800Y28650D01*
X21550Y28900D02*
Y29400D01*
X21800Y29650D01*
X22300D02*
X22550Y29400D01*
Y28900D02*
Y29400D01*
X22300Y28650D02*
X22550Y28900D01*
X21550Y28400D02*
X21800Y28650D01*
X22300D02*
X22550Y28400D01*
Y27900D02*
Y28400D01*
X21550Y30900D02*
Y31400D01*
Y30900D02*
X21800Y30650D01*
X22300D02*
X22550Y30900D01*
X21550Y29900D02*
X21800Y29650D01*
X21550Y29900D02*
Y30400D01*
X21800Y30650D01*
X22300D02*
X22550Y30400D01*
Y29900D02*
Y30400D01*
X22300Y29650D02*
X22550Y29900D01*
X21550Y31400D02*
X21800Y31650D01*
X22300D02*
X22550Y31400D01*
Y30900D02*
Y31400D01*
X26400Y31450D02*
Y31950D01*
Y31450D02*
X26650Y31200D01*
X27150D02*
X27400Y31450D01*
X26650Y31200D02*
X27150D01*
X26400Y31950D02*
X26650Y32200D01*
X27150D02*
X27400Y31950D01*
Y31450D02*
Y31950D01*
X26650Y29100D02*
X27150D01*
X26400Y27350D02*
Y27850D01*
Y27350D02*
X26650Y27100D01*
X27150D02*
X27400Y27350D01*
X26650Y27100D02*
X27150D01*
X26400Y28350D02*
X26650Y28100D01*
X26400Y28350D02*
Y28850D01*
X26650Y29100D01*
X27150D02*
X27400Y28850D01*
Y28350D02*
Y28850D01*
X27150Y28100D02*
X27400Y28350D01*
X26400Y27850D02*
X26650Y28100D01*
X27150D02*
X27400Y27850D01*
Y27350D02*
Y27850D01*
D55*
X50450Y17250D02*
X56450D01*
X50450D02*
Y27200D01*
X56450D01*
Y17250D02*
Y27200D01*
D58*
X32740Y31948D02*
D03*
Y32998D02*
D03*
X32734Y33948D02*
D03*
Y34948D02*
D03*
Y35947D02*
D03*
Y36948D02*
D03*
X32740Y37947D02*
D03*
Y38948D02*
D03*
X24660Y33303D02*
D03*
X24610Y30903D02*
D03*
D59*
X32158Y31948D02*
D03*
Y32998D02*
D03*
X32152Y33948D02*
D03*
Y34948D02*
D03*
Y35947D02*
D03*
Y36948D02*
D03*
X32158Y37947D02*
D03*
Y38948D02*
D03*
X25242Y33303D02*
D03*
X25192Y30903D02*
D03*
D60*
X34897Y23360D02*
D03*
D61*
X34898Y23942D02*
D03*
M02*
