%
M48
M72
T01C0.01500
T02C0.01969
T03C0.02000
T04C0.02362
T05C0.04000
T06C0.06299
T07C0.08000
T08C0.12598
%
T01
X52167Y34700
T02
X37667Y42700
T03
X36667Y53700
X36667Y53700
X33667Y59700
X33667Y59700
X29667Y53700
X29667Y53700
X26667Y59700
X26667Y59700
X22667Y53700
X22667Y53700
X19667Y59700
X19667Y59700
X40667Y59700
X40667Y59700
X43667Y53700
X43667Y53700
T04
X52667Y53200
T05
X47930Y26700
X38088Y26700
X28245Y26700
X18403Y26700
T06
X10667Y65700
X52667Y65700
T07
X52667Y65700
X10667Y65700
T08
X23167Y9200
X43167Y9200
M30
