G75*
%MOIN*%
%OFA0B0*%
%FSLAX25Y25*%
%IPPOS*%
%LPD*%
%AMOC8*
5,1,8,0,0,1.08239X$1,22.5*
%
%ADD10C,0.00000*%
%ADD11C,0.06000*%
%ADD12R,0.04000X0.04000*%
%ADD13R,0.09449X0.09449*%
%ADD14C,0.02400*%
%ADD15R,0.03569X0.03569*%
%ADD16R,0.03100X0.03100*%
%ADD17R,0.03962X0.03962*%
D10*
X0003167Y0002200D02*
X0003167Y0077161D01*
X0063367Y0077161D01*
X0063367Y0002200D01*
X0003167Y0002200D01*
X0016868Y0009200D02*
X0016870Y0009358D01*
X0016876Y0009516D01*
X0016886Y0009674D01*
X0016900Y0009832D01*
X0016918Y0009989D01*
X0016939Y0010146D01*
X0016965Y0010302D01*
X0016995Y0010458D01*
X0017028Y0010613D01*
X0017066Y0010766D01*
X0017107Y0010919D01*
X0017152Y0011071D01*
X0017201Y0011222D01*
X0017254Y0011371D01*
X0017310Y0011519D01*
X0017370Y0011665D01*
X0017434Y0011810D01*
X0017502Y0011953D01*
X0017573Y0012095D01*
X0017647Y0012235D01*
X0017725Y0012372D01*
X0017807Y0012508D01*
X0017891Y0012642D01*
X0017980Y0012773D01*
X0018071Y0012902D01*
X0018166Y0013029D01*
X0018263Y0013154D01*
X0018364Y0013276D01*
X0018468Y0013395D01*
X0018575Y0013512D01*
X0018685Y0013626D01*
X0018798Y0013737D01*
X0018913Y0013846D01*
X0019031Y0013951D01*
X0019152Y0014053D01*
X0019275Y0014153D01*
X0019401Y0014249D01*
X0019529Y0014342D01*
X0019659Y0014432D01*
X0019792Y0014518D01*
X0019927Y0014602D01*
X0020063Y0014681D01*
X0020202Y0014758D01*
X0020343Y0014830D01*
X0020485Y0014900D01*
X0020629Y0014965D01*
X0020775Y0015027D01*
X0020922Y0015085D01*
X0021071Y0015140D01*
X0021221Y0015191D01*
X0021372Y0015238D01*
X0021524Y0015281D01*
X0021677Y0015320D01*
X0021832Y0015356D01*
X0021987Y0015387D01*
X0022143Y0015415D01*
X0022299Y0015439D01*
X0022456Y0015459D01*
X0022614Y0015475D01*
X0022771Y0015487D01*
X0022930Y0015495D01*
X0023088Y0015499D01*
X0023246Y0015499D01*
X0023404Y0015495D01*
X0023563Y0015487D01*
X0023720Y0015475D01*
X0023878Y0015459D01*
X0024035Y0015439D01*
X0024191Y0015415D01*
X0024347Y0015387D01*
X0024502Y0015356D01*
X0024657Y0015320D01*
X0024810Y0015281D01*
X0024962Y0015238D01*
X0025113Y0015191D01*
X0025263Y0015140D01*
X0025412Y0015085D01*
X0025559Y0015027D01*
X0025705Y0014965D01*
X0025849Y0014900D01*
X0025991Y0014830D01*
X0026132Y0014758D01*
X0026271Y0014681D01*
X0026407Y0014602D01*
X0026542Y0014518D01*
X0026675Y0014432D01*
X0026805Y0014342D01*
X0026933Y0014249D01*
X0027059Y0014153D01*
X0027182Y0014053D01*
X0027303Y0013951D01*
X0027421Y0013846D01*
X0027536Y0013737D01*
X0027649Y0013626D01*
X0027759Y0013512D01*
X0027866Y0013395D01*
X0027970Y0013276D01*
X0028071Y0013154D01*
X0028168Y0013029D01*
X0028263Y0012902D01*
X0028354Y0012773D01*
X0028443Y0012642D01*
X0028527Y0012508D01*
X0028609Y0012372D01*
X0028687Y0012235D01*
X0028761Y0012095D01*
X0028832Y0011953D01*
X0028900Y0011810D01*
X0028964Y0011665D01*
X0029024Y0011519D01*
X0029080Y0011371D01*
X0029133Y0011222D01*
X0029182Y0011071D01*
X0029227Y0010919D01*
X0029268Y0010766D01*
X0029306Y0010613D01*
X0029339Y0010458D01*
X0029369Y0010302D01*
X0029395Y0010146D01*
X0029416Y0009989D01*
X0029434Y0009832D01*
X0029448Y0009674D01*
X0029458Y0009516D01*
X0029464Y0009358D01*
X0029466Y0009200D01*
X0029464Y0009042D01*
X0029458Y0008884D01*
X0029448Y0008726D01*
X0029434Y0008568D01*
X0029416Y0008411D01*
X0029395Y0008254D01*
X0029369Y0008098D01*
X0029339Y0007942D01*
X0029306Y0007787D01*
X0029268Y0007634D01*
X0029227Y0007481D01*
X0029182Y0007329D01*
X0029133Y0007178D01*
X0029080Y0007029D01*
X0029024Y0006881D01*
X0028964Y0006735D01*
X0028900Y0006590D01*
X0028832Y0006447D01*
X0028761Y0006305D01*
X0028687Y0006165D01*
X0028609Y0006028D01*
X0028527Y0005892D01*
X0028443Y0005758D01*
X0028354Y0005627D01*
X0028263Y0005498D01*
X0028168Y0005371D01*
X0028071Y0005246D01*
X0027970Y0005124D01*
X0027866Y0005005D01*
X0027759Y0004888D01*
X0027649Y0004774D01*
X0027536Y0004663D01*
X0027421Y0004554D01*
X0027303Y0004449D01*
X0027182Y0004347D01*
X0027059Y0004247D01*
X0026933Y0004151D01*
X0026805Y0004058D01*
X0026675Y0003968D01*
X0026542Y0003882D01*
X0026407Y0003798D01*
X0026271Y0003719D01*
X0026132Y0003642D01*
X0025991Y0003570D01*
X0025849Y0003500D01*
X0025705Y0003435D01*
X0025559Y0003373D01*
X0025412Y0003315D01*
X0025263Y0003260D01*
X0025113Y0003209D01*
X0024962Y0003162D01*
X0024810Y0003119D01*
X0024657Y0003080D01*
X0024502Y0003044D01*
X0024347Y0003013D01*
X0024191Y0002985D01*
X0024035Y0002961D01*
X0023878Y0002941D01*
X0023720Y0002925D01*
X0023563Y0002913D01*
X0023404Y0002905D01*
X0023246Y0002901D01*
X0023088Y0002901D01*
X0022930Y0002905D01*
X0022771Y0002913D01*
X0022614Y0002925D01*
X0022456Y0002941D01*
X0022299Y0002961D01*
X0022143Y0002985D01*
X0021987Y0003013D01*
X0021832Y0003044D01*
X0021677Y0003080D01*
X0021524Y0003119D01*
X0021372Y0003162D01*
X0021221Y0003209D01*
X0021071Y0003260D01*
X0020922Y0003315D01*
X0020775Y0003373D01*
X0020629Y0003435D01*
X0020485Y0003500D01*
X0020343Y0003570D01*
X0020202Y0003642D01*
X0020063Y0003719D01*
X0019927Y0003798D01*
X0019792Y0003882D01*
X0019659Y0003968D01*
X0019529Y0004058D01*
X0019401Y0004151D01*
X0019275Y0004247D01*
X0019152Y0004347D01*
X0019031Y0004449D01*
X0018913Y0004554D01*
X0018798Y0004663D01*
X0018685Y0004774D01*
X0018575Y0004888D01*
X0018468Y0005005D01*
X0018364Y0005124D01*
X0018263Y0005246D01*
X0018166Y0005371D01*
X0018071Y0005498D01*
X0017980Y0005627D01*
X0017891Y0005758D01*
X0017807Y0005892D01*
X0017725Y0006028D01*
X0017647Y0006165D01*
X0017573Y0006305D01*
X0017502Y0006447D01*
X0017434Y0006590D01*
X0017370Y0006735D01*
X0017310Y0006881D01*
X0017254Y0007029D01*
X0017201Y0007178D01*
X0017152Y0007329D01*
X0017107Y0007481D01*
X0017066Y0007634D01*
X0017028Y0007787D01*
X0016995Y0007942D01*
X0016965Y0008098D01*
X0016939Y0008254D01*
X0016918Y0008411D01*
X0016900Y0008568D01*
X0016886Y0008726D01*
X0016876Y0008884D01*
X0016870Y0009042D01*
X0016868Y0009200D01*
X0036868Y0009200D02*
X0036870Y0009358D01*
X0036876Y0009516D01*
X0036886Y0009674D01*
X0036900Y0009832D01*
X0036918Y0009989D01*
X0036939Y0010146D01*
X0036965Y0010302D01*
X0036995Y0010458D01*
X0037028Y0010613D01*
X0037066Y0010766D01*
X0037107Y0010919D01*
X0037152Y0011071D01*
X0037201Y0011222D01*
X0037254Y0011371D01*
X0037310Y0011519D01*
X0037370Y0011665D01*
X0037434Y0011810D01*
X0037502Y0011953D01*
X0037573Y0012095D01*
X0037647Y0012235D01*
X0037725Y0012372D01*
X0037807Y0012508D01*
X0037891Y0012642D01*
X0037980Y0012773D01*
X0038071Y0012902D01*
X0038166Y0013029D01*
X0038263Y0013154D01*
X0038364Y0013276D01*
X0038468Y0013395D01*
X0038575Y0013512D01*
X0038685Y0013626D01*
X0038798Y0013737D01*
X0038913Y0013846D01*
X0039031Y0013951D01*
X0039152Y0014053D01*
X0039275Y0014153D01*
X0039401Y0014249D01*
X0039529Y0014342D01*
X0039659Y0014432D01*
X0039792Y0014518D01*
X0039927Y0014602D01*
X0040063Y0014681D01*
X0040202Y0014758D01*
X0040343Y0014830D01*
X0040485Y0014900D01*
X0040629Y0014965D01*
X0040775Y0015027D01*
X0040922Y0015085D01*
X0041071Y0015140D01*
X0041221Y0015191D01*
X0041372Y0015238D01*
X0041524Y0015281D01*
X0041677Y0015320D01*
X0041832Y0015356D01*
X0041987Y0015387D01*
X0042143Y0015415D01*
X0042299Y0015439D01*
X0042456Y0015459D01*
X0042614Y0015475D01*
X0042771Y0015487D01*
X0042930Y0015495D01*
X0043088Y0015499D01*
X0043246Y0015499D01*
X0043404Y0015495D01*
X0043563Y0015487D01*
X0043720Y0015475D01*
X0043878Y0015459D01*
X0044035Y0015439D01*
X0044191Y0015415D01*
X0044347Y0015387D01*
X0044502Y0015356D01*
X0044657Y0015320D01*
X0044810Y0015281D01*
X0044962Y0015238D01*
X0045113Y0015191D01*
X0045263Y0015140D01*
X0045412Y0015085D01*
X0045559Y0015027D01*
X0045705Y0014965D01*
X0045849Y0014900D01*
X0045991Y0014830D01*
X0046132Y0014758D01*
X0046271Y0014681D01*
X0046407Y0014602D01*
X0046542Y0014518D01*
X0046675Y0014432D01*
X0046805Y0014342D01*
X0046933Y0014249D01*
X0047059Y0014153D01*
X0047182Y0014053D01*
X0047303Y0013951D01*
X0047421Y0013846D01*
X0047536Y0013737D01*
X0047649Y0013626D01*
X0047759Y0013512D01*
X0047866Y0013395D01*
X0047970Y0013276D01*
X0048071Y0013154D01*
X0048168Y0013029D01*
X0048263Y0012902D01*
X0048354Y0012773D01*
X0048443Y0012642D01*
X0048527Y0012508D01*
X0048609Y0012372D01*
X0048687Y0012235D01*
X0048761Y0012095D01*
X0048832Y0011953D01*
X0048900Y0011810D01*
X0048964Y0011665D01*
X0049024Y0011519D01*
X0049080Y0011371D01*
X0049133Y0011222D01*
X0049182Y0011071D01*
X0049227Y0010919D01*
X0049268Y0010766D01*
X0049306Y0010613D01*
X0049339Y0010458D01*
X0049369Y0010302D01*
X0049395Y0010146D01*
X0049416Y0009989D01*
X0049434Y0009832D01*
X0049448Y0009674D01*
X0049458Y0009516D01*
X0049464Y0009358D01*
X0049466Y0009200D01*
X0049464Y0009042D01*
X0049458Y0008884D01*
X0049448Y0008726D01*
X0049434Y0008568D01*
X0049416Y0008411D01*
X0049395Y0008254D01*
X0049369Y0008098D01*
X0049339Y0007942D01*
X0049306Y0007787D01*
X0049268Y0007634D01*
X0049227Y0007481D01*
X0049182Y0007329D01*
X0049133Y0007178D01*
X0049080Y0007029D01*
X0049024Y0006881D01*
X0048964Y0006735D01*
X0048900Y0006590D01*
X0048832Y0006447D01*
X0048761Y0006305D01*
X0048687Y0006165D01*
X0048609Y0006028D01*
X0048527Y0005892D01*
X0048443Y0005758D01*
X0048354Y0005627D01*
X0048263Y0005498D01*
X0048168Y0005371D01*
X0048071Y0005246D01*
X0047970Y0005124D01*
X0047866Y0005005D01*
X0047759Y0004888D01*
X0047649Y0004774D01*
X0047536Y0004663D01*
X0047421Y0004554D01*
X0047303Y0004449D01*
X0047182Y0004347D01*
X0047059Y0004247D01*
X0046933Y0004151D01*
X0046805Y0004058D01*
X0046675Y0003968D01*
X0046542Y0003882D01*
X0046407Y0003798D01*
X0046271Y0003719D01*
X0046132Y0003642D01*
X0045991Y0003570D01*
X0045849Y0003500D01*
X0045705Y0003435D01*
X0045559Y0003373D01*
X0045412Y0003315D01*
X0045263Y0003260D01*
X0045113Y0003209D01*
X0044962Y0003162D01*
X0044810Y0003119D01*
X0044657Y0003080D01*
X0044502Y0003044D01*
X0044347Y0003013D01*
X0044191Y0002985D01*
X0044035Y0002961D01*
X0043878Y0002941D01*
X0043720Y0002925D01*
X0043563Y0002913D01*
X0043404Y0002905D01*
X0043246Y0002901D01*
X0043088Y0002901D01*
X0042930Y0002905D01*
X0042771Y0002913D01*
X0042614Y0002925D01*
X0042456Y0002941D01*
X0042299Y0002961D01*
X0042143Y0002985D01*
X0041987Y0003013D01*
X0041832Y0003044D01*
X0041677Y0003080D01*
X0041524Y0003119D01*
X0041372Y0003162D01*
X0041221Y0003209D01*
X0041071Y0003260D01*
X0040922Y0003315D01*
X0040775Y0003373D01*
X0040629Y0003435D01*
X0040485Y0003500D01*
X0040343Y0003570D01*
X0040202Y0003642D01*
X0040063Y0003719D01*
X0039927Y0003798D01*
X0039792Y0003882D01*
X0039659Y0003968D01*
X0039529Y0004058D01*
X0039401Y0004151D01*
X0039275Y0004247D01*
X0039152Y0004347D01*
X0039031Y0004449D01*
X0038913Y0004554D01*
X0038798Y0004663D01*
X0038685Y0004774D01*
X0038575Y0004888D01*
X0038468Y0005005D01*
X0038364Y0005124D01*
X0038263Y0005246D01*
X0038166Y0005371D01*
X0038071Y0005498D01*
X0037980Y0005627D01*
X0037891Y0005758D01*
X0037807Y0005892D01*
X0037725Y0006028D01*
X0037647Y0006165D01*
X0037573Y0006305D01*
X0037502Y0006447D01*
X0037434Y0006590D01*
X0037370Y0006735D01*
X0037310Y0006881D01*
X0037254Y0007029D01*
X0037201Y0007178D01*
X0037152Y0007329D01*
X0037107Y0007481D01*
X0037066Y0007634D01*
X0037028Y0007787D01*
X0036995Y0007942D01*
X0036965Y0008098D01*
X0036939Y0008254D01*
X0036918Y0008411D01*
X0036900Y0008568D01*
X0036886Y0008726D01*
X0036876Y0008884D01*
X0036870Y0009042D01*
X0036868Y0009200D01*
X0035667Y0053700D02*
X0035669Y0053763D01*
X0035675Y0053825D01*
X0035685Y0053887D01*
X0035698Y0053949D01*
X0035716Y0054009D01*
X0035737Y0054068D01*
X0035762Y0054126D01*
X0035791Y0054182D01*
X0035823Y0054236D01*
X0035858Y0054288D01*
X0035896Y0054337D01*
X0035938Y0054385D01*
X0035982Y0054429D01*
X0036030Y0054471D01*
X0036079Y0054509D01*
X0036131Y0054544D01*
X0036185Y0054576D01*
X0036241Y0054605D01*
X0036299Y0054630D01*
X0036358Y0054651D01*
X0036418Y0054669D01*
X0036480Y0054682D01*
X0036542Y0054692D01*
X0036604Y0054698D01*
X0036667Y0054700D01*
X0036730Y0054698D01*
X0036792Y0054692D01*
X0036854Y0054682D01*
X0036916Y0054669D01*
X0036976Y0054651D01*
X0037035Y0054630D01*
X0037093Y0054605D01*
X0037149Y0054576D01*
X0037203Y0054544D01*
X0037255Y0054509D01*
X0037304Y0054471D01*
X0037352Y0054429D01*
X0037396Y0054385D01*
X0037438Y0054337D01*
X0037476Y0054288D01*
X0037511Y0054236D01*
X0037543Y0054182D01*
X0037572Y0054126D01*
X0037597Y0054068D01*
X0037618Y0054009D01*
X0037636Y0053949D01*
X0037649Y0053887D01*
X0037659Y0053825D01*
X0037665Y0053763D01*
X0037667Y0053700D01*
X0037665Y0053637D01*
X0037659Y0053575D01*
X0037649Y0053513D01*
X0037636Y0053451D01*
X0037618Y0053391D01*
X0037597Y0053332D01*
X0037572Y0053274D01*
X0037543Y0053218D01*
X0037511Y0053164D01*
X0037476Y0053112D01*
X0037438Y0053063D01*
X0037396Y0053015D01*
X0037352Y0052971D01*
X0037304Y0052929D01*
X0037255Y0052891D01*
X0037203Y0052856D01*
X0037149Y0052824D01*
X0037093Y0052795D01*
X0037035Y0052770D01*
X0036976Y0052749D01*
X0036916Y0052731D01*
X0036854Y0052718D01*
X0036792Y0052708D01*
X0036730Y0052702D01*
X0036667Y0052700D01*
X0036604Y0052702D01*
X0036542Y0052708D01*
X0036480Y0052718D01*
X0036418Y0052731D01*
X0036358Y0052749D01*
X0036299Y0052770D01*
X0036241Y0052795D01*
X0036185Y0052824D01*
X0036131Y0052856D01*
X0036079Y0052891D01*
X0036030Y0052929D01*
X0035982Y0052971D01*
X0035938Y0053015D01*
X0035896Y0053063D01*
X0035858Y0053112D01*
X0035823Y0053164D01*
X0035791Y0053218D01*
X0035762Y0053274D01*
X0035737Y0053332D01*
X0035716Y0053391D01*
X0035698Y0053451D01*
X0035685Y0053513D01*
X0035675Y0053575D01*
X0035669Y0053637D01*
X0035667Y0053700D01*
X0032667Y0059700D02*
X0032669Y0059763D01*
X0032675Y0059825D01*
X0032685Y0059887D01*
X0032698Y0059949D01*
X0032716Y0060009D01*
X0032737Y0060068D01*
X0032762Y0060126D01*
X0032791Y0060182D01*
X0032823Y0060236D01*
X0032858Y0060288D01*
X0032896Y0060337D01*
X0032938Y0060385D01*
X0032982Y0060429D01*
X0033030Y0060471D01*
X0033079Y0060509D01*
X0033131Y0060544D01*
X0033185Y0060576D01*
X0033241Y0060605D01*
X0033299Y0060630D01*
X0033358Y0060651D01*
X0033418Y0060669D01*
X0033480Y0060682D01*
X0033542Y0060692D01*
X0033604Y0060698D01*
X0033667Y0060700D01*
X0033730Y0060698D01*
X0033792Y0060692D01*
X0033854Y0060682D01*
X0033916Y0060669D01*
X0033976Y0060651D01*
X0034035Y0060630D01*
X0034093Y0060605D01*
X0034149Y0060576D01*
X0034203Y0060544D01*
X0034255Y0060509D01*
X0034304Y0060471D01*
X0034352Y0060429D01*
X0034396Y0060385D01*
X0034438Y0060337D01*
X0034476Y0060288D01*
X0034511Y0060236D01*
X0034543Y0060182D01*
X0034572Y0060126D01*
X0034597Y0060068D01*
X0034618Y0060009D01*
X0034636Y0059949D01*
X0034649Y0059887D01*
X0034659Y0059825D01*
X0034665Y0059763D01*
X0034667Y0059700D01*
X0034665Y0059637D01*
X0034659Y0059575D01*
X0034649Y0059513D01*
X0034636Y0059451D01*
X0034618Y0059391D01*
X0034597Y0059332D01*
X0034572Y0059274D01*
X0034543Y0059218D01*
X0034511Y0059164D01*
X0034476Y0059112D01*
X0034438Y0059063D01*
X0034396Y0059015D01*
X0034352Y0058971D01*
X0034304Y0058929D01*
X0034255Y0058891D01*
X0034203Y0058856D01*
X0034149Y0058824D01*
X0034093Y0058795D01*
X0034035Y0058770D01*
X0033976Y0058749D01*
X0033916Y0058731D01*
X0033854Y0058718D01*
X0033792Y0058708D01*
X0033730Y0058702D01*
X0033667Y0058700D01*
X0033604Y0058702D01*
X0033542Y0058708D01*
X0033480Y0058718D01*
X0033418Y0058731D01*
X0033358Y0058749D01*
X0033299Y0058770D01*
X0033241Y0058795D01*
X0033185Y0058824D01*
X0033131Y0058856D01*
X0033079Y0058891D01*
X0033030Y0058929D01*
X0032982Y0058971D01*
X0032938Y0059015D01*
X0032896Y0059063D01*
X0032858Y0059112D01*
X0032823Y0059164D01*
X0032791Y0059218D01*
X0032762Y0059274D01*
X0032737Y0059332D01*
X0032716Y0059391D01*
X0032698Y0059451D01*
X0032685Y0059513D01*
X0032675Y0059575D01*
X0032669Y0059637D01*
X0032667Y0059700D01*
X0028667Y0053700D02*
X0028669Y0053763D01*
X0028675Y0053825D01*
X0028685Y0053887D01*
X0028698Y0053949D01*
X0028716Y0054009D01*
X0028737Y0054068D01*
X0028762Y0054126D01*
X0028791Y0054182D01*
X0028823Y0054236D01*
X0028858Y0054288D01*
X0028896Y0054337D01*
X0028938Y0054385D01*
X0028982Y0054429D01*
X0029030Y0054471D01*
X0029079Y0054509D01*
X0029131Y0054544D01*
X0029185Y0054576D01*
X0029241Y0054605D01*
X0029299Y0054630D01*
X0029358Y0054651D01*
X0029418Y0054669D01*
X0029480Y0054682D01*
X0029542Y0054692D01*
X0029604Y0054698D01*
X0029667Y0054700D01*
X0029730Y0054698D01*
X0029792Y0054692D01*
X0029854Y0054682D01*
X0029916Y0054669D01*
X0029976Y0054651D01*
X0030035Y0054630D01*
X0030093Y0054605D01*
X0030149Y0054576D01*
X0030203Y0054544D01*
X0030255Y0054509D01*
X0030304Y0054471D01*
X0030352Y0054429D01*
X0030396Y0054385D01*
X0030438Y0054337D01*
X0030476Y0054288D01*
X0030511Y0054236D01*
X0030543Y0054182D01*
X0030572Y0054126D01*
X0030597Y0054068D01*
X0030618Y0054009D01*
X0030636Y0053949D01*
X0030649Y0053887D01*
X0030659Y0053825D01*
X0030665Y0053763D01*
X0030667Y0053700D01*
X0030665Y0053637D01*
X0030659Y0053575D01*
X0030649Y0053513D01*
X0030636Y0053451D01*
X0030618Y0053391D01*
X0030597Y0053332D01*
X0030572Y0053274D01*
X0030543Y0053218D01*
X0030511Y0053164D01*
X0030476Y0053112D01*
X0030438Y0053063D01*
X0030396Y0053015D01*
X0030352Y0052971D01*
X0030304Y0052929D01*
X0030255Y0052891D01*
X0030203Y0052856D01*
X0030149Y0052824D01*
X0030093Y0052795D01*
X0030035Y0052770D01*
X0029976Y0052749D01*
X0029916Y0052731D01*
X0029854Y0052718D01*
X0029792Y0052708D01*
X0029730Y0052702D01*
X0029667Y0052700D01*
X0029604Y0052702D01*
X0029542Y0052708D01*
X0029480Y0052718D01*
X0029418Y0052731D01*
X0029358Y0052749D01*
X0029299Y0052770D01*
X0029241Y0052795D01*
X0029185Y0052824D01*
X0029131Y0052856D01*
X0029079Y0052891D01*
X0029030Y0052929D01*
X0028982Y0052971D01*
X0028938Y0053015D01*
X0028896Y0053063D01*
X0028858Y0053112D01*
X0028823Y0053164D01*
X0028791Y0053218D01*
X0028762Y0053274D01*
X0028737Y0053332D01*
X0028716Y0053391D01*
X0028698Y0053451D01*
X0028685Y0053513D01*
X0028675Y0053575D01*
X0028669Y0053637D01*
X0028667Y0053700D01*
X0025667Y0059700D02*
X0025669Y0059763D01*
X0025675Y0059825D01*
X0025685Y0059887D01*
X0025698Y0059949D01*
X0025716Y0060009D01*
X0025737Y0060068D01*
X0025762Y0060126D01*
X0025791Y0060182D01*
X0025823Y0060236D01*
X0025858Y0060288D01*
X0025896Y0060337D01*
X0025938Y0060385D01*
X0025982Y0060429D01*
X0026030Y0060471D01*
X0026079Y0060509D01*
X0026131Y0060544D01*
X0026185Y0060576D01*
X0026241Y0060605D01*
X0026299Y0060630D01*
X0026358Y0060651D01*
X0026418Y0060669D01*
X0026480Y0060682D01*
X0026542Y0060692D01*
X0026604Y0060698D01*
X0026667Y0060700D01*
X0026730Y0060698D01*
X0026792Y0060692D01*
X0026854Y0060682D01*
X0026916Y0060669D01*
X0026976Y0060651D01*
X0027035Y0060630D01*
X0027093Y0060605D01*
X0027149Y0060576D01*
X0027203Y0060544D01*
X0027255Y0060509D01*
X0027304Y0060471D01*
X0027352Y0060429D01*
X0027396Y0060385D01*
X0027438Y0060337D01*
X0027476Y0060288D01*
X0027511Y0060236D01*
X0027543Y0060182D01*
X0027572Y0060126D01*
X0027597Y0060068D01*
X0027618Y0060009D01*
X0027636Y0059949D01*
X0027649Y0059887D01*
X0027659Y0059825D01*
X0027665Y0059763D01*
X0027667Y0059700D01*
X0027665Y0059637D01*
X0027659Y0059575D01*
X0027649Y0059513D01*
X0027636Y0059451D01*
X0027618Y0059391D01*
X0027597Y0059332D01*
X0027572Y0059274D01*
X0027543Y0059218D01*
X0027511Y0059164D01*
X0027476Y0059112D01*
X0027438Y0059063D01*
X0027396Y0059015D01*
X0027352Y0058971D01*
X0027304Y0058929D01*
X0027255Y0058891D01*
X0027203Y0058856D01*
X0027149Y0058824D01*
X0027093Y0058795D01*
X0027035Y0058770D01*
X0026976Y0058749D01*
X0026916Y0058731D01*
X0026854Y0058718D01*
X0026792Y0058708D01*
X0026730Y0058702D01*
X0026667Y0058700D01*
X0026604Y0058702D01*
X0026542Y0058708D01*
X0026480Y0058718D01*
X0026418Y0058731D01*
X0026358Y0058749D01*
X0026299Y0058770D01*
X0026241Y0058795D01*
X0026185Y0058824D01*
X0026131Y0058856D01*
X0026079Y0058891D01*
X0026030Y0058929D01*
X0025982Y0058971D01*
X0025938Y0059015D01*
X0025896Y0059063D01*
X0025858Y0059112D01*
X0025823Y0059164D01*
X0025791Y0059218D01*
X0025762Y0059274D01*
X0025737Y0059332D01*
X0025716Y0059391D01*
X0025698Y0059451D01*
X0025685Y0059513D01*
X0025675Y0059575D01*
X0025669Y0059637D01*
X0025667Y0059700D01*
X0021667Y0053700D02*
X0021669Y0053763D01*
X0021675Y0053825D01*
X0021685Y0053887D01*
X0021698Y0053949D01*
X0021716Y0054009D01*
X0021737Y0054068D01*
X0021762Y0054126D01*
X0021791Y0054182D01*
X0021823Y0054236D01*
X0021858Y0054288D01*
X0021896Y0054337D01*
X0021938Y0054385D01*
X0021982Y0054429D01*
X0022030Y0054471D01*
X0022079Y0054509D01*
X0022131Y0054544D01*
X0022185Y0054576D01*
X0022241Y0054605D01*
X0022299Y0054630D01*
X0022358Y0054651D01*
X0022418Y0054669D01*
X0022480Y0054682D01*
X0022542Y0054692D01*
X0022604Y0054698D01*
X0022667Y0054700D01*
X0022730Y0054698D01*
X0022792Y0054692D01*
X0022854Y0054682D01*
X0022916Y0054669D01*
X0022976Y0054651D01*
X0023035Y0054630D01*
X0023093Y0054605D01*
X0023149Y0054576D01*
X0023203Y0054544D01*
X0023255Y0054509D01*
X0023304Y0054471D01*
X0023352Y0054429D01*
X0023396Y0054385D01*
X0023438Y0054337D01*
X0023476Y0054288D01*
X0023511Y0054236D01*
X0023543Y0054182D01*
X0023572Y0054126D01*
X0023597Y0054068D01*
X0023618Y0054009D01*
X0023636Y0053949D01*
X0023649Y0053887D01*
X0023659Y0053825D01*
X0023665Y0053763D01*
X0023667Y0053700D01*
X0023665Y0053637D01*
X0023659Y0053575D01*
X0023649Y0053513D01*
X0023636Y0053451D01*
X0023618Y0053391D01*
X0023597Y0053332D01*
X0023572Y0053274D01*
X0023543Y0053218D01*
X0023511Y0053164D01*
X0023476Y0053112D01*
X0023438Y0053063D01*
X0023396Y0053015D01*
X0023352Y0052971D01*
X0023304Y0052929D01*
X0023255Y0052891D01*
X0023203Y0052856D01*
X0023149Y0052824D01*
X0023093Y0052795D01*
X0023035Y0052770D01*
X0022976Y0052749D01*
X0022916Y0052731D01*
X0022854Y0052718D01*
X0022792Y0052708D01*
X0022730Y0052702D01*
X0022667Y0052700D01*
X0022604Y0052702D01*
X0022542Y0052708D01*
X0022480Y0052718D01*
X0022418Y0052731D01*
X0022358Y0052749D01*
X0022299Y0052770D01*
X0022241Y0052795D01*
X0022185Y0052824D01*
X0022131Y0052856D01*
X0022079Y0052891D01*
X0022030Y0052929D01*
X0021982Y0052971D01*
X0021938Y0053015D01*
X0021896Y0053063D01*
X0021858Y0053112D01*
X0021823Y0053164D01*
X0021791Y0053218D01*
X0021762Y0053274D01*
X0021737Y0053332D01*
X0021716Y0053391D01*
X0021698Y0053451D01*
X0021685Y0053513D01*
X0021675Y0053575D01*
X0021669Y0053637D01*
X0021667Y0053700D01*
X0018667Y0059700D02*
X0018669Y0059763D01*
X0018675Y0059825D01*
X0018685Y0059887D01*
X0018698Y0059949D01*
X0018716Y0060009D01*
X0018737Y0060068D01*
X0018762Y0060126D01*
X0018791Y0060182D01*
X0018823Y0060236D01*
X0018858Y0060288D01*
X0018896Y0060337D01*
X0018938Y0060385D01*
X0018982Y0060429D01*
X0019030Y0060471D01*
X0019079Y0060509D01*
X0019131Y0060544D01*
X0019185Y0060576D01*
X0019241Y0060605D01*
X0019299Y0060630D01*
X0019358Y0060651D01*
X0019418Y0060669D01*
X0019480Y0060682D01*
X0019542Y0060692D01*
X0019604Y0060698D01*
X0019667Y0060700D01*
X0019730Y0060698D01*
X0019792Y0060692D01*
X0019854Y0060682D01*
X0019916Y0060669D01*
X0019976Y0060651D01*
X0020035Y0060630D01*
X0020093Y0060605D01*
X0020149Y0060576D01*
X0020203Y0060544D01*
X0020255Y0060509D01*
X0020304Y0060471D01*
X0020352Y0060429D01*
X0020396Y0060385D01*
X0020438Y0060337D01*
X0020476Y0060288D01*
X0020511Y0060236D01*
X0020543Y0060182D01*
X0020572Y0060126D01*
X0020597Y0060068D01*
X0020618Y0060009D01*
X0020636Y0059949D01*
X0020649Y0059887D01*
X0020659Y0059825D01*
X0020665Y0059763D01*
X0020667Y0059700D01*
X0020665Y0059637D01*
X0020659Y0059575D01*
X0020649Y0059513D01*
X0020636Y0059451D01*
X0020618Y0059391D01*
X0020597Y0059332D01*
X0020572Y0059274D01*
X0020543Y0059218D01*
X0020511Y0059164D01*
X0020476Y0059112D01*
X0020438Y0059063D01*
X0020396Y0059015D01*
X0020352Y0058971D01*
X0020304Y0058929D01*
X0020255Y0058891D01*
X0020203Y0058856D01*
X0020149Y0058824D01*
X0020093Y0058795D01*
X0020035Y0058770D01*
X0019976Y0058749D01*
X0019916Y0058731D01*
X0019854Y0058718D01*
X0019792Y0058708D01*
X0019730Y0058702D01*
X0019667Y0058700D01*
X0019604Y0058702D01*
X0019542Y0058708D01*
X0019480Y0058718D01*
X0019418Y0058731D01*
X0019358Y0058749D01*
X0019299Y0058770D01*
X0019241Y0058795D01*
X0019185Y0058824D01*
X0019131Y0058856D01*
X0019079Y0058891D01*
X0019030Y0058929D01*
X0018982Y0058971D01*
X0018938Y0059015D01*
X0018896Y0059063D01*
X0018858Y0059112D01*
X0018823Y0059164D01*
X0018791Y0059218D01*
X0018762Y0059274D01*
X0018737Y0059332D01*
X0018716Y0059391D01*
X0018698Y0059451D01*
X0018685Y0059513D01*
X0018675Y0059575D01*
X0018669Y0059637D01*
X0018667Y0059700D01*
X0006667Y0065700D02*
X0006669Y0065826D01*
X0006675Y0065952D01*
X0006685Y0066078D01*
X0006699Y0066204D01*
X0006717Y0066329D01*
X0006739Y0066453D01*
X0006764Y0066577D01*
X0006794Y0066700D01*
X0006827Y0066821D01*
X0006865Y0066942D01*
X0006906Y0067061D01*
X0006951Y0067180D01*
X0006999Y0067296D01*
X0007051Y0067411D01*
X0007107Y0067524D01*
X0007167Y0067636D01*
X0007230Y0067745D01*
X0007296Y0067853D01*
X0007365Y0067958D01*
X0007438Y0068061D01*
X0007515Y0068162D01*
X0007594Y0068260D01*
X0007676Y0068356D01*
X0007762Y0068449D01*
X0007850Y0068540D01*
X0007941Y0068627D01*
X0008035Y0068712D01*
X0008131Y0068793D01*
X0008230Y0068872D01*
X0008331Y0068947D01*
X0008435Y0069019D01*
X0008541Y0069088D01*
X0008649Y0069154D01*
X0008759Y0069216D01*
X0008871Y0069274D01*
X0008984Y0069329D01*
X0009100Y0069380D01*
X0009217Y0069428D01*
X0009335Y0069472D01*
X0009455Y0069512D01*
X0009576Y0069548D01*
X0009698Y0069581D01*
X0009821Y0069610D01*
X0009945Y0069634D01*
X0010069Y0069655D01*
X0010194Y0069672D01*
X0010320Y0069685D01*
X0010446Y0069694D01*
X0010572Y0069699D01*
X0010699Y0069700D01*
X0010825Y0069697D01*
X0010951Y0069690D01*
X0011077Y0069679D01*
X0011202Y0069664D01*
X0011327Y0069645D01*
X0011451Y0069622D01*
X0011575Y0069596D01*
X0011697Y0069565D01*
X0011819Y0069531D01*
X0011939Y0069492D01*
X0012058Y0069450D01*
X0012176Y0069405D01*
X0012292Y0069355D01*
X0012407Y0069302D01*
X0012519Y0069245D01*
X0012630Y0069185D01*
X0012739Y0069121D01*
X0012846Y0069054D01*
X0012951Y0068984D01*
X0013054Y0068910D01*
X0013154Y0068833D01*
X0013252Y0068753D01*
X0013347Y0068670D01*
X0013439Y0068584D01*
X0013529Y0068495D01*
X0013616Y0068403D01*
X0013699Y0068309D01*
X0013780Y0068212D01*
X0013858Y0068112D01*
X0013933Y0068010D01*
X0014004Y0067906D01*
X0014072Y0067799D01*
X0014136Y0067691D01*
X0014197Y0067580D01*
X0014255Y0067468D01*
X0014309Y0067354D01*
X0014359Y0067238D01*
X0014406Y0067121D01*
X0014449Y0067002D01*
X0014488Y0066882D01*
X0014524Y0066761D01*
X0014555Y0066638D01*
X0014583Y0066515D01*
X0014607Y0066391D01*
X0014627Y0066266D01*
X0014643Y0066141D01*
X0014655Y0066015D01*
X0014663Y0065889D01*
X0014667Y0065763D01*
X0014667Y0065637D01*
X0014663Y0065511D01*
X0014655Y0065385D01*
X0014643Y0065259D01*
X0014627Y0065134D01*
X0014607Y0065009D01*
X0014583Y0064885D01*
X0014555Y0064762D01*
X0014524Y0064639D01*
X0014488Y0064518D01*
X0014449Y0064398D01*
X0014406Y0064279D01*
X0014359Y0064162D01*
X0014309Y0064046D01*
X0014255Y0063932D01*
X0014197Y0063820D01*
X0014136Y0063709D01*
X0014072Y0063601D01*
X0014004Y0063494D01*
X0013933Y0063390D01*
X0013858Y0063288D01*
X0013780Y0063188D01*
X0013699Y0063091D01*
X0013616Y0062997D01*
X0013529Y0062905D01*
X0013439Y0062816D01*
X0013347Y0062730D01*
X0013252Y0062647D01*
X0013154Y0062567D01*
X0013054Y0062490D01*
X0012951Y0062416D01*
X0012846Y0062346D01*
X0012739Y0062279D01*
X0012630Y0062215D01*
X0012519Y0062155D01*
X0012407Y0062098D01*
X0012292Y0062045D01*
X0012176Y0061995D01*
X0012058Y0061950D01*
X0011939Y0061908D01*
X0011819Y0061869D01*
X0011697Y0061835D01*
X0011575Y0061804D01*
X0011451Y0061778D01*
X0011327Y0061755D01*
X0011202Y0061736D01*
X0011077Y0061721D01*
X0010951Y0061710D01*
X0010825Y0061703D01*
X0010699Y0061700D01*
X0010572Y0061701D01*
X0010446Y0061706D01*
X0010320Y0061715D01*
X0010194Y0061728D01*
X0010069Y0061745D01*
X0009945Y0061766D01*
X0009821Y0061790D01*
X0009698Y0061819D01*
X0009576Y0061852D01*
X0009455Y0061888D01*
X0009335Y0061928D01*
X0009217Y0061972D01*
X0009100Y0062020D01*
X0008984Y0062071D01*
X0008871Y0062126D01*
X0008759Y0062184D01*
X0008649Y0062246D01*
X0008541Y0062312D01*
X0008435Y0062381D01*
X0008331Y0062453D01*
X0008230Y0062528D01*
X0008131Y0062607D01*
X0008035Y0062688D01*
X0007941Y0062773D01*
X0007850Y0062860D01*
X0007762Y0062951D01*
X0007676Y0063044D01*
X0007594Y0063140D01*
X0007515Y0063238D01*
X0007438Y0063339D01*
X0007365Y0063442D01*
X0007296Y0063547D01*
X0007230Y0063655D01*
X0007167Y0063764D01*
X0007107Y0063876D01*
X0007051Y0063989D01*
X0006999Y0064104D01*
X0006951Y0064220D01*
X0006906Y0064339D01*
X0006865Y0064458D01*
X0006827Y0064579D01*
X0006794Y0064700D01*
X0006764Y0064823D01*
X0006739Y0064947D01*
X0006717Y0065071D01*
X0006699Y0065196D01*
X0006685Y0065322D01*
X0006675Y0065448D01*
X0006669Y0065574D01*
X0006667Y0065700D01*
X0039667Y0059700D02*
X0039669Y0059763D01*
X0039675Y0059825D01*
X0039685Y0059887D01*
X0039698Y0059949D01*
X0039716Y0060009D01*
X0039737Y0060068D01*
X0039762Y0060126D01*
X0039791Y0060182D01*
X0039823Y0060236D01*
X0039858Y0060288D01*
X0039896Y0060337D01*
X0039938Y0060385D01*
X0039982Y0060429D01*
X0040030Y0060471D01*
X0040079Y0060509D01*
X0040131Y0060544D01*
X0040185Y0060576D01*
X0040241Y0060605D01*
X0040299Y0060630D01*
X0040358Y0060651D01*
X0040418Y0060669D01*
X0040480Y0060682D01*
X0040542Y0060692D01*
X0040604Y0060698D01*
X0040667Y0060700D01*
X0040730Y0060698D01*
X0040792Y0060692D01*
X0040854Y0060682D01*
X0040916Y0060669D01*
X0040976Y0060651D01*
X0041035Y0060630D01*
X0041093Y0060605D01*
X0041149Y0060576D01*
X0041203Y0060544D01*
X0041255Y0060509D01*
X0041304Y0060471D01*
X0041352Y0060429D01*
X0041396Y0060385D01*
X0041438Y0060337D01*
X0041476Y0060288D01*
X0041511Y0060236D01*
X0041543Y0060182D01*
X0041572Y0060126D01*
X0041597Y0060068D01*
X0041618Y0060009D01*
X0041636Y0059949D01*
X0041649Y0059887D01*
X0041659Y0059825D01*
X0041665Y0059763D01*
X0041667Y0059700D01*
X0041665Y0059637D01*
X0041659Y0059575D01*
X0041649Y0059513D01*
X0041636Y0059451D01*
X0041618Y0059391D01*
X0041597Y0059332D01*
X0041572Y0059274D01*
X0041543Y0059218D01*
X0041511Y0059164D01*
X0041476Y0059112D01*
X0041438Y0059063D01*
X0041396Y0059015D01*
X0041352Y0058971D01*
X0041304Y0058929D01*
X0041255Y0058891D01*
X0041203Y0058856D01*
X0041149Y0058824D01*
X0041093Y0058795D01*
X0041035Y0058770D01*
X0040976Y0058749D01*
X0040916Y0058731D01*
X0040854Y0058718D01*
X0040792Y0058708D01*
X0040730Y0058702D01*
X0040667Y0058700D01*
X0040604Y0058702D01*
X0040542Y0058708D01*
X0040480Y0058718D01*
X0040418Y0058731D01*
X0040358Y0058749D01*
X0040299Y0058770D01*
X0040241Y0058795D01*
X0040185Y0058824D01*
X0040131Y0058856D01*
X0040079Y0058891D01*
X0040030Y0058929D01*
X0039982Y0058971D01*
X0039938Y0059015D01*
X0039896Y0059063D01*
X0039858Y0059112D01*
X0039823Y0059164D01*
X0039791Y0059218D01*
X0039762Y0059274D01*
X0039737Y0059332D01*
X0039716Y0059391D01*
X0039698Y0059451D01*
X0039685Y0059513D01*
X0039675Y0059575D01*
X0039669Y0059637D01*
X0039667Y0059700D01*
X0042667Y0053700D02*
X0042669Y0053763D01*
X0042675Y0053825D01*
X0042685Y0053887D01*
X0042698Y0053949D01*
X0042716Y0054009D01*
X0042737Y0054068D01*
X0042762Y0054126D01*
X0042791Y0054182D01*
X0042823Y0054236D01*
X0042858Y0054288D01*
X0042896Y0054337D01*
X0042938Y0054385D01*
X0042982Y0054429D01*
X0043030Y0054471D01*
X0043079Y0054509D01*
X0043131Y0054544D01*
X0043185Y0054576D01*
X0043241Y0054605D01*
X0043299Y0054630D01*
X0043358Y0054651D01*
X0043418Y0054669D01*
X0043480Y0054682D01*
X0043542Y0054692D01*
X0043604Y0054698D01*
X0043667Y0054700D01*
X0043730Y0054698D01*
X0043792Y0054692D01*
X0043854Y0054682D01*
X0043916Y0054669D01*
X0043976Y0054651D01*
X0044035Y0054630D01*
X0044093Y0054605D01*
X0044149Y0054576D01*
X0044203Y0054544D01*
X0044255Y0054509D01*
X0044304Y0054471D01*
X0044352Y0054429D01*
X0044396Y0054385D01*
X0044438Y0054337D01*
X0044476Y0054288D01*
X0044511Y0054236D01*
X0044543Y0054182D01*
X0044572Y0054126D01*
X0044597Y0054068D01*
X0044618Y0054009D01*
X0044636Y0053949D01*
X0044649Y0053887D01*
X0044659Y0053825D01*
X0044665Y0053763D01*
X0044667Y0053700D01*
X0044665Y0053637D01*
X0044659Y0053575D01*
X0044649Y0053513D01*
X0044636Y0053451D01*
X0044618Y0053391D01*
X0044597Y0053332D01*
X0044572Y0053274D01*
X0044543Y0053218D01*
X0044511Y0053164D01*
X0044476Y0053112D01*
X0044438Y0053063D01*
X0044396Y0053015D01*
X0044352Y0052971D01*
X0044304Y0052929D01*
X0044255Y0052891D01*
X0044203Y0052856D01*
X0044149Y0052824D01*
X0044093Y0052795D01*
X0044035Y0052770D01*
X0043976Y0052749D01*
X0043916Y0052731D01*
X0043854Y0052718D01*
X0043792Y0052708D01*
X0043730Y0052702D01*
X0043667Y0052700D01*
X0043604Y0052702D01*
X0043542Y0052708D01*
X0043480Y0052718D01*
X0043418Y0052731D01*
X0043358Y0052749D01*
X0043299Y0052770D01*
X0043241Y0052795D01*
X0043185Y0052824D01*
X0043131Y0052856D01*
X0043079Y0052891D01*
X0043030Y0052929D01*
X0042982Y0052971D01*
X0042938Y0053015D01*
X0042896Y0053063D01*
X0042858Y0053112D01*
X0042823Y0053164D01*
X0042791Y0053218D01*
X0042762Y0053274D01*
X0042737Y0053332D01*
X0042716Y0053391D01*
X0042698Y0053451D01*
X0042685Y0053513D01*
X0042675Y0053575D01*
X0042669Y0053637D01*
X0042667Y0053700D01*
X0048667Y0065700D02*
X0048669Y0065826D01*
X0048675Y0065952D01*
X0048685Y0066078D01*
X0048699Y0066204D01*
X0048717Y0066329D01*
X0048739Y0066453D01*
X0048764Y0066577D01*
X0048794Y0066700D01*
X0048827Y0066821D01*
X0048865Y0066942D01*
X0048906Y0067061D01*
X0048951Y0067180D01*
X0048999Y0067296D01*
X0049051Y0067411D01*
X0049107Y0067524D01*
X0049167Y0067636D01*
X0049230Y0067745D01*
X0049296Y0067853D01*
X0049365Y0067958D01*
X0049438Y0068061D01*
X0049515Y0068162D01*
X0049594Y0068260D01*
X0049676Y0068356D01*
X0049762Y0068449D01*
X0049850Y0068540D01*
X0049941Y0068627D01*
X0050035Y0068712D01*
X0050131Y0068793D01*
X0050230Y0068872D01*
X0050331Y0068947D01*
X0050435Y0069019D01*
X0050541Y0069088D01*
X0050649Y0069154D01*
X0050759Y0069216D01*
X0050871Y0069274D01*
X0050984Y0069329D01*
X0051100Y0069380D01*
X0051217Y0069428D01*
X0051335Y0069472D01*
X0051455Y0069512D01*
X0051576Y0069548D01*
X0051698Y0069581D01*
X0051821Y0069610D01*
X0051945Y0069634D01*
X0052069Y0069655D01*
X0052194Y0069672D01*
X0052320Y0069685D01*
X0052446Y0069694D01*
X0052572Y0069699D01*
X0052699Y0069700D01*
X0052825Y0069697D01*
X0052951Y0069690D01*
X0053077Y0069679D01*
X0053202Y0069664D01*
X0053327Y0069645D01*
X0053451Y0069622D01*
X0053575Y0069596D01*
X0053697Y0069565D01*
X0053819Y0069531D01*
X0053939Y0069492D01*
X0054058Y0069450D01*
X0054176Y0069405D01*
X0054292Y0069355D01*
X0054407Y0069302D01*
X0054519Y0069245D01*
X0054630Y0069185D01*
X0054739Y0069121D01*
X0054846Y0069054D01*
X0054951Y0068984D01*
X0055054Y0068910D01*
X0055154Y0068833D01*
X0055252Y0068753D01*
X0055347Y0068670D01*
X0055439Y0068584D01*
X0055529Y0068495D01*
X0055616Y0068403D01*
X0055699Y0068309D01*
X0055780Y0068212D01*
X0055858Y0068112D01*
X0055933Y0068010D01*
X0056004Y0067906D01*
X0056072Y0067799D01*
X0056136Y0067691D01*
X0056197Y0067580D01*
X0056255Y0067468D01*
X0056309Y0067354D01*
X0056359Y0067238D01*
X0056406Y0067121D01*
X0056449Y0067002D01*
X0056488Y0066882D01*
X0056524Y0066761D01*
X0056555Y0066638D01*
X0056583Y0066515D01*
X0056607Y0066391D01*
X0056627Y0066266D01*
X0056643Y0066141D01*
X0056655Y0066015D01*
X0056663Y0065889D01*
X0056667Y0065763D01*
X0056667Y0065637D01*
X0056663Y0065511D01*
X0056655Y0065385D01*
X0056643Y0065259D01*
X0056627Y0065134D01*
X0056607Y0065009D01*
X0056583Y0064885D01*
X0056555Y0064762D01*
X0056524Y0064639D01*
X0056488Y0064518D01*
X0056449Y0064398D01*
X0056406Y0064279D01*
X0056359Y0064162D01*
X0056309Y0064046D01*
X0056255Y0063932D01*
X0056197Y0063820D01*
X0056136Y0063709D01*
X0056072Y0063601D01*
X0056004Y0063494D01*
X0055933Y0063390D01*
X0055858Y0063288D01*
X0055780Y0063188D01*
X0055699Y0063091D01*
X0055616Y0062997D01*
X0055529Y0062905D01*
X0055439Y0062816D01*
X0055347Y0062730D01*
X0055252Y0062647D01*
X0055154Y0062567D01*
X0055054Y0062490D01*
X0054951Y0062416D01*
X0054846Y0062346D01*
X0054739Y0062279D01*
X0054630Y0062215D01*
X0054519Y0062155D01*
X0054407Y0062098D01*
X0054292Y0062045D01*
X0054176Y0061995D01*
X0054058Y0061950D01*
X0053939Y0061908D01*
X0053819Y0061869D01*
X0053697Y0061835D01*
X0053575Y0061804D01*
X0053451Y0061778D01*
X0053327Y0061755D01*
X0053202Y0061736D01*
X0053077Y0061721D01*
X0052951Y0061710D01*
X0052825Y0061703D01*
X0052699Y0061700D01*
X0052572Y0061701D01*
X0052446Y0061706D01*
X0052320Y0061715D01*
X0052194Y0061728D01*
X0052069Y0061745D01*
X0051945Y0061766D01*
X0051821Y0061790D01*
X0051698Y0061819D01*
X0051576Y0061852D01*
X0051455Y0061888D01*
X0051335Y0061928D01*
X0051217Y0061972D01*
X0051100Y0062020D01*
X0050984Y0062071D01*
X0050871Y0062126D01*
X0050759Y0062184D01*
X0050649Y0062246D01*
X0050541Y0062312D01*
X0050435Y0062381D01*
X0050331Y0062453D01*
X0050230Y0062528D01*
X0050131Y0062607D01*
X0050035Y0062688D01*
X0049941Y0062773D01*
X0049850Y0062860D01*
X0049762Y0062951D01*
X0049676Y0063044D01*
X0049594Y0063140D01*
X0049515Y0063238D01*
X0049438Y0063339D01*
X0049365Y0063442D01*
X0049296Y0063547D01*
X0049230Y0063655D01*
X0049167Y0063764D01*
X0049107Y0063876D01*
X0049051Y0063989D01*
X0048999Y0064104D01*
X0048951Y0064220D01*
X0048906Y0064339D01*
X0048865Y0064458D01*
X0048827Y0064579D01*
X0048794Y0064700D01*
X0048764Y0064823D01*
X0048739Y0064947D01*
X0048717Y0065071D01*
X0048699Y0065196D01*
X0048685Y0065322D01*
X0048675Y0065448D01*
X0048669Y0065574D01*
X0048667Y0065700D01*
D11*
X0047930Y0029700D02*
X0047930Y0023700D01*
X0038088Y0023700D02*
X0038088Y0029700D01*
X0028245Y0029700D02*
X0028245Y0023700D01*
X0018403Y0023700D02*
X0018403Y0029700D01*
D12*
X0022667Y0053700D03*
X0019667Y0059700D03*
X0026667Y0059700D03*
X0029667Y0053700D03*
X0033667Y0059700D03*
X0036667Y0053700D03*
X0040667Y0059700D03*
X0043667Y0053700D03*
D13*
X0052667Y0065700D03*
X0010667Y0065700D03*
D14*
X0032568Y0040576D02*
X0056467Y0040576D01*
X0056467Y0038178D02*
X0030170Y0038178D01*
X0028879Y0036887D02*
X0039379Y0047387D01*
X0039742Y0048263D01*
X0040167Y0048439D01*
X0042433Y0047500D01*
X0044900Y0047500D01*
X0047179Y0048444D01*
X0048923Y0050188D01*
X0049867Y0052467D01*
X0049867Y0054500D01*
X0055841Y0054500D01*
X0056467Y0053875D01*
X0056467Y0023025D01*
X0054341Y0020900D01*
X0052183Y0020900D01*
X0052930Y0022705D01*
X0052930Y0030695D01*
X0052169Y0032532D01*
X0050763Y0033939D01*
X0048925Y0034700D01*
X0046936Y0034700D01*
X0045098Y0033939D01*
X0043692Y0032532D01*
X0043100Y0031103D01*
X0042907Y0031696D01*
X0042535Y0032425D01*
X0042054Y0033088D01*
X0041475Y0033666D01*
X0040813Y0034147D01*
X0040084Y0034519D01*
X0039306Y0034772D01*
X0038497Y0034900D01*
X0038088Y0034900D01*
X0038088Y0026700D01*
X0038088Y0034700D01*
X0052167Y0034700D01*
X0051321Y0033381D02*
X0056467Y0033381D01*
X0056467Y0035779D02*
X0027477Y0035779D01*
X0027979Y0035987D02*
X0026803Y0035500D01*
X0021992Y0035500D01*
X0021867Y0035375D01*
X0021867Y0033307D01*
X0022642Y0032532D01*
X0023324Y0030885D01*
X0024007Y0032532D01*
X0025413Y0033939D01*
X0027251Y0034700D01*
X0029240Y0034700D01*
X0031078Y0033939D01*
X0032484Y0032532D01*
X0033076Y0031103D01*
X0033269Y0031696D01*
X0033640Y0032425D01*
X0034122Y0033088D01*
X0034700Y0033666D01*
X0035363Y0034147D01*
X0036092Y0034519D01*
X0036870Y0034772D01*
X0037679Y0034900D01*
X0038088Y0034900D01*
X0038088Y0026700D01*
X0038088Y0026700D01*
X0038088Y0028584D02*
X0038088Y0028584D01*
X0038088Y0030982D02*
X0038088Y0030982D01*
X0038088Y0033381D02*
X0038088Y0033381D01*
X0038088Y0034700D02*
X0038088Y0042279D01*
X0037667Y0042700D01*
X0037365Y0045373D02*
X0056467Y0045373D01*
X0056467Y0042975D02*
X0034967Y0042975D01*
X0036667Y0049200D02*
X0026167Y0038700D01*
X0020667Y0038700D01*
X0018667Y0036700D01*
X0018667Y0026964D01*
X0018403Y0026700D01*
X0023284Y0030982D02*
X0023365Y0030982D01*
X0024855Y0033381D02*
X0021867Y0033381D01*
X0027979Y0035987D02*
X0028879Y0036887D01*
X0031636Y0033381D02*
X0034415Y0033381D01*
X0028245Y0026700D02*
X0028167Y0026621D01*
X0028167Y0019200D01*
X0029667Y0017700D01*
X0055667Y0017700D01*
X0059667Y0021700D01*
X0059667Y0055200D01*
X0057167Y0057700D01*
X0048667Y0057700D01*
X0046667Y0059700D01*
X0045667Y0059700D01*
X0045167Y0060200D01*
X0045167Y0062700D01*
X0043667Y0064200D01*
X0037667Y0064200D01*
X0033667Y0060200D01*
X0033667Y0059700D01*
X0036667Y0053700D02*
X0036667Y0049200D01*
X0039539Y0047772D02*
X0041777Y0047772D01*
X0045556Y0047772D02*
X0056467Y0047772D01*
X0056467Y0050170D02*
X0048905Y0050170D01*
X0049867Y0052569D02*
X0056467Y0052569D01*
X0052667Y0053200D02*
X0044167Y0053200D01*
X0043667Y0053700D01*
X0044540Y0033381D02*
X0041761Y0033381D01*
X0052811Y0030982D02*
X0056467Y0030982D01*
X0056467Y0028584D02*
X0052930Y0028584D01*
X0052930Y0026185D02*
X0056467Y0026185D01*
X0056467Y0023787D02*
X0052930Y0023787D01*
X0052385Y0021388D02*
X0054829Y0021388D01*
D15*
X0037667Y0042700D03*
D16*
X0052167Y0034700D03*
D17*
X0052667Y0053200D03*
M02*
