%FSTAX24Y24*%
%MOIN*%
%SFA1B1*%

%IPPOS*%
%ADD11R,0.047600X0.015900*%
%ADD12C,0.003900*%
%ADD13C,0.006000*%
%ADD14C,0.010000*%
%ADD15R,0.025000X0.024000*%
%ADD16R,0.056000X0.014000*%
%ADD17C,0.002000*%
%ADD24C,0.026000*%
%ADD25C,0.007900*%
%ADD26C,0.005000*%
%ADD27C,0.008000*%
%ADD28R,0.260100X0.024000*%
%LNnode_simple-1*%
%LPD*%
G36*
X001728Y008148D02*
X001729Y008149D01*
X001732Y008152*
X001737Y008156*
X001744Y008161*
X001752Y008168*
X001762Y008175*
X001773Y008183*
X001786Y008191*
X001787*
X001788*
X001792Y008194*
X001799Y008198*
X001808Y008202*
X001818Y008207*
X001828Y008212*
X001839Y008217*
X00185Y008222*
Y008163*
X001849*
X001848Y008161*
X001845*
X001841Y008159*
X001837Y008156*
X001832Y008153*
X00182Y008146*
X001806Y008138*
X001791Y008128*
X001776Y008117*
X001761Y008105*
X00176Y008104*
Y008103*
X001758Y008101*
X001755Y008099*
X001748Y008092*
X00174Y008083*
X001731Y008073*
X001722Y008062*
X001714Y00805*
X001707Y008038*
X001667*
Y008536*
X001728*
Y008148*
G37*
G36*
X001284Y003631D02*
X0015D01*
Y003575*
X001273Y003254*
X001223*
Y003575*
X001156*
Y003631*
X001223*
Y00375*
X001284*
Y003631*
G37*
G36*
X007216Y008169D02*
X007284D01*
Y008113*
X007216*
Y007994*
X007155*
Y008113*
X006939*
Y008169*
X007167Y00849*
X007216*
Y008169*
G37*
G36*
X007172Y00319D02*
X007111D01*
Y003578*
Y003577*
X007107Y003574*
X007103Y00357*
X007095Y003565*
X007088Y003559*
X007078Y003551*
X007066Y003543*
X007053Y003536*
X007052*
Y003535*
X007047Y003532*
X00704Y003528*
X007032Y003524*
X007022Y003519*
X007011Y003514*
X007Y003509*
X006989Y003505*
Y003564*
X00699*
X006992Y003565*
X006994Y003566*
X006998Y003568*
X007002Y00357*
X007007Y003573*
X007019Y00358*
X007034Y003588*
X007048Y003598*
X007063Y003609*
X007078Y003622*
X007079*
X00708Y003623*
X007082Y003625*
X007085Y003627*
X007091Y003635*
X0071Y003643*
X007108Y003653*
X007118Y003665*
X007126Y003676*
X007133Y003688*
X007172*
Y00319*
G37*
%LNnode_simple-2*%
%LPC*%
G36*
X00144Y003575D02*
X001284D01*
Y003353*
X00144Y003575*
G37*
G36*
X007155Y008391D02*
X006999Y008169D01*
X007155*
Y008391*
G37*
%LNnode_simple-3*%
%LPD*%
G54D11*
X000752Y001225D03*
G54D12*
X001165Y005233D02*
X001735D01*
X001165Y004367D02*
X001735D01*
X001165D02*
Y005233D01*
X001735Y004367D02*
Y005233D01*
X007765Y005128D02*
X008335D01*
X007765Y004262D02*
X008335D01*
X007765D02*
Y005128D01*
X008335Y004262D02*
Y005128D01*
X007865Y006988D02*
X008435D01*
X007865Y006122D02*
X008435D01*
X007865D02*
Y006988D01*
X008435Y006122D02*
Y006988D01*
X001135Y005351D02*
X001765D01*
X001135Y004249D02*
X001765D01*
X001135D02*
Y005351D01*
X001765Y004249D02*
Y005351D01*
X00145Y004603D02*
Y004997D01*
X001253Y0048D02*
X001647D01*
X007735Y005246D02*
X008365D01*
X007735Y004144D02*
X008365D01*
X007735D02*
Y005246D01*
X008365Y004144D02*
Y005246D01*
X00805Y004498D02*
Y004892D01*
X007853Y004695D02*
X008247D01*
X007835Y007106D02*
X008465D01*
X007835Y006004D02*
X008465D01*
X007835D02*
Y007106D01*
X008465Y006004D02*
Y007106D01*
X00815Y006358D02*
Y006752D01*
X007953Y006555D02*
X008347D01*
G54D13*
X00285Y00071D02*
D01*
X002883Y000735*
X002914Y000763*
X002943Y000793*
X00297Y000825*
X002995Y000859*
X003018Y000894*
X003038Y000931*
X003055Y00097*
X003069Y001009*
X003081Y001049*
X00309Y00109*
X003096Y001132*
X003099Y001174*
X0031Y0012*
D01*
X003098Y001241*
X003094Y001283*
X003086Y001324*
X003076Y001365*
X003063Y001405*
X003048Y001444*
X003029Y001481*
X003008Y001517*
X002985Y001552*
X002959Y001585*
X002931Y001616*
X002901Y001645*
X002869Y001672*
X00286Y00168*
X0019Y0012D02*
D01*
X001901Y001157*
X001905Y001115*
X001912Y001073*
X001922Y001032*
X001935Y000992*
X001951Y000952*
X001969Y000914*
X00199Y000877*
X002014Y000842*
X00204Y000809*
X002068Y000777*
X002098Y000747*
X00213Y00072*
X002132Y00072*
Y001674D02*
D01*
X002099Y001647*
X002069Y001618*
X002041Y001587*
X002015Y001554*
X001992Y001519*
X001971Y001483*
X001952Y001445*
X001936Y001406*
X001923Y001367*
X001913Y001326*
X001906Y001285*
X001901Y001243*
X001899Y001201*
X0019Y0012*
X0048Y00071D02*
D01*
X004833Y000735*
X004864Y000763*
X004893Y000793*
X00492Y000825*
X004945Y000859*
X004968Y000894*
X004988Y000931*
X005005Y00097*
X005019Y001009*
X005031Y001049*
X00504Y00109*
X005046Y001132*
X005049Y001174*
X00505Y0012*
D01*
X005048Y001241*
X005044Y001283*
X005036Y001324*
X005026Y001365*
X005013Y001405*
X004998Y001444*
X004979Y001481*
X004958Y001517*
X004935Y001552*
X004909Y001585*
X004881Y001616*
X004851Y001645*
X004819Y001672*
X00481Y00168*
X00385Y0012D02*
D01*
X003851Y001157*
X003855Y001115*
X003862Y001073*
X003872Y001032*
X003885Y000992*
X003901Y000952*
X003919Y000914*
X00394Y000877*
X003964Y000842*
X00399Y000809*
X004018Y000777*
X004048Y000747*
X00408Y00072*
X004082Y00072*
Y001674D02*
D01*
X004049Y001647*
X004019Y001618*
X003991Y001587*
X003965Y001554*
X003942Y001519*
X003921Y001483*
X003902Y001445*
X003886Y001406*
X003873Y001367*
X003863Y001326*
X003856Y001285*
X003851Y001243*
X003849Y001201*
X00385Y0012*
X00675Y00071D02*
D01*
X006783Y000735*
X006814Y000763*
X006843Y000793*
X00687Y000825*
X006895Y000859*
X006918Y000894*
X006938Y000931*
X006955Y00097*
X006969Y001009*
X006981Y001049*
X00699Y00109*
X006996Y001132*
X006999Y001174*
X007Y0012*
D01*
X006998Y001241*
X006994Y001283*
X006986Y001324*
X006976Y001365*
X006963Y001405*
X006948Y001444*
X006929Y001481*
X006908Y001517*
X006885Y001552*
X006859Y001585*
X006831Y001616*
X006801Y001645*
X006769Y001672*
X00676Y00168*
X0058Y0012D02*
D01*
X005801Y001157*
X005805Y001115*
X005812Y001073*
X005822Y001032*
X005835Y000992*
X005851Y000952*
X005869Y000914*
X00589Y000877*
X005914Y000842*
X00594Y000809*
X005968Y000777*
X005998Y000747*
X00603Y00072*
X006032Y00072*
Y001674D02*
D01*
X005999Y001647*
X005969Y001618*
X005941Y001587*
X005915Y001554*
X005892Y001519*
X005871Y001483*
X005852Y001445*
X005836Y001406*
X005823Y001367*
X005813Y001326*
X005806Y001285*
X005801Y001243*
X005799Y001201*
X0058Y0012*
X00865Y00071D02*
D01*
X008683Y000735*
X008714Y000763*
X008743Y000793*
X00877Y000825*
X008795Y000859*
X008818Y000894*
X008838Y000931*
X008855Y00097*
X008869Y001009*
X008881Y001049*
X00889Y00109*
X008896Y001132*
X008899Y001174*
X0089Y0012*
D01*
X008898Y001241*
X008894Y001283*
X008886Y001324*
X008876Y001365*
X008863Y001405*
X008848Y001444*
X008829Y001481*
X008808Y001517*
X008785Y001552*
X008759Y001585*
X008731Y001616*
X008701Y001645*
X008669Y001672*
X00866Y00168*
X0077Y0012D02*
D01*
X007701Y001157*
X007705Y001115*
X007712Y001073*
X007722Y001032*
X007735Y000992*
X007751Y000952*
X007769Y000914*
X00779Y000877*
X007814Y000842*
X00784Y000809*
X007868Y000777*
X007898Y000747*
X00793Y00072*
X007932Y00072*
Y001674D02*
D01*
X007899Y001647*
X007869Y001618*
X007841Y001587*
X007815Y001554*
X007792Y001519*
X007771Y001483*
X007752Y001445*
X007736Y001406*
X007723Y001367*
X007713Y001326*
X007706Y001285*
X007701Y001243*
X007699Y001201*
X0077Y0012*
X006989Y00396D02*
Y007814D01*
X01124Y00396D02*
X01159Y00376D01*
X007339Y00396D02*
Y007814D01*
X006989Y00396D02*
X007339D01*
X01099D02*
X01124D01*
X007339D02*
X01099D01*
Y007814*
X006989D02*
X007339D01*
X01099*
X006389Y008814D02*
X01159D01*
Y008014D02*
Y008814D01*
X01124Y007814D02*
X01159Y008014D01*
X01099Y007814D02*
X01124D01*
X006389Y00297D02*
X01159D01*
Y00376*
X006389Y00297D02*
Y00403D01*
Y00481D02*
Y00501D01*
Y00579D02*
Y005994D01*
Y006774D02*
Y006983D01*
Y007774D02*
Y008814D01*
X00185Y003913D02*
Y007766D01*
X-002751Y007966D02*
X-002401Y007766D01*
X0015Y003913D02*
Y007766D01*
X00185*
X-002401D02*
X-002151D01*
X0015*
X-002151Y003913D02*
Y007766D01*
X0015Y003913D02*
X00185D01*
X-002151D02*
X0015D01*
X-002751Y002913D02*
X00245D01*
X-002751D02*
Y003713D01*
X-002401Y003913*
X-002151*
X-002751Y008756D02*
X00245D01*
X-002751Y007966D02*
Y008756D01*
X00245Y007696D02*
Y008756D01*
Y006716D02*
Y006916D01*
Y005733D02*
Y005936D01*
Y004743D02*
Y004953D01*
Y002913D02*
Y003953D01*
X00289Y001661D02*
D01*
X002856Y001686*
X00282Y00171*
X002784Y001731*
X002745Y001749*
X002706Y001765*
X002665Y001777*
X002624Y001787*
X002582Y001794*
X00254Y001798*
X0025Y0018*
D01*
X002458Y001798*
X002416Y001794*
X002375Y001786*
X002334Y001776*
X002294Y001763*
X002255Y001748*
X002218Y001729*
X002182Y001708*
X002147Y001685*
X002114Y001659*
X002101Y001648*
X0025Y0006D02*
D01*
X002542Y0006*
X002585Y000604*
X002627Y000611*
X002668Y00062*
X002709Y000633*
X002749Y000648*
X002788Y000666*
X002825Y000687*
X002861Y00071*
X002895Y000735*
X0029Y00074*
X002116Y00073D02*
D01*
X002149Y000705*
X002184Y000682*
X00222Y000662*
X002258Y000645*
X002297Y00063*
X002337Y000618*
X002377Y000609*
X002418Y000603*
X00246Y0006*
X0025Y0006*
X00275Y0012D02*
D01*
X002749Y001217*
X002747Y001234*
X002744Y001251*
X00274Y001268*
X002734Y001285*
X002728Y001301*
X00272Y001317*
X002712Y001332*
X002702Y001346*
X002691Y00136*
X002679Y001373*
X002667Y001385*
X002653Y001397*
X002639Y001407*
X002625Y001416*
X002609Y001424*
X002593Y001431*
X002577Y001437*
X00256Y001442*
X002543Y001446*
X002526Y001448*
X002508Y001449*
X0025Y00145*
X0029Y0012D02*
D01*
X002899Y001227*
X002896Y001255*
X002891Y001283*
X002884Y00131*
X002875Y001336*
X002865Y001362*
X002853Y001387*
X002839Y001411*
X002823Y001435*
X002806Y001457*
X002787Y001477*
X002767Y001497*
X002746Y001515*
X002723Y001531*
X0027Y001546*
X002675Y001559*
X002649Y00157*
X002623Y00158*
X002596Y001588*
X002569Y001593*
X002541Y001597*
X002513Y001599*
X0025Y0016*
X00225Y0012D02*
D01*
X00225Y001182*
X002252Y001165*
X002255Y001148*
X002259Y001131*
X002265Y001114*
X002271Y001098*
X002279Y001082*
X002287Y001067*
X002297Y001053*
X002308Y001039*
X00232Y001026*
X002332Y001014*
X002346Y001002*
X00236Y000992*
X002375Y000983*
X00239Y000975*
X002406Y000968*
X002422Y000962*
X002439Y000957*
X002456Y000953*
X002473Y000951*
X002491Y00095*
X0025Y00095*
X0021Y0012D02*
D01*
X0021Y001172*
X002103Y001144*
X002108Y001116*
X002115Y001089*
X002124Y001063*
X002134Y001037*
X002146Y001012*
X00216Y000988*
X002176Y000964*
X002193Y000942*
X002212Y000922*
X002232Y000902*
X002253Y000884*
X002276Y000868*
X0023Y000853*
X002324Y00084*
X00235Y000829*
X002376Y000819*
X002403Y000811*
X00243Y000806*
X002458Y000802*
X002486Y0008*
X0025Y0008*
X00484Y001661D02*
D01*
X004806Y001686*
X00477Y00171*
X004734Y001731*
X004695Y001749*
X004656Y001765*
X004615Y001777*
X004574Y001787*
X004532Y001794*
X00449Y001798*
X00445Y0018*
D01*
X004408Y001798*
X004366Y001794*
X004325Y001786*
X004284Y001776*
X004244Y001763*
X004205Y001748*
X004168Y001729*
X004132Y001708*
X004097Y001685*
X004064Y001659*
X004051Y001648*
X00445Y0006D02*
D01*
X004492Y0006*
X004535Y000604*
X004577Y000611*
X004618Y00062*
X004659Y000633*
X004699Y000648*
X004738Y000666*
X004775Y000687*
X004811Y00071*
X004845Y000735*
X00485Y00074*
X004066Y00073D02*
D01*
X004099Y000705*
X004134Y000682*
X00417Y000662*
X004208Y000645*
X004247Y00063*
X004287Y000618*
X004327Y000609*
X004368Y000603*
X00441Y0006*
X00445Y0006*
X0047Y0012D02*
D01*
X004699Y001217*
X004697Y001234*
X004694Y001251*
X00469Y001268*
X004684Y001285*
X004678Y001301*
X00467Y001317*
X004662Y001332*
X004652Y001346*
X004641Y00136*
X004629Y001373*
X004617Y001385*
X004603Y001397*
X004589Y001407*
X004575Y001416*
X004559Y001424*
X004543Y001431*
X004527Y001437*
X00451Y001442*
X004493Y001446*
X004476Y001448*
X004458Y001449*
X00445Y00145*
X00485Y0012D02*
D01*
X004849Y001227*
X004846Y001255*
X004841Y001283*
X004834Y00131*
X004825Y001336*
X004815Y001362*
X004803Y001387*
X004789Y001411*
X004773Y001435*
X004756Y001457*
X004737Y001477*
X004717Y001497*
X004696Y001515*
X004673Y001531*
X00465Y001546*
X004625Y001559*
X004599Y00157*
X004573Y00158*
X004546Y001588*
X004519Y001593*
X004491Y001597*
X004463Y001599*
X00445Y0016*
X0042Y0012D02*
D01*
X0042Y001182*
X004202Y001165*
X004205Y001148*
X004209Y001131*
X004215Y001114*
X004221Y001098*
X004229Y001082*
X004237Y001067*
X004247Y001053*
X004258Y001039*
X00427Y001026*
X004282Y001014*
X004296Y001002*
X00431Y000992*
X004325Y000983*
X00434Y000975*
X004356Y000968*
X004372Y000962*
X004389Y000957*
X004406Y000953*
X004423Y000951*
X004441Y00095*
X00445Y00095*
X00405Y0012D02*
D01*
X00405Y001172*
X004053Y001144*
X004058Y001116*
X004065Y001089*
X004074Y001063*
X004084Y001037*
X004096Y001012*
X00411Y000988*
X004126Y000964*
X004143Y000942*
X004162Y000922*
X004182Y000902*
X004203Y000884*
X004226Y000868*
X00425Y000853*
X004274Y00084*
X0043Y000829*
X004326Y000819*
X004353Y000811*
X00438Y000806*
X004408Y000802*
X004436Y0008*
X00445Y0008*
X00679Y001661D02*
D01*
X006756Y001686*
X00672Y00171*
X006684Y001731*
X006645Y001749*
X006606Y001765*
X006565Y001777*
X006524Y001787*
X006482Y001794*
X00644Y001798*
X0064Y0018*
D01*
X006358Y001798*
X006316Y001794*
X006275Y001786*
X006234Y001776*
X006194Y001763*
X006155Y001748*
X006118Y001729*
X006082Y001708*
X006047Y001685*
X006014Y001659*
X006001Y001648*
X0064Y0006D02*
D01*
X006442Y0006*
X006485Y000604*
X006527Y000611*
X006568Y00062*
X006609Y000633*
X006649Y000648*
X006688Y000666*
X006725Y000687*
X006761Y00071*
X006795Y000735*
X0068Y00074*
X006016Y00073D02*
D01*
X006049Y000705*
X006084Y000682*
X00612Y000662*
X006158Y000645*
X006197Y00063*
X006237Y000618*
X006277Y000609*
X006318Y000603*
X00636Y0006*
X0064Y0006*
X00665Y0012D02*
D01*
X006649Y001217*
X006647Y001234*
X006644Y001251*
X00664Y001268*
X006634Y001285*
X006628Y001301*
X00662Y001317*
X006612Y001332*
X006602Y001346*
X006591Y00136*
X006579Y001373*
X006567Y001385*
X006553Y001397*
X006539Y001407*
X006525Y001416*
X006509Y001424*
X006493Y001431*
X006477Y001437*
X00646Y001442*
X006443Y001446*
X006426Y001448*
X006408Y001449*
X0064Y00145*
X0068Y0012D02*
D01*
X006799Y001227*
X006796Y001255*
X006791Y001283*
X006784Y00131*
X006775Y001336*
X006765Y001362*
X006753Y001387*
X006739Y001411*
X006723Y001435*
X006706Y001457*
X006687Y001477*
X006667Y001497*
X006646Y001515*
X006623Y001531*
X0066Y001546*
X006575Y001559*
X006549Y00157*
X006523Y00158*
X006496Y001588*
X006469Y001593*
X006441Y001597*
X006413Y001599*
X0064Y0016*
X00615Y0012D02*
D01*
X00615Y001182*
X006152Y001165*
X006155Y001148*
X006159Y001131*
X006165Y001114*
X006171Y001098*
X006179Y001082*
X006187Y001067*
X006197Y001053*
X006208Y001039*
X00622Y001026*
X006232Y001014*
X006246Y001002*
X00626Y000992*
X006275Y000983*
X00629Y000975*
X006306Y000968*
X006322Y000962*
X006339Y000957*
X006356Y000953*
X006373Y000951*
X006391Y00095*
X0064Y00095*
X006Y0012D02*
D01*
X006Y001172*
X006003Y001144*
X006008Y001116*
X006015Y001089*
X006024Y001063*
X006034Y001037*
X006046Y001012*
X00606Y000988*
X006076Y000964*
X006093Y000942*
X006112Y000922*
X006132Y000902*
X006153Y000884*
X006176Y000868*
X0062Y000853*
X006224Y00084*
X00625Y000829*
X006276Y000819*
X006303Y000811*
X00633Y000806*
X006358Y000802*
X006386Y0008*
X0064Y0008*
X00869Y001661D02*
D01*
X008656Y001686*
X00862Y00171*
X008584Y001731*
X008545Y001749*
X008506Y001765*
X008465Y001777*
X008424Y001787*
X008382Y001794*
X00834Y001798*
X0083Y0018*
D01*
X008258Y001798*
X008216Y001794*
X008175Y001786*
X008134Y001776*
X008094Y001763*
X008055Y001748*
X008018Y001729*
X007982Y001708*
X007947Y001685*
X007914Y001659*
X007901Y001648*
X0083Y0006D02*
D01*
X008342Y0006*
X008385Y000604*
X008427Y000611*
X008468Y00062*
X008509Y000633*
X008549Y000648*
X008588Y000666*
X008625Y000687*
X008661Y00071*
X008695Y000735*
X0087Y00074*
X007916Y00073D02*
D01*
X007949Y000705*
X007984Y000682*
X00802Y000662*
X008058Y000645*
X008097Y00063*
X008137Y000618*
X008177Y000609*
X008218Y000603*
X00826Y0006*
X0083Y0006*
X00855Y0012D02*
D01*
X008549Y001217*
X008547Y001234*
X008544Y001251*
X00854Y001268*
X008534Y001285*
X008528Y001301*
X00852Y001317*
X008512Y001332*
X008502Y001346*
X008491Y00136*
X008479Y001373*
X008467Y001385*
X008453Y001397*
X008439Y001407*
X008425Y001416*
X008409Y001424*
X008393Y001431*
X008377Y001437*
X00836Y001442*
X008343Y001446*
X008326Y001448*
X008308Y001449*
X0083Y00145*
X0087Y0012D02*
D01*
X008699Y001227*
X008696Y001255*
X008691Y001283*
X008684Y00131*
X008675Y001336*
X008665Y001362*
X008653Y001387*
X008639Y001411*
X008623Y001435*
X008606Y001457*
X008587Y001477*
X008567Y001497*
X008546Y001515*
X008523Y001531*
X0085Y001546*
X008475Y001559*
X008449Y00157*
X008423Y00158*
X008396Y001588*
X008369Y001593*
X008341Y001597*
X008313Y001599*
X0083Y0016*
X00805Y0012D02*
D01*
X00805Y001182*
X008052Y001165*
X008055Y001148*
X008059Y001131*
X008065Y001114*
X008071Y001098*
X008079Y001082*
X008087Y001067*
X008097Y001053*
X008108Y001039*
X00812Y001026*
X008132Y001014*
X008146Y001002*
X00816Y000992*
X008175Y000983*
X00819Y000975*
X008206Y000968*
X008222Y000962*
X008239Y000957*
X008256Y000953*
X008273Y000951*
X008291Y00095*
X0083Y00095*
X0079Y0012D02*
D01*
X0079Y001172*
X007903Y001144*
X007908Y001116*
X007915Y001089*
X007924Y001063*
X007934Y001037*
X007946Y001012*
X00796Y000988*
X007976Y000964*
X007993Y000942*
X008012Y000922*
X008032Y000902*
X008053Y000884*
X008076Y000868*
X0081Y000853*
X008124Y00084*
X00815Y000829*
X008176Y000819*
X008203Y000811*
X00823Y000806*
X008258Y000802*
X008286Y0008*
X0083Y0008*
X006389Y00403D02*
Y00481D01*
Y00501D02*
Y00579D01*
Y005994D02*
Y006774D01*
Y006983D02*
Y007764D01*
X00245Y006916D02*
Y007696D01*
Y005936D02*
Y006716D01*
Y004953D02*
Y005733D01*
Y003963D02*
Y004743D01*
X001Y000944D02*
Y001504D01*
X0005Y000944D02*
Y001504D01*
G54D14*
X00302Y00058D02*
D01*
X003061Y000617*
X003099Y000658*
X003135Y000701*
X003167Y000747*
X003196Y000795*
X003222Y000844*
X003244Y000896*
X003263Y000949*
X003278Y001003*
X003289Y001058*
X003296Y001113*
X003299Y001169*
X0033Y0012*
D01*
X003298Y001255*
X003292Y001311*
X003283Y001365*
X003269Y00142*
X003252Y001473*
X003232Y001524*
X003208Y001574*
X00318Y001623*
X003149Y001669*
X003115Y001713*
X003078Y001755*
X003038Y001794*
X002995Y001829*
X00295Y001862*
X002903Y001892*
X00288Y001906*
X0017Y0012D02*
D01*
X001701Y001143*
X001707Y001087*
X001716Y001031*
X001729Y000976*
X001747Y000922*
X001767Y00087*
X001792Y000819*
X00182Y00077*
X001851Y000722*
X001886Y000678*
X001923Y000635*
X001964Y000596*
X001983Y00058*
X002103Y001895D02*
D01*
X002055Y001865*
X00201Y001832*
X001967Y001797*
X001926Y001758*
X001889Y001717*
X001854Y001673*
X001823Y001627*
X001795Y001579*
X00177Y001528*
X001749Y001477*
X001731Y001424*
X001717Y00137*
X001707Y001315*
X001701Y001259*
X001699Y001203*
X0017Y0012*
X00497Y00058D02*
D01*
X005011Y000617*
X005049Y000658*
X005085Y000701*
X005117Y000747*
X005146Y000795*
X005172Y000844*
X005194Y000896*
X005213Y000949*
X005228Y001003*
X005239Y001058*
X005246Y001113*
X005249Y001169*
X00525Y0012*
D01*
X005248Y001255*
X005242Y001311*
X005233Y001365*
X005219Y00142*
X005202Y001473*
X005182Y001524*
X005158Y001574*
X00513Y001623*
X005099Y001669*
X005065Y001713*
X005028Y001755*
X004988Y001794*
X004945Y001829*
X0049Y001862*
X004853Y001892*
X00483Y001906*
X00365Y0012D02*
D01*
X003651Y001143*
X003657Y001087*
X003666Y001031*
X003679Y000976*
X003697Y000922*
X003717Y00087*
X003742Y000819*
X00377Y00077*
X003801Y000722*
X003836Y000678*
X003873Y000635*
X003914Y000596*
X003933Y00058*
X004053Y001895D02*
D01*
X004005Y001865*
X00396Y001832*
X003917Y001797*
X003876Y001758*
X003839Y001717*
X003804Y001673*
X003773Y001627*
X003745Y001579*
X00372Y001528*
X003699Y001477*
X003681Y001424*
X003667Y00137*
X003657Y001315*
X003651Y001259*
X003649Y001203*
X00365Y0012*
X00692Y00058D02*
D01*
X006961Y000617*
X006999Y000658*
X007035Y000701*
X007067Y000747*
X007096Y000795*
X007122Y000844*
X007144Y000896*
X007163Y000949*
X007178Y001003*
X007189Y001058*
X007196Y001113*
X007199Y001169*
X0072Y0012*
D01*
X007198Y001255*
X007192Y001311*
X007183Y001365*
X007169Y00142*
X007152Y001473*
X007132Y001524*
X007108Y001574*
X00708Y001623*
X007049Y001669*
X007015Y001713*
X006978Y001755*
X006938Y001794*
X006895Y001829*
X00685Y001862*
X006803Y001892*
X00678Y001906*
X0056Y0012D02*
D01*
X005601Y001143*
X005607Y001087*
X005616Y001031*
X005629Y000976*
X005647Y000922*
X005667Y00087*
X005692Y000819*
X00572Y00077*
X005751Y000722*
X005786Y000678*
X005823Y000635*
X005864Y000596*
X005883Y00058*
X006003Y001895D02*
D01*
X005955Y001865*
X00591Y001832*
X005867Y001797*
X005826Y001758*
X005789Y001717*
X005754Y001673*
X005723Y001627*
X005695Y001579*
X00567Y001528*
X005649Y001477*
X005631Y001424*
X005617Y00137*
X005607Y001315*
X005601Y001259*
X005599Y001203*
X0056Y0012*
X00882Y00058D02*
D01*
X008861Y000617*
X008899Y000658*
X008935Y000701*
X008967Y000747*
X008996Y000795*
X009022Y000844*
X009044Y000896*
X009063Y000949*
X009078Y001003*
X009089Y001058*
X009096Y001113*
X009099Y001169*
X0091Y0012*
D01*
X009098Y001255*
X009092Y001311*
X009083Y001365*
X009069Y00142*
X009052Y001473*
X009032Y001524*
X009008Y001574*
X00898Y001623*
X008949Y001669*
X008915Y001713*
X008878Y001755*
X008838Y001794*
X008795Y001829*
X00875Y001862*
X008703Y001892*
X00868Y001906*
X0075Y0012D02*
D01*
X007501Y001143*
X007507Y001087*
X007516Y001031*
X007529Y000976*
X007547Y000922*
X007567Y00087*
X007592Y000819*
X00762Y00077*
X007651Y000722*
X007686Y000678*
X007723Y000635*
X007764Y000596*
X007783Y00058*
X007903Y001895D02*
D01*
X007855Y001865*
X00781Y001832*
X007767Y001797*
X007726Y001758*
X007689Y001717*
X007654Y001673*
X007623Y001627*
X007595Y001579*
X00757Y001528*
X007549Y001477*
X007531Y001424*
X007517Y00137*
X007507Y001315*
X007501Y001259*
X007499Y001203*
X0075Y0012*
X0084Y00845D02*
X0083Y00855D01*
X0081*
X008Y00845*
Y00835*
X0081Y00825*
X0083*
X0084Y00815*
Y00805*
X0083Y00795*
X0081*
X008Y00805*
X0086Y00855D02*
Y00815D01*
X0088Y00795*
X009Y00815*
Y00855*
X009599Y00795D02*
X0092D01*
X009599Y00835*
Y00845*
X0095Y00855*
X0093*
X0092Y00845*
X0042Y008D02*
Y0086D01*
X0045*
X0046Y0085*
Y0083*
X0045Y0082*
X0042*
X0048Y008D02*
X005D01*
X0049*
Y0086*
X0048Y0085*
X00075Y00845D02*
X00065Y00855D01*
X00045*
X00035Y00845*
Y00835*
X00045Y00825*
X00065*
X00075Y00815*
Y00805*
X00065Y00795*
X00045*
X00035Y00805*
X00095Y00855D02*
Y00815D01*
X00115Y00795*
X00135Y00815*
Y00855*
X00155Y00795D02*
X00175D01*
X00165*
Y00855*
X00155Y00845*
X00175Y00314D02*
Y00254D01*
X00215*
X00275Y00314D02*
X00235D01*
Y00254*
X00275*
X00235Y00284D02*
X00255D01*
X00295Y00314D02*
Y00254D01*
X00325*
X003349Y00264*
Y00304*
X00325Y00314*
X00295*
X003549Y00254D02*
X003749D01*
X003649*
Y00314*
X003549Y00304*
X0037Y00314D02*
Y00254D01*
X0041*
X0047Y00314D02*
X0043D01*
Y00254*
X0047*
X0043Y00284D02*
X0045D01*
X0049Y00314D02*
Y00254D01*
X0052*
X005299Y00264*
Y00304*
X0052Y00314*
X0049*
X005899Y00254D02*
X005499D01*
X005899Y00294*
Y00304*
X005799Y00314*
X005599*
X005499Y00304*
X00575Y00305D02*
Y00245D01*
X00615*
X00675Y00305D02*
X00635D01*
Y00245*
X00675*
X00635Y00275D02*
X00655D01*
X00695Y00305D02*
Y00245D01*
X00725*
X007349Y00255*
Y00295*
X00725Y00305*
X00695*
X007549Y00295D02*
X007649Y00305D01*
X007849*
X007949Y00295*
Y00285*
X007849Y00275*
X007749*
X007849*
X007949Y00265*
Y00255*
X007849Y00245*
X007649*
X007549Y00255*
X00755Y00295D02*
Y00235D01*
X00795*
X00855Y00295D02*
X00815D01*
Y00235*
X00855*
X00815Y00265D02*
X00835D01*
X00875Y00295D02*
Y00235D01*
X00905*
X009149Y00245*
Y00285*
X00905Y00295*
X00875*
X009649Y00235D02*
Y00295D01*
X009349Y00265*
X009749*
X00288Y001904D02*
D01*
X002829Y001928*
X002778Y00195*
X002724Y001967*
X00267Y001981*
X002615Y001991*
X002559Y001997*
X002504Y001999*
X0025Y002*
D01*
X002444Y001998*
X002388Y001992*
X002333Y001982*
X002279Y001969*
X002226Y001951*
X002174Y00193*
X002124Y001906*
X002081Y001881*
X00483Y001904D02*
D01*
X004779Y001928*
X004728Y00195*
X004674Y001967*
X00462Y001981*
X004565Y001991*
X004509Y001997*
X004454Y001999*
X00445Y002*
D01*
X004394Y001998*
X004338Y001992*
X004283Y001982*
X004229Y001969*
X004176Y001951*
X004124Y00193*
X004074Y001906*
X004031Y001881*
X00678Y001904D02*
D01*
X006729Y001928*
X006678Y00195*
X006624Y001967*
X00657Y001981*
X006515Y001991*
X006459Y001997*
X006404Y001999*
X0064Y002*
D01*
X006344Y001998*
X006288Y001992*
X006233Y001982*
X006179Y001969*
X006126Y001951*
X006074Y00193*
X006024Y001906*
X005981Y001881*
X00868Y001904D02*
D01*
X008629Y001928*
X008578Y00195*
X008524Y001967*
X00847Y001981*
X008415Y001991*
X008359Y001997*
X008304Y001999*
X0083Y002*
D01*
X008244Y001998*
X008188Y001992*
X008133Y001982*
X008079Y001969*
X008026Y001951*
X007974Y00193*
X007924Y001906*
X007881Y001881*
X002Y00058D02*
X003D01*
X00395D02*
X00495D01*
X0059D02*
X0069D01*
X0078D02*
X0088D01*
G54D15*
X006264Y00442D03*
Y0054D03*
Y006394D03*
Y007374D03*
X002575Y007306D03*
Y006326D03*
Y005333D03*
Y004353D03*
G54D16*
X00075Y000884D03*
Y001564D03*
G54D17*
X00114Y000447D02*
Y002004D01*
X000363Y000447D02*
Y002004D01*
Y000447D02*
X00114D01*
X000363Y002004D02*
X00114D01*
G54D24*
X00989Y00442D02*
X01009D01*
X00989Y0054D02*
X01009D01*
X00989Y006394D02*
X01009D01*
X00989Y007376D02*
X01009D01*
X-001251Y007306D02*
X-001051D01*
X-001251Y006326D02*
X-001051D01*
X-001251Y005333D02*
X-001051D01*
X-001251Y00435D02*
X-001051D01*
G54D25*
X00345Y00385D02*
X00545D01*
Y00785*
X00345D02*
X00545D01*
X00345Y00385D02*
Y00785D01*
G54D26*
X00318Y00193D02*
Y00222D01*
X00302Y00208D02*
X00333D01*
X00513Y00193D02*
Y00222D01*
X00497Y00208D02*
X00528D01*
X00708Y00193D02*
Y00222D01*
X00692Y00208D02*
X00723D01*
X00898Y00193D02*
Y00222D01*
X00882Y00208D02*
X00913D01*
G54D27*
X005167Y00375D02*
X00525Y003667D01*
Y0035*
X005167Y003417*
X005083*
X005Y0035*
X004917Y003417*
X004833*
X00475Y0035*
Y003667*
X004833Y00375*
X004917*
X005Y003667*
X005083Y00375*
X005167*
X005Y003667D02*
Y0035D01*
X00375D02*
X00425D01*
X004Y00375*
Y003417*
X00375Y00815D02*
Y007983D01*
Y008067*
X00425*
X004167Y00815*
X00525Y008017D02*
Y00835D01*
X005*
X005083Y008183*
Y0081*
X005Y008017*
X004833*
X00475Y0081*
Y008267*
X004833Y00835*
G54D28*
X00864Y00442D03*
Y0054D03*
Y006394D03*
Y007374D03*
X0002Y007306D03*
Y006326D03*
Y005333D03*
Y004353D03*
M02*