%FSTAX24Y24*%
%MOIN*%
%SFA1B1*%

%IPPOS*%
%ADD11R,0.031800X0.007900*%
%ADD12R,0.047600X0.015900*%
%ADD13C,0.004000*%
%ADD14C,0.006000*%
%ADD15R,0.025000X0.024000*%
%ADD16R,0.057500X0.030000*%
%ADD17R,0.057500X0.029500*%
%ADD18R,0.056000X0.014000*%
%ADD19C,0.002000*%
%LNnode_simple-1*%
%LPD*%
G54D11*
X000549Y0048D03*
X009149Y0047D03*
Y00655D03*
G54D12*
X-002148Y001251D03*
G54D13*
X00081Y00465D02*
Y00494D01*
X00029Y00465D02*
Y00495D01*
X00941Y00455D02*
Y00484D01*
X00889Y00455D02*
Y00485D01*
X00941Y0064D02*
Y00669D01*
X00889Y0064D02*
Y0067D01*
G54D14*
X-0024Y00097D02*
Y00153D01*
X-0019Y00097D02*
Y00153D01*
G54D15*
X006264Y00442D03*
Y0054D03*
Y006394D03*
Y007374D03*
X002575Y007306D03*
Y006326D03*
Y005333D03*
Y004353D03*
G54D16*
X000547Y00451D03*
X009147Y00441D03*
Y00626D03*
G54D17*
X000547Y005082D03*
X009147Y004982D03*
Y006832D03*
G54D18*
X-00215Y00159D03*
Y00091D03*
G54D19*
X00016Y00402D02*
X000937D01*
X00016Y005577D02*
X000937D01*
Y00402D02*
Y005577D01*
X00016Y00402D02*
Y005577D01*
X00876Y00392D02*
X009537D01*
X00876Y005477D02*
X009537D01*
Y00392D02*
Y005477D01*
X00876Y00392D02*
Y005477D01*
Y00577D02*
X009537D01*
X00876Y007327D02*
X009537D01*
Y00577D02*
Y007327D01*
X00876Y00577D02*
Y007327D01*
X-002537Y00203D02*
X-00176D01*
X-002537Y000473D02*
X-00176D01*
X-002537D02*
Y00203D01*
X-00176Y000473D02*
Y00203D01*
M02*