%FSTAX24Y24*%
%MOIN*%
%SFA1B1*%

%IPPOS*%
%AMD32*
4,1,8,0.037000,-0.018500,0.037000,0.018500,0.018500,0.037000,-0.018500,0.037000,-0.037000,0.018500,-0.037000,-0.018500,-0.018500,-0.037000,0.018500,-0.037000,0.037000,-0.018500,0.0*
%
%ADD11R,0.047600X0.015900*%
%ADD12C,0.003900*%
%ADD13C,0.006000*%
%ADD14C,0.010000*%
%ADD15R,0.025000X0.024000*%
%ADD16R,0.056000X0.014000*%
%ADD17C,0.002000*%
%ADD29O,0.128000X0.068000*%
%ADD30R,0.067100X0.067100*%
%ADD31C,0.067100*%
G04~CAMADD=32~4~0.0~0.0~740.0~740.0~0.0~185.0~0~0.0~0.0~0.0~0.0~0~0.0~0.0~0.0~0.0~0~0.0~0.0~0.0~270.0~740.0~740.0*
%ADD32D32*%
%LNnode_simple-1*%
%LPD*%
G54D11*
X000752Y001225D03*
G54D12*
X001165Y005233D02*
X001735D01*
X001165Y004367D02*
X001735D01*
X001165D02*
Y005233D01*
X001735Y004367D02*
Y005233D01*
X007765Y005128D02*
X008335D01*
X007765Y004262D02*
X008335D01*
X007765D02*
Y005128D01*
X008335Y004262D02*
Y005128D01*
X007865Y006988D02*
X008435D01*
X007865Y006122D02*
X008435D01*
X007865D02*
Y006988D01*
X008435Y006122D02*
Y006988D01*
X001135Y005351D02*
X001765D01*
X001135Y004249D02*
X001765D01*
X001135D02*
Y005351D01*
X001765Y004249D02*
Y005351D01*
X00145Y004603D02*
Y004997D01*
X001253Y0048D02*
X001647D01*
X007735Y005246D02*
X008365D01*
X007735Y004144D02*
X008365D01*
X007735D02*
Y005246D01*
X008365Y004144D02*
Y005246D01*
X00805Y004498D02*
Y004892D01*
X007853Y004695D02*
X008247D01*
X007835Y007106D02*
X008465D01*
X007835Y006004D02*
X008465D01*
X007835D02*
Y007106D01*
X008465Y006004D02*
Y007106D01*
X00815Y006358D02*
Y006752D01*
X007953Y006555D02*
X008347D01*
G54D13*
X00289Y001661D02*
D01*
X002856Y001686*
X00282Y00171*
X002784Y001731*
X002745Y001749*
X002706Y001765*
X002665Y001777*
X002624Y001787*
X002582Y001794*
X00254Y001798*
X0025Y0018*
D01*
X002458Y001798*
X002416Y001794*
X002375Y001786*
X002334Y001776*
X002294Y001763*
X002255Y001748*
X002218Y001729*
X002182Y001708*
X002147Y001685*
X002114Y001659*
X002101Y001648*
X0025Y0006D02*
D01*
X002542Y0006*
X002585Y000604*
X002627Y000611*
X002668Y00062*
X002709Y000633*
X002749Y000648*
X002788Y000666*
X002825Y000687*
X002861Y00071*
X002895Y000735*
X0029Y00074*
X002116Y00073D02*
D01*
X002149Y000705*
X002184Y000682*
X00222Y000662*
X002258Y000645*
X002297Y00063*
X002337Y000618*
X002377Y000609*
X002418Y000603*
X00246Y0006*
X0025Y0006*
X00275Y0012D02*
D01*
X002749Y001217*
X002747Y001234*
X002744Y001251*
X00274Y001268*
X002734Y001285*
X002728Y001301*
X00272Y001317*
X002712Y001332*
X002702Y001346*
X002691Y00136*
X002679Y001373*
X002667Y001385*
X002653Y001397*
X002639Y001407*
X002625Y001416*
X002609Y001424*
X002593Y001431*
X002577Y001437*
X00256Y001442*
X002543Y001446*
X002526Y001448*
X002508Y001449*
X0025Y00145*
X0029Y0012D02*
D01*
X002899Y001227*
X002896Y001255*
X002891Y001283*
X002884Y00131*
X002875Y001336*
X002865Y001362*
X002853Y001387*
X002839Y001411*
X002823Y001435*
X002806Y001457*
X002787Y001477*
X002767Y001497*
X002746Y001515*
X002723Y001531*
X0027Y001546*
X002675Y001559*
X002649Y00157*
X002623Y00158*
X002596Y001588*
X002569Y001593*
X002541Y001597*
X002513Y001599*
X0025Y0016*
X00225Y0012D02*
D01*
X00225Y001182*
X002252Y001165*
X002255Y001148*
X002259Y001131*
X002265Y001114*
X002271Y001098*
X002279Y001082*
X002287Y001067*
X002297Y001053*
X002308Y001039*
X00232Y001026*
X002332Y001014*
X002346Y001002*
X00236Y000992*
X002375Y000983*
X00239Y000975*
X002406Y000968*
X002422Y000962*
X002439Y000957*
X002456Y000953*
X002473Y000951*
X002491Y00095*
X0025Y00095*
X0021Y0012D02*
D01*
X0021Y001172*
X002103Y001144*
X002108Y001116*
X002115Y001089*
X002124Y001063*
X002134Y001037*
X002146Y001012*
X00216Y000988*
X002176Y000964*
X002193Y000942*
X002212Y000922*
X002232Y000902*
X002253Y000884*
X002276Y000868*
X0023Y000853*
X002324Y00084*
X00235Y000829*
X002376Y000819*
X002403Y000811*
X00243Y000806*
X002458Y000802*
X002486Y0008*
X0025Y0008*
X00484Y001661D02*
D01*
X004806Y001686*
X00477Y00171*
X004734Y001731*
X004695Y001749*
X004656Y001765*
X004615Y001777*
X004574Y001787*
X004532Y001794*
X00449Y001798*
X00445Y0018*
D01*
X004408Y001798*
X004366Y001794*
X004325Y001786*
X004284Y001776*
X004244Y001763*
X004205Y001748*
X004168Y001729*
X004132Y001708*
X004097Y001685*
X004064Y001659*
X004051Y001648*
X00445Y0006D02*
D01*
X004492Y0006*
X004535Y000604*
X004577Y000611*
X004618Y00062*
X004659Y000633*
X004699Y000648*
X004738Y000666*
X004775Y000687*
X004811Y00071*
X004845Y000735*
X00485Y00074*
X004066Y00073D02*
D01*
X004099Y000705*
X004134Y000682*
X00417Y000662*
X004208Y000645*
X004247Y00063*
X004287Y000618*
X004327Y000609*
X004368Y000603*
X00441Y0006*
X00445Y0006*
X0047Y0012D02*
D01*
X004699Y001217*
X004697Y001234*
X004694Y001251*
X00469Y001268*
X004684Y001285*
X004678Y001301*
X00467Y001317*
X004662Y001332*
X004652Y001346*
X004641Y00136*
X004629Y001373*
X004617Y001385*
X004603Y001397*
X004589Y001407*
X004575Y001416*
X004559Y001424*
X004543Y001431*
X004527Y001437*
X00451Y001442*
X004493Y001446*
X004476Y001448*
X004458Y001449*
X00445Y00145*
X00485Y0012D02*
D01*
X004849Y001227*
X004846Y001255*
X004841Y001283*
X004834Y00131*
X004825Y001336*
X004815Y001362*
X004803Y001387*
X004789Y001411*
X004773Y001435*
X004756Y001457*
X004737Y001477*
X004717Y001497*
X004696Y001515*
X004673Y001531*
X00465Y001546*
X004625Y001559*
X004599Y00157*
X004573Y00158*
X004546Y001588*
X004519Y001593*
X004491Y001597*
X004463Y001599*
X00445Y0016*
X0042Y0012D02*
D01*
X0042Y001182*
X004202Y001165*
X004205Y001148*
X004209Y001131*
X004215Y001114*
X004221Y001098*
X004229Y001082*
X004237Y001067*
X004247Y001053*
X004258Y001039*
X00427Y001026*
X004282Y001014*
X004296Y001002*
X00431Y000992*
X004325Y000983*
X00434Y000975*
X004356Y000968*
X004372Y000962*
X004389Y000957*
X004406Y000953*
X004423Y000951*
X004441Y00095*
X00445Y00095*
X00405Y0012D02*
D01*
X00405Y001172*
X004053Y001144*
X004058Y001116*
X004065Y001089*
X004074Y001063*
X004084Y001037*
X004096Y001012*
X00411Y000988*
X004126Y000964*
X004143Y000942*
X004162Y000922*
X004182Y000902*
X004203Y000884*
X004226Y000868*
X00425Y000853*
X004274Y00084*
X0043Y000829*
X004326Y000819*
X004353Y000811*
X00438Y000806*
X004408Y000802*
X004436Y0008*
X00445Y0008*
X00679Y001661D02*
D01*
X006756Y001686*
X00672Y00171*
X006684Y001731*
X006645Y001749*
X006606Y001765*
X006565Y001777*
X006524Y001787*
X006482Y001794*
X00644Y001798*
X0064Y0018*
D01*
X006358Y001798*
X006316Y001794*
X006275Y001786*
X006234Y001776*
X006194Y001763*
X006155Y001748*
X006118Y001729*
X006082Y001708*
X006047Y001685*
X006014Y001659*
X006001Y001648*
X0064Y0006D02*
D01*
X006442Y0006*
X006485Y000604*
X006527Y000611*
X006568Y00062*
X006609Y000633*
X006649Y000648*
X006688Y000666*
X006725Y000687*
X006761Y00071*
X006795Y000735*
X0068Y00074*
X006016Y00073D02*
D01*
X006049Y000705*
X006084Y000682*
X00612Y000662*
X006158Y000645*
X006197Y00063*
X006237Y000618*
X006277Y000609*
X006318Y000603*
X00636Y0006*
X0064Y0006*
X00665Y0012D02*
D01*
X006649Y001217*
X006647Y001234*
X006644Y001251*
X00664Y001268*
X006634Y001285*
X006628Y001301*
X00662Y001317*
X006612Y001332*
X006602Y001346*
X006591Y00136*
X006579Y001373*
X006567Y001385*
X006553Y001397*
X006539Y001407*
X006525Y001416*
X006509Y001424*
X006493Y001431*
X006477Y001437*
X00646Y001442*
X006443Y001446*
X006426Y001448*
X006408Y001449*
X0064Y00145*
X0068Y0012D02*
D01*
X006799Y001227*
X006796Y001255*
X006791Y001283*
X006784Y00131*
X006775Y001336*
X006765Y001362*
X006753Y001387*
X006739Y001411*
X006723Y001435*
X006706Y001457*
X006687Y001477*
X006667Y001497*
X006646Y001515*
X006623Y001531*
X0066Y001546*
X006575Y001559*
X006549Y00157*
X006523Y00158*
X006496Y001588*
X006469Y001593*
X006441Y001597*
X006413Y001599*
X0064Y0016*
X00615Y0012D02*
D01*
X00615Y001182*
X006152Y001165*
X006155Y001148*
X006159Y001131*
X006165Y001114*
X006171Y001098*
X006179Y001082*
X006187Y001067*
X006197Y001053*
X006208Y001039*
X00622Y001026*
X006232Y001014*
X006246Y001002*
X00626Y000992*
X006275Y000983*
X00629Y000975*
X006306Y000968*
X006322Y000962*
X006339Y000957*
X006356Y000953*
X006373Y000951*
X006391Y00095*
X0064Y00095*
X006Y0012D02*
D01*
X006Y001172*
X006003Y001144*
X006008Y001116*
X006015Y001089*
X006024Y001063*
X006034Y001037*
X006046Y001012*
X00606Y000988*
X006076Y000964*
X006093Y000942*
X006112Y000922*
X006132Y000902*
X006153Y000884*
X006176Y000868*
X0062Y000853*
X006224Y00084*
X00625Y000829*
X006276Y000819*
X006303Y000811*
X00633Y000806*
X006358Y000802*
X006386Y0008*
X0064Y0008*
X00869Y001661D02*
D01*
X008656Y001686*
X00862Y00171*
X008584Y001731*
X008545Y001749*
X008506Y001765*
X008465Y001777*
X008424Y001787*
X008382Y001794*
X00834Y001798*
X0083Y0018*
D01*
X008258Y001798*
X008216Y001794*
X008175Y001786*
X008134Y001776*
X008094Y001763*
X008055Y001748*
X008018Y001729*
X007982Y001708*
X007947Y001685*
X007914Y001659*
X007901Y001648*
X0083Y0006D02*
D01*
X008342Y0006*
X008385Y000604*
X008427Y000611*
X008468Y00062*
X008509Y000633*
X008549Y000648*
X008588Y000666*
X008625Y000687*
X008661Y00071*
X008695Y000735*
X0087Y00074*
X007916Y00073D02*
D01*
X007949Y000705*
X007984Y000682*
X00802Y000662*
X008058Y000645*
X008097Y00063*
X008137Y000618*
X008177Y000609*
X008218Y000603*
X00826Y0006*
X0083Y0006*
X00855Y0012D02*
D01*
X008549Y001217*
X008547Y001234*
X008544Y001251*
X00854Y001268*
X008534Y001285*
X008528Y001301*
X00852Y001317*
X008512Y001332*
X008502Y001346*
X008491Y00136*
X008479Y001373*
X008467Y001385*
X008453Y001397*
X008439Y001407*
X008425Y001416*
X008409Y001424*
X008393Y001431*
X008377Y001437*
X00836Y001442*
X008343Y001446*
X008326Y001448*
X008308Y001449*
X0083Y00145*
X0087Y0012D02*
D01*
X008699Y001227*
X008696Y001255*
X008691Y001283*
X008684Y00131*
X008675Y001336*
X008665Y001362*
X008653Y001387*
X008639Y001411*
X008623Y001435*
X008606Y001457*
X008587Y001477*
X008567Y001497*
X008546Y001515*
X008523Y001531*
X0085Y001546*
X008475Y001559*
X008449Y00157*
X008423Y00158*
X008396Y001588*
X008369Y001593*
X008341Y001597*
X008313Y001599*
X0083Y0016*
X00805Y0012D02*
D01*
X00805Y001182*
X008052Y001165*
X008055Y001148*
X008059Y001131*
X008065Y001114*
X008071Y001098*
X008079Y001082*
X008087Y001067*
X008097Y001053*
X008108Y001039*
X00812Y001026*
X008132Y001014*
X008146Y001002*
X00816Y000992*
X008175Y000983*
X00819Y000975*
X008206Y000968*
X008222Y000962*
X008239Y000957*
X008256Y000953*
X008273Y000951*
X008291Y00095*
X0083Y00095*
X0079Y0012D02*
D01*
X0079Y001172*
X007903Y001144*
X007908Y001116*
X007915Y001089*
X007924Y001063*
X007934Y001037*
X007946Y001012*
X00796Y000988*
X007976Y000964*
X007993Y000942*
X008012Y000922*
X008032Y000902*
X008053Y000884*
X008076Y000868*
X0081Y000853*
X008124Y00084*
X00815Y000829*
X008176Y000819*
X008203Y000811*
X00823Y000806*
X008258Y000802*
X008286Y0008*
X0083Y0008*
X006389Y00403D02*
Y00481D01*
Y00501D02*
Y00579D01*
Y005994D02*
Y006774D01*
Y006983D02*
Y007764D01*
X00245Y006916D02*
Y007696D01*
Y005936D02*
Y006716D01*
Y004953D02*
Y005733D01*
Y003963D02*
Y004743D01*
X001Y000944D02*
Y001504D01*
X0005Y000944D02*
Y001504D01*
G54D14*
X00288Y001904D02*
D01*
X002829Y001928*
X002778Y00195*
X002724Y001967*
X00267Y001981*
X002615Y001991*
X002559Y001997*
X002504Y001999*
X0025Y002*
D01*
X002444Y001998*
X002388Y001992*
X002333Y001982*
X002279Y001969*
X002226Y001951*
X002174Y00193*
X002124Y001906*
X002081Y001881*
X00483Y001904D02*
D01*
X004779Y001928*
X004728Y00195*
X004674Y001967*
X00462Y001981*
X004565Y001991*
X004509Y001997*
X004454Y001999*
X00445Y002*
D01*
X004394Y001998*
X004338Y001992*
X004283Y001982*
X004229Y001969*
X004176Y001951*
X004124Y00193*
X004074Y001906*
X004031Y001881*
X00678Y001904D02*
D01*
X006729Y001928*
X006678Y00195*
X006624Y001967*
X00657Y001981*
X006515Y001991*
X006459Y001997*
X006404Y001999*
X0064Y002*
D01*
X006344Y001998*
X006288Y001992*
X006233Y001982*
X006179Y001969*
X006126Y001951*
X006074Y00193*
X006024Y001906*
X005981Y001881*
X00868Y001904D02*
D01*
X008629Y001928*
X008578Y00195*
X008524Y001967*
X00847Y001981*
X008415Y001991*
X008359Y001997*
X008304Y001999*
X0083Y002*
D01*
X008244Y001998*
X008188Y001992*
X008133Y001982*
X008079Y001969*
X008026Y001951*
X007974Y00193*
X007924Y001906*
X007881Y001881*
X002Y00058D02*
X003D01*
X00395D02*
X00495D01*
X0059D02*
X0069D01*
X0078D02*
X0088D01*
G54D15*
X006264Y00442D03*
Y0054D03*
Y006394D03*
Y007374D03*
X002575Y007306D03*
Y006326D03*
Y005333D03*
Y004353D03*
G54D16*
X00075Y000884D03*
Y001564D03*
G54D17*
X00114Y000447D02*
Y002004D01*
X000363Y000447D02*
Y002004D01*
Y000447D02*
X00114D01*
X000363Y002004D02*
X00114D01*
G54D29*
X006239Y006392D03*
Y007376D03*
Y0054D03*
Y00442D03*
X0026Y005334D03*
Y00435D03*
Y006326D03*
Y007306D03*
G54D30*
X00395Y00735D03*
G54D31*
X00395Y00635D03*
Y00535D03*
Y00435D03*
X00495Y00735D03*
Y00635D03*
Y00535D03*
Y00435D03*
G54D32*
X0025Y0017D03*
Y0007D03*
X00445Y0017D03*
Y0007D03*
X0064Y0017D03*
Y0007D03*
X0083Y0017D03*
Y0007D03*
M02*