%FSTAX24Y24*%
%MOIN*%
%SFA1B1*%

%IPPOS*%
%ADD11R,0.031800X0.007900*%
%ADD12R,0.047600X0.015900*%
%ADD13C,0.004000*%
%ADD14C,0.006000*%
%ADD15R,0.025000X0.024000*%
%ADD16R,0.057500X0.030000*%
%ADD17R,0.057500X0.029500*%
%ADD18R,0.056000X0.014000*%
%ADD19C,0.002000*%
%ADD26C,0.010000*%
%LNnode_simple-1*%
%LPD*%
G54D11*
X000549Y0048D03*
X009149Y0047D03*
Y00655D03*
G54D12*
X-002148Y001251D03*
G54D13*
X00081Y00465D02*
Y00494D01*
X00029Y00465D02*
Y00495D01*
X00941Y00455D02*
Y00484D01*
X00889Y00455D02*
Y00485D01*
X00941Y0064D02*
Y00669D01*
X00889Y0064D02*
Y0067D01*
G54D14*
X-0024Y00097D02*
Y00153D01*
X-0019Y00097D02*
Y00153D01*
G54D15*
X006264Y00442D03*
Y0054D03*
Y006394D03*
Y007374D03*
X002575Y007306D03*
Y006326D03*
Y005333D03*
Y004353D03*
G54D16*
X000547Y00451D03*
X009147Y00441D03*
Y00626D03*
G54D17*
X000547Y005082D03*
X009147Y004982D03*
Y006832D03*
G54D18*
X-00215Y00159D03*
Y00091D03*
G54D19*
X00016Y00402D02*
X000937D01*
X00016Y005577D02*
X000937D01*
Y00402D02*
Y005577D01*
X00016Y00402D02*
Y005577D01*
X00876Y00392D02*
X009537D01*
X00876Y005477D02*
X009537D01*
Y00392D02*
Y005477D01*
X00876Y00392D02*
Y005477D01*
Y00577D02*
X009537D01*
X00876Y007327D02*
X009537D01*
Y00577D02*
Y007327D01*
X00876Y00577D02*
Y007327D01*
X-002537Y00203D02*
X-00176D01*
X-002537Y000473D02*
X-00176D01*
X-002537D02*
Y00203D01*
X-00176Y000473D02*
Y00203D01*
G54D26*
X-00185Y002336D02*
Y002936D01*
X-00215*
X-00225Y002836*
Y002636*
X-00215Y002536*
X-00185*
X-00205D02*
X-00225Y002336D01*
X-00245D02*
X-00265D01*
X-00255*
Y002936*
X-00245Y002836*
X00038Y00617D02*
X00048Y00627D01*
X00068*
X00078Y00617*
Y00577*
X00068Y00567*
X00048*
X00038Y00577*
X00018Y00617D02*
X00008Y00627D01*
X-00012*
X-00022Y00617*
Y00607*
X-00012Y00597*
X-00002*
X-00012*
X-00022Y00587*
Y00577*
X-00012Y00567*
X00008*
X00018Y00577*
X00898Y006075D02*
X00908Y006175D01*
X00928*
X00938Y006075*
Y005675*
X00928Y005575*
X00908*
X00898Y005675*
X00838Y005575D02*
X00878D01*
X00838Y005975*
Y006075*
X00848Y006175*
X00868*
X00878Y006075*
X00898Y007925D02*
X00908Y008025D01*
X00928*
X00938Y007925*
Y007525*
X00928Y007425*
X00908*
X00898Y007525*
X00878Y007425D02*
X00858D01*
X00868*
Y008025*
X00878Y007925*
M02*