G75*
%MOIN*%
%OFA0B0*%
%FSLAX25Y25*%
%IPPOS*%
%LPD*%
%AMOC8*
5,1,8,0,0,1.08239X$1,22.5*
%
%ADD10C,0.13398*%
%ADD11R,0.06706X0.05918*%
%ADD12R,0.05524X0.02965*%
%ADD13R,0.04800X0.05800*%
%ADD14C,0.06800*%
%ADD15C,0.08800*%
%ADD16C,0.02800*%
%ADD17R,0.04800X0.04800*%
%ADD18R,0.10249X0.10249*%
%ADD19R,0.04369X0.04369*%
%ADD20R,0.03900X0.03900*%
%ADD21R,0.04762X0.04762*%
D10*
X0023167Y0009200D03*
X0043167Y0009200D03*
D11*
X0057667Y0023854D03*
X0057667Y0030546D03*
X0011667Y0038354D03*
X0011667Y0045046D03*
D12*
X0042049Y0046440D03*
X0042049Y0042700D03*
X0042049Y0038960D03*
X0052285Y0038960D03*
X0052285Y0042700D03*
X0052285Y0046440D03*
D13*
X0031167Y0045700D03*
X0031167Y0038200D03*
X0021167Y0038200D03*
X0021167Y0045700D03*
D14*
X0018403Y0029700D02*
X0018403Y0023700D01*
X0028245Y0023700D02*
X0028245Y0029700D01*
X0038088Y0029700D02*
X0038088Y0023700D01*
X0047930Y0023700D02*
X0047930Y0029700D01*
D15*
X0052667Y0065700D03*
X0010667Y0065700D03*
D16*
X0019667Y0059700D03*
X0022667Y0053700D03*
X0026667Y0059700D03*
X0029667Y0053700D03*
X0033667Y0059700D03*
X0036667Y0053700D03*
X0040667Y0059700D03*
X0043667Y0053700D03*
D17*
X0043667Y0053700D03*
X0040667Y0059700D03*
X0036667Y0053700D03*
X0033667Y0059700D03*
X0029667Y0053700D03*
X0026667Y0059700D03*
X0022667Y0053700D03*
X0019667Y0059700D03*
D18*
X0010667Y0065700D03*
X0052667Y0065700D03*
D19*
X0037667Y0042700D03*
D20*
X0052167Y0034700D03*
D21*
X0052667Y0053200D03*
M02*
