%FSTAX24Y24*%
%MOIN*%
%SFA1B1*%

%IPPOS*%
%AMD35*
4,1,8,-0.017500,-0.035000,0.017500,-0.035000,0.035000,-0.017500,0.035000,0.017500,0.017500,0.035000,-0.017500,0.035000,-0.035000,0.017500,-0.035000,-0.017500,-0.017500,-0.035000,0.0*
%
%AMD38*
4,1,8,0.018700,0.037500,-0.018700,0.037500,-0.037500,0.018700,-0.037500,-0.018700,-0.018700,-0.037500,0.018700,-0.037500,0.037500,-0.018700,0.037500,0.018700,0.018700,0.037500,0.0*
%
%AMD39*
4,1,8,-0.030000,0.015000,-0.030000,-0.015000,-0.015000,-0.030000,0.015000,-0.030000,0.030000,-0.015000,0.030000,0.015000,0.015000,0.030000,-0.015000,0.030000,-0.030000,0.015000,0.0*
%
%AMD41*
4,1,8,0.019000,0.038000,-0.019000,0.038000,-0.038000,0.019000,-0.038000,-0.019000,-0.019000,-0.038000,0.019000,-0.038000,0.038000,-0.019000,0.038000,0.019000,0.019000,0.038000,0.0*
%
%AMD42*
4,1,8,0.033000,-0.016500,0.033000,0.016500,0.016500,0.033000,-0.016500,0.033000,-0.033000,0.016500,-0.033000,-0.016500,-0.016500,-0.033000,0.016500,-0.033000,0.033000,-0.016500,0.0*
%
%ADD10R,0.044000X0.056000*%
%ADD11R,0.022000X0.048000*%
%ADD12R,0.056000X0.044000*%
%ADD16C,0.010000*%
%ADD17C,0.032000*%
%ADD18R,0.001000X0.129300*%
%ADD19R,0.001000X0.001000*%
%ADD20R,0.001000X0.017000*%
%ADD21R,0.001000X0.016400*%
%ADD22R,0.001000X0.016300*%
%ADD23R,0.001000X0.000900*%
%ADD24R,0.001300X0.001000*%
%ADD25R,0.001300X0.017000*%
%ADD26R,0.001300X0.016400*%
%ADD27R,0.001300X0.016300*%
%ADD28R,0.001300X0.000900*%
%ADD29R,0.000900X0.001000*%
%ADD30R,0.000900X0.017000*%
%ADD31R,0.000900X0.016400*%
%ADD32R,0.000900X0.016300*%
%ADD33R,0.000900X0.000900*%
%ADD34R,0.000900X0.129300*%
G04~CAMADD=35~4~0.0~0.0~700.0~700.0~0.0~175.0~0~0.0~0.0~0.0~0.0~0~0.0~0.0~0.0~0.0~0~0.0~0.0~0.0~180.0~700.0~700.0*
%ADD35D35*%
%ADD36C,0.070000*%
%ADD37C,0.075000*%
G04~CAMADD=38~4~0.0~0.0~750.0~750.0~0.0~187.5~0~0.0~0.0~0.0~0.0~0~0.0~0.0~0.0~0.0~0~0.0~0.0~0.0~0.0~750.0~750.0*
%ADD38D38*%
G04~CAMADD=39~4~0.0~0.0~600.0~600.0~0.0~150.0~0~0.0~0.0~0.0~0.0~0~0.0~0.0~0.0~0.0~0~0.0~0.0~0.0~90.0~600.0~600.0*
%ADD39D39*%
%ADD40C,0.060000*%
G04~CAMADD=41~4~0.0~0.0~760.0~760.0~0.0~190.0~0~0.0~0.0~0.0~0.0~0~0.0~0.0~0.0~0.0~0~0.0~0.0~0.0~0.0~760.0~760.0*
%ADD41D41*%
G04~CAMADD=42~4~0.0~0.0~660.0~660.0~0.0~165.0~0~0.0~0.0~0.0~0.0~0~0.0~0.0~0.0~0.0~0~0.0~0.0~0.0~270.0~660.0~660.0*
%ADD42D42*%
%ADD43C,0.074000*%
%ADD44C,0.067000*%
%ADD45C,0.059100*%
%ADD46R,0.059100X0.059100*%
%ADD47R,0.059100X0.059100*%
%ADD48C,0.050000*%
%ADD49R,0.039000X0.012000*%
%ADD50C,0.018000*%
%ADD51C,0.027000*%
%LNshield2gen-1*%
%LPD*%
G54D10*
X032056Y03195D03*
X03285D03*
X032056Y033D03*
X03285D03*
X03205Y03395D03*
X032844D03*
X03205Y03495D03*
X032844D03*
X03205Y03595D03*
X032844D03*
X03205Y03695D03*
X032844D03*
X032056Y03795D03*
X03285D03*
X032056Y03895D03*
X03285D03*
X025344Y0333D03*
X02455D03*
X025294Y0309D03*
X0245D03*
G54D11*
X036926Y037062D03*
X0373D03*
X03768D03*
Y03603D03*
X036926D03*
G54D12*
X0349Y024044D03*
Y02325D03*
G54D16*
X042Y01815D02*
X04215D01*
X03825Y0183D02*
X03925D01*
X03655Y02D02*
X03825Y0183D01*
X039083Y04D02*
X039483Y0396D01*
X03055Y04D02*
X039083D01*
X03045Y0401D02*
X03055Y04D01*
X04795Y0396D02*
X04845Y0401D01*
X039483Y0396D02*
X04795D01*
X029717Y03055D02*
X0299D01*
X03329Y02799D02*
X03394D01*
X037Y02435D02*
X0393D01*
X042387*
X0393Y02164D02*
Y02435D01*
X036926Y037334D02*
Y037874D01*
Y037062D02*
Y037334D01*
Y037874D02*
X03695Y03785D01*
X03705Y035314D02*
X0373Y035564D01*
X03705Y03525D02*
Y035314D01*
X0368Y035064D02*
X037018Y035282D01*
X036101Y035064D02*
X0368D01*
X0509Y03165D02*
X0514Y03115D01*
Y02935D02*
Y03115D01*
X0512Y02915D02*
X0514Y02935D01*
X042537Y0242D02*
X04705D01*
X042387Y02435D02*
X042537Y0242D01*
X04705D02*
X04765Y0248D01*
X03335Y0251D02*
X0338Y02555D01*
X04075Y02025D02*
X0409Y0201D01*
X04045Y02025D02*
X04075D01*
X0376Y035377D02*
X03796Y035737D01*
X036101Y034814D02*
X03666D01*
X0344Y03895D02*
Y03905D01*
X035166Y033016D02*
X03559D01*
X03777Y03959D02*
X03816Y0392D01*
X03776Y0396D02*
X03777Y03959D01*
X038Y035258D02*
X03816Y035418D01*
X03786Y035118D02*
X038Y035258D01*
X032056Y0386D02*
Y03865D01*
Y0384D02*
Y0386D01*
X0322Y03745D02*
X03533D01*
X032056D02*
X0322D01*
X032056D02*
Y037594D01*
Y037446D02*
Y03745D01*
X0381Y032248D02*
X0384D01*
X038D02*
X0381D01*
X03777Y03959D02*
X03921D01*
X02919D02*
X03777D01*
X031856Y0386D02*
X032056D01*
X03205Y03744D02*
Y037444D01*
X03095Y0367D02*
X03205D01*
X02919Y03959D02*
X0292Y0396D01*
X03085Y0366D02*
X03195D01*
X02677Y0236D02*
X03305D01*
X02455Y0321D02*
Y03215D01*
X0245Y03205D02*
Y0321D01*
Y0309D02*
Y03205D01*
X02577Y0246D02*
X02677Y0236D01*
X025294Y031224D02*
X026424D01*
X02705Y02339D02*
X02742Y02302D01*
X037099Y022471D02*
X03836Y02121D01*
X0364Y02317D02*
X037099Y022471D01*
X03594Y02363D02*
X0364Y02317D01*
X036727Y0221D02*
X037099Y022471D01*
X0364Y0221D02*
X036727D01*
X03426D02*
X0364D01*
X02852Y0206D02*
X02872D01*
X02883Y0326D02*
X0302D01*
X029667Y0306D02*
X029717Y03055D01*
X0474Y0296D02*
X04995D01*
X0413Y01845D02*
X04135Y0184D01*
X03852Y02977D02*
Y029848D01*
Y02977D02*
X03855Y0298D01*
X03564Y032D02*
X035888Y032248D01*
X0419Y02945D02*
X04258D01*
X03605Y0301D02*
X038Y02815D01*
X0341Y03895D02*
X0344D01*
Y03905D02*
X037802D01*
X03796Y035737D02*
Y038892D01*
X03285Y0226D02*
X03335Y0231D01*
X0264Y02339D02*
X02705D01*
X02598Y02297D02*
X0264Y02339D01*
X02598Y01984D02*
Y02297D01*
Y01984D02*
X0292Y01662D01*
X04987*
X05595Y0227*
X02638Y02274D02*
X02852Y0206D01*
X03436Y02363D02*
X03594D01*
X03389Y0241D02*
X03436Y02363D01*
X03335Y0241D02*
X03389D01*
X03836Y02121D02*
X03951D01*
X04165Y02335*
X0468*
X048Y02455*
X0551*
X05595Y0237*
X04573Y0326D02*
X0474D01*
X0406Y02815D02*
X0419Y02945D01*
X04765Y0248D02*
Y0252D01*
X04805Y0256*
X03394Y02799D02*
X03605Y0301D01*
X03097Y0356D02*
X03135Y03522D01*
X0286Y0356D02*
X03097D01*
X0384Y02965D02*
X03852Y02977D01*
X03762Y03119D02*
X03852Y03029D01*
X03564Y0316D02*
X03605Y03119D01*
X03564Y0316D02*
Y032D01*
X02805Y02815D02*
X02857Y02867D01*
Y03*
X02917Y0306*
X03022Y03033D02*
X03045Y0301D01*
X032056Y03795D02*
Y0384D01*
X02925Y0386D02*
X031856D01*
X02895Y0389D02*
X02925Y0386D01*
X02895Y03935D02*
X02919Y03959D01*
X03921D02*
X0432Y0356D01*
X0518*
X05525Y03215*
X0562*
X05645Y0319*
Y0262D02*
Y0319D01*
X05595Y0257D02*
X05645Y0262D01*
X031856Y0386D02*
X032056Y0384D01*
X02895Y0389D02*
Y03935D01*
X03816Y035418D02*
Y0392D01*
X038Y032348D02*
Y035258D01*
Y032348D02*
X0381Y032248D01*
X03205Y037444D02*
X032056Y03745D01*
X03533D02*
X03548Y0373D01*
X02455Y036D02*
X02518Y03663D01*
X02784Y03667D02*
X02857D01*
X02864Y0366*
X03195D02*
X03205Y0367D01*
Y03695*
X0245Y02587D02*
Y0309D01*
X03383Y0236D02*
X03418Y02325D01*
X0349*
X0245Y03205D02*
X02455Y0321D01*
X0341Y03195D02*
X035166Y033016D01*
X03645Y03166D02*
Y03456D01*
X03508Y03003D02*
Y03043D01*
X036694Y024044D02*
X037Y02435D01*
X02945Y0271D02*
X0299Y02755D01*
X0498*
X0509Y02865*
X02742Y02302D02*
X02784Y0226D01*
X03285*
X038Y02815D02*
X0406D01*
X0466Y0316D02*
X0471Y0321D01*
X04995Y0296D02*
X0504Y02915D01*
X0512*
X0499Y03165D02*
X0509Y03265D01*
X0499Y0308D02*
Y03165D01*
X03134Y02906D02*
Y03025D01*
X03099Y0306D02*
X03134Y03025D01*
X03015Y0306D02*
X03099D01*
X03Y03075D02*
X03015Y0306D01*
X02945Y0311D02*
X0298Y03075D01*
X03285Y03895D02*
X0341D01*
X035756Y034354D02*
Y035294D01*
X035556Y034184D02*
Y034494D01*
X0341Y03495D02*
X03526Y03379D01*
X036101*
X0341Y03395D02*
X03452Y03353D01*
X036101*
X03285Y033D02*
X03345D01*
X0335Y03295*
X0341*
X034422Y033272D02*
X036101D01*
X03285Y03195D02*
X0341D01*
X035Y03845D02*
X035911Y037539D01*
X02945Y0381D02*
X03045D01*
X03243Y03852D02*
Y03938D01*
X03701Y03885D02*
X03768Y03818D01*
Y037062D02*
Y03818D01*
X03285Y0256D02*
X03335Y0261D01*
X0349Y02325D02*
X03565D01*
X03205Y03495D02*
Y03595D01*
Y033636D02*
Y03395D01*
X032056Y033D02*
Y03363D01*
X02945Y0371D02*
X03045D01*
X03895Y032506D02*
X039144Y0327D01*
X0406Y0336D02*
X05295D01*
X0384Y032766D02*
X038766D01*
X025294Y0309D02*
Y031224D01*
X026424D02*
X0269Y0317D01*
X03114Y03083D02*
Y03241D01*
X03152Y03045D02*
X03453D01*
X03491Y03083D02*
X03732D01*
X03805Y0301*
X02945Y0331D02*
X02995Y0336D01*
X03145Y0318D02*
Y03281D01*
X03575Y03276D02*
X036101D01*
X02877Y02687D02*
Y02942D01*
X0373Y035564D02*
Y037062D01*
X0341Y03095D02*
X03459D01*
X036101Y032248D02*
Y032504D01*
X03901Y033326D02*
Y03442D01*
X0384Y033016D02*
X0387D01*
X02805Y03515D02*
X0286Y0346D01*
X0474Y0326D02*
X0476Y0324D01*
X02945Y0401D02*
X03045D01*
X04805Y0256D02*
X05155D01*
X0307Y0346D02*
X03125Y03405D01*
X0466Y0304D02*
X0474Y0296D01*
X0497Y0306D02*
X0499Y0308D01*
X0476Y0306D02*
X0497D01*
X0471Y0311D02*
X0476Y0306D01*
X03852Y029848D02*
Y03029D01*
Y029848D02*
X03855Y029818D01*
Y0298D02*
Y029818D01*
X03149Y0206D02*
X03249Y0216D01*
X02872Y0206D02*
X03149D01*
X0299Y03055D02*
X03012Y03033D01*
X02917Y0306D02*
X029667D01*
X0302Y0326D02*
X03045Y03235D01*
Y0321D02*
Y03235D01*
X0286Y0346D02*
X0307D01*
X02805Y03615D02*
X0286Y0356D01*
X03085Y0366D02*
X03095Y0367D01*
X02864Y0366D02*
X03085D01*
X04215Y01885D02*
X04245D01*
X03565Y02325D02*
X03595Y02295D01*
X03376Y0216D02*
X03426Y0221D01*
X032056Y03865D02*
Y03895D01*
Y037594D02*
Y03795D01*
X03205Y03595D02*
Y0367D01*
X03185Y0246D02*
X03285Y0256D01*
X03459Y03095D02*
X03564Y032D01*
X03581Y0343D02*
X036101D01*
X035756Y034354D02*
X03581Y0343D01*
X0341Y03695D02*
X035756Y035294D01*
X0341Y03295D02*
X034422Y033272D01*
X03559Y033016D02*
X036101D01*
X034524Y03195D02*
X03559Y033016D01*
X0341Y03195D02*
X034524D01*
X0349Y024044D02*
X036694D01*
X038766Y032766D02*
X0397Y0337D01*
X03249Y0216D02*
X03376D01*
X025944Y0327D02*
X0269D01*
X025344Y0333D02*
X025944Y0327D01*
X02455Y03215D02*
Y0333D01*
X0245Y0321D02*
X02455Y03215D01*
X04258Y02945D02*
X04573Y0326D01*
X0476Y0316D02*
Y0324D01*
X0471Y0311D02*
X0476Y0316D01*
X035888Y032248D02*
X036101D01*
X02995Y0336D02*
X03066D01*
X03145Y03281*
Y0318D02*
X0318Y03145D01*
X03444*
X03575Y03276*
X037802Y03905D02*
X03796Y038892D01*
X0376Y034874D02*
Y035377D01*
X037448Y034722D02*
X0376Y034874D01*
X036752Y034722D02*
X037448D01*
X03666Y034814D02*
X036752Y034722D01*
X03786Y032388D02*
X038Y032248D01*
X03786Y032388D02*
Y035118D01*
X0292Y0396D02*
X03776D01*
X036926Y03603D02*
Y036324D01*
X035911Y037339D02*
X036926Y036324D01*
X035911Y037339D02*
Y037539D01*
X032056Y037594D02*
X0322Y03745D01*
X0361Y03816D02*
X036926Y037334D01*
X03045Y0391D02*
X03073Y03938D01*
X03243*
Y03852D02*
X0325Y03845D01*
X0344*
X0348Y03885*
X03701*
X032Y0284D02*
X03345D01*
X03508Y03003*
X03285Y0238D02*
Y0256D01*
Y0238D02*
X03305Y0236D01*
X03383*
X03705Y0301D02*
X0375Y02965D01*
X0384*
X03605Y03119D02*
X03762D01*
X0387Y033016D02*
X03901Y033326D01*
X02805Y02615D02*
X02877Y02687D01*
Y02942D02*
X02945Y0301D01*
X0298Y03075D02*
X03D01*
X03134Y02906D02*
X032Y0284D01*
X03012Y03033D02*
X03022D01*
X0466Y0304D02*
Y0316D01*
X0397Y0327D02*
X0406Y0336D01*
X0278Y03663D02*
X02784Y03667D01*
X02518Y03663D02*
X0278D01*
X02455Y0333D02*
Y036D01*
X0245Y02587D02*
X02577Y0246D01*
X03185*
X0357Y03404D02*
X036101D01*
X035556Y034184D02*
X0357Y03404D01*
X0341Y03595D02*
X035556Y034494D01*
X03045Y0331D02*
X03114Y03241D01*
Y03083D02*
X03152Y03045D01*
X03453D02*
X03491Y03083D01*
X036101Y03456D02*
X03645D01*
X03205Y033636D02*
X032056Y03363D01*
X03285Y03795D02*
X0341D01*
X032844Y03695D02*
X0341D01*
X032844Y03595D02*
X0341D01*
X032844Y03495D02*
X0341D01*
X032844Y03395D02*
X0341D01*
X02945Y0391D02*
X03045D01*
X032056Y03195D02*
Y033D01*
X03205Y03744D02*
X032056Y037446D01*
X03205Y03695D02*
Y03744D01*
Y03395D02*
Y03495D01*
X039144Y0327D02*
X0397D01*
X0384Y032506D02*
X03895D01*
X04845Y0401D02*
X04945D01*
X02095Y0163D02*
Y04075D01*
Y0163D02*
X05705D01*
Y04075*
D01*
X02095D02*
X05705D01*
G54D17*
X04215Y01815D02*
X04285D01*
X0416D02*
X042D01*
X04105Y0172D02*
X042Y01815D01*
X03235Y0172D02*
X04105D01*
X03145Y0181D02*
X03235Y0172D01*
X03045Y0181D02*
X03145D01*
X0437Y0196D02*
X0452D01*
X0433Y0192D02*
X0437Y0196D01*
X0413Y0205D02*
Y02235D01*
Y01845D02*
Y0191D01*
X0409Y0201D02*
X0413Y0205D01*
X04135Y0184D02*
X0416Y01815D01*
X0409Y0195D02*
X0413Y0191D01*
X0433Y0186D02*
Y0192D01*
X04285Y01815D02*
X0433Y0186D01*
X0458Y0181D02*
Y019D01*
X0452Y0196D02*
X0458Y019D01*
X0409Y0195D02*
Y0201D01*
X02945Y0181D02*
X03045D01*
G54D18*
X022975Y032143D03*
G54D19*
X022985Y032785D03*
X022995D03*
X023005D03*
X023015D03*
X023025D03*
X023035D03*
X023045D03*
X023055D03*
X023065D03*
X023075D03*
X023085D03*
X023095D03*
X023105D03*
X023115D03*
X023125D03*
X023135D03*
X023145D03*
X023155D03*
X023165D03*
X023175D03*
X023185D03*
X023195D03*
X023205D03*
G54D20*
X022985Y032615D03*
X022995D03*
X023005D03*
X023015D03*
X023025D03*
X023035D03*
X023045D03*
X023055D03*
X023065D03*
X023075D03*
X023085D03*
X023095D03*
X023105D03*
X023115D03*
X023125D03*
X023135D03*
X023145D03*
X023155D03*
X023165D03*
X023175D03*
X023185D03*
X023195D03*
X023205D03*
G54D21*
X022985Y032138D03*
X022995D03*
X023005D03*
X023015D03*
X023025D03*
X023035D03*
X023045D03*
X023055D03*
X023065D03*
X023075D03*
X023085D03*
X023095D03*
X023105D03*
X023115D03*
X023125D03*
X023135D03*
X023145D03*
X023155D03*
X023165D03*
X023175D03*
X023185D03*
X023195D03*
X023205D03*
G54D22*
X022985Y031665D03*
X022995D03*
X023005D03*
X023015D03*
X023025D03*
X023035D03*
X023045D03*
X023055D03*
X023065D03*
X023075D03*
X023085D03*
X023095D03*
X023105D03*
X023115D03*
X023125D03*
X023135D03*
X023145D03*
X023155D03*
X023165D03*
X023175D03*
X023185D03*
X023195D03*
X023205D03*
G54D23*
X022985Y031501D03*
X022995D03*
X023005D03*
X023015D03*
X023025D03*
X023035D03*
X023045D03*
X023055D03*
X023065D03*
X023075D03*
X023085D03*
X023095D03*
X023105D03*
X023115D03*
X023125D03*
X023135D03*
X023145D03*
X023155D03*
X023165D03*
X023175D03*
X023185D03*
X023195D03*
X023205D03*
G54D24*
X023216Y032785D03*
G54D25*
X023216Y032615D03*
G54D26*
X023216Y032138D03*
G54D27*
X023216Y031665D03*
G54D28*
X023216Y031501D03*
G54D29*
X023227Y032785D03*
X023236D03*
X023244D03*
X023253D03*
X023262D03*
X02327D03*
X023279D03*
X023287D03*
X023296D03*
X023305D03*
X023313D03*
X023322D03*
X02333D03*
X023339D03*
X023348D03*
X023356D03*
X023365D03*
X023373D03*
X023382D03*
X023391D03*
X023399D03*
X023408D03*
X023416D03*
X023425D03*
X023434D03*
X023442D03*
X023451D03*
X023459D03*
G54D30*
X023227Y032615D03*
X023236D03*
X023244D03*
X023253D03*
X023262D03*
X02327D03*
X023279D03*
X023287D03*
X023296D03*
X023305D03*
X023313D03*
X023322D03*
X02333D03*
X023339D03*
X023348D03*
X023356D03*
X023365D03*
X023373D03*
X023382D03*
X023391D03*
X023399D03*
X023408D03*
X023416D03*
X023425D03*
X023434D03*
X023442D03*
X023451D03*
X023459D03*
G54D31*
X023227Y032138D03*
X023236D03*
X023244D03*
X023253D03*
X023262D03*
X02327D03*
X023279D03*
X023287D03*
X023296D03*
X023305D03*
X023313D03*
X023322D03*
X02333D03*
X023339D03*
X023348D03*
X023356D03*
X023365D03*
X023373D03*
X023382D03*
X023391D03*
X023399D03*
X023408D03*
X023416D03*
X023425D03*
X023434D03*
X023442D03*
X023451D03*
X023459D03*
G54D32*
X023227Y031665D03*
X023236D03*
X023244D03*
X023253D03*
X023262D03*
X02327D03*
X023279D03*
X023287D03*
X023296D03*
X023304D03*
X023313D03*
X023322D03*
X02333D03*
X023339D03*
X023347D03*
X023356D03*
X023365D03*
X023373D03*
X023382D03*
X023391D03*
X023399D03*
X023408D03*
X023416D03*
X023425D03*
X023433D03*
X023442D03*
X023451D03*
X023459D03*
G54D33*
X023227Y031501D03*
X023236D03*
X023244D03*
X023253D03*
X023262D03*
X02327D03*
X023279D03*
X023287D03*
X023296D03*
X023305D03*
X023313D03*
X023322D03*
X02333D03*
X023339D03*
X023348D03*
X023356D03*
X023365D03*
X023373D03*
X023382D03*
X023391D03*
X023399D03*
X023408D03*
X023416D03*
X023425D03*
X023434D03*
X023442D03*
X023451D03*
X023459D03*
G54D34*
X023468Y032143D03*
G54D35*
X0437Y0401D03*
Y0391D03*
Y0381D03*
Y0371D03*
Y0361D03*
Y0351D03*
Y0341D03*
Y0331D03*
X04215Y02585D03*
Y02485D03*
Y02385D03*
Y02285D03*
Y02185D03*
Y02085D03*
Y01985D03*
Y01885D03*
X05595Y0267D03*
Y0257D03*
Y0247D03*
Y0237D03*
Y0227D03*
Y0217D03*
Y0207D03*
Y0197D03*
Y0187D03*
Y0177D03*
X0471Y0401D03*
Y0391D03*
Y0381D03*
Y0371D03*
Y0361D03*
Y0351D03*
Y0341D03*
Y0331D03*
Y0321D03*
Y0311D03*
X0341Y02995D03*
Y03095D03*
Y03195D03*
Y03295D03*
Y03395D03*
Y03495D03*
Y03595D03*
Y03695D03*
Y03795D03*
Y03895D03*
X04655Y02135D03*
X03335Y0261D03*
Y0251D03*
Y0241D03*
Y0231D03*
Y0221D03*
Y0211D03*
Y0201D03*
Y0191D03*
X0509Y03265D03*
Y03165D03*
Y03065D03*
Y02965D03*
Y02865D03*
X0559D03*
Y02965D03*
Y03065D03*
Y03165D03*
Y03265D03*
G54D36*
X04555Y02135D03*
G54D37*
X045Y02525D03*
G54D38*
X047Y02525D03*
G54D39*
X02255Y03885D03*
X02355D03*
X02455D03*
X02555D03*
X02655D03*
X02755D03*
X04845Y0401D03*
X04945D03*
X04845Y0391D03*
X04945D03*
X04845Y0381D03*
X04945D03*
X04845Y0371D03*
X04945D03*
X04845Y0361D03*
X04945D03*
X04845Y0351D03*
X04945D03*
X04845Y0341D03*
X04945D03*
X04845Y0331D03*
X04945D03*
X04845Y0321D03*
X04945D03*
X04845Y0311D03*
X04945D03*
X04845Y0301D03*
X04945D03*
X04845Y0291D03*
X04945D03*
X04845Y0281D03*
X04945D03*
X04845Y0271D03*
X04945D03*
X04845Y0261D03*
X04945D03*
X04845Y0251D03*
X04945D03*
X04845Y0241D03*
X04945D03*
X04845Y0231D03*
X04945D03*
X04845Y0221D03*
X04945D03*
X04845Y0211D03*
X04945D03*
X02945Y0401D03*
X03045D03*
X02945Y0391D03*
X03045D03*
X02945Y0381D03*
X03045D03*
X02945Y0371D03*
X03045D03*
X02945Y0361D03*
X03045D03*
X02945Y0351D03*
X03045D03*
X02945Y0341D03*
X03045D03*
X02945Y0331D03*
X03045D03*
X02945Y0321D03*
X03045D03*
X02945Y0311D03*
X03045D03*
X02945Y0301D03*
X03045D03*
X02945Y0291D03*
X03045D03*
X02945Y0281D03*
X03045D03*
X02945Y0271D03*
X03045D03*
X02945Y0261D03*
X03045D03*
X02945Y0251D03*
X03045D03*
X02945Y0241D03*
X03045D03*
X02945Y0231D03*
X03045D03*
X02945Y0221D03*
X03045D03*
X02945Y0211D03*
X03045D03*
G54D40*
X03605Y0301D03*
X03705D03*
X03805D03*
G54D41*
X03905Y0301D03*
G54D42*
X04845Y0201D03*
X04945D03*
X04845Y0191D03*
X04945D03*
X04845Y0181D03*
X04945D03*
X04845Y0171D03*
X04945D03*
X02945Y0201D03*
X03045D03*
X02945Y0191D03*
X03045D03*
X02945Y0181D03*
X03045D03*
X02945Y0171D03*
X03045D03*
G54D43*
X02805Y03215D03*
Y03315D03*
Y03415D03*
Y03515D03*
Y03615D03*
X02205D03*
Y03515D03*
Y03415D03*
Y03315D03*
Y03215D03*
X0269Y0327D03*
X02255Y03715D03*
X02355D03*
X02455D03*
X02555D03*
X02655D03*
X02755D03*
X02805Y02515D03*
Y02615D03*
Y02715D03*
Y02815D03*
Y02915D03*
Y03015D03*
Y03115D03*
X02205D03*
Y03015D03*
Y02915D03*
Y02815D03*
Y02715D03*
Y02615D03*
Y02515D03*
X0269Y0317D03*
Y0286D03*
Y0276D03*
G54D44*
X044421Y0181D03*
X0458D03*
G54D45*
X0397Y0327D03*
X04365Y0284D03*
X0323Y0294D03*
G54D46*
X0397Y0337D03*
X0323Y0284D03*
G54D47*
X04465Y0284D03*
G54D48*
X03925Y0183D03*
X03329Y02799D03*
X0393Y02435D03*
X02883Y0326D03*
X036926Y037874D03*
X03705Y03525D03*
X03135Y03522D03*
X04045Y02025D03*
X03655Y02D03*
X02638Y02274D03*
X0413Y02235D03*
X0393Y02164D03*
X0361Y03816D03*
X03901Y03442D03*
X03548Y0373D03*
X03645Y03166D03*
X03508Y03043D03*
X02742Y02302D03*
X0406Y02815D03*
X035Y03845D03*
X03595Y02295D03*
X03125Y03405D03*
G54D49*
X038399Y033795D03*
Y034055D03*
Y034315D03*
Y034577D03*
X038396Y034841D03*
X038397Y035099D03*
X036101Y035064D03*
Y034814D03*
Y032248D03*
Y032504D03*
Y03276D03*
Y033016D03*
Y033272D03*
Y03353D03*
Y03379D03*
Y03404D03*
X0384Y033016D03*
Y032766D03*
Y032506D03*
Y032248D03*
X036101Y0343D03*
Y03456D03*
X0384Y033276D03*
Y033536D03*
G54D50*
X0463Y02455D02*
X047Y02525D01*
X04409Y02455D02*
X0463D01*
X0436Y02504D02*
X04409Y02455D01*
X0425Y02675D02*
X0436Y02565D01*
Y02504D02*
Y02565D01*
X039Y02675D02*
X0425D01*
X0378Y02555D02*
X039Y02675D01*
X0338Y02555D02*
X0378D01*
G54D51*
X05295Y0336D02*
X0559Y03065D01*
X05425Y02965D02*
X0559D01*
X0532Y0286D02*
X05425Y02965D01*
X0532Y02725D02*
Y0286D01*
X05155Y0256D02*
X0532Y02725D01*
M02*