%FSTAX24Y24*%
%MOIN*%
%SFA1B1*%

%IPPOS*%
%ADD16C,0.010000*%
%ADD18R,0.001000X0.129300*%
%ADD19R,0.001000X0.001000*%
%ADD20R,0.001000X0.017000*%
%ADD21R,0.001000X0.016400*%
%ADD22R,0.001000X0.016300*%
%ADD23R,0.001000X0.000900*%
%ADD24R,0.001300X0.001000*%
%ADD25R,0.001300X0.017000*%
%ADD26R,0.001300X0.016400*%
%ADD27R,0.001300X0.016300*%
%ADD28R,0.001300X0.000900*%
%ADD29R,0.000900X0.001000*%
%ADD30R,0.000900X0.017000*%
%ADD31R,0.000900X0.016400*%
%ADD32R,0.000900X0.016300*%
%ADD33R,0.000900X0.000900*%
%ADD34R,0.000900X0.129300*%
%LNshield2gen-1*%
%LPD*%
G54D16*
X02095Y0163D02*
Y04075D01*
Y0163D02*
X05705D01*
Y04075*
D01*
X02095D02*
X05705D01*
G54D18*
X022975Y032143D03*
G54D19*
X022985Y032785D03*
X022995D03*
X023005D03*
X023015D03*
X023025D03*
X023035D03*
X023045D03*
X023055D03*
X023065D03*
X023075D03*
X023085D03*
X023095D03*
X023105D03*
X023115D03*
X023125D03*
X023135D03*
X023145D03*
X023155D03*
X023165D03*
X023175D03*
X023185D03*
X023195D03*
X023205D03*
G54D20*
X022985Y032615D03*
X022995D03*
X023005D03*
X023015D03*
X023025D03*
X023035D03*
X023045D03*
X023055D03*
X023065D03*
X023075D03*
X023085D03*
X023095D03*
X023105D03*
X023115D03*
X023125D03*
X023135D03*
X023145D03*
X023155D03*
X023165D03*
X023175D03*
X023185D03*
X023195D03*
X023205D03*
G54D21*
X022985Y032138D03*
X022995D03*
X023005D03*
X023015D03*
X023025D03*
X023035D03*
X023045D03*
X023055D03*
X023065D03*
X023075D03*
X023085D03*
X023095D03*
X023105D03*
X023115D03*
X023125D03*
X023135D03*
X023145D03*
X023155D03*
X023165D03*
X023175D03*
X023185D03*
X023195D03*
X023205D03*
G54D22*
X022985Y031665D03*
X022995D03*
X023005D03*
X023015D03*
X023025D03*
X023035D03*
X023045D03*
X023055D03*
X023065D03*
X023075D03*
X023085D03*
X023095D03*
X023105D03*
X023115D03*
X023125D03*
X023135D03*
X023145D03*
X023155D03*
X023165D03*
X023175D03*
X023185D03*
X023195D03*
X023205D03*
G54D23*
X022985Y031501D03*
X022995D03*
X023005D03*
X023015D03*
X023025D03*
X023035D03*
X023045D03*
X023055D03*
X023065D03*
X023075D03*
X023085D03*
X023095D03*
X023105D03*
X023115D03*
X023125D03*
X023135D03*
X023145D03*
X023155D03*
X023165D03*
X023175D03*
X023185D03*
X023195D03*
X023205D03*
G54D24*
X023216Y032785D03*
G54D25*
X023216Y032615D03*
G54D26*
X023216Y032138D03*
G54D27*
X023216Y031665D03*
G54D28*
X023216Y031501D03*
G54D29*
X023227Y032785D03*
X023236D03*
X023244D03*
X023253D03*
X023262D03*
X02327D03*
X023279D03*
X023287D03*
X023296D03*
X023305D03*
X023313D03*
X023322D03*
X02333D03*
X023339D03*
X023348D03*
X023356D03*
X023365D03*
X023373D03*
X023382D03*
X023391D03*
X023399D03*
X023408D03*
X023416D03*
X023425D03*
X023434D03*
X023442D03*
X023451D03*
X023459D03*
G54D30*
X023227Y032615D03*
X023236D03*
X023244D03*
X023253D03*
X023262D03*
X02327D03*
X023279D03*
X023287D03*
X023296D03*
X023305D03*
X023313D03*
X023322D03*
X02333D03*
X023339D03*
X023348D03*
X023356D03*
X023365D03*
X023373D03*
X023382D03*
X023391D03*
X023399D03*
X023408D03*
X023416D03*
X023425D03*
X023434D03*
X023442D03*
X023451D03*
X023459D03*
G54D31*
X023227Y032138D03*
X023236D03*
X023244D03*
X023253D03*
X023262D03*
X02327D03*
X023279D03*
X023287D03*
X023296D03*
X023305D03*
X023313D03*
X023322D03*
X02333D03*
X023339D03*
X023348D03*
X023356D03*
X023365D03*
X023373D03*
X023382D03*
X023391D03*
X023399D03*
X023408D03*
X023416D03*
X023425D03*
X023434D03*
X023442D03*
X023451D03*
X023459D03*
G54D32*
X023227Y031665D03*
X023236D03*
X023244D03*
X023253D03*
X023262D03*
X02327D03*
X023279D03*
X023287D03*
X023296D03*
X023304D03*
X023313D03*
X023322D03*
X02333D03*
X023339D03*
X023347D03*
X023356D03*
X023365D03*
X023373D03*
X023382D03*
X023391D03*
X023399D03*
X023408D03*
X023416D03*
X023425D03*
X023433D03*
X023442D03*
X023451D03*
X023459D03*
G54D33*
X023227Y031501D03*
X023236D03*
X023244D03*
X023253D03*
X023262D03*
X02327D03*
X023279D03*
X023287D03*
X023296D03*
X023305D03*
X023313D03*
X023322D03*
X02333D03*
X023339D03*
X023348D03*
X023356D03*
X023365D03*
X023373D03*
X023382D03*
X023391D03*
X023399D03*
X023408D03*
X023416D03*
X023425D03*
X023434D03*
X023442D03*
X023451D03*
X023459D03*
G54D34*
X023468Y032143D03*
M02*