%FSTAX24Y24*%
%MOIN*%
%SFA1B1*%

%IPPOS*%
%ADD16C,0.010000*%
%ADD18R,0.001000X0.129300*%
%ADD19R,0.001000X0.001000*%
%ADD20R,0.001000X0.017000*%
%ADD21R,0.001000X0.016400*%
%ADD22R,0.001000X0.016300*%
%ADD23R,0.001000X0.000900*%
%ADD24R,0.001300X0.001000*%
%ADD25R,0.001300X0.017000*%
%ADD26R,0.001300X0.016400*%
%ADD27R,0.001300X0.016300*%
%ADD28R,0.001300X0.000900*%
%ADD29R,0.000900X0.001000*%
%ADD30R,0.000900X0.017000*%
%ADD31R,0.000900X0.016400*%
%ADD32R,0.000900X0.016300*%
%ADD33R,0.000900X0.000900*%
%ADD34R,0.000900X0.129300*%
%ADD52C,0.006000*%
%ADD53C,0.004000*%
%ADD89C,0.003000*%
%ADD90R,0.019700X0.025600*%
%ADD91R,0.019800X0.025600*%
%ADD92R,0.020000X0.025600*%
%ADD93R,0.020000X0.026000*%
%ADD94R,0.019700X0.026000*%
%ADD95R,0.033000X0.008000*%
%ADD96R,0.020000X0.020000*%
%ADD97R,0.030000X0.057500*%
%ADD98R,0.029500X0.057500*%
%ADD99R,0.020000X0.100000*%
%ADD100R,0.019700X0.025600*%
%ADD101R,0.019800X0.025600*%
%LNshield2gen-1*%
%LPD*%
G54D16*
X02095Y0163D02*
Y04075D01*
Y0163D02*
X05705D01*
Y04075*
D01*
X02095D02*
X05705D01*
G54D18*
X022975Y032143D03*
G54D19*
X022985Y032785D03*
X022995D03*
X023005D03*
X023015D03*
X023025D03*
X023035D03*
X023045D03*
X023055D03*
X023065D03*
X023075D03*
X023085D03*
X023095D03*
X023105D03*
X023115D03*
X023125D03*
X023135D03*
X023145D03*
X023155D03*
X023165D03*
X023175D03*
X023185D03*
X023195D03*
X023205D03*
G54D20*
X022985Y032615D03*
X022995D03*
X023005D03*
X023015D03*
X023025D03*
X023035D03*
X023045D03*
X023055D03*
X023065D03*
X023075D03*
X023085D03*
X023095D03*
X023105D03*
X023115D03*
X023125D03*
X023135D03*
X023145D03*
X023155D03*
X023165D03*
X023175D03*
X023185D03*
X023195D03*
X023205D03*
G54D21*
X022985Y032138D03*
X022995D03*
X023005D03*
X023015D03*
X023025D03*
X023035D03*
X023045D03*
X023055D03*
X023065D03*
X023075D03*
X023085D03*
X023095D03*
X023105D03*
X023115D03*
X023125D03*
X023135D03*
X023145D03*
X023155D03*
X023165D03*
X023175D03*
X023185D03*
X023195D03*
X023205D03*
G54D22*
X022985Y031665D03*
X022995D03*
X023005D03*
X023015D03*
X023025D03*
X023035D03*
X023045D03*
X023055D03*
X023065D03*
X023075D03*
X023085D03*
X023095D03*
X023105D03*
X023115D03*
X023125D03*
X023135D03*
X023145D03*
X023155D03*
X023165D03*
X023175D03*
X023185D03*
X023195D03*
X023205D03*
G54D23*
X022985Y031501D03*
X022995D03*
X023005D03*
X023015D03*
X023025D03*
X023035D03*
X023045D03*
X023055D03*
X023065D03*
X023075D03*
X023085D03*
X023095D03*
X023105D03*
X023115D03*
X023125D03*
X023135D03*
X023145D03*
X023155D03*
X023165D03*
X023175D03*
X023185D03*
X023195D03*
X023205D03*
G54D24*
X023216Y032785D03*
G54D25*
X023216Y032615D03*
G54D26*
X023216Y032138D03*
G54D27*
X023216Y031665D03*
G54D28*
X023216Y031501D03*
G54D29*
X023227Y032785D03*
X023236D03*
X023244D03*
X023253D03*
X023262D03*
X02327D03*
X023279D03*
X023287D03*
X023296D03*
X023305D03*
X023313D03*
X023322D03*
X02333D03*
X023339D03*
X023348D03*
X023356D03*
X023365D03*
X023373D03*
X023382D03*
X023391D03*
X023399D03*
X023408D03*
X023416D03*
X023425D03*
X023434D03*
X023442D03*
X023451D03*
X023459D03*
G54D30*
X023227Y032615D03*
X023236D03*
X023244D03*
X023253D03*
X023262D03*
X02327D03*
X023279D03*
X023287D03*
X023296D03*
X023305D03*
X023313D03*
X023322D03*
X02333D03*
X023339D03*
X023348D03*
X023356D03*
X023365D03*
X023373D03*
X023382D03*
X023391D03*
X023399D03*
X023408D03*
X023416D03*
X023425D03*
X023434D03*
X023442D03*
X023451D03*
X023459D03*
G54D31*
X023227Y032138D03*
X023236D03*
X023244D03*
X023253D03*
X023262D03*
X02327D03*
X023279D03*
X023287D03*
X023296D03*
X023305D03*
X023313D03*
X023322D03*
X02333D03*
X023339D03*
X023348D03*
X023356D03*
X023365D03*
X023373D03*
X023382D03*
X023391D03*
X023399D03*
X023408D03*
X023416D03*
X023425D03*
X023434D03*
X023442D03*
X023451D03*
X023459D03*
G54D32*
X023227Y031665D03*
X023236D03*
X023244D03*
X023253D03*
X023262D03*
X02327D03*
X023279D03*
X023287D03*
X023296D03*
X023304D03*
X023313D03*
X023322D03*
X02333D03*
X023339D03*
X023347D03*
X023356D03*
X023365D03*
X023373D03*
X023382D03*
X023391D03*
X023399D03*
X023408D03*
X023416D03*
X023425D03*
X023433D03*
X023442D03*
X023451D03*
X023459D03*
G54D33*
X023227Y031501D03*
X023236D03*
X023244D03*
X023253D03*
X023262D03*
X02327D03*
X023279D03*
X023287D03*
X023296D03*
X023305D03*
X023313D03*
X023322D03*
X02333D03*
X023339D03*
X023348D03*
X023356D03*
X023365D03*
X023373D03*
X023382D03*
X023391D03*
X023399D03*
X023408D03*
X023416D03*
X023425D03*
X023434D03*
X023442D03*
X023451D03*
X023459D03*
G54D34*
X023468Y032143D03*
G54D52*
X04487Y02579D02*
D01*
X044835Y025709*
X044806Y025626*
X044783Y025542*
X044765Y025456*
X044754Y025369*
X044749Y025281*
X04475Y025193*
X044758Y025106*
X044771Y025019*
X04479Y024934*
X044815Y02485*
X044846Y024768*
X04487Y024716*
X04713D02*
D01*
X047164Y024796*
X047193Y024879*
X047216Y024963*
X047234Y025049*
X047245Y025136*
X04725Y025224*
X047249Y025312*
X047241Y025399*
X047228Y025486*
X047209Y025571*
X047184Y025655*
X047153Y025737*
X04713Y02579*
X03383Y0398D02*
X034161D01*
X03383Y0403D02*
X034161D01*
X03674Y039081D02*
X03786D01*
X03674Y03972D02*
X03786D01*
X036351Y032154D02*
Y035215D01*
X03815Y032154D02*
Y035215D01*
X0357Y020889D02*
Y02122D01*
X0362Y020889D02*
Y02122D01*
X045032Y03985D02*
X045364D01*
X045032Y04035D02*
X045364D01*
X045032Y03885D02*
X045364D01*
X045032Y03935D02*
X045364D01*
X045032Y03785D02*
X045364D01*
X045032Y03835D02*
X045364D01*
X045039Y03685D02*
X04537D01*
X045039Y03735D02*
X04537D01*
X044989Y03585D02*
X04532D01*
X044989Y03635D02*
X04532D01*
X045039Y03485D02*
X04537D01*
X045039Y03535D02*
X04537D01*
X044989Y03385D02*
X04532D01*
X044989Y03435D02*
X04532D01*
X044982Y03285D02*
X045314D01*
X044982Y03335D02*
X045314D01*
X0454Y02135D02*
X04575D01*
Y02085D02*
Y02135D01*
Y02085D02*
X04595D01*
Y02185*
X04575D02*
X04595D01*
X04575Y02135D02*
Y02185D01*
X0463Y02135D02*
X0467D01*
X03674Y036869D02*
X03786D01*
X03674Y03623D02*
X03786D01*
X032289Y0317D02*
X03262D01*
X032289Y0322D02*
X03262D01*
X03465Y02348D02*
Y023811D01*
X03515Y02348D02*
Y023811D01*
X032289Y03275D02*
X03262D01*
X032289Y03325D02*
X03262D01*
X032282Y0337D02*
X032614D01*
X032282Y0342D02*
X032614D01*
X032282Y0347D02*
X032614D01*
X032282Y0352D02*
X032614D01*
X032282Y0357D02*
X032614D01*
X032282Y0362D02*
X032614D01*
X032282Y0367D02*
X032614D01*
X032282Y0372D02*
X032614D01*
X032289Y0377D02*
X03262D01*
X032289Y0382D02*
X03262D01*
X032289Y0387D02*
X03262D01*
X032289Y0392D02*
X03262D01*
X02478Y03355D02*
X025111D01*
X02478Y03305D02*
X025111D01*
X02473Y03115D02*
X025061D01*
X02473Y03065D02*
X025061D01*
X033539Y0183D02*
X03387D01*
X033539Y0178D02*
X03387D01*
X041539Y03215D02*
X04187D01*
X041539Y03165D02*
X04187D01*
X04155Y02993D02*
Y030261D01*
X04105Y02993D02*
Y030261D01*
G54D53*
X0421Y04036D02*
X04239D01*
X0421Y03984D02*
X0424D01*
X042115Y03936D02*
X042406D01*
X042115Y03884D02*
X042415D01*
X042115Y03836D02*
X042406D01*
X042115Y03784D02*
X042415D01*
X042115Y03736D02*
X042406D01*
X042115Y03684D02*
X042415D01*
X0421Y036367D02*
X04239D01*
X0421Y035847D02*
X0424D01*
X042115Y03536D02*
X042406D01*
X042115Y03484D02*
X042415D01*
X042115Y03436D02*
X042406D01*
X042115Y03384D02*
X042415D01*
X042115Y03336D02*
X042406D01*
X042115Y03284D02*
X042415D01*
X043946Y01782D02*
X044701Y018579D01*
X044141Y017625D02*
X044893Y018379D01*
X04533Y01782D02*
X04608Y018579D01*
X04552Y017625D02*
X04628Y018379D01*
G54D89*
X02765Y02485D02*
Y03615D01*
X0229Y02485D02*
Y03615D01*
G54D90*
X036926Y038937D03*
G54D91*
X037301Y038937D03*
G54D92*
X03768Y038937D03*
Y037013D03*
G54D93*
X03768Y03987D03*
Y03608D03*
G54D94*
X036926Y03987D03*
Y03608D03*
G54D95*
X038314Y033795D03*
Y034055D03*
Y034315D03*
Y034565D03*
X038368Y034842D03*
X038333Y035074D03*
X036186Y035064D03*
Y034814D03*
Y032248D03*
Y032504D03*
Y03276D03*
Y033016D03*
Y033272D03*
Y03353D03*
Y03379D03*
Y03404D03*
X038315Y033016D03*
Y032766D03*
Y032506D03*
Y032248D03*
X036186Y0343D03*
Y03456D03*
X038315Y033276D03*
Y033536D03*
G54D96*
X0437Y0401D03*
Y0331D03*
Y0341D03*
Y0351D03*
Y0361D03*
Y0371D03*
Y0381D03*
Y0391D03*
X04215Y02585D03*
Y01885D03*
Y01985D03*
Y02085D03*
Y02185D03*
Y02285D03*
Y02385D03*
Y02485D03*
X05595Y0267D03*
Y0197D03*
Y0207D03*
Y0217D03*
Y0227D03*
Y0237D03*
Y0247D03*
Y0257D03*
X0471Y0401D03*
Y0391D03*
Y0381D03*
Y0311D03*
Y0321D03*
Y0331D03*
Y0341D03*
Y0351D03*
Y0361D03*
Y0371D03*
X0341Y03595D03*
Y03495D03*
Y03395D03*
Y03295D03*
Y03195D03*
Y03095D03*
Y02995D03*
Y03695D03*
Y03795D03*
Y03895D03*
X03335Y0261D03*
Y0191D03*
Y0201D03*
Y0211D03*
Y0221D03*
Y0231D03*
Y0241D03*
Y0251D03*
X02655Y03885D03*
X02555D03*
X02455D03*
X02355D03*
X02255D03*
X02755D03*
X03705Y0301D03*
X03605D03*
X03805D03*
X03905D03*
X04845Y0401D03*
X04945D03*
Y0391D03*
X04845D03*
X04945Y0381D03*
X04845D03*
X04945Y0371D03*
Y0361D03*
Y0351D03*
X04845Y0371D03*
Y0361D03*
Y0351D03*
X04945Y0341D03*
X04845D03*
X04945Y0331D03*
X04845D03*
X04945Y0321D03*
X04845D03*
X04945Y0311D03*
X04845D03*
X04945Y0301D03*
X04845D03*
X04945Y0291D03*
X04845D03*
X04945Y0281D03*
X04845D03*
X04945Y0271D03*
X04845D03*
X04945Y0261D03*
X04845D03*
X04945Y0251D03*
X04845D03*
X04945Y0241D03*
X04845D03*
X04945Y0231D03*
X04845D03*
X04945Y0221D03*
X04845D03*
X04945Y0211D03*
X04845D03*
Y0201D03*
X04945D03*
Y0191D03*
X04845D03*
X04945Y0181D03*
X04845D03*
X04945Y0171D03*
X04845D03*
X02945Y0401D03*
X03045D03*
Y0391D03*
X02945D03*
X03045Y0381D03*
X02945D03*
X03045Y0371D03*
Y0361D03*
Y0351D03*
X02945Y0371D03*
Y0361D03*
Y0351D03*
X03045Y0341D03*
X02945D03*
X03045Y0331D03*
X02945D03*
X03045Y0321D03*
X02945D03*
X03045Y0311D03*
X02945D03*
X03045Y0301D03*
X02945D03*
X03045Y0291D03*
X02945D03*
X03045Y0281D03*
X02945D03*
X03045Y0271D03*
X02945D03*
X03045Y0261D03*
X02945D03*
X03045Y0251D03*
X02945D03*
X03045Y0241D03*
X02945D03*
X03045Y0231D03*
X02945D03*
X03045Y0221D03*
X02945D03*
X03045Y0211D03*
X02945D03*
Y0201D03*
X03045D03*
Y0191D03*
X02945D03*
X03045Y0181D03*
X02945D03*
X03045Y0171D03*
X02945D03*
G54D97*
X04196Y040097D03*
X041975Y039097D03*
Y038098D03*
Y037097D03*
X04196Y036105D03*
X041975Y035097D03*
Y034097D03*
Y033098D03*
G54D98*
X042532Y040097D03*
X042548Y039097D03*
Y038098D03*
Y037097D03*
X042532Y036105D03*
X042548Y035097D03*
Y034097D03*
Y033098D03*
G54D99*
X04625Y02135D03*
G54D100*
X036926Y037013D03*
G54D101*
X037301Y037013D03*
M02*