G75*
%MOIN*%
%OFA0B0*%
%FSLAX25Y25*%
%IPPOS*%
%LPD*%
%AMOC8*
5,1,8,0,0,1.08239X$1,22.5*
%
%ADD10C,0.00000*%
%ADD11OC8,0.06600*%
%ADD12R,0.03150X0.01969*%
%ADD13R,0.01378X0.01378*%
%ADD14C,0.06000*%
%ADD15C,0.03200*%
%ADD16R,0.03962X0.03962*%
%ADD17C,0.01600*%
D10*
X0001000Y0001000D02*
X0001000Y0090961D01*
X0146701Y0090961D01*
X0146701Y0001000D01*
X0001000Y0001000D01*
D11*
X0047000Y0012000D03*
X0047000Y0022000D03*
X0069000Y0044000D03*
X0079000Y0044000D03*
X0079000Y0054000D03*
X0069000Y0054000D03*
X0069000Y0064000D03*
X0079000Y0064000D03*
X0079000Y0074000D03*
X0069000Y0074000D03*
X0098000Y0022000D03*
X0098000Y0012000D03*
D12*
X0080000Y0012555D03*
X0080000Y0019445D03*
X0065000Y0019445D03*
X0065000Y0012555D03*
D13*
X0065000Y0014031D03*
X0065000Y0017969D03*
X0080000Y0017969D03*
X0080000Y0014031D03*
D14*
X0088394Y0044236D02*
X0094394Y0044236D01*
X0094394Y0054079D02*
X0088394Y0054079D01*
X0088394Y0063921D02*
X0094394Y0063921D01*
X0094394Y0073764D02*
X0088394Y0073764D01*
X0058606Y0073764D02*
X0052606Y0073764D01*
X0052606Y0063921D02*
X0058606Y0063921D01*
X0058606Y0054079D02*
X0052606Y0054079D01*
X0052606Y0044236D02*
X0058606Y0044236D01*
D15*
X0069000Y0044000D02*
X0069000Y0042000D01*
X0074000Y0037000D01*
X0089000Y0037000D01*
X0091000Y0039000D01*
X0091000Y0043843D01*
X0091394Y0044236D01*
X0091472Y0054000D02*
X0102000Y0054000D01*
X0108000Y0048000D01*
X0108000Y0042000D01*
X0100000Y0032000D01*
X0047000Y0032000D01*
X0043000Y0038000D01*
X0043000Y0051000D01*
X0046000Y0054000D01*
X0055528Y0054000D01*
X0055606Y0054079D01*
X0055606Y0063921D02*
X0055528Y0064000D01*
X0048000Y0064000D01*
X0043000Y0069000D01*
X0043000Y0080000D01*
X0047000Y0084000D01*
X0098000Y0084000D01*
X0103000Y0079000D01*
X0103000Y0070000D01*
X0096921Y0063921D01*
X0091394Y0063921D01*
X0098000Y0022000D02*
X0080000Y0022000D01*
X0065000Y0022000D01*
X0047000Y0022000D01*
X0047000Y0012000D02*
X0065000Y0012000D01*
X0080000Y0012000D01*
X0098000Y0012000D01*
D16*
X0091472Y0054000D03*
D17*
X0080000Y0022000D02*
X0080000Y0017969D01*
X0080000Y0014031D02*
X0080000Y0012000D01*
X0065000Y0012000D02*
X0065000Y0014031D01*
X0065000Y0017969D02*
X0065000Y0022000D01*
M02*
