G75*
%MOIN*%
%OFA0B0*%
%FSLAX25Y25*%
%IPPOS*%
%LPD*%
%AMOC8*
5,1,8,0,0,1.08239X$1,22.5*
%
%ADD10C,0.00600*%
%ADD11C,0.00400*%
%ADD12R,0.01181X0.01181*%
%ADD13C,0.00800*%
%ADD14C,0.00100*%
%ADD15C,0.02600*%
%ADD16C,0.00500*%
%ADD17R,0.26000X0.02400*%
D10*
X0037000Y0017000D02*
X0037003Y0017245D01*
X0037012Y0017491D01*
X0037027Y0017736D01*
X0037048Y0017980D01*
X0037075Y0018224D01*
X0037108Y0018467D01*
X0037147Y0018710D01*
X0037192Y0018951D01*
X0037243Y0019191D01*
X0037300Y0019430D01*
X0037362Y0019667D01*
X0037431Y0019903D01*
X0037505Y0020137D01*
X0037585Y0020369D01*
X0037670Y0020599D01*
X0037761Y0020827D01*
X0037858Y0021052D01*
X0037960Y0021276D01*
X0038068Y0021496D01*
X0038181Y0021714D01*
X0038299Y0021929D01*
X0038423Y0022141D01*
X0038551Y0022350D01*
X0038685Y0022556D01*
X0038824Y0022758D01*
X0038968Y0022957D01*
X0039117Y0023152D01*
X0039270Y0023344D01*
X0039428Y0023532D01*
X0039590Y0023716D01*
X0039758Y0023895D01*
X0039929Y0024071D01*
X0040105Y0024242D01*
X0040284Y0024410D01*
X0040468Y0024572D01*
X0040656Y0024730D01*
X0040848Y0024883D01*
X0041043Y0025032D01*
X0041242Y0025176D01*
X0041444Y0025315D01*
X0041650Y0025449D01*
X0041859Y0025577D01*
X0042071Y0025701D01*
X0042286Y0025819D01*
X0042504Y0025932D01*
X0042724Y0026040D01*
X0042948Y0026142D01*
X0043173Y0026239D01*
X0043401Y0026330D01*
X0043631Y0026415D01*
X0043863Y0026495D01*
X0044097Y0026569D01*
X0044333Y0026638D01*
X0044570Y0026700D01*
X0044809Y0026757D01*
X0045049Y0026808D01*
X0045290Y0026853D01*
X0045533Y0026892D01*
X0045776Y0026925D01*
X0046020Y0026952D01*
X0046264Y0026973D01*
X0046509Y0026988D01*
X0046755Y0026997D01*
X0047000Y0027000D01*
X0047245Y0026997D01*
X0047491Y0026988D01*
X0047736Y0026973D01*
X0047980Y0026952D01*
X0048224Y0026925D01*
X0048467Y0026892D01*
X0048710Y0026853D01*
X0048951Y0026808D01*
X0049191Y0026757D01*
X0049430Y0026700D01*
X0049667Y0026638D01*
X0049903Y0026569D01*
X0050137Y0026495D01*
X0050369Y0026415D01*
X0050599Y0026330D01*
X0050827Y0026239D01*
X0051052Y0026142D01*
X0051276Y0026040D01*
X0051496Y0025932D01*
X0051714Y0025819D01*
X0051929Y0025701D01*
X0052141Y0025577D01*
X0052350Y0025449D01*
X0052556Y0025315D01*
X0052758Y0025176D01*
X0052957Y0025032D01*
X0053152Y0024883D01*
X0053344Y0024730D01*
X0053532Y0024572D01*
X0053716Y0024410D01*
X0053895Y0024242D01*
X0054071Y0024071D01*
X0054242Y0023895D01*
X0054410Y0023716D01*
X0054572Y0023532D01*
X0054730Y0023344D01*
X0054883Y0023152D01*
X0055032Y0022957D01*
X0055176Y0022758D01*
X0055315Y0022556D01*
X0055449Y0022350D01*
X0055577Y0022141D01*
X0055701Y0021929D01*
X0055819Y0021714D01*
X0055932Y0021496D01*
X0056040Y0021276D01*
X0056142Y0021052D01*
X0056239Y0020827D01*
X0056330Y0020599D01*
X0056415Y0020369D01*
X0056495Y0020137D01*
X0056569Y0019903D01*
X0056638Y0019667D01*
X0056700Y0019430D01*
X0056757Y0019191D01*
X0056808Y0018951D01*
X0056853Y0018710D01*
X0056892Y0018467D01*
X0056925Y0018224D01*
X0056952Y0017980D01*
X0056973Y0017736D01*
X0056988Y0017491D01*
X0056997Y0017245D01*
X0057000Y0017000D01*
X0056997Y0016755D01*
X0056988Y0016509D01*
X0056973Y0016264D01*
X0056952Y0016020D01*
X0056925Y0015776D01*
X0056892Y0015533D01*
X0056853Y0015290D01*
X0056808Y0015049D01*
X0056757Y0014809D01*
X0056700Y0014570D01*
X0056638Y0014333D01*
X0056569Y0014097D01*
X0056495Y0013863D01*
X0056415Y0013631D01*
X0056330Y0013401D01*
X0056239Y0013173D01*
X0056142Y0012948D01*
X0056040Y0012724D01*
X0055932Y0012504D01*
X0055819Y0012286D01*
X0055701Y0012071D01*
X0055577Y0011859D01*
X0055449Y0011650D01*
X0055315Y0011444D01*
X0055176Y0011242D01*
X0055032Y0011043D01*
X0054883Y0010848D01*
X0054730Y0010656D01*
X0054572Y0010468D01*
X0054410Y0010284D01*
X0054242Y0010105D01*
X0054071Y0009929D01*
X0053895Y0009758D01*
X0053716Y0009590D01*
X0053532Y0009428D01*
X0053344Y0009270D01*
X0053152Y0009117D01*
X0052957Y0008968D01*
X0052758Y0008824D01*
X0052556Y0008685D01*
X0052350Y0008551D01*
X0052141Y0008423D01*
X0051929Y0008299D01*
X0051714Y0008181D01*
X0051496Y0008068D01*
X0051276Y0007960D01*
X0051052Y0007858D01*
X0050827Y0007761D01*
X0050599Y0007670D01*
X0050369Y0007585D01*
X0050137Y0007505D01*
X0049903Y0007431D01*
X0049667Y0007362D01*
X0049430Y0007300D01*
X0049191Y0007243D01*
X0048951Y0007192D01*
X0048710Y0007147D01*
X0048467Y0007108D01*
X0048224Y0007075D01*
X0047980Y0007048D01*
X0047736Y0007027D01*
X0047491Y0007012D01*
X0047245Y0007003D01*
X0047000Y0007000D01*
X0046755Y0007003D01*
X0046509Y0007012D01*
X0046264Y0007027D01*
X0046020Y0007048D01*
X0045776Y0007075D01*
X0045533Y0007108D01*
X0045290Y0007147D01*
X0045049Y0007192D01*
X0044809Y0007243D01*
X0044570Y0007300D01*
X0044333Y0007362D01*
X0044097Y0007431D01*
X0043863Y0007505D01*
X0043631Y0007585D01*
X0043401Y0007670D01*
X0043173Y0007761D01*
X0042948Y0007858D01*
X0042724Y0007960D01*
X0042504Y0008068D01*
X0042286Y0008181D01*
X0042071Y0008299D01*
X0041859Y0008423D01*
X0041650Y0008551D01*
X0041444Y0008685D01*
X0041242Y0008824D01*
X0041043Y0008968D01*
X0040848Y0009117D01*
X0040656Y0009270D01*
X0040468Y0009428D01*
X0040284Y0009590D01*
X0040105Y0009758D01*
X0039929Y0009929D01*
X0039758Y0010105D01*
X0039590Y0010284D01*
X0039428Y0010468D01*
X0039270Y0010656D01*
X0039117Y0010848D01*
X0038968Y0011043D01*
X0038824Y0011242D01*
X0038685Y0011444D01*
X0038551Y0011650D01*
X0038423Y0011859D01*
X0038299Y0012071D01*
X0038181Y0012286D01*
X0038068Y0012504D01*
X0037960Y0012724D01*
X0037858Y0012948D01*
X0037761Y0013173D01*
X0037670Y0013401D01*
X0037585Y0013631D01*
X0037505Y0013863D01*
X0037431Y0014097D01*
X0037362Y0014333D01*
X0037300Y0014570D01*
X0037243Y0014809D01*
X0037192Y0015049D01*
X0037147Y0015290D01*
X0037108Y0015533D01*
X0037075Y0015776D01*
X0037048Y0016020D01*
X0037027Y0016264D01*
X0037012Y0016509D01*
X0037003Y0016755D01*
X0037000Y0017000D01*
X0054106Y0029862D02*
X0054106Y0040264D01*
X0048106Y0039862D02*
X0044606Y0039862D01*
X0008106Y0039862D01*
X0005606Y0039862D01*
X0002106Y0037862D01*
X0002106Y0029862D01*
X0054106Y0029862D01*
X0064000Y0041500D02*
X0066500Y0039000D01*
X0081500Y0039000D01*
X0084000Y0041500D01*
X0084000Y0046500D01*
X0081500Y0049000D01*
X0066500Y0049000D01*
X0064000Y0046500D01*
X0064000Y0041500D01*
X0054106Y0048165D02*
X0054106Y0050264D01*
X0064000Y0051500D02*
X0064000Y0056500D01*
X0066500Y0059000D01*
X0081500Y0059000D01*
X0084000Y0056500D01*
X0084000Y0051500D01*
X0081500Y0049000D01*
X0092894Y0048138D02*
X0092894Y0050138D01*
X0092894Y0057937D02*
X0092894Y0059937D01*
X0084000Y0061500D02*
X0081500Y0059000D01*
X0084000Y0061500D02*
X0084000Y0066500D01*
X0081500Y0069000D01*
X0066500Y0069000D01*
X0064000Y0066500D01*
X0064000Y0061500D01*
X0066500Y0059000D01*
X0064000Y0051500D02*
X0066500Y0049000D01*
X0054106Y0058063D02*
X0054106Y0060063D01*
X0054106Y0067862D02*
X0054106Y0069862D01*
X0064000Y0071500D02*
X0064000Y0076500D01*
X0066500Y0079000D01*
X0081500Y0079000D01*
X0084000Y0076500D01*
X0084000Y0071500D01*
X0081500Y0069000D01*
X0092894Y0069835D02*
X0092894Y0067736D01*
X0092894Y0077736D02*
X0092894Y0088138D01*
X0144894Y0088138D01*
X0144894Y0080138D01*
X0141394Y0078138D01*
X0138894Y0078138D01*
X0102394Y0078138D01*
X0098894Y0078138D01*
X0098894Y0039638D01*
X0102394Y0039638D01*
X0138894Y0039638D01*
X0138894Y0078138D01*
X0102394Y0078138D02*
X0102394Y0039638D01*
X0092894Y0040335D02*
X0092894Y0029736D01*
X0144894Y0029736D01*
X0144894Y0037638D01*
X0141394Y0039638D01*
X0138894Y0039638D01*
X0088000Y0017000D02*
X0088003Y0017245D01*
X0088012Y0017491D01*
X0088027Y0017736D01*
X0088048Y0017980D01*
X0088075Y0018224D01*
X0088108Y0018467D01*
X0088147Y0018710D01*
X0088192Y0018951D01*
X0088243Y0019191D01*
X0088300Y0019430D01*
X0088362Y0019667D01*
X0088431Y0019903D01*
X0088505Y0020137D01*
X0088585Y0020369D01*
X0088670Y0020599D01*
X0088761Y0020827D01*
X0088858Y0021052D01*
X0088960Y0021276D01*
X0089068Y0021496D01*
X0089181Y0021714D01*
X0089299Y0021929D01*
X0089423Y0022141D01*
X0089551Y0022350D01*
X0089685Y0022556D01*
X0089824Y0022758D01*
X0089968Y0022957D01*
X0090117Y0023152D01*
X0090270Y0023344D01*
X0090428Y0023532D01*
X0090590Y0023716D01*
X0090758Y0023895D01*
X0090929Y0024071D01*
X0091105Y0024242D01*
X0091284Y0024410D01*
X0091468Y0024572D01*
X0091656Y0024730D01*
X0091848Y0024883D01*
X0092043Y0025032D01*
X0092242Y0025176D01*
X0092444Y0025315D01*
X0092650Y0025449D01*
X0092859Y0025577D01*
X0093071Y0025701D01*
X0093286Y0025819D01*
X0093504Y0025932D01*
X0093724Y0026040D01*
X0093948Y0026142D01*
X0094173Y0026239D01*
X0094401Y0026330D01*
X0094631Y0026415D01*
X0094863Y0026495D01*
X0095097Y0026569D01*
X0095333Y0026638D01*
X0095570Y0026700D01*
X0095809Y0026757D01*
X0096049Y0026808D01*
X0096290Y0026853D01*
X0096533Y0026892D01*
X0096776Y0026925D01*
X0097020Y0026952D01*
X0097264Y0026973D01*
X0097509Y0026988D01*
X0097755Y0026997D01*
X0098000Y0027000D01*
X0098245Y0026997D01*
X0098491Y0026988D01*
X0098736Y0026973D01*
X0098980Y0026952D01*
X0099224Y0026925D01*
X0099467Y0026892D01*
X0099710Y0026853D01*
X0099951Y0026808D01*
X0100191Y0026757D01*
X0100430Y0026700D01*
X0100667Y0026638D01*
X0100903Y0026569D01*
X0101137Y0026495D01*
X0101369Y0026415D01*
X0101599Y0026330D01*
X0101827Y0026239D01*
X0102052Y0026142D01*
X0102276Y0026040D01*
X0102496Y0025932D01*
X0102714Y0025819D01*
X0102929Y0025701D01*
X0103141Y0025577D01*
X0103350Y0025449D01*
X0103556Y0025315D01*
X0103758Y0025176D01*
X0103957Y0025032D01*
X0104152Y0024883D01*
X0104344Y0024730D01*
X0104532Y0024572D01*
X0104716Y0024410D01*
X0104895Y0024242D01*
X0105071Y0024071D01*
X0105242Y0023895D01*
X0105410Y0023716D01*
X0105572Y0023532D01*
X0105730Y0023344D01*
X0105883Y0023152D01*
X0106032Y0022957D01*
X0106176Y0022758D01*
X0106315Y0022556D01*
X0106449Y0022350D01*
X0106577Y0022141D01*
X0106701Y0021929D01*
X0106819Y0021714D01*
X0106932Y0021496D01*
X0107040Y0021276D01*
X0107142Y0021052D01*
X0107239Y0020827D01*
X0107330Y0020599D01*
X0107415Y0020369D01*
X0107495Y0020137D01*
X0107569Y0019903D01*
X0107638Y0019667D01*
X0107700Y0019430D01*
X0107757Y0019191D01*
X0107808Y0018951D01*
X0107853Y0018710D01*
X0107892Y0018467D01*
X0107925Y0018224D01*
X0107952Y0017980D01*
X0107973Y0017736D01*
X0107988Y0017491D01*
X0107997Y0017245D01*
X0108000Y0017000D01*
X0107997Y0016755D01*
X0107988Y0016509D01*
X0107973Y0016264D01*
X0107952Y0016020D01*
X0107925Y0015776D01*
X0107892Y0015533D01*
X0107853Y0015290D01*
X0107808Y0015049D01*
X0107757Y0014809D01*
X0107700Y0014570D01*
X0107638Y0014333D01*
X0107569Y0014097D01*
X0107495Y0013863D01*
X0107415Y0013631D01*
X0107330Y0013401D01*
X0107239Y0013173D01*
X0107142Y0012948D01*
X0107040Y0012724D01*
X0106932Y0012504D01*
X0106819Y0012286D01*
X0106701Y0012071D01*
X0106577Y0011859D01*
X0106449Y0011650D01*
X0106315Y0011444D01*
X0106176Y0011242D01*
X0106032Y0011043D01*
X0105883Y0010848D01*
X0105730Y0010656D01*
X0105572Y0010468D01*
X0105410Y0010284D01*
X0105242Y0010105D01*
X0105071Y0009929D01*
X0104895Y0009758D01*
X0104716Y0009590D01*
X0104532Y0009428D01*
X0104344Y0009270D01*
X0104152Y0009117D01*
X0103957Y0008968D01*
X0103758Y0008824D01*
X0103556Y0008685D01*
X0103350Y0008551D01*
X0103141Y0008423D01*
X0102929Y0008299D01*
X0102714Y0008181D01*
X0102496Y0008068D01*
X0102276Y0007960D01*
X0102052Y0007858D01*
X0101827Y0007761D01*
X0101599Y0007670D01*
X0101369Y0007585D01*
X0101137Y0007505D01*
X0100903Y0007431D01*
X0100667Y0007362D01*
X0100430Y0007300D01*
X0100191Y0007243D01*
X0099951Y0007192D01*
X0099710Y0007147D01*
X0099467Y0007108D01*
X0099224Y0007075D01*
X0098980Y0007048D01*
X0098736Y0007027D01*
X0098491Y0007012D01*
X0098245Y0007003D01*
X0098000Y0007000D01*
X0097755Y0007003D01*
X0097509Y0007012D01*
X0097264Y0007027D01*
X0097020Y0007048D01*
X0096776Y0007075D01*
X0096533Y0007108D01*
X0096290Y0007147D01*
X0096049Y0007192D01*
X0095809Y0007243D01*
X0095570Y0007300D01*
X0095333Y0007362D01*
X0095097Y0007431D01*
X0094863Y0007505D01*
X0094631Y0007585D01*
X0094401Y0007670D01*
X0094173Y0007761D01*
X0093948Y0007858D01*
X0093724Y0007960D01*
X0093504Y0008068D01*
X0093286Y0008181D01*
X0093071Y0008299D01*
X0092859Y0008423D01*
X0092650Y0008551D01*
X0092444Y0008685D01*
X0092242Y0008824D01*
X0092043Y0008968D01*
X0091848Y0009117D01*
X0091656Y0009270D01*
X0091468Y0009428D01*
X0091284Y0009590D01*
X0091105Y0009758D01*
X0090929Y0009929D01*
X0090758Y0010105D01*
X0090590Y0010284D01*
X0090428Y0010468D01*
X0090270Y0010656D01*
X0090117Y0010848D01*
X0089968Y0011043D01*
X0089824Y0011242D01*
X0089685Y0011444D01*
X0089551Y0011650D01*
X0089423Y0011859D01*
X0089299Y0012071D01*
X0089181Y0012286D01*
X0089068Y0012504D01*
X0088960Y0012724D01*
X0088858Y0012948D01*
X0088761Y0013173D01*
X0088670Y0013401D01*
X0088585Y0013631D01*
X0088505Y0013863D01*
X0088431Y0014097D01*
X0088362Y0014333D01*
X0088300Y0014570D01*
X0088243Y0014809D01*
X0088192Y0015049D01*
X0088147Y0015290D01*
X0088108Y0015533D01*
X0088075Y0015776D01*
X0088048Y0016020D01*
X0088027Y0016264D01*
X0088012Y0016509D01*
X0088003Y0016755D01*
X0088000Y0017000D01*
X0048106Y0039862D02*
X0048106Y0078362D01*
X0044606Y0078362D01*
X0008106Y0078362D01*
X0008106Y0039862D01*
X0044606Y0039862D02*
X0044606Y0078362D01*
X0054106Y0077665D02*
X0054106Y0088264D01*
X0002106Y0088264D01*
X0002106Y0080362D01*
X0005606Y0078362D01*
X0008106Y0078362D01*
X0064000Y0071500D02*
X0066500Y0069000D01*
D11*
X0066378Y0018362D02*
X0066378Y0013638D01*
X0063622Y0013638D02*
X0063622Y0018362D01*
X0078622Y0018362D02*
X0078622Y0013638D01*
X0081378Y0013638D02*
X0081378Y0018362D01*
D12*
X0080000Y0016787D03*
X0065000Y0016787D03*
D13*
X0054500Y0007000D02*
X0039500Y0007000D01*
X0090500Y0007000D02*
X0105500Y0007000D01*
D14*
X0105809Y0006671D02*
X0105269Y0007391D01*
X0105270Y0007390D02*
X0105503Y0007571D01*
X0105731Y0007757D01*
X0105955Y0007949D01*
X0106174Y0008146D01*
X0106388Y0008348D01*
X0106597Y0008556D01*
X0106800Y0008769D01*
X0106999Y0008986D01*
X0107192Y0009209D01*
X0107380Y0009436D01*
X0107562Y0009667D01*
X0107739Y0009903D01*
X0107909Y0010144D01*
X0108074Y0010388D01*
X0108232Y0010636D01*
X0108385Y0010888D01*
X0108531Y0011144D01*
X0108671Y0011403D01*
X0108805Y0011666D01*
X0108932Y0011931D01*
X0109053Y0012200D01*
X0109167Y0012472D01*
X0109274Y0012746D01*
X0109375Y0013023D01*
X0109469Y0013302D01*
X0109556Y0013584D01*
X0109636Y0013867D01*
X0109709Y0014153D01*
X0109775Y0014440D01*
X0109834Y0014729D01*
X0109886Y0015019D01*
X0109931Y0015310D01*
X0109969Y0015602D01*
X0109999Y0015895D01*
X0110023Y0016189D01*
X0110039Y0016483D01*
X0110048Y0016777D01*
X0110050Y0017072D01*
X0110044Y0017367D01*
X0110032Y0017661D01*
X0110012Y0017955D01*
X0109985Y0018248D01*
X0109951Y0018541D01*
X0109910Y0018833D01*
X0109861Y0019123D01*
X0109806Y0019413D01*
X0109744Y0019700D01*
X0109674Y0019987D01*
X0109597Y0020271D01*
X0109514Y0020554D01*
X0109424Y0020834D01*
X0109327Y0021112D01*
X0109223Y0021388D01*
X0109112Y0021661D01*
X0108995Y0021931D01*
X0108871Y0022199D01*
X0108741Y0022463D01*
X0108604Y0022724D01*
X0108461Y0022981D01*
X0108311Y0023235D01*
X0108156Y0023486D01*
X0107994Y0023732D01*
X0107827Y0023974D01*
X0107653Y0024212D01*
X0107474Y0024446D01*
X0107289Y0024676D01*
X0107099Y0024900D01*
X0106903Y0025121D01*
X0106702Y0025336D01*
X0106495Y0025546D01*
X0106284Y0025751D01*
X0106067Y0025951D01*
X0105846Y0026146D01*
X0105620Y0026335D01*
X0105390Y0026518D01*
X0105155Y0026696D01*
X0104915Y0026868D01*
X0104672Y0027034D01*
X0104425Y0027194D01*
X0104174Y0027348D01*
X0103919Y0027496D01*
X0103660Y0027638D01*
X0103399Y0027773D01*
X0103134Y0027902D01*
X0102866Y0028024D01*
X0102595Y0028140D01*
X0102321Y0028249D01*
X0102045Y0028351D01*
X0101766Y0028446D01*
X0101485Y0028535D01*
X0101202Y0028617D01*
X0100917Y0028692D01*
X0100630Y0028759D01*
X0100342Y0028820D01*
X0100052Y0028874D01*
X0099761Y0028921D01*
X0099469Y0028960D01*
X0099177Y0028992D01*
X0098883Y0029018D01*
X0098589Y0029036D01*
X0098295Y0029046D01*
X0098000Y0029050D01*
X0097705Y0029046D01*
X0097411Y0029036D01*
X0097117Y0029018D01*
X0096823Y0028992D01*
X0096531Y0028960D01*
X0096239Y0028921D01*
X0095948Y0028874D01*
X0095658Y0028820D01*
X0095370Y0028759D01*
X0095083Y0028692D01*
X0094798Y0028617D01*
X0094515Y0028535D01*
X0094234Y0028446D01*
X0093955Y0028351D01*
X0093679Y0028249D01*
X0093405Y0028140D01*
X0093134Y0028024D01*
X0092866Y0027902D01*
X0092601Y0027773D01*
X0092340Y0027638D01*
X0092081Y0027496D01*
X0091826Y0027348D01*
X0091575Y0027194D01*
X0091328Y0027034D01*
X0091085Y0026868D01*
X0090845Y0026696D01*
X0090610Y0026518D01*
X0090380Y0026335D01*
X0090154Y0026146D01*
X0089933Y0025951D01*
X0089716Y0025751D01*
X0089505Y0025546D01*
X0089298Y0025336D01*
X0089097Y0025121D01*
X0088901Y0024900D01*
X0088711Y0024676D01*
X0088526Y0024446D01*
X0088347Y0024212D01*
X0088173Y0023974D01*
X0088006Y0023732D01*
X0087844Y0023486D01*
X0087689Y0023235D01*
X0087539Y0022981D01*
X0087396Y0022724D01*
X0087259Y0022463D01*
X0087129Y0022199D01*
X0087005Y0021931D01*
X0086888Y0021661D01*
X0086777Y0021388D01*
X0086673Y0021112D01*
X0086576Y0020834D01*
X0086486Y0020554D01*
X0086403Y0020271D01*
X0086326Y0019987D01*
X0086256Y0019700D01*
X0086194Y0019413D01*
X0086139Y0019123D01*
X0086090Y0018833D01*
X0086049Y0018541D01*
X0086015Y0018248D01*
X0085988Y0017955D01*
X0085968Y0017661D01*
X0085956Y0017367D01*
X0085950Y0017072D01*
X0085952Y0016777D01*
X0085961Y0016483D01*
X0085977Y0016189D01*
X0086001Y0015895D01*
X0086031Y0015602D01*
X0086069Y0015310D01*
X0086114Y0015019D01*
X0086166Y0014729D01*
X0086225Y0014440D01*
X0086291Y0014153D01*
X0086364Y0013867D01*
X0086444Y0013584D01*
X0086531Y0013302D01*
X0086625Y0013023D01*
X0086726Y0012746D01*
X0086833Y0012472D01*
X0086947Y0012200D01*
X0087068Y0011931D01*
X0087195Y0011666D01*
X0087329Y0011403D01*
X0087469Y0011144D01*
X0087615Y0010888D01*
X0087768Y0010636D01*
X0087926Y0010388D01*
X0088091Y0010144D01*
X0088261Y0009903D01*
X0088438Y0009667D01*
X0088620Y0009436D01*
X0088808Y0009209D01*
X0089001Y0008986D01*
X0089200Y0008769D01*
X0089403Y0008556D01*
X0089612Y0008348D01*
X0089826Y0008146D01*
X0090045Y0007949D01*
X0090269Y0007757D01*
X0090497Y0007571D01*
X0090730Y0007390D01*
X0090191Y0006671D01*
X0090190Y0006670D01*
X0089940Y0006864D01*
X0089694Y0007064D01*
X0089454Y0007270D01*
X0089219Y0007482D01*
X0088989Y0007700D01*
X0088764Y0007923D01*
X0088545Y0008151D01*
X0088331Y0008385D01*
X0088123Y0008624D01*
X0087921Y0008868D01*
X0087726Y0009117D01*
X0087536Y0009371D01*
X0087353Y0009629D01*
X0087176Y0009891D01*
X0087005Y0010158D01*
X0086841Y0010429D01*
X0086684Y0010704D01*
X0086533Y0010982D01*
X0086389Y0011265D01*
X0086253Y0011550D01*
X0086123Y0011839D01*
X0086000Y0012131D01*
X0085885Y0012426D01*
X0085777Y0012723D01*
X0085676Y0013024D01*
X0085582Y0013326D01*
X0085496Y0013631D01*
X0085417Y0013938D01*
X0085346Y0014246D01*
X0085283Y0014556D01*
X0085227Y0014868D01*
X0085178Y0015181D01*
X0085138Y0015495D01*
X0085105Y0015810D01*
X0085080Y0016126D01*
X0085062Y0016442D01*
X0085052Y0016758D01*
X0085050Y0017075D01*
X0085056Y0017392D01*
X0085069Y0017708D01*
X0085091Y0018024D01*
X0085119Y0018339D01*
X0085156Y0018654D01*
X0085200Y0018967D01*
X0085252Y0019280D01*
X0085312Y0019591D01*
X0085379Y0019900D01*
X0085454Y0020208D01*
X0085536Y0020514D01*
X0085625Y0020817D01*
X0085722Y0021119D01*
X0085827Y0021418D01*
X0085939Y0021714D01*
X0086057Y0022008D01*
X0086183Y0022298D01*
X0086316Y0022585D01*
X0086457Y0022870D01*
X0086604Y0023150D01*
X0086757Y0023427D01*
X0086918Y0023700D01*
X0087085Y0023969D01*
X0087259Y0024234D01*
X0087439Y0024494D01*
X0087625Y0024750D01*
X0087818Y0025001D01*
X0088016Y0025248D01*
X0088221Y0025490D01*
X0088431Y0025726D01*
X0088648Y0025958D01*
X0088870Y0026183D01*
X0089097Y0026404D01*
X0089329Y0026619D01*
X0089567Y0026828D01*
X0089810Y0027031D01*
X0090058Y0027229D01*
X0090310Y0027420D01*
X0090567Y0027605D01*
X0090829Y0027783D01*
X0091095Y0027955D01*
X0091364Y0028121D01*
X0091638Y0028280D01*
X0091916Y0028432D01*
X0092197Y0028577D01*
X0092482Y0028716D01*
X0092770Y0028847D01*
X0093062Y0028971D01*
X0093356Y0029089D01*
X0093653Y0029199D01*
X0093952Y0029301D01*
X0094254Y0029396D01*
X0094558Y0029484D01*
X0094865Y0029565D01*
X0095173Y0029638D01*
X0095483Y0029703D01*
X0095794Y0029761D01*
X0096107Y0029811D01*
X0096421Y0029853D01*
X0096735Y0029888D01*
X0097051Y0029915D01*
X0097367Y0029935D01*
X0097683Y0029946D01*
X0098000Y0029950D01*
X0098317Y0029946D01*
X0098633Y0029935D01*
X0098949Y0029915D01*
X0099265Y0029888D01*
X0099579Y0029853D01*
X0099893Y0029811D01*
X0100206Y0029761D01*
X0100517Y0029703D01*
X0100827Y0029638D01*
X0101135Y0029565D01*
X0101442Y0029484D01*
X0101746Y0029396D01*
X0102048Y0029301D01*
X0102347Y0029199D01*
X0102644Y0029089D01*
X0102938Y0028971D01*
X0103230Y0028847D01*
X0103518Y0028716D01*
X0103803Y0028577D01*
X0104084Y0028432D01*
X0104362Y0028280D01*
X0104636Y0028121D01*
X0104905Y0027955D01*
X0105171Y0027783D01*
X0105433Y0027605D01*
X0105690Y0027420D01*
X0105942Y0027229D01*
X0106190Y0027031D01*
X0106433Y0026828D01*
X0106671Y0026619D01*
X0106903Y0026404D01*
X0107130Y0026183D01*
X0107352Y0025958D01*
X0107569Y0025726D01*
X0107779Y0025490D01*
X0107984Y0025248D01*
X0108182Y0025001D01*
X0108375Y0024750D01*
X0108561Y0024494D01*
X0108741Y0024234D01*
X0108915Y0023969D01*
X0109082Y0023700D01*
X0109243Y0023427D01*
X0109396Y0023150D01*
X0109543Y0022870D01*
X0109684Y0022585D01*
X0109817Y0022298D01*
X0109943Y0022008D01*
X0110061Y0021714D01*
X0110173Y0021418D01*
X0110278Y0021119D01*
X0110375Y0020817D01*
X0110464Y0020514D01*
X0110546Y0020208D01*
X0110621Y0019900D01*
X0110688Y0019591D01*
X0110748Y0019280D01*
X0110800Y0018967D01*
X0110844Y0018654D01*
X0110881Y0018339D01*
X0110909Y0018024D01*
X0110931Y0017708D01*
X0110944Y0017392D01*
X0110950Y0017075D01*
X0110948Y0016758D01*
X0110938Y0016442D01*
X0110920Y0016126D01*
X0110895Y0015810D01*
X0110862Y0015495D01*
X0110822Y0015181D01*
X0110773Y0014868D01*
X0110717Y0014556D01*
X0110654Y0014246D01*
X0110583Y0013938D01*
X0110504Y0013631D01*
X0110418Y0013326D01*
X0110324Y0013024D01*
X0110223Y0012723D01*
X0110115Y0012426D01*
X0110000Y0012131D01*
X0109877Y0011839D01*
X0109747Y0011550D01*
X0109611Y0011265D01*
X0109467Y0010982D01*
X0109316Y0010704D01*
X0109159Y0010429D01*
X0108995Y0010158D01*
X0108824Y0009891D01*
X0108647Y0009629D01*
X0108464Y0009371D01*
X0108274Y0009117D01*
X0108079Y0008868D01*
X0107877Y0008624D01*
X0107669Y0008385D01*
X0107455Y0008151D01*
X0107236Y0007923D01*
X0107011Y0007700D01*
X0106781Y0007482D01*
X0106546Y0007270D01*
X0106306Y0007064D01*
X0106060Y0006864D01*
X0105810Y0006670D01*
X0105754Y0006745D01*
X0106002Y0006938D01*
X0106246Y0007137D01*
X0106484Y0007341D01*
X0106718Y0007551D01*
X0106946Y0007767D01*
X0107169Y0007989D01*
X0107387Y0008216D01*
X0107599Y0008448D01*
X0107805Y0008685D01*
X0108006Y0008927D01*
X0108200Y0009175D01*
X0108388Y0009426D01*
X0108570Y0009683D01*
X0108746Y0009943D01*
X0108915Y0010208D01*
X0109078Y0010477D01*
X0109234Y0010750D01*
X0109384Y0011026D01*
X0109526Y0011306D01*
X0109662Y0011590D01*
X0109791Y0011877D01*
X0109913Y0012167D01*
X0110027Y0012459D01*
X0110135Y0012755D01*
X0110235Y0013053D01*
X0110328Y0013353D01*
X0110413Y0013656D01*
X0110491Y0013960D01*
X0110562Y0014266D01*
X0110625Y0014574D01*
X0110681Y0014884D01*
X0110729Y0015194D01*
X0110769Y0015506D01*
X0110802Y0015819D01*
X0110827Y0016132D01*
X0110844Y0016446D01*
X0110854Y0016760D01*
X0110856Y0017075D01*
X0110850Y0017389D01*
X0110837Y0017703D01*
X0110816Y0018017D01*
X0110787Y0018330D01*
X0110751Y0018642D01*
X0110707Y0018953D01*
X0110655Y0019263D01*
X0110596Y0019572D01*
X0110529Y0019879D01*
X0110455Y0020185D01*
X0110374Y0020488D01*
X0110285Y0020790D01*
X0110188Y0021089D01*
X0110085Y0021386D01*
X0109974Y0021680D01*
X0109856Y0021971D01*
X0109731Y0022260D01*
X0109599Y0022545D01*
X0109460Y0022827D01*
X0109314Y0023105D01*
X0109161Y0023380D01*
X0109002Y0023651D01*
X0108836Y0023918D01*
X0108663Y0024181D01*
X0108485Y0024440D01*
X0108300Y0024694D01*
X0108108Y0024943D01*
X0107911Y0025188D01*
X0107708Y0025428D01*
X0107499Y0025663D01*
X0107284Y0025893D01*
X0107064Y0026117D01*
X0106839Y0026336D01*
X0106608Y0026549D01*
X0106372Y0026757D01*
X0106130Y0026959D01*
X0105885Y0027154D01*
X0105634Y0027344D01*
X0105379Y0027528D01*
X0105119Y0027705D01*
X0104855Y0027876D01*
X0104587Y0028040D01*
X0104315Y0028198D01*
X0104040Y0028349D01*
X0103760Y0028493D01*
X0103478Y0028631D01*
X0103192Y0028761D01*
X0102903Y0028885D01*
X0102610Y0029001D01*
X0102316Y0029110D01*
X0102018Y0029212D01*
X0101719Y0029306D01*
X0101416Y0029394D01*
X0101112Y0029474D01*
X0100807Y0029546D01*
X0100499Y0029611D01*
X0100190Y0029668D01*
X0099879Y0029718D01*
X0099568Y0029760D01*
X0099255Y0029795D01*
X0098942Y0029821D01*
X0098628Y0029841D01*
X0098314Y0029852D01*
X0098000Y0029856D01*
X0097686Y0029852D01*
X0097372Y0029841D01*
X0097058Y0029821D01*
X0096745Y0029795D01*
X0096432Y0029760D01*
X0096121Y0029718D01*
X0095810Y0029668D01*
X0095501Y0029611D01*
X0095193Y0029546D01*
X0094888Y0029474D01*
X0094584Y0029394D01*
X0094281Y0029306D01*
X0093982Y0029212D01*
X0093684Y0029110D01*
X0093390Y0029001D01*
X0093097Y0028885D01*
X0092808Y0028761D01*
X0092522Y0028631D01*
X0092240Y0028493D01*
X0091960Y0028349D01*
X0091685Y0028198D01*
X0091413Y0028040D01*
X0091145Y0027876D01*
X0090881Y0027705D01*
X0090621Y0027528D01*
X0090366Y0027344D01*
X0090115Y0027154D01*
X0089870Y0026959D01*
X0089628Y0026757D01*
X0089392Y0026549D01*
X0089161Y0026336D01*
X0088936Y0026117D01*
X0088716Y0025893D01*
X0088501Y0025663D01*
X0088292Y0025428D01*
X0088089Y0025188D01*
X0087892Y0024943D01*
X0087700Y0024694D01*
X0087515Y0024440D01*
X0087337Y0024181D01*
X0087164Y0023918D01*
X0086998Y0023651D01*
X0086839Y0023380D01*
X0086686Y0023105D01*
X0086540Y0022827D01*
X0086401Y0022545D01*
X0086269Y0022260D01*
X0086144Y0021971D01*
X0086026Y0021680D01*
X0085915Y0021386D01*
X0085812Y0021089D01*
X0085715Y0020790D01*
X0085626Y0020488D01*
X0085545Y0020185D01*
X0085471Y0019879D01*
X0085404Y0019572D01*
X0085345Y0019263D01*
X0085293Y0018953D01*
X0085249Y0018642D01*
X0085213Y0018330D01*
X0085184Y0018017D01*
X0085163Y0017703D01*
X0085150Y0017389D01*
X0085144Y0017075D01*
X0085146Y0016760D01*
X0085156Y0016446D01*
X0085173Y0016132D01*
X0085198Y0015819D01*
X0085231Y0015506D01*
X0085271Y0015194D01*
X0085319Y0014884D01*
X0085375Y0014574D01*
X0085438Y0014266D01*
X0085509Y0013960D01*
X0085587Y0013656D01*
X0085672Y0013353D01*
X0085765Y0013053D01*
X0085865Y0012755D01*
X0085973Y0012459D01*
X0086087Y0012167D01*
X0086209Y0011877D01*
X0086338Y0011590D01*
X0086474Y0011306D01*
X0086616Y0011026D01*
X0086766Y0010750D01*
X0086922Y0010477D01*
X0087085Y0010208D01*
X0087254Y0009943D01*
X0087430Y0009683D01*
X0087612Y0009426D01*
X0087800Y0009175D01*
X0087994Y0008927D01*
X0088195Y0008685D01*
X0088401Y0008448D01*
X0088613Y0008216D01*
X0088831Y0007989D01*
X0089054Y0007767D01*
X0089282Y0007551D01*
X0089516Y0007341D01*
X0089754Y0007137D01*
X0089998Y0006938D01*
X0090246Y0006745D01*
X0090303Y0006820D01*
X0090056Y0007012D01*
X0089814Y0007209D01*
X0089577Y0007412D01*
X0089346Y0007621D01*
X0089119Y0007835D01*
X0088897Y0008055D01*
X0088681Y0008280D01*
X0088471Y0008511D01*
X0088266Y0008746D01*
X0088067Y0008987D01*
X0087874Y0009232D01*
X0087688Y0009482D01*
X0087507Y0009736D01*
X0087332Y0009995D01*
X0087164Y0010258D01*
X0087003Y0010525D01*
X0086848Y0010796D01*
X0086699Y0011070D01*
X0086558Y0011348D01*
X0086423Y0011630D01*
X0086295Y0011914D01*
X0086174Y0012202D01*
X0086060Y0012493D01*
X0085954Y0012786D01*
X0085854Y0013082D01*
X0085762Y0013380D01*
X0085677Y0013680D01*
X0085600Y0013983D01*
X0085530Y0014287D01*
X0085467Y0014592D01*
X0085412Y0014899D01*
X0085364Y0015208D01*
X0085324Y0015517D01*
X0085292Y0015828D01*
X0085267Y0016139D01*
X0085250Y0016450D01*
X0085240Y0016762D01*
X0085238Y0017074D01*
X0085244Y0017386D01*
X0085257Y0017698D01*
X0085278Y0018009D01*
X0085306Y0018320D01*
X0085343Y0018630D01*
X0085386Y0018939D01*
X0085437Y0019247D01*
X0085496Y0019554D01*
X0085562Y0019858D01*
X0085636Y0020162D01*
X0085717Y0020463D01*
X0085805Y0020762D01*
X0085901Y0021059D01*
X0086004Y0021354D01*
X0086114Y0021646D01*
X0086231Y0021935D01*
X0086355Y0022222D01*
X0086486Y0022505D01*
X0086624Y0022785D01*
X0086769Y0023061D01*
X0086921Y0023334D01*
X0087079Y0023603D01*
X0087244Y0023868D01*
X0087415Y0024129D01*
X0087592Y0024385D01*
X0087776Y0024638D01*
X0087966Y0024885D01*
X0088161Y0025128D01*
X0088363Y0025367D01*
X0088571Y0025600D01*
X0088784Y0025828D01*
X0089002Y0026050D01*
X0089226Y0026268D01*
X0089455Y0026479D01*
X0089690Y0026685D01*
X0089929Y0026886D01*
X0090173Y0027080D01*
X0090422Y0027268D01*
X0090675Y0027451D01*
X0090933Y0027627D01*
X0091195Y0027796D01*
X0091461Y0027959D01*
X0091731Y0028116D01*
X0092005Y0028266D01*
X0092282Y0028409D01*
X0092562Y0028546D01*
X0092846Y0028675D01*
X0093133Y0028798D01*
X0093423Y0028913D01*
X0093716Y0029021D01*
X0094011Y0029123D01*
X0094309Y0029217D01*
X0094609Y0029303D01*
X0094910Y0029382D01*
X0095214Y0029454D01*
X0095519Y0029519D01*
X0095826Y0029576D01*
X0096134Y0029625D01*
X0096444Y0029667D01*
X0096754Y0029701D01*
X0097065Y0029728D01*
X0097376Y0029747D01*
X0097688Y0029758D01*
X0098000Y0029762D01*
X0098312Y0029758D01*
X0098624Y0029747D01*
X0098935Y0029728D01*
X0099246Y0029701D01*
X0099556Y0029667D01*
X0099866Y0029625D01*
X0100174Y0029576D01*
X0100481Y0029519D01*
X0100786Y0029454D01*
X0101090Y0029382D01*
X0101391Y0029303D01*
X0101691Y0029217D01*
X0101989Y0029123D01*
X0102284Y0029021D01*
X0102577Y0028913D01*
X0102867Y0028798D01*
X0103154Y0028675D01*
X0103438Y0028546D01*
X0103718Y0028409D01*
X0103995Y0028266D01*
X0104269Y0028116D01*
X0104539Y0027959D01*
X0104805Y0027796D01*
X0105067Y0027627D01*
X0105325Y0027451D01*
X0105578Y0027268D01*
X0105827Y0027080D01*
X0106071Y0026886D01*
X0106310Y0026685D01*
X0106545Y0026479D01*
X0106774Y0026268D01*
X0106998Y0026050D01*
X0107216Y0025828D01*
X0107429Y0025600D01*
X0107637Y0025367D01*
X0107839Y0025128D01*
X0108034Y0024885D01*
X0108224Y0024638D01*
X0108408Y0024385D01*
X0108585Y0024129D01*
X0108756Y0023868D01*
X0108921Y0023603D01*
X0109079Y0023334D01*
X0109231Y0023061D01*
X0109376Y0022785D01*
X0109514Y0022505D01*
X0109645Y0022222D01*
X0109769Y0021935D01*
X0109886Y0021646D01*
X0109996Y0021354D01*
X0110099Y0021059D01*
X0110195Y0020762D01*
X0110283Y0020463D01*
X0110364Y0020162D01*
X0110438Y0019858D01*
X0110504Y0019554D01*
X0110563Y0019247D01*
X0110614Y0018939D01*
X0110657Y0018630D01*
X0110694Y0018320D01*
X0110722Y0018009D01*
X0110743Y0017698D01*
X0110756Y0017386D01*
X0110762Y0017074D01*
X0110760Y0016762D01*
X0110750Y0016450D01*
X0110733Y0016139D01*
X0110708Y0015828D01*
X0110676Y0015517D01*
X0110636Y0015208D01*
X0110588Y0014899D01*
X0110533Y0014592D01*
X0110470Y0014287D01*
X0110400Y0013983D01*
X0110323Y0013680D01*
X0110238Y0013380D01*
X0110146Y0013082D01*
X0110046Y0012786D01*
X0109940Y0012493D01*
X0109826Y0012202D01*
X0109705Y0011914D01*
X0109577Y0011630D01*
X0109442Y0011348D01*
X0109301Y0011070D01*
X0109152Y0010796D01*
X0108997Y0010525D01*
X0108836Y0010258D01*
X0108668Y0009995D01*
X0108493Y0009736D01*
X0108312Y0009482D01*
X0108126Y0009232D01*
X0107933Y0008987D01*
X0107734Y0008746D01*
X0107529Y0008511D01*
X0107319Y0008280D01*
X0107103Y0008055D01*
X0106881Y0007835D01*
X0106654Y0007621D01*
X0106423Y0007412D01*
X0106186Y0007209D01*
X0105944Y0007012D01*
X0105697Y0006820D01*
X0105641Y0006896D01*
X0105886Y0007086D01*
X0106126Y0007281D01*
X0106361Y0007483D01*
X0106591Y0007690D01*
X0106816Y0007903D01*
X0107036Y0008121D01*
X0107250Y0008345D01*
X0107459Y0008574D01*
X0107662Y0008807D01*
X0107860Y0009046D01*
X0108051Y0009289D01*
X0108237Y0009538D01*
X0108416Y0009790D01*
X0108589Y0010047D01*
X0108756Y0010308D01*
X0108917Y0010573D01*
X0109070Y0010842D01*
X0109218Y0011114D01*
X0109358Y0011390D01*
X0109492Y0011670D01*
X0109619Y0011952D01*
X0109739Y0012238D01*
X0109852Y0012526D01*
X0109958Y0012817D01*
X0110056Y0013111D01*
X0110148Y0013407D01*
X0110232Y0013705D01*
X0110309Y0014005D01*
X0110378Y0014307D01*
X0110441Y0014610D01*
X0110495Y0014915D01*
X0110543Y0015221D01*
X0110582Y0015529D01*
X0110614Y0015837D01*
X0110639Y0016145D01*
X0110656Y0016455D01*
X0110666Y0016764D01*
X0110668Y0017074D01*
X0110662Y0017384D01*
X0110649Y0017693D01*
X0110628Y0018002D01*
X0110600Y0018311D01*
X0110564Y0018618D01*
X0110521Y0018925D01*
X0110470Y0019231D01*
X0110412Y0019535D01*
X0110346Y0019838D01*
X0110273Y0020139D01*
X0110193Y0020438D01*
X0110105Y0020735D01*
X0110010Y0021030D01*
X0109908Y0021322D01*
X0109799Y0021612D01*
X0109682Y0021899D01*
X0109559Y0022183D01*
X0109429Y0022464D01*
X0109292Y0022742D01*
X0109148Y0023016D01*
X0108998Y0023287D01*
X0108841Y0023554D01*
X0108677Y0023817D01*
X0108507Y0024076D01*
X0108331Y0024331D01*
X0108149Y0024582D01*
X0107960Y0024827D01*
X0107766Y0025069D01*
X0107566Y0025305D01*
X0107360Y0025536D01*
X0107148Y0025763D01*
X0106931Y0025984D01*
X0106709Y0026199D01*
X0106482Y0026410D01*
X0106249Y0026614D01*
X0106011Y0026813D01*
X0105769Y0027006D01*
X0105522Y0027193D01*
X0105271Y0027374D01*
X0105015Y0027548D01*
X0104755Y0027717D01*
X0104491Y0027879D01*
X0104223Y0028034D01*
X0103951Y0028183D01*
X0103676Y0028325D01*
X0103397Y0028461D01*
X0103116Y0028589D01*
X0102831Y0028711D01*
X0102543Y0028825D01*
X0102252Y0028933D01*
X0101959Y0029033D01*
X0101664Y0029127D01*
X0101366Y0029213D01*
X0101067Y0029291D01*
X0100765Y0029362D01*
X0100462Y0029426D01*
X0100158Y0029483D01*
X0099852Y0029532D01*
X0099545Y0029573D01*
X0099237Y0029607D01*
X0098928Y0029634D01*
X0098619Y0029653D01*
X0098310Y0029664D01*
X0098000Y0029668D01*
X0097690Y0029664D01*
X0097381Y0029653D01*
X0097072Y0029634D01*
X0096763Y0029607D01*
X0096455Y0029573D01*
X0096148Y0029532D01*
X0095842Y0029483D01*
X0095538Y0029426D01*
X0095235Y0029362D01*
X0094933Y0029291D01*
X0094634Y0029213D01*
X0094336Y0029127D01*
X0094041Y0029033D01*
X0093748Y0028933D01*
X0093457Y0028825D01*
X0093169Y0028711D01*
X0092884Y0028589D01*
X0092603Y0028461D01*
X0092324Y0028325D01*
X0092049Y0028183D01*
X0091777Y0028034D01*
X0091509Y0027879D01*
X0091245Y0027717D01*
X0090985Y0027548D01*
X0090729Y0027374D01*
X0090478Y0027193D01*
X0090231Y0027006D01*
X0089989Y0026813D01*
X0089751Y0026614D01*
X0089518Y0026410D01*
X0089291Y0026199D01*
X0089069Y0025984D01*
X0088852Y0025763D01*
X0088640Y0025536D01*
X0088434Y0025305D01*
X0088234Y0025069D01*
X0088040Y0024827D01*
X0087851Y0024582D01*
X0087669Y0024331D01*
X0087493Y0024076D01*
X0087323Y0023817D01*
X0087159Y0023554D01*
X0087002Y0023287D01*
X0086852Y0023016D01*
X0086708Y0022742D01*
X0086571Y0022464D01*
X0086441Y0022183D01*
X0086318Y0021899D01*
X0086201Y0021612D01*
X0086092Y0021322D01*
X0085990Y0021030D01*
X0085895Y0020735D01*
X0085807Y0020438D01*
X0085727Y0020139D01*
X0085654Y0019838D01*
X0085588Y0019535D01*
X0085530Y0019231D01*
X0085479Y0018925D01*
X0085436Y0018618D01*
X0085400Y0018311D01*
X0085372Y0018002D01*
X0085351Y0017693D01*
X0085338Y0017384D01*
X0085332Y0017074D01*
X0085334Y0016764D01*
X0085344Y0016455D01*
X0085361Y0016145D01*
X0085386Y0015837D01*
X0085418Y0015529D01*
X0085457Y0015221D01*
X0085505Y0014915D01*
X0085559Y0014610D01*
X0085622Y0014307D01*
X0085691Y0014005D01*
X0085768Y0013705D01*
X0085852Y0013407D01*
X0085944Y0013111D01*
X0086042Y0012817D01*
X0086148Y0012526D01*
X0086261Y0012238D01*
X0086381Y0011952D01*
X0086508Y0011670D01*
X0086642Y0011390D01*
X0086782Y0011114D01*
X0086930Y0010842D01*
X0087083Y0010573D01*
X0087244Y0010308D01*
X0087411Y0010047D01*
X0087584Y0009790D01*
X0087763Y0009538D01*
X0087949Y0009289D01*
X0088140Y0009046D01*
X0088338Y0008807D01*
X0088541Y0008574D01*
X0088750Y0008345D01*
X0088964Y0008121D01*
X0089184Y0007903D01*
X0089409Y0007690D01*
X0089639Y0007483D01*
X0089874Y0007281D01*
X0090114Y0007086D01*
X0090359Y0006896D01*
X0090416Y0006971D01*
X0090173Y0007159D01*
X0089934Y0007354D01*
X0089701Y0007554D01*
X0089473Y0007759D01*
X0089249Y0007971D01*
X0089031Y0008187D01*
X0088818Y0008409D01*
X0088611Y0008636D01*
X0088409Y0008868D01*
X0088213Y0009105D01*
X0088023Y0009347D01*
X0087839Y0009593D01*
X0087661Y0009844D01*
X0087489Y0010099D01*
X0087324Y0010358D01*
X0087164Y0010621D01*
X0087012Y0010888D01*
X0086865Y0011158D01*
X0086726Y0011432D01*
X0086593Y0011709D01*
X0086467Y0011990D01*
X0086348Y0012273D01*
X0086236Y0012560D01*
X0086131Y0012849D01*
X0086033Y0013140D01*
X0085942Y0013434D01*
X0085859Y0013730D01*
X0085782Y0014027D01*
X0085713Y0014327D01*
X0085652Y0014628D01*
X0085597Y0014931D01*
X0085551Y0015235D01*
X0085511Y0015540D01*
X0085479Y0015845D01*
X0085455Y0016152D01*
X0085438Y0016459D01*
X0085428Y0016766D01*
X0085426Y0017074D01*
X0085432Y0017381D01*
X0085445Y0017688D01*
X0085465Y0017995D01*
X0085494Y0018301D01*
X0085529Y0018607D01*
X0085572Y0018911D01*
X0085623Y0019214D01*
X0085680Y0019516D01*
X0085746Y0019817D01*
X0085818Y0020116D01*
X0085898Y0020412D01*
X0085985Y0020707D01*
X0086079Y0021000D01*
X0086181Y0021290D01*
X0086289Y0021578D01*
X0086404Y0021863D01*
X0086527Y0022145D01*
X0086656Y0022424D01*
X0086792Y0022700D01*
X0086935Y0022972D01*
X0087084Y0023241D01*
X0087240Y0023506D01*
X0087402Y0023767D01*
X0087571Y0024024D01*
X0087746Y0024277D01*
X0087927Y0024525D01*
X0088114Y0024769D01*
X0088307Y0025009D01*
X0088505Y0025243D01*
X0088710Y0025473D01*
X0088920Y0025698D01*
X0089135Y0025917D01*
X0089356Y0026131D01*
X0089581Y0026340D01*
X0089812Y0026543D01*
X0090048Y0026740D01*
X0090289Y0026932D01*
X0090534Y0027117D01*
X0090783Y0027297D01*
X0091037Y0027470D01*
X0091295Y0027637D01*
X0091557Y0027798D01*
X0091823Y0027952D01*
X0092093Y0028100D01*
X0092366Y0028241D01*
X0092643Y0028376D01*
X0092922Y0028503D01*
X0093205Y0028624D01*
X0093491Y0028738D01*
X0093779Y0028844D01*
X0094070Y0028944D01*
X0094363Y0029037D01*
X0094659Y0029122D01*
X0094956Y0029200D01*
X0095255Y0029271D01*
X0095556Y0029334D01*
X0095858Y0029390D01*
X0096162Y0029439D01*
X0096467Y0029480D01*
X0096772Y0029514D01*
X0097078Y0029540D01*
X0097385Y0029559D01*
X0097693Y0029570D01*
X0098000Y0029574D01*
X0098307Y0029570D01*
X0098615Y0029559D01*
X0098922Y0029540D01*
X0099228Y0029514D01*
X0099533Y0029480D01*
X0099838Y0029439D01*
X0100142Y0029390D01*
X0100444Y0029334D01*
X0100745Y0029271D01*
X0101044Y0029200D01*
X0101341Y0029122D01*
X0101637Y0029037D01*
X0101930Y0028944D01*
X0102221Y0028844D01*
X0102509Y0028738D01*
X0102795Y0028624D01*
X0103078Y0028503D01*
X0103357Y0028376D01*
X0103634Y0028241D01*
X0103907Y0028100D01*
X0104177Y0027952D01*
X0104443Y0027798D01*
X0104705Y0027637D01*
X0104963Y0027470D01*
X0105217Y0027297D01*
X0105466Y0027117D01*
X0105711Y0026932D01*
X0105952Y0026740D01*
X0106188Y0026543D01*
X0106419Y0026340D01*
X0106644Y0026131D01*
X0106865Y0025917D01*
X0107080Y0025698D01*
X0107290Y0025473D01*
X0107495Y0025243D01*
X0107693Y0025009D01*
X0107886Y0024769D01*
X0108073Y0024525D01*
X0108254Y0024277D01*
X0108429Y0024024D01*
X0108598Y0023767D01*
X0108760Y0023506D01*
X0108916Y0023241D01*
X0109065Y0022972D01*
X0109208Y0022700D01*
X0109344Y0022424D01*
X0109473Y0022145D01*
X0109596Y0021863D01*
X0109711Y0021578D01*
X0109819Y0021290D01*
X0109921Y0021000D01*
X0110015Y0020707D01*
X0110102Y0020412D01*
X0110182Y0020116D01*
X0110254Y0019817D01*
X0110320Y0019516D01*
X0110377Y0019214D01*
X0110428Y0018911D01*
X0110471Y0018607D01*
X0110506Y0018301D01*
X0110535Y0017995D01*
X0110555Y0017688D01*
X0110568Y0017381D01*
X0110574Y0017074D01*
X0110572Y0016766D01*
X0110562Y0016459D01*
X0110545Y0016152D01*
X0110521Y0015845D01*
X0110489Y0015540D01*
X0110449Y0015235D01*
X0110403Y0014931D01*
X0110348Y0014628D01*
X0110287Y0014327D01*
X0110218Y0014027D01*
X0110141Y0013730D01*
X0110058Y0013434D01*
X0109967Y0013140D01*
X0109869Y0012849D01*
X0109764Y0012560D01*
X0109652Y0012273D01*
X0109533Y0011990D01*
X0109407Y0011709D01*
X0109274Y0011432D01*
X0109135Y0011158D01*
X0108988Y0010888D01*
X0108836Y0010621D01*
X0108676Y0010358D01*
X0108511Y0010099D01*
X0108339Y0009844D01*
X0108161Y0009593D01*
X0107977Y0009347D01*
X0107787Y0009105D01*
X0107591Y0008868D01*
X0107389Y0008636D01*
X0107182Y0008409D01*
X0106969Y0008187D01*
X0106751Y0007971D01*
X0106527Y0007759D01*
X0106299Y0007554D01*
X0106066Y0007354D01*
X0105827Y0007159D01*
X0105584Y0006971D01*
X0105528Y0007046D01*
X0105769Y0007233D01*
X0106006Y0007426D01*
X0106237Y0007625D01*
X0106464Y0007829D01*
X0106686Y0008038D01*
X0106902Y0008253D01*
X0107113Y0008474D01*
X0107319Y0008699D01*
X0107519Y0008929D01*
X0107714Y0009165D01*
X0107902Y0009404D01*
X0108085Y0009649D01*
X0108262Y0009898D01*
X0108432Y0010151D01*
X0108597Y0010408D01*
X0108755Y0010669D01*
X0108906Y0010934D01*
X0109051Y0011202D01*
X0109190Y0011474D01*
X0109322Y0011749D01*
X0109447Y0012028D01*
X0109565Y0012309D01*
X0109676Y0012593D01*
X0109780Y0012880D01*
X0109878Y0013169D01*
X0109968Y0013461D01*
X0110051Y0013754D01*
X0110126Y0014050D01*
X0110195Y0014347D01*
X0110256Y0014646D01*
X0110310Y0014947D01*
X0110356Y0015248D01*
X0110396Y0015551D01*
X0110427Y0015854D01*
X0110452Y0016159D01*
X0110468Y0016463D01*
X0110478Y0016768D01*
X0110480Y0017073D01*
X0110474Y0017378D01*
X0110461Y0017683D01*
X0110441Y0017988D01*
X0110413Y0018292D01*
X0110378Y0018595D01*
X0110335Y0018897D01*
X0110285Y0019198D01*
X0110228Y0019498D01*
X0110163Y0019796D01*
X0110091Y0020092D01*
X0110012Y0020387D01*
X0109925Y0020680D01*
X0109832Y0020970D01*
X0109731Y0021258D01*
X0109623Y0021544D01*
X0109509Y0021827D01*
X0109387Y0022107D01*
X0109259Y0022384D01*
X0109124Y0022657D01*
X0108983Y0022927D01*
X0108834Y0023194D01*
X0108680Y0023457D01*
X0108519Y0023716D01*
X0108351Y0023972D01*
X0108178Y0024223D01*
X0107998Y0024469D01*
X0107812Y0024711D01*
X0107621Y0024949D01*
X0107424Y0025182D01*
X0107221Y0025410D01*
X0107012Y0025633D01*
X0106799Y0025851D01*
X0106580Y0026063D01*
X0106356Y0026270D01*
X0106126Y0026472D01*
X0105892Y0026668D01*
X0105654Y0026858D01*
X0105410Y0027042D01*
X0105163Y0027220D01*
X0104911Y0027392D01*
X0104654Y0027558D01*
X0104394Y0027717D01*
X0104130Y0027871D01*
X0103863Y0028017D01*
X0103592Y0028157D01*
X0103317Y0028291D01*
X0103040Y0028417D01*
X0102759Y0028537D01*
X0102475Y0028650D01*
X0102189Y0028756D01*
X0101901Y0028855D01*
X0101610Y0028947D01*
X0101316Y0029031D01*
X0101021Y0029109D01*
X0100724Y0029179D01*
X0100426Y0029242D01*
X0100126Y0029298D01*
X0099824Y0029346D01*
X0099522Y0029387D01*
X0099219Y0029420D01*
X0098915Y0029446D01*
X0098610Y0029465D01*
X0098305Y0029476D01*
X0098000Y0029480D01*
X0097695Y0029476D01*
X0097390Y0029465D01*
X0097085Y0029446D01*
X0096781Y0029420D01*
X0096478Y0029387D01*
X0096176Y0029346D01*
X0095874Y0029298D01*
X0095574Y0029242D01*
X0095276Y0029179D01*
X0094979Y0029109D01*
X0094684Y0029031D01*
X0094390Y0028947D01*
X0094099Y0028855D01*
X0093811Y0028756D01*
X0093525Y0028650D01*
X0093241Y0028537D01*
X0092960Y0028417D01*
X0092683Y0028291D01*
X0092408Y0028157D01*
X0092137Y0028017D01*
X0091870Y0027871D01*
X0091606Y0027717D01*
X0091346Y0027558D01*
X0091089Y0027392D01*
X0090837Y0027220D01*
X0090590Y0027042D01*
X0090346Y0026858D01*
X0090108Y0026668D01*
X0089874Y0026472D01*
X0089644Y0026270D01*
X0089420Y0026063D01*
X0089201Y0025851D01*
X0088988Y0025633D01*
X0088779Y0025410D01*
X0088576Y0025182D01*
X0088379Y0024949D01*
X0088188Y0024711D01*
X0088002Y0024469D01*
X0087822Y0024223D01*
X0087649Y0023972D01*
X0087481Y0023716D01*
X0087320Y0023457D01*
X0087166Y0023194D01*
X0087017Y0022927D01*
X0086876Y0022657D01*
X0086741Y0022384D01*
X0086613Y0022107D01*
X0086491Y0021827D01*
X0086377Y0021544D01*
X0086269Y0021258D01*
X0086168Y0020970D01*
X0086075Y0020680D01*
X0085988Y0020387D01*
X0085909Y0020092D01*
X0085837Y0019796D01*
X0085772Y0019498D01*
X0085715Y0019198D01*
X0085665Y0018897D01*
X0085622Y0018595D01*
X0085587Y0018292D01*
X0085559Y0017988D01*
X0085539Y0017683D01*
X0085526Y0017378D01*
X0085520Y0017073D01*
X0085522Y0016768D01*
X0085532Y0016463D01*
X0085548Y0016159D01*
X0085573Y0015854D01*
X0085604Y0015551D01*
X0085644Y0015248D01*
X0085690Y0014947D01*
X0085744Y0014646D01*
X0085805Y0014347D01*
X0085874Y0014050D01*
X0085949Y0013754D01*
X0086032Y0013461D01*
X0086122Y0013169D01*
X0086220Y0012880D01*
X0086324Y0012593D01*
X0086435Y0012309D01*
X0086553Y0012028D01*
X0086678Y0011749D01*
X0086810Y0011474D01*
X0086949Y0011202D01*
X0087094Y0010934D01*
X0087245Y0010669D01*
X0087403Y0010408D01*
X0087568Y0010151D01*
X0087738Y0009898D01*
X0087915Y0009649D01*
X0088098Y0009404D01*
X0088286Y0009165D01*
X0088481Y0008929D01*
X0088681Y0008699D01*
X0088887Y0008474D01*
X0089098Y0008253D01*
X0089314Y0008038D01*
X0089536Y0007829D01*
X0089763Y0007625D01*
X0089994Y0007426D01*
X0090231Y0007233D01*
X0090472Y0007046D01*
X0090528Y0007121D01*
X0090289Y0007307D01*
X0090054Y0007498D01*
X0089825Y0007695D01*
X0089600Y0007898D01*
X0089379Y0008106D01*
X0089165Y0008320D01*
X0088955Y0008538D01*
X0088751Y0008762D01*
X0088552Y0008990D01*
X0088359Y0009224D01*
X0088172Y0009462D01*
X0087991Y0009704D01*
X0087815Y0009951D01*
X0087646Y0010202D01*
X0087483Y0010458D01*
X0087326Y0010717D01*
X0087176Y0010980D01*
X0087032Y0011246D01*
X0086894Y0011516D01*
X0086763Y0011789D01*
X0086639Y0012065D01*
X0086522Y0012345D01*
X0086412Y0012627D01*
X0086308Y0012911D01*
X0086212Y0013198D01*
X0086122Y0013488D01*
X0086040Y0013779D01*
X0085965Y0014072D01*
X0085897Y0014368D01*
X0085836Y0014664D01*
X0085783Y0014962D01*
X0085737Y0015262D01*
X0085698Y0015562D01*
X0085666Y0015863D01*
X0085642Y0016165D01*
X0085625Y0016468D01*
X0085616Y0016770D01*
X0085614Y0017073D01*
X0085620Y0017376D01*
X0085633Y0017678D01*
X0085653Y0017981D01*
X0085681Y0018282D01*
X0085716Y0018583D01*
X0085758Y0018883D01*
X0085808Y0019182D01*
X0085865Y0019479D01*
X0085929Y0019775D01*
X0086000Y0020069D01*
X0086079Y0020362D01*
X0086165Y0020652D01*
X0086258Y0020941D01*
X0086357Y0021226D01*
X0086464Y0021510D01*
X0086578Y0021790D01*
X0086698Y0022068D01*
X0086826Y0022343D01*
X0086960Y0022615D01*
X0087100Y0022883D01*
X0087247Y0023148D01*
X0087401Y0023409D01*
X0087561Y0023666D01*
X0087727Y0023919D01*
X0087899Y0024168D01*
X0088077Y0024413D01*
X0088262Y0024654D01*
X0088452Y0024889D01*
X0088647Y0025120D01*
X0088849Y0025347D01*
X0089055Y0025568D01*
X0089268Y0025784D01*
X0089485Y0025995D01*
X0089707Y0026200D01*
X0089935Y0026400D01*
X0090167Y0026595D01*
X0090404Y0026783D01*
X0090646Y0026966D01*
X0090891Y0027143D01*
X0091142Y0027314D01*
X0091396Y0027478D01*
X0091654Y0027637D01*
X0091916Y0027789D01*
X0092181Y0027934D01*
X0092450Y0028073D01*
X0092723Y0028206D01*
X0092998Y0028331D01*
X0093277Y0028450D01*
X0093558Y0028562D01*
X0093842Y0028667D01*
X0094129Y0028766D01*
X0094418Y0028857D01*
X0094709Y0028941D01*
X0095002Y0029018D01*
X0095296Y0029087D01*
X0095593Y0029150D01*
X0095890Y0029205D01*
X0096189Y0029253D01*
X0096489Y0029294D01*
X0096791Y0029327D01*
X0097092Y0029353D01*
X0097395Y0029371D01*
X0097697Y0029382D01*
X0098000Y0029386D01*
X0098303Y0029382D01*
X0098605Y0029371D01*
X0098908Y0029353D01*
X0099209Y0029327D01*
X0099511Y0029294D01*
X0099811Y0029253D01*
X0100110Y0029205D01*
X0100407Y0029150D01*
X0100704Y0029087D01*
X0100998Y0029018D01*
X0101291Y0028941D01*
X0101582Y0028857D01*
X0101871Y0028766D01*
X0102158Y0028667D01*
X0102442Y0028562D01*
X0102723Y0028450D01*
X0103002Y0028331D01*
X0103277Y0028206D01*
X0103550Y0028073D01*
X0103819Y0027934D01*
X0104084Y0027789D01*
X0104346Y0027637D01*
X0104604Y0027478D01*
X0104858Y0027314D01*
X0105109Y0027143D01*
X0105354Y0026966D01*
X0105596Y0026783D01*
X0105833Y0026595D01*
X0106065Y0026400D01*
X0106293Y0026200D01*
X0106515Y0025995D01*
X0106732Y0025784D01*
X0106945Y0025568D01*
X0107151Y0025347D01*
X0107353Y0025120D01*
X0107548Y0024889D01*
X0107738Y0024654D01*
X0107923Y0024413D01*
X0108101Y0024168D01*
X0108273Y0023919D01*
X0108439Y0023666D01*
X0108599Y0023409D01*
X0108753Y0023148D01*
X0108900Y0022883D01*
X0109040Y0022615D01*
X0109174Y0022343D01*
X0109302Y0022068D01*
X0109422Y0021790D01*
X0109536Y0021510D01*
X0109643Y0021226D01*
X0109742Y0020941D01*
X0109835Y0020652D01*
X0109921Y0020362D01*
X0110000Y0020069D01*
X0110071Y0019775D01*
X0110135Y0019479D01*
X0110192Y0019182D01*
X0110242Y0018883D01*
X0110284Y0018583D01*
X0110319Y0018282D01*
X0110347Y0017981D01*
X0110367Y0017678D01*
X0110380Y0017376D01*
X0110386Y0017073D01*
X0110384Y0016770D01*
X0110375Y0016468D01*
X0110358Y0016165D01*
X0110334Y0015863D01*
X0110302Y0015562D01*
X0110263Y0015262D01*
X0110217Y0014962D01*
X0110164Y0014664D01*
X0110103Y0014368D01*
X0110035Y0014072D01*
X0109960Y0013779D01*
X0109878Y0013488D01*
X0109788Y0013198D01*
X0109692Y0012911D01*
X0109588Y0012627D01*
X0109478Y0012345D01*
X0109361Y0012065D01*
X0109237Y0011789D01*
X0109106Y0011516D01*
X0108968Y0011246D01*
X0108824Y0010980D01*
X0108674Y0010717D01*
X0108517Y0010458D01*
X0108354Y0010202D01*
X0108185Y0009951D01*
X0108009Y0009704D01*
X0107828Y0009462D01*
X0107641Y0009224D01*
X0107448Y0008990D01*
X0107249Y0008762D01*
X0107045Y0008538D01*
X0106835Y0008320D01*
X0106621Y0008106D01*
X0106400Y0007898D01*
X0106175Y0007695D01*
X0105946Y0007498D01*
X0105711Y0007307D01*
X0105472Y0007121D01*
X0105415Y0007196D01*
X0105653Y0007381D01*
X0105885Y0007571D01*
X0106114Y0007766D01*
X0106337Y0007967D01*
X0106555Y0008174D01*
X0106769Y0008386D01*
X0106977Y0008603D01*
X0107179Y0008825D01*
X0107376Y0009052D01*
X0107568Y0009283D01*
X0107754Y0009519D01*
X0107934Y0009760D01*
X0108108Y0010005D01*
X0108276Y0010254D01*
X0108438Y0010508D01*
X0108593Y0010765D01*
X0108742Y0011026D01*
X0108885Y0011290D01*
X0109022Y0011558D01*
X0109151Y0011829D01*
X0109274Y0012103D01*
X0109391Y0012380D01*
X0109500Y0012660D01*
X0109603Y0012943D01*
X0109699Y0013227D01*
X0109787Y0013515D01*
X0109869Y0013804D01*
X0109944Y0014095D01*
X0110011Y0014388D01*
X0110072Y0014682D01*
X0110125Y0014978D01*
X0110170Y0015275D01*
X0110209Y0015573D01*
X0110240Y0015872D01*
X0110264Y0016172D01*
X0110281Y0016472D01*
X0110290Y0016772D01*
X0110292Y0017073D01*
X0110286Y0017373D01*
X0110274Y0017674D01*
X0110253Y0017973D01*
X0110226Y0018273D01*
X0110191Y0018571D01*
X0110149Y0018869D01*
X0110100Y0019165D01*
X0110043Y0019460D01*
X0109979Y0019754D01*
X0109909Y0020046D01*
X0109831Y0020336D01*
X0109745Y0020625D01*
X0109653Y0020911D01*
X0109554Y0021195D01*
X0109448Y0021476D01*
X0109335Y0021754D01*
X0109216Y0022030D01*
X0109089Y0022303D01*
X0108956Y0022572D01*
X0108817Y0022838D01*
X0108671Y0023101D01*
X0108519Y0023360D01*
X0108360Y0023616D01*
X0108195Y0023867D01*
X0108024Y0024114D01*
X0107847Y0024357D01*
X0107664Y0024596D01*
X0107476Y0024830D01*
X0107282Y0025059D01*
X0107082Y0025283D01*
X0106877Y0025503D01*
X0106666Y0025717D01*
X0106450Y0025927D01*
X0106230Y0026131D01*
X0106004Y0026329D01*
X0105773Y0026522D01*
X0105538Y0026709D01*
X0105299Y0026891D01*
X0105055Y0027066D01*
X0104806Y0027236D01*
X0104554Y0027399D01*
X0104298Y0027556D01*
X0104038Y0027707D01*
X0103774Y0027851D01*
X0103507Y0027989D01*
X0103237Y0028121D01*
X0102964Y0028245D01*
X0102687Y0028363D01*
X0102408Y0028474D01*
X0102126Y0028579D01*
X0101842Y0028676D01*
X0101555Y0028767D01*
X0101266Y0028850D01*
X0100976Y0028926D01*
X0100683Y0028996D01*
X0100389Y0029058D01*
X0100094Y0029112D01*
X0099797Y0029160D01*
X0099499Y0029200D01*
X0099200Y0029233D01*
X0098901Y0029259D01*
X0098601Y0029277D01*
X0098301Y0029288D01*
X0098000Y0029292D01*
X0097699Y0029288D01*
X0097399Y0029277D01*
X0097099Y0029259D01*
X0096800Y0029233D01*
X0096501Y0029200D01*
X0096203Y0029160D01*
X0095906Y0029112D01*
X0095611Y0029058D01*
X0095317Y0028996D01*
X0095024Y0028926D01*
X0094734Y0028850D01*
X0094445Y0028767D01*
X0094158Y0028676D01*
X0093874Y0028579D01*
X0093592Y0028474D01*
X0093313Y0028363D01*
X0093036Y0028245D01*
X0092763Y0028121D01*
X0092493Y0027989D01*
X0092226Y0027851D01*
X0091962Y0027707D01*
X0091702Y0027556D01*
X0091446Y0027399D01*
X0091194Y0027236D01*
X0090945Y0027066D01*
X0090701Y0026891D01*
X0090462Y0026709D01*
X0090227Y0026522D01*
X0089996Y0026329D01*
X0089770Y0026131D01*
X0089550Y0025927D01*
X0089334Y0025717D01*
X0089123Y0025503D01*
X0088918Y0025283D01*
X0088718Y0025059D01*
X0088524Y0024830D01*
X0088336Y0024596D01*
X0088153Y0024357D01*
X0087976Y0024114D01*
X0087805Y0023867D01*
X0087640Y0023616D01*
X0087481Y0023360D01*
X0087329Y0023101D01*
X0087183Y0022838D01*
X0087044Y0022572D01*
X0086911Y0022303D01*
X0086784Y0022030D01*
X0086665Y0021754D01*
X0086552Y0021476D01*
X0086446Y0021195D01*
X0086347Y0020911D01*
X0086255Y0020625D01*
X0086169Y0020336D01*
X0086091Y0020046D01*
X0086021Y0019754D01*
X0085957Y0019460D01*
X0085900Y0019165D01*
X0085851Y0018869D01*
X0085809Y0018571D01*
X0085774Y0018273D01*
X0085747Y0017973D01*
X0085726Y0017674D01*
X0085714Y0017373D01*
X0085708Y0017073D01*
X0085710Y0016772D01*
X0085719Y0016472D01*
X0085736Y0016172D01*
X0085760Y0015872D01*
X0085791Y0015573D01*
X0085830Y0015275D01*
X0085875Y0014978D01*
X0085928Y0014682D01*
X0085989Y0014388D01*
X0086056Y0014095D01*
X0086131Y0013804D01*
X0086213Y0013515D01*
X0086301Y0013227D01*
X0086397Y0012943D01*
X0086500Y0012660D01*
X0086609Y0012380D01*
X0086726Y0012103D01*
X0086849Y0011829D01*
X0086978Y0011558D01*
X0087115Y0011290D01*
X0087258Y0011026D01*
X0087407Y0010765D01*
X0087562Y0010508D01*
X0087724Y0010254D01*
X0087892Y0010005D01*
X0088066Y0009760D01*
X0088246Y0009519D01*
X0088432Y0009283D01*
X0088624Y0009052D01*
X0088821Y0008825D01*
X0089023Y0008603D01*
X0089231Y0008386D01*
X0089445Y0008174D01*
X0089663Y0007967D01*
X0089886Y0007766D01*
X0090115Y0007571D01*
X0090347Y0007381D01*
X0090585Y0007196D01*
X0090641Y0007272D01*
X0090406Y0007454D01*
X0090175Y0007643D01*
X0089948Y0007837D01*
X0089726Y0008037D01*
X0089510Y0008242D01*
X0089298Y0008452D01*
X0089092Y0008667D01*
X0088891Y0008887D01*
X0088695Y0009113D01*
X0088505Y0009342D01*
X0088321Y0009577D01*
X0088142Y0009816D01*
X0087969Y0010059D01*
X0087803Y0010306D01*
X0087642Y0010558D01*
X0087488Y0010813D01*
X0087340Y0011072D01*
X0087198Y0011334D01*
X0087063Y0011600D01*
X0086934Y0011869D01*
X0086812Y0012141D01*
X0086696Y0012416D01*
X0086587Y0012694D01*
X0086486Y0012974D01*
X0086391Y0013257D01*
X0086303Y0013542D01*
X0086222Y0013829D01*
X0086147Y0014117D01*
X0086081Y0014408D01*
X0086021Y0014700D01*
X0085968Y0014994D01*
X0085923Y0015289D01*
X0085884Y0015584D01*
X0085853Y0015881D01*
X0085830Y0016178D01*
X0085813Y0016476D01*
X0085804Y0016774D01*
X0085802Y0017072D01*
X0085808Y0017371D01*
X0085820Y0017669D01*
X0085840Y0017966D01*
X0085868Y0018263D01*
X0085902Y0018559D01*
X0085944Y0018855D01*
X0085993Y0019149D01*
X0086049Y0019442D01*
X0086112Y0019733D01*
X0086183Y0020023D01*
X0086260Y0020311D01*
X0086344Y0020597D01*
X0086436Y0020881D01*
X0086534Y0021163D01*
X0086639Y0021442D01*
X0086751Y0021718D01*
X0086870Y0021992D01*
X0086995Y0022262D01*
X0087127Y0022530D01*
X0087266Y0022794D01*
X0087411Y0023055D01*
X0087562Y0023312D01*
X0087719Y0023565D01*
X0087883Y0023814D01*
X0088053Y0024060D01*
X0088228Y0024301D01*
X0088410Y0024538D01*
X0088597Y0024770D01*
X0088789Y0024997D01*
X0088988Y0025220D01*
X0089191Y0025438D01*
X0089400Y0025651D01*
X0089614Y0025859D01*
X0089834Y0026061D01*
X0090057Y0026258D01*
X0090286Y0026449D01*
X0090520Y0026635D01*
X0090757Y0026815D01*
X0090999Y0026989D01*
X0091246Y0027157D01*
X0091496Y0027319D01*
X0091750Y0027475D01*
X0092008Y0027625D01*
X0092270Y0027768D01*
X0092535Y0027905D01*
X0092803Y0028036D01*
X0093074Y0028159D01*
X0093349Y0028276D01*
X0093626Y0028387D01*
X0093906Y0028490D01*
X0094188Y0028587D01*
X0094472Y0028677D01*
X0094759Y0028759D01*
X0095047Y0028835D01*
X0095337Y0028904D01*
X0095629Y0028965D01*
X0095922Y0029020D01*
X0096217Y0029067D01*
X0096512Y0029107D01*
X0096809Y0029140D01*
X0097106Y0029165D01*
X0097404Y0029183D01*
X0097702Y0029194D01*
X0098000Y0029198D01*
X0098298Y0029194D01*
X0098596Y0029183D01*
X0098894Y0029165D01*
X0099191Y0029140D01*
X0099488Y0029107D01*
X0099783Y0029067D01*
X0100078Y0029020D01*
X0100371Y0028965D01*
X0100663Y0028904D01*
X0100953Y0028835D01*
X0101241Y0028759D01*
X0101528Y0028677D01*
X0101812Y0028587D01*
X0102094Y0028490D01*
X0102374Y0028387D01*
X0102651Y0028276D01*
X0102926Y0028159D01*
X0103197Y0028036D01*
X0103465Y0027905D01*
X0103730Y0027768D01*
X0103992Y0027625D01*
X0104250Y0027475D01*
X0104504Y0027319D01*
X0104754Y0027157D01*
X0105001Y0026989D01*
X0105243Y0026815D01*
X0105480Y0026635D01*
X0105714Y0026449D01*
X0105943Y0026258D01*
X0106166Y0026061D01*
X0106386Y0025859D01*
X0106600Y0025651D01*
X0106809Y0025438D01*
X0107012Y0025220D01*
X0107211Y0024997D01*
X0107403Y0024770D01*
X0107590Y0024538D01*
X0107772Y0024301D01*
X0107947Y0024060D01*
X0108117Y0023814D01*
X0108281Y0023565D01*
X0108438Y0023312D01*
X0108589Y0023055D01*
X0108734Y0022794D01*
X0108873Y0022530D01*
X0109005Y0022262D01*
X0109130Y0021992D01*
X0109249Y0021718D01*
X0109361Y0021442D01*
X0109466Y0021163D01*
X0109564Y0020881D01*
X0109656Y0020597D01*
X0109740Y0020311D01*
X0109817Y0020023D01*
X0109888Y0019733D01*
X0109951Y0019442D01*
X0110007Y0019149D01*
X0110056Y0018855D01*
X0110098Y0018559D01*
X0110132Y0018263D01*
X0110160Y0017966D01*
X0110180Y0017669D01*
X0110192Y0017371D01*
X0110198Y0017072D01*
X0110196Y0016774D01*
X0110187Y0016476D01*
X0110170Y0016178D01*
X0110147Y0015881D01*
X0110116Y0015584D01*
X0110077Y0015289D01*
X0110032Y0014994D01*
X0109979Y0014700D01*
X0109919Y0014408D01*
X0109853Y0014117D01*
X0109778Y0013829D01*
X0109697Y0013542D01*
X0109609Y0013257D01*
X0109514Y0012974D01*
X0109413Y0012694D01*
X0109304Y0012416D01*
X0109188Y0012141D01*
X0109066Y0011869D01*
X0108937Y0011600D01*
X0108802Y0011334D01*
X0108660Y0011072D01*
X0108512Y0010813D01*
X0108358Y0010558D01*
X0108197Y0010306D01*
X0108031Y0010059D01*
X0107858Y0009816D01*
X0107679Y0009577D01*
X0107495Y0009342D01*
X0107305Y0009113D01*
X0107109Y0008887D01*
X0106908Y0008667D01*
X0106702Y0008452D01*
X0106490Y0008242D01*
X0106274Y0008037D01*
X0106052Y0007837D01*
X0105825Y0007643D01*
X0105594Y0007454D01*
X0105359Y0007272D01*
X0105302Y0007347D01*
X0105536Y0007528D01*
X0105765Y0007715D01*
X0105990Y0007908D01*
X0106210Y0008106D01*
X0106425Y0008309D01*
X0106635Y0008518D01*
X0106840Y0008732D01*
X0107039Y0008950D01*
X0107233Y0009174D01*
X0107422Y0009402D01*
X0107605Y0009634D01*
X0107782Y0009871D01*
X0107953Y0010113D01*
X0108119Y0010358D01*
X0108278Y0010607D01*
X0108431Y0010861D01*
X0108578Y0011117D01*
X0108719Y0011378D01*
X0108853Y0011642D01*
X0108981Y0011909D01*
X0109102Y0012179D01*
X0109217Y0012451D01*
X0109325Y0012727D01*
X0109426Y0013005D01*
X0109520Y0013286D01*
X0109607Y0013568D01*
X0109688Y0013853D01*
X0109761Y0014140D01*
X0109828Y0014428D01*
X0109887Y0014718D01*
X0109939Y0015010D01*
X0109984Y0015302D01*
X0110022Y0015596D01*
X0110053Y0015890D01*
X0110077Y0016185D01*
X0110093Y0016480D01*
X0110102Y0016776D01*
X0110104Y0017072D01*
X0110098Y0017368D01*
X0110086Y0017664D01*
X0110066Y0017959D01*
X0110039Y0018254D01*
X0110005Y0018548D01*
X0109963Y0018841D01*
X0109915Y0019133D01*
X0109859Y0019423D01*
X0109796Y0019712D01*
X0109726Y0020000D01*
X0109649Y0020286D01*
X0109566Y0020570D01*
X0109475Y0020851D01*
X0109377Y0021131D01*
X0109273Y0021408D01*
X0109162Y0021682D01*
X0109044Y0021953D01*
X0108920Y0022222D01*
X0108789Y0022487D01*
X0108651Y0022749D01*
X0108508Y0023008D01*
X0108358Y0023263D01*
X0108201Y0023515D01*
X0108039Y0023762D01*
X0107871Y0024005D01*
X0107696Y0024245D01*
X0107516Y0024480D01*
X0107331Y0024710D01*
X0107139Y0024936D01*
X0106943Y0025157D01*
X0106741Y0025373D01*
X0106533Y0025584D01*
X0106321Y0025790D01*
X0106103Y0025991D01*
X0105881Y0026187D01*
X0105654Y0026377D01*
X0105423Y0026561D01*
X0105187Y0026739D01*
X0104947Y0026912D01*
X0104702Y0027079D01*
X0104454Y0027240D01*
X0104201Y0027395D01*
X0103945Y0027543D01*
X0103686Y0027685D01*
X0103423Y0027821D01*
X0103157Y0027951D01*
X0102888Y0028073D01*
X0102615Y0028190D01*
X0102340Y0028299D01*
X0102063Y0028402D01*
X0101783Y0028498D01*
X0101501Y0028587D01*
X0101216Y0028669D01*
X0100930Y0028744D01*
X0100642Y0028812D01*
X0100353Y0028873D01*
X0100062Y0028927D01*
X0099769Y0028974D01*
X0099476Y0029014D01*
X0099182Y0029046D01*
X0098887Y0029071D01*
X0098592Y0029090D01*
X0098296Y0029100D01*
X0098000Y0029104D01*
X0097704Y0029100D01*
X0097408Y0029090D01*
X0097113Y0029071D01*
X0096818Y0029046D01*
X0096524Y0029014D01*
X0096231Y0028974D01*
X0095938Y0028927D01*
X0095647Y0028873D01*
X0095358Y0028812D01*
X0095070Y0028744D01*
X0094784Y0028669D01*
X0094499Y0028587D01*
X0094217Y0028498D01*
X0093937Y0028402D01*
X0093660Y0028299D01*
X0093385Y0028190D01*
X0093112Y0028073D01*
X0092843Y0027951D01*
X0092577Y0027821D01*
X0092314Y0027685D01*
X0092055Y0027543D01*
X0091799Y0027395D01*
X0091546Y0027240D01*
X0091298Y0027079D01*
X0091053Y0026912D01*
X0090813Y0026739D01*
X0090577Y0026561D01*
X0090346Y0026377D01*
X0090119Y0026187D01*
X0089897Y0025991D01*
X0089679Y0025790D01*
X0089467Y0025584D01*
X0089259Y0025373D01*
X0089057Y0025157D01*
X0088861Y0024936D01*
X0088669Y0024710D01*
X0088484Y0024480D01*
X0088304Y0024245D01*
X0088129Y0024005D01*
X0087961Y0023762D01*
X0087799Y0023515D01*
X0087642Y0023263D01*
X0087492Y0023008D01*
X0087349Y0022749D01*
X0087211Y0022487D01*
X0087080Y0022222D01*
X0086956Y0021953D01*
X0086838Y0021682D01*
X0086727Y0021408D01*
X0086623Y0021131D01*
X0086525Y0020851D01*
X0086434Y0020570D01*
X0086351Y0020286D01*
X0086274Y0020000D01*
X0086204Y0019712D01*
X0086141Y0019423D01*
X0086085Y0019133D01*
X0086037Y0018841D01*
X0085995Y0018548D01*
X0085961Y0018254D01*
X0085934Y0017959D01*
X0085914Y0017664D01*
X0085902Y0017368D01*
X0085896Y0017072D01*
X0085898Y0016776D01*
X0085907Y0016480D01*
X0085923Y0016185D01*
X0085947Y0015890D01*
X0085978Y0015596D01*
X0086016Y0015302D01*
X0086061Y0015010D01*
X0086113Y0014718D01*
X0086172Y0014428D01*
X0086239Y0014140D01*
X0086312Y0013853D01*
X0086393Y0013568D01*
X0086480Y0013286D01*
X0086574Y0013005D01*
X0086675Y0012727D01*
X0086783Y0012451D01*
X0086898Y0012179D01*
X0087019Y0011909D01*
X0087147Y0011642D01*
X0087281Y0011378D01*
X0087422Y0011117D01*
X0087569Y0010861D01*
X0087722Y0010607D01*
X0087881Y0010358D01*
X0088047Y0010113D01*
X0088218Y0009871D01*
X0088395Y0009634D01*
X0088578Y0009402D01*
X0088767Y0009174D01*
X0088961Y0008950D01*
X0089160Y0008732D01*
X0089365Y0008518D01*
X0089575Y0008309D01*
X0089790Y0008106D01*
X0090010Y0007908D01*
X0090235Y0007715D01*
X0090464Y0007528D01*
X0090698Y0007347D01*
X0054809Y0006671D02*
X0054269Y0007391D01*
X0054270Y0007390D02*
X0054503Y0007571D01*
X0054731Y0007757D01*
X0054955Y0007949D01*
X0055174Y0008146D01*
X0055388Y0008348D01*
X0055597Y0008556D01*
X0055800Y0008769D01*
X0055999Y0008986D01*
X0056192Y0009209D01*
X0056380Y0009436D01*
X0056562Y0009667D01*
X0056739Y0009903D01*
X0056909Y0010144D01*
X0057074Y0010388D01*
X0057232Y0010636D01*
X0057385Y0010888D01*
X0057531Y0011144D01*
X0057671Y0011403D01*
X0057805Y0011666D01*
X0057932Y0011931D01*
X0058053Y0012200D01*
X0058167Y0012472D01*
X0058274Y0012746D01*
X0058375Y0013023D01*
X0058469Y0013302D01*
X0058556Y0013584D01*
X0058636Y0013867D01*
X0058709Y0014153D01*
X0058775Y0014440D01*
X0058834Y0014729D01*
X0058886Y0015019D01*
X0058931Y0015310D01*
X0058969Y0015602D01*
X0058999Y0015895D01*
X0059023Y0016189D01*
X0059039Y0016483D01*
X0059048Y0016777D01*
X0059050Y0017072D01*
X0059044Y0017367D01*
X0059032Y0017661D01*
X0059012Y0017955D01*
X0058985Y0018248D01*
X0058951Y0018541D01*
X0058910Y0018833D01*
X0058861Y0019123D01*
X0058806Y0019413D01*
X0058744Y0019700D01*
X0058674Y0019987D01*
X0058597Y0020271D01*
X0058514Y0020554D01*
X0058424Y0020834D01*
X0058327Y0021112D01*
X0058223Y0021388D01*
X0058112Y0021661D01*
X0057995Y0021931D01*
X0057871Y0022199D01*
X0057741Y0022463D01*
X0057604Y0022724D01*
X0057461Y0022981D01*
X0057311Y0023235D01*
X0057156Y0023486D01*
X0056994Y0023732D01*
X0056827Y0023974D01*
X0056653Y0024212D01*
X0056474Y0024446D01*
X0056289Y0024676D01*
X0056099Y0024900D01*
X0055903Y0025121D01*
X0055702Y0025336D01*
X0055495Y0025546D01*
X0055284Y0025751D01*
X0055067Y0025951D01*
X0054846Y0026146D01*
X0054620Y0026335D01*
X0054390Y0026518D01*
X0054155Y0026696D01*
X0053915Y0026868D01*
X0053672Y0027034D01*
X0053425Y0027194D01*
X0053174Y0027348D01*
X0052919Y0027496D01*
X0052660Y0027638D01*
X0052399Y0027773D01*
X0052134Y0027902D01*
X0051866Y0028024D01*
X0051595Y0028140D01*
X0051321Y0028249D01*
X0051045Y0028351D01*
X0050766Y0028446D01*
X0050485Y0028535D01*
X0050202Y0028617D01*
X0049917Y0028692D01*
X0049630Y0028759D01*
X0049342Y0028820D01*
X0049052Y0028874D01*
X0048761Y0028921D01*
X0048469Y0028960D01*
X0048177Y0028992D01*
X0047883Y0029018D01*
X0047589Y0029036D01*
X0047295Y0029046D01*
X0047000Y0029050D01*
X0046705Y0029046D01*
X0046411Y0029036D01*
X0046117Y0029018D01*
X0045823Y0028992D01*
X0045531Y0028960D01*
X0045239Y0028921D01*
X0044948Y0028874D01*
X0044658Y0028820D01*
X0044370Y0028759D01*
X0044083Y0028692D01*
X0043798Y0028617D01*
X0043515Y0028535D01*
X0043234Y0028446D01*
X0042955Y0028351D01*
X0042679Y0028249D01*
X0042405Y0028140D01*
X0042134Y0028024D01*
X0041866Y0027902D01*
X0041601Y0027773D01*
X0041340Y0027638D01*
X0041081Y0027496D01*
X0040826Y0027348D01*
X0040575Y0027194D01*
X0040328Y0027034D01*
X0040085Y0026868D01*
X0039845Y0026696D01*
X0039610Y0026518D01*
X0039380Y0026335D01*
X0039154Y0026146D01*
X0038933Y0025951D01*
X0038716Y0025751D01*
X0038505Y0025546D01*
X0038298Y0025336D01*
X0038097Y0025121D01*
X0037901Y0024900D01*
X0037711Y0024676D01*
X0037526Y0024446D01*
X0037347Y0024212D01*
X0037173Y0023974D01*
X0037006Y0023732D01*
X0036844Y0023486D01*
X0036689Y0023235D01*
X0036539Y0022981D01*
X0036396Y0022724D01*
X0036259Y0022463D01*
X0036129Y0022199D01*
X0036005Y0021931D01*
X0035888Y0021661D01*
X0035777Y0021388D01*
X0035673Y0021112D01*
X0035576Y0020834D01*
X0035486Y0020554D01*
X0035403Y0020271D01*
X0035326Y0019987D01*
X0035256Y0019700D01*
X0035194Y0019413D01*
X0035139Y0019123D01*
X0035090Y0018833D01*
X0035049Y0018541D01*
X0035015Y0018248D01*
X0034988Y0017955D01*
X0034968Y0017661D01*
X0034956Y0017367D01*
X0034950Y0017072D01*
X0034952Y0016777D01*
X0034961Y0016483D01*
X0034977Y0016189D01*
X0035001Y0015895D01*
X0035031Y0015602D01*
X0035069Y0015310D01*
X0035114Y0015019D01*
X0035166Y0014729D01*
X0035225Y0014440D01*
X0035291Y0014153D01*
X0035364Y0013867D01*
X0035444Y0013584D01*
X0035531Y0013302D01*
X0035625Y0013023D01*
X0035726Y0012746D01*
X0035833Y0012472D01*
X0035947Y0012200D01*
X0036068Y0011931D01*
X0036195Y0011666D01*
X0036329Y0011403D01*
X0036469Y0011144D01*
X0036615Y0010888D01*
X0036768Y0010636D01*
X0036926Y0010388D01*
X0037091Y0010144D01*
X0037261Y0009903D01*
X0037438Y0009667D01*
X0037620Y0009436D01*
X0037808Y0009209D01*
X0038001Y0008986D01*
X0038200Y0008769D01*
X0038403Y0008556D01*
X0038612Y0008348D01*
X0038826Y0008146D01*
X0039045Y0007949D01*
X0039269Y0007757D01*
X0039497Y0007571D01*
X0039730Y0007390D01*
X0039191Y0006671D01*
X0039190Y0006670D01*
X0038940Y0006864D01*
X0038694Y0007064D01*
X0038454Y0007270D01*
X0038219Y0007482D01*
X0037989Y0007700D01*
X0037764Y0007923D01*
X0037545Y0008151D01*
X0037331Y0008385D01*
X0037123Y0008624D01*
X0036921Y0008868D01*
X0036726Y0009117D01*
X0036536Y0009371D01*
X0036353Y0009629D01*
X0036176Y0009891D01*
X0036005Y0010158D01*
X0035841Y0010429D01*
X0035684Y0010704D01*
X0035533Y0010982D01*
X0035389Y0011265D01*
X0035253Y0011550D01*
X0035123Y0011839D01*
X0035000Y0012131D01*
X0034885Y0012426D01*
X0034777Y0012723D01*
X0034676Y0013024D01*
X0034582Y0013326D01*
X0034496Y0013631D01*
X0034417Y0013938D01*
X0034346Y0014246D01*
X0034283Y0014556D01*
X0034227Y0014868D01*
X0034178Y0015181D01*
X0034138Y0015495D01*
X0034105Y0015810D01*
X0034080Y0016126D01*
X0034062Y0016442D01*
X0034052Y0016758D01*
X0034050Y0017075D01*
X0034056Y0017392D01*
X0034069Y0017708D01*
X0034091Y0018024D01*
X0034119Y0018339D01*
X0034156Y0018654D01*
X0034200Y0018967D01*
X0034252Y0019280D01*
X0034312Y0019591D01*
X0034379Y0019900D01*
X0034454Y0020208D01*
X0034536Y0020514D01*
X0034625Y0020817D01*
X0034722Y0021119D01*
X0034827Y0021418D01*
X0034939Y0021714D01*
X0035057Y0022008D01*
X0035183Y0022298D01*
X0035316Y0022585D01*
X0035457Y0022870D01*
X0035604Y0023150D01*
X0035757Y0023427D01*
X0035918Y0023700D01*
X0036085Y0023969D01*
X0036259Y0024234D01*
X0036439Y0024494D01*
X0036625Y0024750D01*
X0036818Y0025001D01*
X0037016Y0025248D01*
X0037221Y0025490D01*
X0037431Y0025726D01*
X0037648Y0025958D01*
X0037870Y0026183D01*
X0038097Y0026404D01*
X0038329Y0026619D01*
X0038567Y0026828D01*
X0038810Y0027031D01*
X0039058Y0027229D01*
X0039310Y0027420D01*
X0039567Y0027605D01*
X0039829Y0027783D01*
X0040095Y0027955D01*
X0040364Y0028121D01*
X0040638Y0028280D01*
X0040916Y0028432D01*
X0041197Y0028577D01*
X0041482Y0028716D01*
X0041770Y0028847D01*
X0042062Y0028971D01*
X0042356Y0029089D01*
X0042653Y0029199D01*
X0042952Y0029301D01*
X0043254Y0029396D01*
X0043558Y0029484D01*
X0043865Y0029565D01*
X0044173Y0029638D01*
X0044483Y0029703D01*
X0044794Y0029761D01*
X0045107Y0029811D01*
X0045421Y0029853D01*
X0045735Y0029888D01*
X0046051Y0029915D01*
X0046367Y0029935D01*
X0046683Y0029946D01*
X0047000Y0029950D01*
X0047317Y0029946D01*
X0047633Y0029935D01*
X0047949Y0029915D01*
X0048265Y0029888D01*
X0048579Y0029853D01*
X0048893Y0029811D01*
X0049206Y0029761D01*
X0049517Y0029703D01*
X0049827Y0029638D01*
X0050135Y0029565D01*
X0050442Y0029484D01*
X0050746Y0029396D01*
X0051048Y0029301D01*
X0051347Y0029199D01*
X0051644Y0029089D01*
X0051938Y0028971D01*
X0052230Y0028847D01*
X0052518Y0028716D01*
X0052803Y0028577D01*
X0053084Y0028432D01*
X0053362Y0028280D01*
X0053636Y0028121D01*
X0053905Y0027955D01*
X0054171Y0027783D01*
X0054433Y0027605D01*
X0054690Y0027420D01*
X0054942Y0027229D01*
X0055190Y0027031D01*
X0055433Y0026828D01*
X0055671Y0026619D01*
X0055903Y0026404D01*
X0056130Y0026183D01*
X0056352Y0025958D01*
X0056569Y0025726D01*
X0056779Y0025490D01*
X0056984Y0025248D01*
X0057182Y0025001D01*
X0057375Y0024750D01*
X0057561Y0024494D01*
X0057741Y0024234D01*
X0057915Y0023969D01*
X0058082Y0023700D01*
X0058243Y0023427D01*
X0058396Y0023150D01*
X0058543Y0022870D01*
X0058684Y0022585D01*
X0058817Y0022298D01*
X0058943Y0022008D01*
X0059061Y0021714D01*
X0059173Y0021418D01*
X0059278Y0021119D01*
X0059375Y0020817D01*
X0059464Y0020514D01*
X0059546Y0020208D01*
X0059621Y0019900D01*
X0059688Y0019591D01*
X0059748Y0019280D01*
X0059800Y0018967D01*
X0059844Y0018654D01*
X0059881Y0018339D01*
X0059909Y0018024D01*
X0059931Y0017708D01*
X0059944Y0017392D01*
X0059950Y0017075D01*
X0059948Y0016758D01*
X0059938Y0016442D01*
X0059920Y0016126D01*
X0059895Y0015810D01*
X0059862Y0015495D01*
X0059822Y0015181D01*
X0059773Y0014868D01*
X0059717Y0014556D01*
X0059654Y0014246D01*
X0059583Y0013938D01*
X0059504Y0013631D01*
X0059418Y0013326D01*
X0059324Y0013024D01*
X0059223Y0012723D01*
X0059115Y0012426D01*
X0059000Y0012131D01*
X0058877Y0011839D01*
X0058747Y0011550D01*
X0058611Y0011265D01*
X0058467Y0010982D01*
X0058316Y0010704D01*
X0058159Y0010429D01*
X0057995Y0010158D01*
X0057824Y0009891D01*
X0057647Y0009629D01*
X0057464Y0009371D01*
X0057274Y0009117D01*
X0057079Y0008868D01*
X0056877Y0008624D01*
X0056669Y0008385D01*
X0056455Y0008151D01*
X0056236Y0007923D01*
X0056011Y0007700D01*
X0055781Y0007482D01*
X0055546Y0007270D01*
X0055306Y0007064D01*
X0055060Y0006864D01*
X0054810Y0006670D01*
X0054754Y0006745D01*
X0055002Y0006938D01*
X0055246Y0007137D01*
X0055484Y0007341D01*
X0055718Y0007551D01*
X0055946Y0007767D01*
X0056169Y0007989D01*
X0056387Y0008216D01*
X0056599Y0008448D01*
X0056805Y0008685D01*
X0057006Y0008927D01*
X0057200Y0009175D01*
X0057388Y0009426D01*
X0057570Y0009683D01*
X0057746Y0009943D01*
X0057915Y0010208D01*
X0058078Y0010477D01*
X0058234Y0010750D01*
X0058384Y0011026D01*
X0058526Y0011306D01*
X0058662Y0011590D01*
X0058791Y0011877D01*
X0058913Y0012167D01*
X0059027Y0012459D01*
X0059135Y0012755D01*
X0059235Y0013053D01*
X0059328Y0013353D01*
X0059413Y0013656D01*
X0059491Y0013960D01*
X0059562Y0014266D01*
X0059625Y0014574D01*
X0059681Y0014884D01*
X0059729Y0015194D01*
X0059769Y0015506D01*
X0059802Y0015819D01*
X0059827Y0016132D01*
X0059844Y0016446D01*
X0059854Y0016760D01*
X0059856Y0017075D01*
X0059850Y0017389D01*
X0059837Y0017703D01*
X0059816Y0018017D01*
X0059787Y0018330D01*
X0059751Y0018642D01*
X0059707Y0018953D01*
X0059655Y0019263D01*
X0059596Y0019572D01*
X0059529Y0019879D01*
X0059455Y0020185D01*
X0059374Y0020488D01*
X0059285Y0020790D01*
X0059188Y0021089D01*
X0059085Y0021386D01*
X0058974Y0021680D01*
X0058856Y0021971D01*
X0058731Y0022260D01*
X0058599Y0022545D01*
X0058460Y0022827D01*
X0058314Y0023105D01*
X0058161Y0023380D01*
X0058002Y0023651D01*
X0057836Y0023918D01*
X0057663Y0024181D01*
X0057485Y0024440D01*
X0057300Y0024694D01*
X0057108Y0024943D01*
X0056911Y0025188D01*
X0056708Y0025428D01*
X0056499Y0025663D01*
X0056284Y0025893D01*
X0056064Y0026117D01*
X0055839Y0026336D01*
X0055608Y0026549D01*
X0055372Y0026757D01*
X0055130Y0026959D01*
X0054885Y0027154D01*
X0054634Y0027344D01*
X0054379Y0027528D01*
X0054119Y0027705D01*
X0053855Y0027876D01*
X0053587Y0028040D01*
X0053315Y0028198D01*
X0053040Y0028349D01*
X0052760Y0028493D01*
X0052478Y0028631D01*
X0052192Y0028761D01*
X0051903Y0028885D01*
X0051610Y0029001D01*
X0051316Y0029110D01*
X0051018Y0029212D01*
X0050719Y0029306D01*
X0050416Y0029394D01*
X0050112Y0029474D01*
X0049807Y0029546D01*
X0049499Y0029611D01*
X0049190Y0029668D01*
X0048879Y0029718D01*
X0048568Y0029760D01*
X0048255Y0029795D01*
X0047942Y0029821D01*
X0047628Y0029841D01*
X0047314Y0029852D01*
X0047000Y0029856D01*
X0046686Y0029852D01*
X0046372Y0029841D01*
X0046058Y0029821D01*
X0045745Y0029795D01*
X0045432Y0029760D01*
X0045121Y0029718D01*
X0044810Y0029668D01*
X0044501Y0029611D01*
X0044193Y0029546D01*
X0043888Y0029474D01*
X0043584Y0029394D01*
X0043281Y0029306D01*
X0042982Y0029212D01*
X0042684Y0029110D01*
X0042390Y0029001D01*
X0042097Y0028885D01*
X0041808Y0028761D01*
X0041522Y0028631D01*
X0041240Y0028493D01*
X0040960Y0028349D01*
X0040685Y0028198D01*
X0040413Y0028040D01*
X0040145Y0027876D01*
X0039881Y0027705D01*
X0039621Y0027528D01*
X0039366Y0027344D01*
X0039115Y0027154D01*
X0038870Y0026959D01*
X0038628Y0026757D01*
X0038392Y0026549D01*
X0038161Y0026336D01*
X0037936Y0026117D01*
X0037716Y0025893D01*
X0037501Y0025663D01*
X0037292Y0025428D01*
X0037089Y0025188D01*
X0036892Y0024943D01*
X0036700Y0024694D01*
X0036515Y0024440D01*
X0036337Y0024181D01*
X0036164Y0023918D01*
X0035998Y0023651D01*
X0035839Y0023380D01*
X0035686Y0023105D01*
X0035540Y0022827D01*
X0035401Y0022545D01*
X0035269Y0022260D01*
X0035144Y0021971D01*
X0035026Y0021680D01*
X0034915Y0021386D01*
X0034812Y0021089D01*
X0034715Y0020790D01*
X0034626Y0020488D01*
X0034545Y0020185D01*
X0034471Y0019879D01*
X0034404Y0019572D01*
X0034345Y0019263D01*
X0034293Y0018953D01*
X0034249Y0018642D01*
X0034213Y0018330D01*
X0034184Y0018017D01*
X0034163Y0017703D01*
X0034150Y0017389D01*
X0034144Y0017075D01*
X0034146Y0016760D01*
X0034156Y0016446D01*
X0034173Y0016132D01*
X0034198Y0015819D01*
X0034231Y0015506D01*
X0034271Y0015194D01*
X0034319Y0014884D01*
X0034375Y0014574D01*
X0034438Y0014266D01*
X0034509Y0013960D01*
X0034587Y0013656D01*
X0034672Y0013353D01*
X0034765Y0013053D01*
X0034865Y0012755D01*
X0034973Y0012459D01*
X0035087Y0012167D01*
X0035209Y0011877D01*
X0035338Y0011590D01*
X0035474Y0011306D01*
X0035616Y0011026D01*
X0035766Y0010750D01*
X0035922Y0010477D01*
X0036085Y0010208D01*
X0036254Y0009943D01*
X0036430Y0009683D01*
X0036612Y0009426D01*
X0036800Y0009175D01*
X0036994Y0008927D01*
X0037195Y0008685D01*
X0037401Y0008448D01*
X0037613Y0008216D01*
X0037831Y0007989D01*
X0038054Y0007767D01*
X0038282Y0007551D01*
X0038516Y0007341D01*
X0038754Y0007137D01*
X0038998Y0006938D01*
X0039246Y0006745D01*
X0039303Y0006820D01*
X0039056Y0007012D01*
X0038814Y0007209D01*
X0038577Y0007412D01*
X0038346Y0007621D01*
X0038119Y0007835D01*
X0037897Y0008055D01*
X0037681Y0008280D01*
X0037471Y0008511D01*
X0037266Y0008746D01*
X0037067Y0008987D01*
X0036874Y0009232D01*
X0036688Y0009482D01*
X0036507Y0009736D01*
X0036332Y0009995D01*
X0036164Y0010258D01*
X0036003Y0010525D01*
X0035848Y0010796D01*
X0035699Y0011070D01*
X0035558Y0011348D01*
X0035423Y0011630D01*
X0035295Y0011914D01*
X0035174Y0012202D01*
X0035060Y0012493D01*
X0034954Y0012786D01*
X0034854Y0013082D01*
X0034762Y0013380D01*
X0034677Y0013680D01*
X0034600Y0013983D01*
X0034530Y0014287D01*
X0034467Y0014592D01*
X0034412Y0014899D01*
X0034364Y0015208D01*
X0034324Y0015517D01*
X0034292Y0015828D01*
X0034267Y0016139D01*
X0034250Y0016450D01*
X0034240Y0016762D01*
X0034238Y0017074D01*
X0034244Y0017386D01*
X0034257Y0017698D01*
X0034278Y0018009D01*
X0034306Y0018320D01*
X0034343Y0018630D01*
X0034386Y0018939D01*
X0034437Y0019247D01*
X0034496Y0019554D01*
X0034562Y0019858D01*
X0034636Y0020162D01*
X0034717Y0020463D01*
X0034805Y0020762D01*
X0034901Y0021059D01*
X0035004Y0021354D01*
X0035114Y0021646D01*
X0035231Y0021935D01*
X0035355Y0022222D01*
X0035486Y0022505D01*
X0035624Y0022785D01*
X0035769Y0023061D01*
X0035921Y0023334D01*
X0036079Y0023603D01*
X0036244Y0023868D01*
X0036415Y0024129D01*
X0036592Y0024385D01*
X0036776Y0024638D01*
X0036966Y0024885D01*
X0037161Y0025128D01*
X0037363Y0025367D01*
X0037571Y0025600D01*
X0037784Y0025828D01*
X0038002Y0026050D01*
X0038226Y0026268D01*
X0038455Y0026479D01*
X0038690Y0026685D01*
X0038929Y0026886D01*
X0039173Y0027080D01*
X0039422Y0027268D01*
X0039675Y0027451D01*
X0039933Y0027627D01*
X0040195Y0027796D01*
X0040461Y0027959D01*
X0040731Y0028116D01*
X0041005Y0028266D01*
X0041282Y0028409D01*
X0041562Y0028546D01*
X0041846Y0028675D01*
X0042133Y0028798D01*
X0042423Y0028913D01*
X0042716Y0029021D01*
X0043011Y0029123D01*
X0043309Y0029217D01*
X0043609Y0029303D01*
X0043910Y0029382D01*
X0044214Y0029454D01*
X0044519Y0029519D01*
X0044826Y0029576D01*
X0045134Y0029625D01*
X0045444Y0029667D01*
X0045754Y0029701D01*
X0046065Y0029728D01*
X0046376Y0029747D01*
X0046688Y0029758D01*
X0047000Y0029762D01*
X0047312Y0029758D01*
X0047624Y0029747D01*
X0047935Y0029728D01*
X0048246Y0029701D01*
X0048556Y0029667D01*
X0048866Y0029625D01*
X0049174Y0029576D01*
X0049481Y0029519D01*
X0049786Y0029454D01*
X0050090Y0029382D01*
X0050391Y0029303D01*
X0050691Y0029217D01*
X0050989Y0029123D01*
X0051284Y0029021D01*
X0051577Y0028913D01*
X0051867Y0028798D01*
X0052154Y0028675D01*
X0052438Y0028546D01*
X0052718Y0028409D01*
X0052995Y0028266D01*
X0053269Y0028116D01*
X0053539Y0027959D01*
X0053805Y0027796D01*
X0054067Y0027627D01*
X0054325Y0027451D01*
X0054578Y0027268D01*
X0054827Y0027080D01*
X0055071Y0026886D01*
X0055310Y0026685D01*
X0055545Y0026479D01*
X0055774Y0026268D01*
X0055998Y0026050D01*
X0056216Y0025828D01*
X0056429Y0025600D01*
X0056637Y0025367D01*
X0056839Y0025128D01*
X0057034Y0024885D01*
X0057224Y0024638D01*
X0057408Y0024385D01*
X0057585Y0024129D01*
X0057756Y0023868D01*
X0057921Y0023603D01*
X0058079Y0023334D01*
X0058231Y0023061D01*
X0058376Y0022785D01*
X0058514Y0022505D01*
X0058645Y0022222D01*
X0058769Y0021935D01*
X0058886Y0021646D01*
X0058996Y0021354D01*
X0059099Y0021059D01*
X0059195Y0020762D01*
X0059283Y0020463D01*
X0059364Y0020162D01*
X0059438Y0019858D01*
X0059504Y0019554D01*
X0059563Y0019247D01*
X0059614Y0018939D01*
X0059657Y0018630D01*
X0059694Y0018320D01*
X0059722Y0018009D01*
X0059743Y0017698D01*
X0059756Y0017386D01*
X0059762Y0017074D01*
X0059760Y0016762D01*
X0059750Y0016450D01*
X0059733Y0016139D01*
X0059708Y0015828D01*
X0059676Y0015517D01*
X0059636Y0015208D01*
X0059588Y0014899D01*
X0059533Y0014592D01*
X0059470Y0014287D01*
X0059400Y0013983D01*
X0059323Y0013680D01*
X0059238Y0013380D01*
X0059146Y0013082D01*
X0059046Y0012786D01*
X0058940Y0012493D01*
X0058826Y0012202D01*
X0058705Y0011914D01*
X0058577Y0011630D01*
X0058442Y0011348D01*
X0058301Y0011070D01*
X0058152Y0010796D01*
X0057997Y0010525D01*
X0057836Y0010258D01*
X0057668Y0009995D01*
X0057493Y0009736D01*
X0057312Y0009482D01*
X0057126Y0009232D01*
X0056933Y0008987D01*
X0056734Y0008746D01*
X0056529Y0008511D01*
X0056319Y0008280D01*
X0056103Y0008055D01*
X0055881Y0007835D01*
X0055654Y0007621D01*
X0055423Y0007412D01*
X0055186Y0007209D01*
X0054944Y0007012D01*
X0054697Y0006820D01*
X0054641Y0006896D01*
X0054886Y0007086D01*
X0055126Y0007281D01*
X0055361Y0007483D01*
X0055591Y0007690D01*
X0055816Y0007903D01*
X0056036Y0008121D01*
X0056250Y0008345D01*
X0056459Y0008574D01*
X0056662Y0008807D01*
X0056860Y0009046D01*
X0057051Y0009289D01*
X0057237Y0009538D01*
X0057416Y0009790D01*
X0057589Y0010047D01*
X0057756Y0010308D01*
X0057917Y0010573D01*
X0058070Y0010842D01*
X0058218Y0011114D01*
X0058358Y0011390D01*
X0058492Y0011670D01*
X0058619Y0011952D01*
X0058739Y0012238D01*
X0058852Y0012526D01*
X0058958Y0012817D01*
X0059056Y0013111D01*
X0059148Y0013407D01*
X0059232Y0013705D01*
X0059309Y0014005D01*
X0059378Y0014307D01*
X0059441Y0014610D01*
X0059495Y0014915D01*
X0059543Y0015221D01*
X0059582Y0015529D01*
X0059614Y0015837D01*
X0059639Y0016145D01*
X0059656Y0016455D01*
X0059666Y0016764D01*
X0059668Y0017074D01*
X0059662Y0017384D01*
X0059649Y0017693D01*
X0059628Y0018002D01*
X0059600Y0018311D01*
X0059564Y0018618D01*
X0059521Y0018925D01*
X0059470Y0019231D01*
X0059412Y0019535D01*
X0059346Y0019838D01*
X0059273Y0020139D01*
X0059193Y0020438D01*
X0059105Y0020735D01*
X0059010Y0021030D01*
X0058908Y0021322D01*
X0058799Y0021612D01*
X0058682Y0021899D01*
X0058559Y0022183D01*
X0058429Y0022464D01*
X0058292Y0022742D01*
X0058148Y0023016D01*
X0057998Y0023287D01*
X0057841Y0023554D01*
X0057677Y0023817D01*
X0057507Y0024076D01*
X0057331Y0024331D01*
X0057149Y0024582D01*
X0056960Y0024827D01*
X0056766Y0025069D01*
X0056566Y0025305D01*
X0056360Y0025536D01*
X0056148Y0025763D01*
X0055931Y0025984D01*
X0055709Y0026199D01*
X0055482Y0026410D01*
X0055249Y0026614D01*
X0055011Y0026813D01*
X0054769Y0027006D01*
X0054522Y0027193D01*
X0054271Y0027374D01*
X0054015Y0027548D01*
X0053755Y0027717D01*
X0053491Y0027879D01*
X0053223Y0028034D01*
X0052951Y0028183D01*
X0052676Y0028325D01*
X0052397Y0028461D01*
X0052116Y0028589D01*
X0051831Y0028711D01*
X0051543Y0028825D01*
X0051252Y0028933D01*
X0050959Y0029033D01*
X0050664Y0029127D01*
X0050366Y0029213D01*
X0050067Y0029291D01*
X0049765Y0029362D01*
X0049462Y0029426D01*
X0049158Y0029483D01*
X0048852Y0029532D01*
X0048545Y0029573D01*
X0048237Y0029607D01*
X0047928Y0029634D01*
X0047619Y0029653D01*
X0047310Y0029664D01*
X0047000Y0029668D01*
X0046690Y0029664D01*
X0046381Y0029653D01*
X0046072Y0029634D01*
X0045763Y0029607D01*
X0045455Y0029573D01*
X0045148Y0029532D01*
X0044842Y0029483D01*
X0044538Y0029426D01*
X0044235Y0029362D01*
X0043933Y0029291D01*
X0043634Y0029213D01*
X0043336Y0029127D01*
X0043041Y0029033D01*
X0042748Y0028933D01*
X0042457Y0028825D01*
X0042169Y0028711D01*
X0041884Y0028589D01*
X0041603Y0028461D01*
X0041324Y0028325D01*
X0041049Y0028183D01*
X0040777Y0028034D01*
X0040509Y0027879D01*
X0040245Y0027717D01*
X0039985Y0027548D01*
X0039729Y0027374D01*
X0039478Y0027193D01*
X0039231Y0027006D01*
X0038989Y0026813D01*
X0038751Y0026614D01*
X0038518Y0026410D01*
X0038291Y0026199D01*
X0038069Y0025984D01*
X0037852Y0025763D01*
X0037640Y0025536D01*
X0037434Y0025305D01*
X0037234Y0025069D01*
X0037040Y0024827D01*
X0036851Y0024582D01*
X0036669Y0024331D01*
X0036493Y0024076D01*
X0036323Y0023817D01*
X0036159Y0023554D01*
X0036002Y0023287D01*
X0035852Y0023016D01*
X0035708Y0022742D01*
X0035571Y0022464D01*
X0035441Y0022183D01*
X0035318Y0021899D01*
X0035201Y0021612D01*
X0035092Y0021322D01*
X0034990Y0021030D01*
X0034895Y0020735D01*
X0034807Y0020438D01*
X0034727Y0020139D01*
X0034654Y0019838D01*
X0034588Y0019535D01*
X0034530Y0019231D01*
X0034479Y0018925D01*
X0034436Y0018618D01*
X0034400Y0018311D01*
X0034372Y0018002D01*
X0034351Y0017693D01*
X0034338Y0017384D01*
X0034332Y0017074D01*
X0034334Y0016764D01*
X0034344Y0016455D01*
X0034361Y0016145D01*
X0034386Y0015837D01*
X0034418Y0015529D01*
X0034457Y0015221D01*
X0034505Y0014915D01*
X0034559Y0014610D01*
X0034622Y0014307D01*
X0034691Y0014005D01*
X0034768Y0013705D01*
X0034852Y0013407D01*
X0034944Y0013111D01*
X0035042Y0012817D01*
X0035148Y0012526D01*
X0035261Y0012238D01*
X0035381Y0011952D01*
X0035508Y0011670D01*
X0035642Y0011390D01*
X0035782Y0011114D01*
X0035930Y0010842D01*
X0036083Y0010573D01*
X0036244Y0010308D01*
X0036411Y0010047D01*
X0036584Y0009790D01*
X0036763Y0009538D01*
X0036949Y0009289D01*
X0037140Y0009046D01*
X0037338Y0008807D01*
X0037541Y0008574D01*
X0037750Y0008345D01*
X0037964Y0008121D01*
X0038184Y0007903D01*
X0038409Y0007690D01*
X0038639Y0007483D01*
X0038874Y0007281D01*
X0039114Y0007086D01*
X0039359Y0006896D01*
X0039416Y0006971D01*
X0039173Y0007159D01*
X0038934Y0007354D01*
X0038701Y0007554D01*
X0038473Y0007759D01*
X0038249Y0007971D01*
X0038031Y0008187D01*
X0037818Y0008409D01*
X0037611Y0008636D01*
X0037409Y0008868D01*
X0037213Y0009105D01*
X0037023Y0009347D01*
X0036839Y0009593D01*
X0036661Y0009844D01*
X0036489Y0010099D01*
X0036324Y0010358D01*
X0036164Y0010621D01*
X0036012Y0010888D01*
X0035865Y0011158D01*
X0035726Y0011432D01*
X0035593Y0011709D01*
X0035467Y0011990D01*
X0035348Y0012273D01*
X0035236Y0012560D01*
X0035131Y0012849D01*
X0035033Y0013140D01*
X0034942Y0013434D01*
X0034859Y0013730D01*
X0034782Y0014027D01*
X0034713Y0014327D01*
X0034652Y0014628D01*
X0034597Y0014931D01*
X0034551Y0015235D01*
X0034511Y0015540D01*
X0034479Y0015845D01*
X0034455Y0016152D01*
X0034438Y0016459D01*
X0034428Y0016766D01*
X0034426Y0017074D01*
X0034432Y0017381D01*
X0034445Y0017688D01*
X0034465Y0017995D01*
X0034494Y0018301D01*
X0034529Y0018607D01*
X0034572Y0018911D01*
X0034623Y0019214D01*
X0034680Y0019516D01*
X0034746Y0019817D01*
X0034818Y0020116D01*
X0034898Y0020412D01*
X0034985Y0020707D01*
X0035079Y0021000D01*
X0035181Y0021290D01*
X0035289Y0021578D01*
X0035404Y0021863D01*
X0035527Y0022145D01*
X0035656Y0022424D01*
X0035792Y0022700D01*
X0035935Y0022972D01*
X0036084Y0023241D01*
X0036240Y0023506D01*
X0036402Y0023767D01*
X0036571Y0024024D01*
X0036746Y0024277D01*
X0036927Y0024525D01*
X0037114Y0024769D01*
X0037307Y0025009D01*
X0037505Y0025243D01*
X0037710Y0025473D01*
X0037920Y0025698D01*
X0038135Y0025917D01*
X0038356Y0026131D01*
X0038581Y0026340D01*
X0038812Y0026543D01*
X0039048Y0026740D01*
X0039289Y0026932D01*
X0039534Y0027117D01*
X0039783Y0027297D01*
X0040037Y0027470D01*
X0040295Y0027637D01*
X0040557Y0027798D01*
X0040823Y0027952D01*
X0041093Y0028100D01*
X0041366Y0028241D01*
X0041643Y0028376D01*
X0041922Y0028503D01*
X0042205Y0028624D01*
X0042491Y0028738D01*
X0042779Y0028844D01*
X0043070Y0028944D01*
X0043363Y0029037D01*
X0043659Y0029122D01*
X0043956Y0029200D01*
X0044255Y0029271D01*
X0044556Y0029334D01*
X0044858Y0029390D01*
X0045162Y0029439D01*
X0045467Y0029480D01*
X0045772Y0029514D01*
X0046078Y0029540D01*
X0046385Y0029559D01*
X0046693Y0029570D01*
X0047000Y0029574D01*
X0047307Y0029570D01*
X0047615Y0029559D01*
X0047922Y0029540D01*
X0048228Y0029514D01*
X0048533Y0029480D01*
X0048838Y0029439D01*
X0049142Y0029390D01*
X0049444Y0029334D01*
X0049745Y0029271D01*
X0050044Y0029200D01*
X0050341Y0029122D01*
X0050637Y0029037D01*
X0050930Y0028944D01*
X0051221Y0028844D01*
X0051509Y0028738D01*
X0051795Y0028624D01*
X0052078Y0028503D01*
X0052357Y0028376D01*
X0052634Y0028241D01*
X0052907Y0028100D01*
X0053177Y0027952D01*
X0053443Y0027798D01*
X0053705Y0027637D01*
X0053963Y0027470D01*
X0054217Y0027297D01*
X0054466Y0027117D01*
X0054711Y0026932D01*
X0054952Y0026740D01*
X0055188Y0026543D01*
X0055419Y0026340D01*
X0055644Y0026131D01*
X0055865Y0025917D01*
X0056080Y0025698D01*
X0056290Y0025473D01*
X0056495Y0025243D01*
X0056693Y0025009D01*
X0056886Y0024769D01*
X0057073Y0024525D01*
X0057254Y0024277D01*
X0057429Y0024024D01*
X0057598Y0023767D01*
X0057760Y0023506D01*
X0057916Y0023241D01*
X0058065Y0022972D01*
X0058208Y0022700D01*
X0058344Y0022424D01*
X0058473Y0022145D01*
X0058596Y0021863D01*
X0058711Y0021578D01*
X0058819Y0021290D01*
X0058921Y0021000D01*
X0059015Y0020707D01*
X0059102Y0020412D01*
X0059182Y0020116D01*
X0059254Y0019817D01*
X0059320Y0019516D01*
X0059377Y0019214D01*
X0059428Y0018911D01*
X0059471Y0018607D01*
X0059506Y0018301D01*
X0059535Y0017995D01*
X0059555Y0017688D01*
X0059568Y0017381D01*
X0059574Y0017074D01*
X0059572Y0016766D01*
X0059562Y0016459D01*
X0059545Y0016152D01*
X0059521Y0015845D01*
X0059489Y0015540D01*
X0059449Y0015235D01*
X0059403Y0014931D01*
X0059348Y0014628D01*
X0059287Y0014327D01*
X0059218Y0014027D01*
X0059141Y0013730D01*
X0059058Y0013434D01*
X0058967Y0013140D01*
X0058869Y0012849D01*
X0058764Y0012560D01*
X0058652Y0012273D01*
X0058533Y0011990D01*
X0058407Y0011709D01*
X0058274Y0011432D01*
X0058135Y0011158D01*
X0057988Y0010888D01*
X0057836Y0010621D01*
X0057676Y0010358D01*
X0057511Y0010099D01*
X0057339Y0009844D01*
X0057161Y0009593D01*
X0056977Y0009347D01*
X0056787Y0009105D01*
X0056591Y0008868D01*
X0056389Y0008636D01*
X0056182Y0008409D01*
X0055969Y0008187D01*
X0055751Y0007971D01*
X0055527Y0007759D01*
X0055299Y0007554D01*
X0055066Y0007354D01*
X0054827Y0007159D01*
X0054584Y0006971D01*
X0054528Y0007046D01*
X0054769Y0007233D01*
X0055006Y0007426D01*
X0055237Y0007625D01*
X0055464Y0007829D01*
X0055686Y0008038D01*
X0055902Y0008253D01*
X0056113Y0008474D01*
X0056319Y0008699D01*
X0056519Y0008929D01*
X0056714Y0009165D01*
X0056902Y0009404D01*
X0057085Y0009649D01*
X0057262Y0009898D01*
X0057432Y0010151D01*
X0057597Y0010408D01*
X0057755Y0010669D01*
X0057906Y0010934D01*
X0058051Y0011202D01*
X0058190Y0011474D01*
X0058322Y0011749D01*
X0058447Y0012028D01*
X0058565Y0012309D01*
X0058676Y0012593D01*
X0058780Y0012880D01*
X0058878Y0013169D01*
X0058968Y0013461D01*
X0059051Y0013754D01*
X0059126Y0014050D01*
X0059195Y0014347D01*
X0059256Y0014646D01*
X0059310Y0014947D01*
X0059356Y0015248D01*
X0059396Y0015551D01*
X0059427Y0015854D01*
X0059452Y0016159D01*
X0059468Y0016463D01*
X0059478Y0016768D01*
X0059480Y0017073D01*
X0059474Y0017378D01*
X0059461Y0017683D01*
X0059441Y0017988D01*
X0059413Y0018292D01*
X0059378Y0018595D01*
X0059335Y0018897D01*
X0059285Y0019198D01*
X0059228Y0019498D01*
X0059163Y0019796D01*
X0059091Y0020092D01*
X0059012Y0020387D01*
X0058925Y0020680D01*
X0058832Y0020970D01*
X0058731Y0021258D01*
X0058623Y0021544D01*
X0058509Y0021827D01*
X0058387Y0022107D01*
X0058259Y0022384D01*
X0058124Y0022657D01*
X0057983Y0022927D01*
X0057834Y0023194D01*
X0057680Y0023457D01*
X0057519Y0023716D01*
X0057351Y0023972D01*
X0057178Y0024223D01*
X0056998Y0024469D01*
X0056812Y0024711D01*
X0056621Y0024949D01*
X0056424Y0025182D01*
X0056221Y0025410D01*
X0056012Y0025633D01*
X0055799Y0025851D01*
X0055580Y0026063D01*
X0055356Y0026270D01*
X0055126Y0026472D01*
X0054892Y0026668D01*
X0054654Y0026858D01*
X0054410Y0027042D01*
X0054163Y0027220D01*
X0053911Y0027392D01*
X0053654Y0027558D01*
X0053394Y0027717D01*
X0053130Y0027871D01*
X0052863Y0028017D01*
X0052592Y0028157D01*
X0052317Y0028291D01*
X0052040Y0028417D01*
X0051759Y0028537D01*
X0051475Y0028650D01*
X0051189Y0028756D01*
X0050901Y0028855D01*
X0050610Y0028947D01*
X0050316Y0029031D01*
X0050021Y0029109D01*
X0049724Y0029179D01*
X0049426Y0029242D01*
X0049126Y0029298D01*
X0048824Y0029346D01*
X0048522Y0029387D01*
X0048219Y0029420D01*
X0047915Y0029446D01*
X0047610Y0029465D01*
X0047305Y0029476D01*
X0047000Y0029480D01*
X0046695Y0029476D01*
X0046390Y0029465D01*
X0046085Y0029446D01*
X0045781Y0029420D01*
X0045478Y0029387D01*
X0045176Y0029346D01*
X0044874Y0029298D01*
X0044574Y0029242D01*
X0044276Y0029179D01*
X0043979Y0029109D01*
X0043684Y0029031D01*
X0043390Y0028947D01*
X0043099Y0028855D01*
X0042811Y0028756D01*
X0042525Y0028650D01*
X0042241Y0028537D01*
X0041960Y0028417D01*
X0041683Y0028291D01*
X0041408Y0028157D01*
X0041137Y0028017D01*
X0040870Y0027871D01*
X0040606Y0027717D01*
X0040346Y0027558D01*
X0040089Y0027392D01*
X0039837Y0027220D01*
X0039590Y0027042D01*
X0039346Y0026858D01*
X0039108Y0026668D01*
X0038874Y0026472D01*
X0038644Y0026270D01*
X0038420Y0026063D01*
X0038201Y0025851D01*
X0037988Y0025633D01*
X0037779Y0025410D01*
X0037576Y0025182D01*
X0037379Y0024949D01*
X0037188Y0024711D01*
X0037002Y0024469D01*
X0036822Y0024223D01*
X0036649Y0023972D01*
X0036481Y0023716D01*
X0036320Y0023457D01*
X0036166Y0023194D01*
X0036017Y0022927D01*
X0035876Y0022657D01*
X0035741Y0022384D01*
X0035613Y0022107D01*
X0035491Y0021827D01*
X0035377Y0021544D01*
X0035269Y0021258D01*
X0035168Y0020970D01*
X0035075Y0020680D01*
X0034988Y0020387D01*
X0034909Y0020092D01*
X0034837Y0019796D01*
X0034772Y0019498D01*
X0034715Y0019198D01*
X0034665Y0018897D01*
X0034622Y0018595D01*
X0034587Y0018292D01*
X0034559Y0017988D01*
X0034539Y0017683D01*
X0034526Y0017378D01*
X0034520Y0017073D01*
X0034522Y0016768D01*
X0034532Y0016463D01*
X0034548Y0016159D01*
X0034573Y0015854D01*
X0034604Y0015551D01*
X0034644Y0015248D01*
X0034690Y0014947D01*
X0034744Y0014646D01*
X0034805Y0014347D01*
X0034874Y0014050D01*
X0034949Y0013754D01*
X0035032Y0013461D01*
X0035122Y0013169D01*
X0035220Y0012880D01*
X0035324Y0012593D01*
X0035435Y0012309D01*
X0035553Y0012028D01*
X0035678Y0011749D01*
X0035810Y0011474D01*
X0035949Y0011202D01*
X0036094Y0010934D01*
X0036245Y0010669D01*
X0036403Y0010408D01*
X0036568Y0010151D01*
X0036738Y0009898D01*
X0036915Y0009649D01*
X0037098Y0009404D01*
X0037286Y0009165D01*
X0037481Y0008929D01*
X0037681Y0008699D01*
X0037887Y0008474D01*
X0038098Y0008253D01*
X0038314Y0008038D01*
X0038536Y0007829D01*
X0038763Y0007625D01*
X0038994Y0007426D01*
X0039231Y0007233D01*
X0039472Y0007046D01*
X0039528Y0007121D01*
X0039289Y0007307D01*
X0039054Y0007498D01*
X0038825Y0007695D01*
X0038600Y0007898D01*
X0038379Y0008106D01*
X0038165Y0008320D01*
X0037955Y0008538D01*
X0037751Y0008762D01*
X0037552Y0008990D01*
X0037359Y0009224D01*
X0037172Y0009462D01*
X0036991Y0009704D01*
X0036815Y0009951D01*
X0036646Y0010202D01*
X0036483Y0010458D01*
X0036326Y0010717D01*
X0036176Y0010980D01*
X0036032Y0011246D01*
X0035894Y0011516D01*
X0035763Y0011789D01*
X0035639Y0012065D01*
X0035522Y0012345D01*
X0035412Y0012627D01*
X0035308Y0012911D01*
X0035212Y0013198D01*
X0035122Y0013488D01*
X0035040Y0013779D01*
X0034965Y0014072D01*
X0034897Y0014368D01*
X0034836Y0014664D01*
X0034783Y0014962D01*
X0034737Y0015262D01*
X0034698Y0015562D01*
X0034666Y0015863D01*
X0034642Y0016165D01*
X0034625Y0016468D01*
X0034616Y0016770D01*
X0034614Y0017073D01*
X0034620Y0017376D01*
X0034633Y0017678D01*
X0034653Y0017981D01*
X0034681Y0018282D01*
X0034716Y0018583D01*
X0034758Y0018883D01*
X0034808Y0019182D01*
X0034865Y0019479D01*
X0034929Y0019775D01*
X0035000Y0020069D01*
X0035079Y0020362D01*
X0035165Y0020652D01*
X0035258Y0020941D01*
X0035357Y0021226D01*
X0035464Y0021510D01*
X0035578Y0021790D01*
X0035698Y0022068D01*
X0035826Y0022343D01*
X0035960Y0022615D01*
X0036100Y0022883D01*
X0036247Y0023148D01*
X0036401Y0023409D01*
X0036561Y0023666D01*
X0036727Y0023919D01*
X0036899Y0024168D01*
X0037077Y0024413D01*
X0037262Y0024654D01*
X0037452Y0024889D01*
X0037647Y0025120D01*
X0037849Y0025347D01*
X0038055Y0025568D01*
X0038268Y0025784D01*
X0038485Y0025995D01*
X0038707Y0026200D01*
X0038935Y0026400D01*
X0039167Y0026595D01*
X0039404Y0026783D01*
X0039646Y0026966D01*
X0039891Y0027143D01*
X0040142Y0027314D01*
X0040396Y0027478D01*
X0040654Y0027637D01*
X0040916Y0027789D01*
X0041181Y0027934D01*
X0041450Y0028073D01*
X0041723Y0028206D01*
X0041998Y0028331D01*
X0042277Y0028450D01*
X0042558Y0028562D01*
X0042842Y0028667D01*
X0043129Y0028766D01*
X0043418Y0028857D01*
X0043709Y0028941D01*
X0044002Y0029018D01*
X0044296Y0029087D01*
X0044593Y0029150D01*
X0044890Y0029205D01*
X0045189Y0029253D01*
X0045489Y0029294D01*
X0045791Y0029327D01*
X0046092Y0029353D01*
X0046395Y0029371D01*
X0046697Y0029382D01*
X0047000Y0029386D01*
X0047303Y0029382D01*
X0047605Y0029371D01*
X0047908Y0029353D01*
X0048209Y0029327D01*
X0048511Y0029294D01*
X0048811Y0029253D01*
X0049110Y0029205D01*
X0049407Y0029150D01*
X0049704Y0029087D01*
X0049998Y0029018D01*
X0050291Y0028941D01*
X0050582Y0028857D01*
X0050871Y0028766D01*
X0051158Y0028667D01*
X0051442Y0028562D01*
X0051723Y0028450D01*
X0052002Y0028331D01*
X0052277Y0028206D01*
X0052550Y0028073D01*
X0052819Y0027934D01*
X0053084Y0027789D01*
X0053346Y0027637D01*
X0053604Y0027478D01*
X0053858Y0027314D01*
X0054109Y0027143D01*
X0054354Y0026966D01*
X0054596Y0026783D01*
X0054833Y0026595D01*
X0055065Y0026400D01*
X0055293Y0026200D01*
X0055515Y0025995D01*
X0055732Y0025784D01*
X0055945Y0025568D01*
X0056151Y0025347D01*
X0056353Y0025120D01*
X0056548Y0024889D01*
X0056738Y0024654D01*
X0056923Y0024413D01*
X0057101Y0024168D01*
X0057273Y0023919D01*
X0057439Y0023666D01*
X0057599Y0023409D01*
X0057753Y0023148D01*
X0057900Y0022883D01*
X0058040Y0022615D01*
X0058174Y0022343D01*
X0058302Y0022068D01*
X0058422Y0021790D01*
X0058536Y0021510D01*
X0058643Y0021226D01*
X0058742Y0020941D01*
X0058835Y0020652D01*
X0058921Y0020362D01*
X0059000Y0020069D01*
X0059071Y0019775D01*
X0059135Y0019479D01*
X0059192Y0019182D01*
X0059242Y0018883D01*
X0059284Y0018583D01*
X0059319Y0018282D01*
X0059347Y0017981D01*
X0059367Y0017678D01*
X0059380Y0017376D01*
X0059386Y0017073D01*
X0059384Y0016770D01*
X0059375Y0016468D01*
X0059358Y0016165D01*
X0059334Y0015863D01*
X0059302Y0015562D01*
X0059263Y0015262D01*
X0059217Y0014962D01*
X0059164Y0014664D01*
X0059103Y0014368D01*
X0059035Y0014072D01*
X0058960Y0013779D01*
X0058878Y0013488D01*
X0058788Y0013198D01*
X0058692Y0012911D01*
X0058588Y0012627D01*
X0058478Y0012345D01*
X0058361Y0012065D01*
X0058237Y0011789D01*
X0058106Y0011516D01*
X0057968Y0011246D01*
X0057824Y0010980D01*
X0057674Y0010717D01*
X0057517Y0010458D01*
X0057354Y0010202D01*
X0057185Y0009951D01*
X0057009Y0009704D01*
X0056828Y0009462D01*
X0056641Y0009224D01*
X0056448Y0008990D01*
X0056249Y0008762D01*
X0056045Y0008538D01*
X0055835Y0008320D01*
X0055621Y0008106D01*
X0055400Y0007898D01*
X0055175Y0007695D01*
X0054946Y0007498D01*
X0054711Y0007307D01*
X0054472Y0007121D01*
X0054415Y0007196D01*
X0054653Y0007381D01*
X0054885Y0007571D01*
X0055114Y0007766D01*
X0055337Y0007967D01*
X0055555Y0008174D01*
X0055769Y0008386D01*
X0055977Y0008603D01*
X0056179Y0008825D01*
X0056376Y0009052D01*
X0056568Y0009283D01*
X0056754Y0009519D01*
X0056934Y0009760D01*
X0057108Y0010005D01*
X0057276Y0010254D01*
X0057438Y0010508D01*
X0057593Y0010765D01*
X0057742Y0011026D01*
X0057885Y0011290D01*
X0058022Y0011558D01*
X0058151Y0011829D01*
X0058274Y0012103D01*
X0058391Y0012380D01*
X0058500Y0012660D01*
X0058603Y0012943D01*
X0058699Y0013227D01*
X0058787Y0013515D01*
X0058869Y0013804D01*
X0058944Y0014095D01*
X0059011Y0014388D01*
X0059072Y0014682D01*
X0059125Y0014978D01*
X0059170Y0015275D01*
X0059209Y0015573D01*
X0059240Y0015872D01*
X0059264Y0016172D01*
X0059281Y0016472D01*
X0059290Y0016772D01*
X0059292Y0017073D01*
X0059286Y0017373D01*
X0059274Y0017674D01*
X0059253Y0017973D01*
X0059226Y0018273D01*
X0059191Y0018571D01*
X0059149Y0018869D01*
X0059100Y0019165D01*
X0059043Y0019460D01*
X0058979Y0019754D01*
X0058909Y0020046D01*
X0058831Y0020336D01*
X0058745Y0020625D01*
X0058653Y0020911D01*
X0058554Y0021195D01*
X0058448Y0021476D01*
X0058335Y0021754D01*
X0058216Y0022030D01*
X0058089Y0022303D01*
X0057956Y0022572D01*
X0057817Y0022838D01*
X0057671Y0023101D01*
X0057519Y0023360D01*
X0057360Y0023616D01*
X0057195Y0023867D01*
X0057024Y0024114D01*
X0056847Y0024357D01*
X0056664Y0024596D01*
X0056476Y0024830D01*
X0056282Y0025059D01*
X0056082Y0025283D01*
X0055877Y0025503D01*
X0055666Y0025717D01*
X0055450Y0025927D01*
X0055230Y0026131D01*
X0055004Y0026329D01*
X0054773Y0026522D01*
X0054538Y0026709D01*
X0054299Y0026891D01*
X0054055Y0027066D01*
X0053806Y0027236D01*
X0053554Y0027399D01*
X0053298Y0027556D01*
X0053038Y0027707D01*
X0052774Y0027851D01*
X0052507Y0027989D01*
X0052237Y0028121D01*
X0051964Y0028245D01*
X0051687Y0028363D01*
X0051408Y0028474D01*
X0051126Y0028579D01*
X0050842Y0028676D01*
X0050555Y0028767D01*
X0050266Y0028850D01*
X0049976Y0028926D01*
X0049683Y0028996D01*
X0049389Y0029058D01*
X0049094Y0029112D01*
X0048797Y0029160D01*
X0048499Y0029200D01*
X0048200Y0029233D01*
X0047901Y0029259D01*
X0047601Y0029277D01*
X0047301Y0029288D01*
X0047000Y0029292D01*
X0046699Y0029288D01*
X0046399Y0029277D01*
X0046099Y0029259D01*
X0045800Y0029233D01*
X0045501Y0029200D01*
X0045203Y0029160D01*
X0044906Y0029112D01*
X0044611Y0029058D01*
X0044317Y0028996D01*
X0044024Y0028926D01*
X0043734Y0028850D01*
X0043445Y0028767D01*
X0043158Y0028676D01*
X0042874Y0028579D01*
X0042592Y0028474D01*
X0042313Y0028363D01*
X0042036Y0028245D01*
X0041763Y0028121D01*
X0041493Y0027989D01*
X0041226Y0027851D01*
X0040962Y0027707D01*
X0040702Y0027556D01*
X0040446Y0027399D01*
X0040194Y0027236D01*
X0039945Y0027066D01*
X0039701Y0026891D01*
X0039462Y0026709D01*
X0039227Y0026522D01*
X0038996Y0026329D01*
X0038770Y0026131D01*
X0038550Y0025927D01*
X0038334Y0025717D01*
X0038123Y0025503D01*
X0037918Y0025283D01*
X0037718Y0025059D01*
X0037524Y0024830D01*
X0037336Y0024596D01*
X0037153Y0024357D01*
X0036976Y0024114D01*
X0036805Y0023867D01*
X0036640Y0023616D01*
X0036481Y0023360D01*
X0036329Y0023101D01*
X0036183Y0022838D01*
X0036044Y0022572D01*
X0035911Y0022303D01*
X0035784Y0022030D01*
X0035665Y0021754D01*
X0035552Y0021476D01*
X0035446Y0021195D01*
X0035347Y0020911D01*
X0035255Y0020625D01*
X0035169Y0020336D01*
X0035091Y0020046D01*
X0035021Y0019754D01*
X0034957Y0019460D01*
X0034900Y0019165D01*
X0034851Y0018869D01*
X0034809Y0018571D01*
X0034774Y0018273D01*
X0034747Y0017973D01*
X0034726Y0017674D01*
X0034714Y0017373D01*
X0034708Y0017073D01*
X0034710Y0016772D01*
X0034719Y0016472D01*
X0034736Y0016172D01*
X0034760Y0015872D01*
X0034791Y0015573D01*
X0034830Y0015275D01*
X0034875Y0014978D01*
X0034928Y0014682D01*
X0034989Y0014388D01*
X0035056Y0014095D01*
X0035131Y0013804D01*
X0035213Y0013515D01*
X0035301Y0013227D01*
X0035397Y0012943D01*
X0035500Y0012660D01*
X0035609Y0012380D01*
X0035726Y0012103D01*
X0035849Y0011829D01*
X0035978Y0011558D01*
X0036115Y0011290D01*
X0036258Y0011026D01*
X0036407Y0010765D01*
X0036562Y0010508D01*
X0036724Y0010254D01*
X0036892Y0010005D01*
X0037066Y0009760D01*
X0037246Y0009519D01*
X0037432Y0009283D01*
X0037624Y0009052D01*
X0037821Y0008825D01*
X0038023Y0008603D01*
X0038231Y0008386D01*
X0038445Y0008174D01*
X0038663Y0007967D01*
X0038886Y0007766D01*
X0039115Y0007571D01*
X0039347Y0007381D01*
X0039585Y0007196D01*
X0039641Y0007272D01*
X0039406Y0007454D01*
X0039175Y0007643D01*
X0038948Y0007837D01*
X0038726Y0008037D01*
X0038510Y0008242D01*
X0038298Y0008452D01*
X0038092Y0008667D01*
X0037891Y0008887D01*
X0037695Y0009113D01*
X0037505Y0009342D01*
X0037321Y0009577D01*
X0037142Y0009816D01*
X0036969Y0010059D01*
X0036803Y0010306D01*
X0036642Y0010558D01*
X0036488Y0010813D01*
X0036340Y0011072D01*
X0036198Y0011334D01*
X0036063Y0011600D01*
X0035934Y0011869D01*
X0035812Y0012141D01*
X0035696Y0012416D01*
X0035587Y0012694D01*
X0035486Y0012974D01*
X0035391Y0013257D01*
X0035303Y0013542D01*
X0035222Y0013829D01*
X0035147Y0014117D01*
X0035081Y0014408D01*
X0035021Y0014700D01*
X0034968Y0014994D01*
X0034923Y0015289D01*
X0034884Y0015584D01*
X0034853Y0015881D01*
X0034830Y0016178D01*
X0034813Y0016476D01*
X0034804Y0016774D01*
X0034802Y0017072D01*
X0034808Y0017371D01*
X0034820Y0017669D01*
X0034840Y0017966D01*
X0034868Y0018263D01*
X0034902Y0018559D01*
X0034944Y0018855D01*
X0034993Y0019149D01*
X0035049Y0019442D01*
X0035112Y0019733D01*
X0035183Y0020023D01*
X0035260Y0020311D01*
X0035344Y0020597D01*
X0035436Y0020881D01*
X0035534Y0021163D01*
X0035639Y0021442D01*
X0035751Y0021718D01*
X0035870Y0021992D01*
X0035995Y0022262D01*
X0036127Y0022530D01*
X0036266Y0022794D01*
X0036411Y0023055D01*
X0036562Y0023312D01*
X0036719Y0023565D01*
X0036883Y0023814D01*
X0037053Y0024060D01*
X0037228Y0024301D01*
X0037410Y0024538D01*
X0037597Y0024770D01*
X0037789Y0024997D01*
X0037988Y0025220D01*
X0038191Y0025438D01*
X0038400Y0025651D01*
X0038614Y0025859D01*
X0038834Y0026061D01*
X0039057Y0026258D01*
X0039286Y0026449D01*
X0039520Y0026635D01*
X0039757Y0026815D01*
X0039999Y0026989D01*
X0040246Y0027157D01*
X0040496Y0027319D01*
X0040750Y0027475D01*
X0041008Y0027625D01*
X0041270Y0027768D01*
X0041535Y0027905D01*
X0041803Y0028036D01*
X0042074Y0028159D01*
X0042349Y0028276D01*
X0042626Y0028387D01*
X0042906Y0028490D01*
X0043188Y0028587D01*
X0043472Y0028677D01*
X0043759Y0028759D01*
X0044047Y0028835D01*
X0044337Y0028904D01*
X0044629Y0028965D01*
X0044922Y0029020D01*
X0045217Y0029067D01*
X0045512Y0029107D01*
X0045809Y0029140D01*
X0046106Y0029165D01*
X0046404Y0029183D01*
X0046702Y0029194D01*
X0047000Y0029198D01*
X0047298Y0029194D01*
X0047596Y0029183D01*
X0047894Y0029165D01*
X0048191Y0029140D01*
X0048488Y0029107D01*
X0048783Y0029067D01*
X0049078Y0029020D01*
X0049371Y0028965D01*
X0049663Y0028904D01*
X0049953Y0028835D01*
X0050241Y0028759D01*
X0050528Y0028677D01*
X0050812Y0028587D01*
X0051094Y0028490D01*
X0051374Y0028387D01*
X0051651Y0028276D01*
X0051926Y0028159D01*
X0052197Y0028036D01*
X0052465Y0027905D01*
X0052730Y0027768D01*
X0052992Y0027625D01*
X0053250Y0027475D01*
X0053504Y0027319D01*
X0053754Y0027157D01*
X0054001Y0026989D01*
X0054243Y0026815D01*
X0054480Y0026635D01*
X0054714Y0026449D01*
X0054943Y0026258D01*
X0055166Y0026061D01*
X0055386Y0025859D01*
X0055600Y0025651D01*
X0055809Y0025438D01*
X0056012Y0025220D01*
X0056211Y0024997D01*
X0056403Y0024770D01*
X0056590Y0024538D01*
X0056772Y0024301D01*
X0056947Y0024060D01*
X0057117Y0023814D01*
X0057281Y0023565D01*
X0057438Y0023312D01*
X0057589Y0023055D01*
X0057734Y0022794D01*
X0057873Y0022530D01*
X0058005Y0022262D01*
X0058130Y0021992D01*
X0058249Y0021718D01*
X0058361Y0021442D01*
X0058466Y0021163D01*
X0058564Y0020881D01*
X0058656Y0020597D01*
X0058740Y0020311D01*
X0058817Y0020023D01*
X0058888Y0019733D01*
X0058951Y0019442D01*
X0059007Y0019149D01*
X0059056Y0018855D01*
X0059098Y0018559D01*
X0059132Y0018263D01*
X0059160Y0017966D01*
X0059180Y0017669D01*
X0059192Y0017371D01*
X0059198Y0017072D01*
X0059196Y0016774D01*
X0059187Y0016476D01*
X0059170Y0016178D01*
X0059147Y0015881D01*
X0059116Y0015584D01*
X0059077Y0015289D01*
X0059032Y0014994D01*
X0058979Y0014700D01*
X0058919Y0014408D01*
X0058853Y0014117D01*
X0058778Y0013829D01*
X0058697Y0013542D01*
X0058609Y0013257D01*
X0058514Y0012974D01*
X0058413Y0012694D01*
X0058304Y0012416D01*
X0058188Y0012141D01*
X0058066Y0011869D01*
X0057937Y0011600D01*
X0057802Y0011334D01*
X0057660Y0011072D01*
X0057512Y0010813D01*
X0057358Y0010558D01*
X0057197Y0010306D01*
X0057031Y0010059D01*
X0056858Y0009816D01*
X0056679Y0009577D01*
X0056495Y0009342D01*
X0056305Y0009113D01*
X0056109Y0008887D01*
X0055908Y0008667D01*
X0055702Y0008452D01*
X0055490Y0008242D01*
X0055274Y0008037D01*
X0055052Y0007837D01*
X0054825Y0007643D01*
X0054594Y0007454D01*
X0054359Y0007272D01*
X0054302Y0007347D01*
X0054536Y0007528D01*
X0054765Y0007715D01*
X0054990Y0007908D01*
X0055210Y0008106D01*
X0055425Y0008309D01*
X0055635Y0008518D01*
X0055840Y0008732D01*
X0056039Y0008950D01*
X0056233Y0009174D01*
X0056422Y0009402D01*
X0056605Y0009634D01*
X0056782Y0009871D01*
X0056953Y0010113D01*
X0057119Y0010358D01*
X0057278Y0010607D01*
X0057431Y0010861D01*
X0057578Y0011117D01*
X0057719Y0011378D01*
X0057853Y0011642D01*
X0057981Y0011909D01*
X0058102Y0012179D01*
X0058217Y0012451D01*
X0058325Y0012727D01*
X0058426Y0013005D01*
X0058520Y0013286D01*
X0058607Y0013568D01*
X0058688Y0013853D01*
X0058761Y0014140D01*
X0058828Y0014428D01*
X0058887Y0014718D01*
X0058939Y0015010D01*
X0058984Y0015302D01*
X0059022Y0015596D01*
X0059053Y0015890D01*
X0059077Y0016185D01*
X0059093Y0016480D01*
X0059102Y0016776D01*
X0059104Y0017072D01*
X0059098Y0017368D01*
X0059086Y0017664D01*
X0059066Y0017959D01*
X0059039Y0018254D01*
X0059005Y0018548D01*
X0058963Y0018841D01*
X0058915Y0019133D01*
X0058859Y0019423D01*
X0058796Y0019712D01*
X0058726Y0020000D01*
X0058649Y0020286D01*
X0058566Y0020570D01*
X0058475Y0020851D01*
X0058377Y0021131D01*
X0058273Y0021408D01*
X0058162Y0021682D01*
X0058044Y0021953D01*
X0057920Y0022222D01*
X0057789Y0022487D01*
X0057651Y0022749D01*
X0057508Y0023008D01*
X0057358Y0023263D01*
X0057201Y0023515D01*
X0057039Y0023762D01*
X0056871Y0024005D01*
X0056696Y0024245D01*
X0056516Y0024480D01*
X0056331Y0024710D01*
X0056139Y0024936D01*
X0055943Y0025157D01*
X0055741Y0025373D01*
X0055533Y0025584D01*
X0055321Y0025790D01*
X0055103Y0025991D01*
X0054881Y0026187D01*
X0054654Y0026377D01*
X0054423Y0026561D01*
X0054187Y0026739D01*
X0053947Y0026912D01*
X0053702Y0027079D01*
X0053454Y0027240D01*
X0053201Y0027395D01*
X0052945Y0027543D01*
X0052686Y0027685D01*
X0052423Y0027821D01*
X0052157Y0027951D01*
X0051888Y0028073D01*
X0051615Y0028190D01*
X0051340Y0028299D01*
X0051063Y0028402D01*
X0050783Y0028498D01*
X0050501Y0028587D01*
X0050216Y0028669D01*
X0049930Y0028744D01*
X0049642Y0028812D01*
X0049353Y0028873D01*
X0049062Y0028927D01*
X0048769Y0028974D01*
X0048476Y0029014D01*
X0048182Y0029046D01*
X0047887Y0029071D01*
X0047592Y0029090D01*
X0047296Y0029100D01*
X0047000Y0029104D01*
X0046704Y0029100D01*
X0046408Y0029090D01*
X0046113Y0029071D01*
X0045818Y0029046D01*
X0045524Y0029014D01*
X0045231Y0028974D01*
X0044938Y0028927D01*
X0044647Y0028873D01*
X0044358Y0028812D01*
X0044070Y0028744D01*
X0043784Y0028669D01*
X0043499Y0028587D01*
X0043217Y0028498D01*
X0042937Y0028402D01*
X0042660Y0028299D01*
X0042385Y0028190D01*
X0042112Y0028073D01*
X0041843Y0027951D01*
X0041577Y0027821D01*
X0041314Y0027685D01*
X0041055Y0027543D01*
X0040799Y0027395D01*
X0040546Y0027240D01*
X0040298Y0027079D01*
X0040053Y0026912D01*
X0039813Y0026739D01*
X0039577Y0026561D01*
X0039346Y0026377D01*
X0039119Y0026187D01*
X0038897Y0025991D01*
X0038679Y0025790D01*
X0038467Y0025584D01*
X0038259Y0025373D01*
X0038057Y0025157D01*
X0037861Y0024936D01*
X0037669Y0024710D01*
X0037484Y0024480D01*
X0037304Y0024245D01*
X0037129Y0024005D01*
X0036961Y0023762D01*
X0036799Y0023515D01*
X0036642Y0023263D01*
X0036492Y0023008D01*
X0036349Y0022749D01*
X0036211Y0022487D01*
X0036080Y0022222D01*
X0035956Y0021953D01*
X0035838Y0021682D01*
X0035727Y0021408D01*
X0035623Y0021131D01*
X0035525Y0020851D01*
X0035434Y0020570D01*
X0035351Y0020286D01*
X0035274Y0020000D01*
X0035204Y0019712D01*
X0035141Y0019423D01*
X0035085Y0019133D01*
X0035037Y0018841D01*
X0034995Y0018548D01*
X0034961Y0018254D01*
X0034934Y0017959D01*
X0034914Y0017664D01*
X0034902Y0017368D01*
X0034896Y0017072D01*
X0034898Y0016776D01*
X0034907Y0016480D01*
X0034923Y0016185D01*
X0034947Y0015890D01*
X0034978Y0015596D01*
X0035016Y0015302D01*
X0035061Y0015010D01*
X0035113Y0014718D01*
X0035172Y0014428D01*
X0035239Y0014140D01*
X0035312Y0013853D01*
X0035393Y0013568D01*
X0035480Y0013286D01*
X0035574Y0013005D01*
X0035675Y0012727D01*
X0035783Y0012451D01*
X0035898Y0012179D01*
X0036019Y0011909D01*
X0036147Y0011642D01*
X0036281Y0011378D01*
X0036422Y0011117D01*
X0036569Y0010861D01*
X0036722Y0010607D01*
X0036881Y0010358D01*
X0037047Y0010113D01*
X0037218Y0009871D01*
X0037395Y0009634D01*
X0037578Y0009402D01*
X0037767Y0009174D01*
X0037961Y0008950D01*
X0038160Y0008732D01*
X0038365Y0008518D01*
X0038575Y0008309D01*
X0038790Y0008106D01*
X0039010Y0007908D01*
X0039235Y0007715D01*
X0039464Y0007528D01*
X0039698Y0007347D01*
D15*
X0019106Y0044236D02*
X0017106Y0044236D01*
X0017106Y0054063D02*
X0019106Y0054063D01*
X0019106Y0063921D02*
X0017106Y0063921D01*
X0017106Y0073764D02*
X0019106Y0073764D01*
X0127894Y0073764D02*
X0129894Y0073764D01*
X0129894Y0063937D02*
X0127894Y0063937D01*
X0127894Y0054079D02*
X0129894Y0054079D01*
X0129894Y0044236D02*
X0127894Y0044236D01*
D16*
X0102146Y0032186D02*
X0099144Y0032186D01*
X0100645Y0032186D02*
X0100645Y0036690D01*
X0099144Y0035189D01*
X0047255Y0035566D02*
X0044252Y0035566D01*
X0046504Y0037818D01*
X0046504Y0033314D01*
X0100896Y0080186D02*
X0100896Y0084690D01*
X0098644Y0082438D01*
X0101646Y0082438D01*
X0046755Y0081314D02*
X0043752Y0081314D01*
X0045254Y0081314D02*
X0045254Y0085818D01*
X0043752Y0084316D01*
D17*
X0031606Y0073764D03*
X0031606Y0063964D03*
X0031606Y0054064D03*
X0031606Y0044264D03*
X0115394Y0044236D03*
X0115394Y0054036D03*
X0115394Y0063936D03*
X0115394Y0073736D03*
M02*
